<svg width="28" height="13" viewBox="0 0 28 13" fill="none" xmlns="http://www.w3.org/2000/svg">
<path d="M21.9632 12.6947L27.6783 7.2431C27.6786 7.24278 27.6789 7.24242 27.6793 7.2421C28.1076 6.83229 28.1062 6.16635 27.6792 5.7579C27.6789 5.75759 27.6786 5.75722 27.6782 5.7569L21.9631 0.305287C21.535 -0.103113 20.8424 -0.101593 20.4163 0.308851C19.9902 0.719242 19.9918 1.38303 20.42 1.79148L24.2571 5.45161L1.09375 5.45161C0.489671 5.45161 -2.58814e-07 5.92097 -2.84124e-07 6.5C-3.09434e-07 7.07902 0.489671 7.54839 1.09375 7.54839L24.2571 7.54839L20.4201 11.2085C19.9919 11.617 19.9903 12.2808 20.4164 12.6911C20.8426 13.1016 21.5352 13.1031 21.9632 12.6947Z" fill="#171717"/>
</svg>
