<svg width="502" height="218" viewBox="0 0 502 218" fill="none" xmlns="http://www.w3.org/2000/svg">
<path d="M19.152 38.48C15.792 38.48 12.848 37.792 10.32 36.416C7.792 35.04 5.824 33.184 4.416 30.848C3.04 28.48 2.352 25.808 2.352 22.832C2.352 20.432 2.832 18.208 3.792 16.16C4.752 14.112 6.048 12.32 7.68 10.784C9.344 9.216 11.216 8 13.296 7.136C15.408 6.272 17.616 5.84 19.92 5.84C21.616 5.84 23.024 5.936 24.144 6.128C25.264 6.32 26.272 6.592 27.168 6.944C28.064 7.296 28.96 7.696 29.856 8.144L30.384 17.12H29.52L24.96 9.68C24.16 9.168 23.408 8.8 22.704 8.576C22 8.352 21.152 8.24 20.16 8.24C18.208 8.24 16.448 8.832 14.88 10.016C13.344 11.168 12.128 12.816 11.232 14.96C10.336 17.072 9.888 19.536 9.888 22.352C9.888 25.136 10.32 27.552 11.184 29.6C12.048 31.616 13.216 33.184 14.688 34.304C16.192 35.392 17.872 35.936 19.728 35.936C20.912 35.936 21.968 35.792 22.896 35.504C23.856 35.184 24.768 34.784 25.632 34.304L29.952 27.872H30.768L30.096 35.984C28.784 36.752 27.2 37.36 25.344 37.808C23.52 38.256 21.456 38.48 19.152 38.48ZM53.037 38.48C50.669 38.48 48.477 38.08 46.461 37.28C44.445 36.448 42.685 35.312 41.181 33.872C39.709 32.4 38.557 30.672 37.725 28.688C36.893 26.704 36.477 24.528 36.477 22.16C36.477 19.792 36.893 17.616 37.725 15.632C38.557 13.648 39.709 11.936 41.181 10.496C42.685 9.024 44.445 7.888 46.461 7.088C48.477 6.256 50.669 5.84 53.037 5.84C55.437 5.84 57.645 6.256 59.661 7.088C61.677 7.888 63.421 9.024 64.893 10.496C66.397 11.936 67.565 13.648 68.397 15.632C69.229 17.616 69.645 19.792 69.645 22.16C69.645 24.528 69.229 26.704 68.397 28.688C67.565 30.672 66.397 32.4 64.893 33.872C63.421 35.312 61.677 36.448 59.661 37.28C57.645 38.08 55.437 38.48 53.037 38.48ZM53.805 35.984C55.405 35.984 56.813 35.472 58.029 34.448C59.277 33.424 60.237 31.984 60.909 30.128C61.613 28.272 61.965 26.096 61.965 23.6C61.965 20.528 61.533 17.84 60.669 15.536C59.837 13.232 58.701 11.456 57.261 10.208C55.821 8.928 54.205 8.288 52.413 8.288C50.813 8.288 49.389 8.8 48.141 9.824C46.893 10.816 45.901 12.24 45.165 14.096C44.461 15.952 44.109 18.128 44.109 20.624C44.109 23.696 44.541 26.384 45.405 28.688C46.269 30.992 47.437 32.784 48.909 34.064C50.381 35.344 52.013 35.984 53.805 35.984ZM73.9223 38V37.232L78.0023 35.264L79.0103 9.056L74.7863 7.088V6.32L86.6903 6.32L96.3383 28.64L105.89 6.32L117.41 6.32V7.088L113.234 8.576L114.05 35.264L117.698 37.232V38L103.154 38V37.232L106.994 35.312L106.514 12.512L95.5703 38.24H92.8823L81.8423 12.608L81.2183 35.312L85.3943 37.232V38H73.9223ZM121.784 38V37.232L125.864 35.264V9.056L121.784 7.088V6.32L147.464 6.32V14.624H146.696L143.432 8.96L133.112 8.96V20.48H140.024L142.712 16.352H143.48V26.864H142.712L140.024 22.832H133.112V35.264L138.008 37.232V38H121.784ZM168.865 38.48C166.497 38.48 164.305 38.08 162.289 37.28C160.273 36.448 158.513 35.312 157.009 33.872C155.537 32.4 154.385 30.672 153.553 28.688C152.721 26.704 152.305 24.528 152.305 22.16C152.305 19.792 152.721 17.616 153.553 15.632C154.385 13.648 155.537 11.936 157.009 10.496C158.513 9.024 160.273 7.888 162.289 7.088C164.305 6.256 166.497 5.84 168.865 5.84C171.265 5.84 173.473 6.256 175.489 7.088C177.505 7.888 179.249 9.024 180.721 10.496C182.225 11.936 183.393 13.648 184.225 15.632C185.057 17.616 185.473 19.792 185.473 22.16C185.473 24.528 185.057 26.704 184.225 28.688C183.393 30.672 182.225 32.4 180.721 33.872C179.249 35.312 177.505 36.448 175.489 37.28C173.473 38.08 171.265 38.48 168.865 38.48ZM169.633 35.984C171.233 35.984 172.641 35.472 173.857 34.448C175.105 33.424 176.065 31.984 176.737 30.128C177.441 28.272 177.793 26.096 177.793 23.6C177.793 20.528 177.361 17.84 176.497 15.536C175.665 13.232 174.529 11.456 173.089 10.208C171.649 8.928 170.033 8.288 168.241 8.288C166.641 8.288 165.217 8.8 163.969 9.824C162.721 10.816 161.729 12.24 160.993 14.096C160.289 15.952 159.937 18.128 159.937 20.624C159.937 23.696 160.369 26.384 161.233 28.688C162.097 30.992 163.265 32.784 164.737 34.064C166.209 35.344 167.841 35.984 169.633 35.984ZM189.94 38V37.232L194.02 35.264V9.056L189.94 7.088V6.32L206.356 6.32C209.716 6.32 212.356 7.024 214.276 8.432C216.228 9.808 217.204 11.712 217.204 14.144C217.204 15.904 216.612 17.424 215.428 18.704C214.244 19.952 212.692 20.944 210.772 21.68L219.652 35.312L223.108 37.232V38H212.692L203.812 23.312H201.268V35.216L204.868 37.232V38L189.94 38ZM203.188 8.96H201.268V20.96H203.476C205.46 20.96 207.028 20.4 208.18 19.28C209.332 18.16 209.908 16.704 209.908 14.912C209.908 13.024 209.332 11.568 208.18 10.544C207.06 9.488 205.396 8.96 203.188 8.96ZM230.346 38V37.232L235.434 35.264V8.96H228.57L224.73 16.88H223.962V6.32L254.154 6.32V16.88L253.386 16.88L249.546 8.96L242.682 8.96V35.264L247.77 37.232V38L230.346 38ZM255.068 38V37.232L257.996 35.6L270.524 6.08L274.748 6.08L287.132 35.504L290.396 37.232V38L275.228 38V37.232L279.404 35.504L276.14 27.536H264.764L261.5 35.504L265.484 37.232V38H255.068ZM265.868 24.896H275.036L270.476 13.712L265.868 24.896ZM291.865 38V37.232L294.793 35.6L307.321 6.08H311.545L323.929 35.504L327.193 37.232V38H312.025V37.232L316.201 35.504L312.937 27.536H301.561L298.297 35.504L302.281 37.232V38H291.865ZM302.665 24.896H311.833L307.273 13.712L302.665 24.896ZM342.237 38V37.232L346.317 35.264V9.056L342.237 7.088V6.32L357.597 6.32C359.901 6.32 361.949 6.592 363.741 7.136C365.565 7.648 366.989 8.432 368.013 9.488C369.069 10.512 369.597 11.824 369.597 13.424C369.597 15.056 368.973 16.56 367.725 17.936C366.509 19.312 364.749 20.272 362.445 20.816C365.549 21.232 367.981 22.144 369.741 23.552C371.533 24.928 372.429 26.672 372.429 28.784C372.429 30.544 371.837 32.128 370.653 33.536C369.469 34.912 367.837 36 365.757 36.8C363.709 37.6 361.373 38 358.749 38H342.237ZM355.197 8.96H353.565V20.48H355.485C357.597 20.48 359.245 19.984 360.429 18.992C361.613 17.968 362.205 16.592 362.205 14.864C362.205 10.928 359.869 8.96 355.197 8.96ZM356.877 22.832H353.565V35.36H357.213C359.581 35.36 361.421 34.768 362.733 33.584C364.077 32.4 364.749 30.88 364.749 29.024C364.749 26.912 364.061 25.36 362.685 24.368C361.341 23.344 359.405 22.832 356.877 22.832ZM393.771 38.48C391.403 38.48 389.211 38.08 387.195 37.28C385.179 36.448 383.419 35.312 381.915 33.872C380.443 32.4 379.291 30.672 378.459 28.688C377.627 26.704 377.211 24.528 377.211 22.16C377.211 19.792 377.627 17.616 378.459 15.632C379.291 13.648 380.443 11.936 381.915 10.496C383.419 9.024 385.179 7.888 387.195 7.088C389.211 6.256 391.403 5.84 393.771 5.84C396.171 5.84 398.379 6.256 400.395 7.088C402.411 7.888 404.155 9.024 405.627 10.496C407.131 11.936 408.299 13.648 409.131 15.632C409.963 17.616 410.379 19.792 410.379 22.16C410.379 24.528 409.963 26.704 409.131 28.688C408.299 30.672 407.131 32.4 405.627 33.872C404.155 35.312 402.411 36.448 400.395 37.28C398.379 38.08 396.171 38.48 393.771 38.48ZM394.539 35.984C396.139 35.984 397.547 35.472 398.763 34.448C400.011 33.424 400.971 31.984 401.643 30.128C402.347 28.272 402.699 26.096 402.699 23.6C402.699 20.528 402.267 17.84 401.403 15.536C400.571 13.232 399.435 11.456 397.995 10.208C396.555 8.928 394.939 8.288 393.147 8.288C391.547 8.288 390.123 8.8 388.875 9.824C387.627 10.816 386.635 12.24 385.899 14.096C385.195 15.952 384.843 18.128 384.843 20.624C384.843 23.696 385.275 26.384 386.139 28.688C387.003 30.992 388.171 32.784 389.643 34.064C391.115 35.344 392.747 35.984 394.539 35.984ZM414.846 38V37.232L418.926 35.264V9.056L414.846 7.088V6.32L430.734 6.32V7.088L426.174 9.056V35.36H436.734L440.622 26.288H441.39V38L414.846 38ZM445.831 38V37.232L449.911 35.264V9.056L445.831 7.088V6.32L462.199 6.32C466.007 6.32 469.239 6.944 471.895 8.192C474.551 9.44 476.567 11.152 477.943 13.328C479.351 15.504 480.055 17.968 480.055 20.72C480.055 23.216 479.591 25.52 478.663 27.632C477.767 29.744 476.503 31.568 474.871 33.104C473.239 34.64 471.319 35.84 469.111 36.704C466.903 37.568 464.487 38 461.863 38H445.831ZM460.231 8.96L457.159 8.96V35.36H460.903C464.615 35.36 467.479 34.176 469.495 31.808C471.511 29.408 472.519 26.208 472.519 22.208C472.519 18.176 471.479 14.96 469.399 12.56C467.351 10.16 464.295 8.96 460.231 8.96Z" fill="white"/>
<path d="M0.38 104L0.38 103.68L1.6 103L6.82 90.7H8.58L13.74 102.96L15.1 103.68V104H8.78V103.68L10.52 102.96L9.16 99.64H4.42L3.06 102.96L4.72 103.68V104H0.38ZM4.88 98.54H8.7L6.8 93.88L4.88 98.54ZM18.4302 104.18C17.7768 104.18 17.2168 103.987 16.7502 103.6C16.2835 103.2 16.0635 102.627 16.0902 101.88C16.0902 101.4 16.1835 100.993 16.3702 100.66C16.5568 100.313 16.8835 100.013 17.3502 99.76C17.8168 99.5067 18.4702 99.2733 19.3102 99.06L21.1902 98.6V97.36C21.1902 96.8533 21.0368 96.4467 20.7302 96.14C20.4235 95.8333 20.0302 95.68 19.5502 95.68C19.1235 95.68 18.8168 95.7733 18.6302 95.96C18.4435 96.1467 18.3502 96.4267 18.3502 96.8V97.72L18.2702 97.8H16.9502C16.7502 97.8 16.6102 97.7533 16.5302 97.66C16.4502 97.5667 16.4102 97.4067 16.4102 97.18C16.4102 96.8867 16.5235 96.6 16.7502 96.32C16.9902 96.04 17.3035 95.78 17.6902 95.54C18.1702 95.2333 18.6168 95.0133 19.0302 94.88C19.4568 94.7467 19.9168 94.68 20.4102 94.68C21.0635 94.68 21.6635 94.7667 22.2102 94.94C22.7568 95.1133 23.1902 95.3933 23.5102 95.78C23.8435 96.1533 24.0102 96.64 24.0102 97.24V102.52C24.2235 102.733 24.5435 102.84 24.9702 102.84H25.5502L25.6102 102.9V103.18C25.4635 103.433 25.2102 103.667 24.8502 103.88C24.5035 104.093 24.0502 104.2 23.4902 104.2C22.9302 104.2 22.4702 104.087 22.1102 103.86C21.7635 103.62 21.4968 103.28 21.3102 102.84H21.1902C20.8568 103.213 20.4568 103.533 19.9902 103.8C19.5235 104.053 19.0035 104.18 18.4302 104.18ZM18.7302 101.32C18.7302 101.747 18.8435 102.067 19.0702 102.28C19.3102 102.48 19.6368 102.58 20.0502 102.58C20.4102 102.58 20.7902 102.5 21.1902 102.34V99.4C20.5235 99.5467 20.0102 99.7067 19.6502 99.88C19.3035 100.053 19.0635 100.253 18.9302 100.48C18.7968 100.707 18.7302 100.987 18.7302 101.32ZM48.2036 104H41.5636V103.68L43.2636 102.86V91.94L41.5636 91.12V90.8L52.6236 90.8V94.5H52.3036L50.7636 91.9L46.2836 91.9V96.38H48.2036C49.3369 96.38 50.3369 96.52 51.2036 96.8C52.0703 97.0667 52.7503 97.4667 53.2436 98C53.7369 98.5333 53.9836 99.2 53.9836 100C53.9836 100.813 53.7369 101.52 53.2436 102.12C52.7503 102.72 52.0703 103.187 51.2036 103.52C50.3369 103.84 49.3369 104 48.2036 104ZM47.5436 97.36H46.2836V102.9H47.6836C48.7236 102.9 49.5169 102.64 50.0636 102.12C50.6236 101.6 50.9036 100.927 50.9036 100.1C50.9036 99.1533 50.6236 98.46 50.0636 98.02C49.5036 97.58 48.6636 97.36 47.5436 97.36ZM64.28 89.04H64.78L64.86 89.12V89.82C64.86 90.66 64.6333 91.3267 64.18 91.82C63.74 92.3 63.0133 92.5533 62 92.58C61.3733 92.5933 60.8733 92.6067 60.5 92.62C60.14 92.6333 59.8533 92.6533 59.64 92.68C59.4267 92.6933 59.2467 92.72 59.1 92.76C58.6867 92.8933 58.4533 93.3067 58.4 94C58.3867 94.2 58.4 94.4467 58.44 94.74C58.4933 95.02 58.5333 95.4 58.56 95.88C58.84 95.64 59.1733 95.4467 59.56 95.3C59.96 95.1533 60.4333 95.08 60.98 95.08C61.7667 95.08 62.48 95.26 63.12 95.62C63.7733 95.9667 64.2867 96.4733 64.66 97.14C65.0467 97.7933 65.24 98.58 65.24 99.5C65.24 100.447 65.02 101.273 64.58 101.98C64.1533 102.687 63.58 103.233 62.86 103.62C62.1533 104.007 61.3667 104.2 60.5 104.2C59.42 104.2 58.5267 103.96 57.82 103.48C57.1133 103 56.58 102.353 56.22 101.54C55.8733 100.727 55.7 99.82 55.7 98.82C55.7 97.5267 55.9133 96.3133 56.34 95.18C56.7667 94.0333 57.4867 93.0267 58.5 92.16C59.5267 91.28 60.92 90.6067 62.68 90.14C63.3467 89.9533 63.78 89.7933 63.98 89.66C64.18 89.5133 64.28 89.3067 64.28 89.04ZM58.58 99C58.58 100.44 58.7733 101.507 59.16 102.2C59.56 102.88 60.0733 103.22 60.7 103.22C61.14 103.22 61.5267 102.98 61.86 102.5C62.1933 102.02 62.36 101.187 62.36 100C62.36 98.8267 62.2 97.8733 61.88 97.14C61.5733 96.4067 61.04 96.04 60.28 96.04C59.92 96.04 59.6 96.12 59.32 96.28C59.04 96.44 58.7933 96.6533 58.58 96.92V99ZM81.8175 104V103.68L83.5175 102.86V91.94L81.8175 91.12V90.8H88.2175C89.1775 90.8 90.0308 90.9133 90.7775 91.14C91.5375 91.3533 92.1308 91.68 92.5575 92.12C92.9975 92.5467 93.2175 93.0933 93.2175 93.76C93.2175 94.44 92.9575 95.0667 92.4375 95.64C91.9308 96.2133 91.1975 96.6133 90.2375 96.84C91.5308 97.0133 92.5442 97.3933 93.2775 97.98C94.0242 98.5533 94.3975 99.28 94.3975 100.16C94.3975 100.893 94.1508 101.553 93.6575 102.14C93.1642 102.713 92.4842 103.167 91.6175 103.5C90.7642 103.833 89.7908 104 88.6975 104H81.8175ZM87.2175 91.9H86.5375V96.7H87.3375C88.2175 96.7 88.9042 96.4933 89.3975 96.08C89.8908 95.6533 90.1375 95.08 90.1375 94.36C90.1375 92.72 89.1642 91.9 87.2175 91.9ZM87.9175 97.68H86.5375V102.9H88.0575C89.0442 102.9 89.8108 102.653 90.3575 102.16C90.9175 101.667 91.1975 101.033 91.1975 100.26C91.1975 99.38 90.9108 98.7333 90.3375 98.32C89.7775 97.8933 88.9708 97.68 87.9175 97.68ZM97.0186 95.84L95.6786 95.2V94.88H100.679C101.492 94.88 102.225 94.94 102.879 95.06C103.532 95.1667 104.052 95.3733 104.439 95.68C104.825 95.9733 105.019 96.4 105.019 96.96C105.019 97.5333 104.779 98 104.299 98.36C103.819 98.7067 103.132 98.9467 102.239 99.08C103.479 99.1867 104.359 99.4467 104.879 99.86C105.399 100.26 105.659 100.74 105.659 101.3C105.659 102.193 105.219 102.867 104.339 103.32C103.459 103.773 102.185 104 100.519 104H95.6786V103.68L97.0186 103.04V95.84ZM100.559 95.76H99.8186V98.76H100.499C101.645 98.76 102.219 98.26 102.219 97.26C102.219 96.8067 102.085 96.4467 101.819 96.18C101.552 95.9 101.132 95.76 100.559 95.76ZM100.479 99.56H99.8186V103.12H100.399C101.225 103.12 101.825 102.967 102.199 102.66C102.572 102.353 102.759 101.913 102.759 101.34C102.759 100.793 102.579 100.36 102.219 100.04C101.859 99.72 101.279 99.56 100.479 99.56ZM121.876 104V103.68L123.576 102.86V91.94L121.876 91.12V90.8L132.576 90.8V94.26H132.256L130.776 91.9L126.596 91.9V102.86L128.636 103.68V104H121.876ZM134.616 95.84L133.276 95.2V94.88H141.636V98.3H141.256L139.836 95.86H137.416V103.04L139.136 103.68V104H133.276V103.68L134.616 103.04V95.84ZM158.792 91.12V90.8H170.612V91.12L168.932 91.94V102.9H170.912V107.44H170.592L168.672 104H159.552L157.632 107.44H157.312V102.9H158.952C159.379 101.833 159.699 100.76 159.912 99.68C160.126 98.6 160.272 97.4667 160.352 96.28C160.432 95.0933 160.472 93.82 160.472 92.46V91.94L158.792 91.12ZM165.912 102.9V91.9H161.792V92.44C161.792 93.84 161.752 95.1333 161.672 96.32C161.606 97.4933 161.472 98.62 161.272 99.7C161.072 100.767 160.786 101.833 160.412 102.9H165.912ZM173.47 103.02C173.804 102.34 174.05 101.58 174.21 100.74C174.384 99.8867 174.497 99.0533 174.55 98.24C174.604 97.4133 174.63 96.7067 174.63 96.12V95.84L173.29 95.2V94.88H182.23V95.2L180.89 95.84V103.02H182.31V106.56H181.93L180.37 104H174.25L172.71 106.56H172.33V103.02H173.47ZM178.09 103.02V95.86H175.69V96.12C175.69 96.72 175.664 97.4333 175.61 98.26C175.557 99.0733 175.45 99.9 175.29 100.74C175.144 101.58 174.93 102.34 174.65 103.02H178.09ZM198.79 104V103.68L200.49 102.86V91.94L198.79 91.12V90.8H209.69V94.26H209.37L207.89 91.9H203.51V96.64H206.59L207.71 94.92H208.03V99.42H207.71L206.59 97.74H203.51V102.9H208.37L209.93 99.92H210.25V104H198.79ZM216.723 104.2C215.35 104.2 214.263 103.807 213.463 103.02C212.677 102.22 212.283 101.167 212.283 99.86C212.283 98.8467 212.503 97.9533 212.943 97.18C213.383 96.3933 213.977 95.78 214.723 95.34C215.47 94.9 216.303 94.68 217.223 94.68C218.303 94.68 219.143 95.04 219.743 95.76C220.343 96.48 220.65 97.5 220.663 98.82L220.583 98.92H214.983V99.02C214.983 99.58 215.09 100.093 215.303 100.56C215.517 101.013 215.85 101.373 216.303 101.64C216.77 101.907 217.37 102.04 218.103 102.04C218.49 102.04 218.89 101.993 219.303 101.9C219.73 101.807 220.17 101.647 220.623 101.42H220.683V101.74C220.35 102.447 219.837 103.033 219.143 103.5C218.463 103.967 217.657 104.2 216.723 104.2ZM216.763 95.58C216.297 95.58 215.91 95.7933 215.603 96.22C215.31 96.6467 215.123 97.2467 215.043 98.02H218.423C218.33 97.1 218.137 96.4667 217.843 96.12C217.563 95.76 217.203 95.58 216.763 95.58ZM237.325 104V103.68L239.025 102.86V91.94L237.325 91.12V90.8H248.225V94.26H247.905L246.425 91.9H242.045V96.64H245.125L246.245 94.92H246.565V99.42H246.245L245.125 97.74H242.045V102.9H246.905L248.465 99.92H248.785V104H237.325ZM241.545 89.46C241.212 89.46 240.932 89.3467 240.705 89.12C240.492 88.8933 240.385 88.62 240.385 88.3C240.385 87.9667 240.492 87.6867 240.705 87.46C240.932 87.2333 241.212 87.12 241.545 87.12C241.879 87.12 242.152 87.2333 242.365 87.46C242.592 87.6867 242.705 87.9667 242.705 88.3C242.705 88.62 242.592 88.8933 242.365 89.12C242.152 89.3467 241.879 89.46 241.545 89.46ZM245.505 89.46C245.172 89.46 244.892 89.3467 244.665 89.12C244.452 88.8933 244.345 88.62 244.345 88.3C244.345 87.9667 244.452 87.6867 244.665 87.46C244.892 87.2333 245.172 87.12 245.505 87.12C245.839 87.12 246.112 87.2333 246.325 87.46C246.552 87.6867 246.665 87.9667 246.665 88.3C246.665 88.62 246.552 88.8933 246.325 89.12C246.112 89.3467 245.839 89.46 245.505 89.46ZM255.259 104.2C253.885 104.2 252.799 103.807 251.999 103.02C251.212 102.22 250.819 101.167 250.819 99.86C250.819 98.8467 251.039 97.9533 251.479 97.18C251.919 96.3933 252.512 95.78 253.259 95.34C254.005 94.9 254.839 94.68 255.759 94.68C256.839 94.68 257.679 95.04 258.279 95.76C258.879 96.48 259.185 97.5 259.199 98.82L259.119 98.92H253.519V99.02C253.519 99.58 253.625 100.093 253.839 100.56C254.052 101.013 254.385 101.373 254.839 101.64C255.305 101.907 255.905 102.04 256.639 102.04C257.025 102.04 257.425 101.993 257.839 101.9C258.265 101.807 258.705 101.647 259.159 101.42H259.219V101.74C258.885 102.447 258.372 103.033 257.679 103.5C256.999 103.967 256.192 104.2 255.259 104.2ZM255.299 95.58C254.832 95.58 254.445 95.7933 254.139 96.22C253.845 96.6467 253.659 97.2467 253.579 98.02H256.959C256.865 97.1 256.672 96.4667 256.379 96.12C256.099 95.76 255.739 95.58 255.299 95.58ZM253.399 92.82C253.065 92.82 252.785 92.7067 252.559 92.48C252.345 92.2533 252.239 91.98 252.239 91.66C252.239 91.34 252.345 91.0667 252.559 90.84C252.785 90.6133 253.065 90.5 253.399 90.5C253.732 90.5 254.005 90.6133 254.219 90.84C254.445 91.0667 254.559 91.34 254.559 91.66C254.559 91.98 254.445 92.2533 254.219 92.48C254.005 92.7067 253.732 92.82 253.399 92.82ZM257.359 92.82C257.025 92.82 256.745 92.7067 256.519 92.48C256.305 92.2533 256.199 91.98 256.199 91.66C256.199 91.34 256.305 91.0667 256.519 90.84C256.745 90.6133 257.025 90.5 257.359 90.5C257.692 90.5 257.965 90.6133 258.179 90.84C258.405 91.0667 258.519 91.34 258.519 91.66C258.519 91.98 258.405 92.2533 258.179 92.48C257.965 92.7067 257.692 92.82 257.359 92.82ZM292.8 104V103.68L294.38 102.86V91.94L292.8 91.12V90.8H298.98V91.12L297.4 91.94V102.86L298.98 103.68V104L292.8 104ZM297.42 97.34L302.6 91.86L301.08 91.12V90.8H305.88V91.12L304.3 91.78L300.1 96.1L305.34 103.1L306.72 103.68V104H302.34L297.42 97.34ZM294.38 97.34L289.46 104H285.14V103.68L286.7 103.04L291.72 96.28L287.32 91.74L285.8 91.12V90.8H290.7V91.12L289.2 91.86L294.38 97.34ZM310.537 104H306.837V103.68L308.097 103L311.497 98.52L308.477 95.9L307.157 95.2V94.88H311.377V95.2L310.557 95.92V96.04L313.757 99.06V95.84L312.537 95.2V94.88H317.797V95.2L316.557 95.84V99.06L319.777 96.04V95.92L318.937 95.2V94.88H323.057V95.2L321.737 95.9L318.857 98.38L322.397 103L323.557 103.68V104H319.777L319.157 102.96L316.557 99.5V103.04L317.737 103.68V104H312.597V103.68L313.757 103.04V99.5L311.157 102.96L310.537 104ZM339.914 90.6C340.82 90.6 341.647 90.7133 342.394 90.94C343.14 91.1667 343.734 91.5067 344.174 91.96C344.614 92.4133 344.834 92.9733 344.834 93.64C344.834 94.3467 344.567 95.0067 344.034 95.62C343.514 96.22 342.76 96.6467 341.774 96.9C342.987 97.0733 343.94 97.4467 344.634 98.02C345.327 98.5933 345.674 99.3 345.674 100.14C345.674 100.927 345.42 101.627 344.914 102.24C344.407 102.853 343.707 103.333 342.814 103.68C341.934 104.027 340.92 104.2 339.774 104.2C338.827 104.2 337.974 104.107 337.214 103.92C336.454 103.733 335.8 103.48 335.254 103.16L334.974 99.78H335.314L337.314 102.6C337.62 102.76 337.94 102.887 338.274 102.98C338.62 103.06 339.027 103.1 339.494 103.1C340.44 103.1 341.174 102.853 341.694 102.36C342.214 101.853 342.474 101.167 342.474 100.3C342.474 98.5933 341.354 97.74 339.114 97.74H337.634V96.64H338.914C339.82 96.64 340.52 96.42 341.014 95.98C341.52 95.54 341.774 94.9267 341.774 94.14C341.774 93.34 341.58 92.72 341.194 92.28C340.807 91.8267 340.22 91.6 339.434 91.6C338.754 91.6 338.174 91.7667 337.694 92.1L335.754 95.26H335.394L335.614 91.54C336 91.34 336.387 91.1733 336.774 91.04C337.16 90.8933 337.607 90.7867 338.114 90.72C338.62 90.64 339.22 90.6 339.914 90.6ZM350.603 103.28C351.149 103.28 351.583 103.127 351.903 102.82C352.223 102.5 352.383 102.047 352.383 101.46C352.383 100.247 351.689 99.64 350.303 99.64H349.263V98.72H350.323C350.923 98.72 351.356 98.5667 351.623 98.26C351.903 97.9533 352.043 97.5667 352.043 97.1C352.043 96.6467 351.923 96.28 351.683 96C351.456 95.72 351.069 95.58 350.523 95.58C350.096 95.58 349.749 95.6733 349.483 95.86C349.216 96.0467 348.949 96.3333 348.683 96.72L348.063 97.66H347.763V95.28C348.629 94.88 349.709 94.68 351.003 94.68C351.616 94.68 352.216 94.7333 352.803 94.84C353.389 94.9467 353.876 95.1533 354.263 95.46C354.649 95.7667 354.843 96.22 354.843 96.82C354.843 97.42 354.596 97.92 354.103 98.32C353.623 98.7067 352.929 98.9667 352.023 99.1C353.116 99.2067 353.929 99.4733 354.463 99.9C355.009 100.313 355.283 100.84 355.283 101.48C355.283 102.4 354.869 103.087 354.043 103.54C353.229 103.98 352.163 104.2 350.843 104.2C350.056 104.2 349.416 104.133 348.923 104C348.443 103.867 347.976 103.693 347.523 103.48V101.16H347.882L348.363 101.9C348.683 102.393 349.009 102.747 349.343 102.96C349.676 103.173 350.096 103.28 350.603 103.28ZM371.681 104V103.68L373.381 102.86V91.94L371.681 91.12V90.8H377.961V91.12L376.401 91.94V100.36L382.141 92.84V91.94L380.541 91.12V90.8H386.841V91.12L385.161 91.94V102.86L386.841 103.68V104H380.541V103.68L382.141 102.86V94.48L376.401 102V102.86L377.961 103.68V104H371.681ZM389.675 95.84L388.335 95.2V94.88H393.435V95.2L392.475 95.84V100.74L395.695 96.58V95.84L394.755 95.2V94.88H399.855V95.2L398.515 95.84V103.04L399.855 103.68V104H394.755V103.68L395.695 103.04V98.1L392.475 102.26V103.04L393.435 103.68V104H388.335V103.68L389.675 103.04V95.84ZM416.349 104V103.68L418.049 102.86V91.94L416.349 91.12V90.8H422.629V91.12L421.069 91.94V100.36L426.809 92.84V91.94L425.209 91.12V90.8H431.509V91.12L429.829 91.94V102.86L431.509 103.68V104H425.209V103.68L426.809 102.86V94.48L421.069 102V102.86L422.629 103.68V104H416.349ZM423.929 89.78C422.755 89.78 421.862 89.4933 421.249 88.92C420.649 88.3333 420.349 87.6133 420.349 86.76H422.309C422.309 87.4267 422.435 87.9733 422.689 88.4C422.942 88.8133 423.355 89.02 423.929 89.02C424.502 89.02 424.915 88.8133 425.169 88.4C425.422 87.9733 425.549 87.4267 425.549 86.76H427.509C427.509 87.6133 427.202 88.3333 426.589 88.92C425.989 89.4933 425.102 89.78 423.929 89.78ZM434.343 95.84L433.003 95.2V94.88H438.103V95.2L437.143 95.84V100.74L440.363 96.58V95.84L439.423 95.2V94.88H444.523V95.2L443.183 95.84V103.04L444.523 103.68V104H439.423V103.68L440.363 103.04V98.1L437.143 102.26V103.04L438.103 103.68V104H433.003V103.68L434.343 103.04V95.84ZM435.083 89.86H437.043C437.043 90.6333 437.163 91.26 437.403 91.74C437.656 92.22 438.063 92.46 438.623 92.46C439.169 92.46 439.569 92.22 439.823 91.74C440.076 91.26 440.203 90.6333 440.203 89.86H442.163C442.163 90.8333 441.856 91.6333 441.243 92.26C440.643 92.8867 439.769 93.2 438.623 93.2C437.476 93.2 436.596 92.8867 435.983 92.26C435.383 91.6333 435.083 90.8333 435.083 89.86ZM461.017 104V103.68L462.717 102.86V91.94L461.017 91.12V90.8H467.437V91.12L465.737 91.94V102.86L467.437 103.68V104H461.017ZM465.737 97.34L471.217 91.86L469.737 91.12V90.8H474.457V91.12L473.137 91.68L468.497 96.14L474.057 103.1L475.457 103.68V104L471.017 104L465.737 97.34ZM483.685 104L483.065 102.96L480.385 99.5V103.04L481.625 103.68V104H476.245V103.68L477.585 103.04V95.84L476.245 95.2V94.88L481.625 94.88V95.2L480.385 95.84V99.06L483.785 96.04V95.92L482.965 95.2V94.88H487.085V95.2L485.765 95.9L482.705 98.4L486.305 103L487.585 103.68V104H483.685ZM7.24 134V133.68L8.94 132.86L8.94 121.9H4.9V123.28C4.9 124.987 4.86 126.413 4.78 127.56C4.7 128.693 4.58 129.62 4.42 130.34C4.27333 131.047 4.10667 131.62 3.92 132.06C3.62667 132.673 3.31333 133.133 2.98 133.44C2.64667 133.747 2.30667 133.947 1.96 134.04C1.62667 134.147 1.32 134.2 1.04 134.2C0.746667 134.2 0.56 134.16 0.48 134.08C0.4 134 0.36 133.847 0.36 133.62L0.36 132.08L0.46 131.98H0.64C1.64 131.98 2.38 131.3 2.86 129.94C3.34 128.58 3.58 126.373 3.58 123.32L3.58 121.94L1.88 121.12L1.88 120.8H13.64V121.12L11.94 121.94L11.94 132.86L13.64 133.68V134H7.24ZM18.4722 126.44C18.4722 127.96 18.4055 129.273 18.2722 130.38C18.1389 131.487 17.9055 132.333 17.5722 132.92C17.3055 133.387 16.9922 133.72 16.6322 133.92C16.2722 134.107 15.8922 134.2 15.4922 134.2C15.1989 134.2 15.0122 134.16 14.9322 134.08C14.8655 134 14.8322 133.847 14.8322 133.62L14.8322 132.24L14.9322 132.14H15.2122C15.8389 132.14 16.3055 131.927 16.6122 131.5C16.9322 131.06 17.1455 130.42 17.2522 129.58C17.3589 128.74 17.4122 127.693 17.4122 126.44V125.84L16.0322 125.2V124.88H24.9122V125.2L23.5722 125.84V133.04L24.9122 133.68V134H19.4322V133.68L20.7522 133.04V125.86H18.4722V126.44ZM36.3673 134V133.68L38.0673 132.86L38.4873 121.94L36.7273 121.12V120.8H41.6873L45.7073 130.1L49.6873 120.8H54.4873V121.12L52.7473 121.74L53.0873 132.86L54.6073 133.68V134H48.5473V133.68L50.1473 132.88L49.9473 123.38L45.3873 134.1H44.2673L39.6673 123.42L39.4073 132.88L41.1473 133.68V134H36.3673ZM57.4097 125.84L56.0897 125.2V124.88H60.3897L62.7697 130.2H62.9097L65.2497 124.88L69.4297 124.88V125.2L68.0897 125.84L68.4697 133.04L69.8097 133.68V134H64.5097V133.68L65.6497 133.04L65.3697 127.26L62.4297 134H61.5897L58.4897 127.24L58.3297 133.04L59.4697 133.68V134H55.8897V133.68L57.2097 133.04L57.4097 125.84ZM96.1339 134V133.68L97.8339 132.86L97.8339 121.94L96.1339 121.12V120.8H102.414V121.12L100.854 121.94V126.66H106.394V121.94L104.794 121.12V120.8L111.094 120.8V121.12L109.414 121.94L109.414 132.86L111.094 133.68V134L104.794 134V133.68L106.394 132.86V127.76H100.854V132.86L102.414 133.68V134H96.1339ZM113.933 125.84L112.593 125.2V124.88H117.693V125.2L116.733 125.84L116.733 128.74H119.753L119.753 125.84L118.813 125.2V124.88H123.913V125.2L122.573 125.84L122.573 133.04L123.913 133.68V134H118.813V133.68L119.753 133.04V129.72H116.733V133.04L117.693 133.68V134H112.593V133.68L113.933 133.04L113.933 125.84ZM147.411 134.2C146.425 134.2 145.511 134.033 144.671 133.7C143.831 133.353 143.098 132.88 142.471 132.28C141.858 131.667 141.378 130.947 141.031 130.12C140.685 129.293 140.511 128.387 140.511 127.4C140.511 126.413 140.685 125.507 141.031 124.68C141.378 123.853 141.858 123.14 142.471 122.54C143.098 121.927 143.831 121.453 144.671 121.12C145.511 120.773 146.425 120.6 147.411 120.6C148.411 120.6 149.331 120.773 150.171 121.12C151.011 121.453 151.738 121.927 152.351 122.54C152.978 123.14 153.465 123.853 153.811 124.68C154.158 125.507 154.331 126.413 154.331 127.4C154.331 128.387 154.158 129.293 153.811 130.12C153.465 130.947 152.978 131.667 152.351 132.28C151.738 132.88 151.011 133.353 150.171 133.7C149.331 134.033 148.411 134.2 147.411 134.2ZM147.731 133.16C148.398 133.16 148.985 132.947 149.491 132.52C150.011 132.093 150.411 131.493 150.691 130.72C150.985 129.947 151.131 129.04 151.131 128C151.131 126.72 150.951 125.6 150.591 124.64C150.245 123.68 149.771 122.94 149.171 122.42C148.571 121.887 147.898 121.62 147.151 121.62C146.485 121.62 145.891 121.833 145.371 122.26C144.851 122.673 144.438 123.267 144.131 124.04C143.838 124.813 143.691 125.72 143.691 126.76C143.691 128.04 143.871 129.16 144.231 130.12C144.591 131.08 145.078 131.827 145.691 132.36C146.305 132.893 146.985 133.16 147.731 133.16ZM160.91 134.2C159.963 134.2 159.13 133.987 158.41 133.56C157.69 133.12 157.13 132.54 156.73 131.82C156.33 131.1 156.13 130.307 156.13 129.44C156.13 128.56 156.33 127.76 156.73 127.04C157.13 126.32 157.69 125.747 158.41 125.32C159.13 124.893 159.963 124.68 160.91 124.68C161.856 124.68 162.683 124.893 163.39 125.32C164.11 125.747 164.67 126.32 165.07 127.04C165.47 127.76 165.67 128.56 165.67 129.44C165.67 130.307 165.47 131.1 165.07 131.82C164.67 132.54 164.11 133.12 163.39 133.56C162.683 133.987 161.856 134.2 160.91 134.2ZM161.13 133.22C161.516 133.22 161.83 133.067 162.07 132.76C162.323 132.44 162.503 132.02 162.61 131.5C162.73 130.98 162.79 130.427 162.79 129.84C162.79 129.12 162.716 128.44 162.57 127.8C162.436 127.16 162.216 126.64 161.91 126.24C161.616 125.84 161.223 125.64 160.73 125.64C160.33 125.64 160.003 125.8 159.75 126.12C159.496 126.427 159.31 126.84 159.19 127.36C159.07 127.867 159.01 128.42 159.01 129.02C159.01 129.753 159.083 130.44 159.23 131.08C159.376 131.707 159.603 132.22 159.91 132.62C160.23 133.02 160.636 133.22 161.13 133.22ZM182.247 134V133.68L183.947 132.86V121.94L182.247 121.12V120.8H196.727V121.12L195.047 121.94V132.86L196.727 133.68V134H190.527V133.68L192.027 132.86V121.9H186.967V132.86L188.467 133.68V134H182.247ZM199.558 125.84L198.218 125.2V124.88H209.338V125.2L207.998 125.84V133.04L209.338 133.68V134H204.238V133.68L205.178 133.04V125.86H202.358V133.04L203.318 133.68V134H198.218V133.68L199.558 133.04V125.84ZM225.841 134V133.68L227.541 132.86V121.94L225.841 121.12V120.8H232.761C234.334 120.8 235.594 121.087 236.541 121.66C237.501 122.22 237.981 123.12 237.981 124.36C237.981 125.107 237.728 125.767 237.221 126.34C236.728 126.9 236.054 127.34 235.201 127.66C234.348 127.967 233.374 128.12 232.281 128.12H230.561V132.86L232.601 133.68V134H225.841ZM230.561 121.9V127.14H231.521C232.588 127.14 233.421 126.893 234.021 126.4C234.621 125.907 234.921 125.287 234.921 124.54C234.921 123.607 234.614 122.933 234.001 122.52C233.388 122.107 232.521 121.9 231.401 121.9H230.561ZM239.175 138.6V138.28L240.515 137.64V127.08L239.235 126.14V125.9L242.875 124.68L243.115 124.68L243.275 125.9H243.395C243.888 125.473 244.361 125.167 244.815 124.98C245.281 124.78 245.781 124.68 246.315 124.68C246.901 124.68 247.448 124.86 247.955 125.22C248.475 125.567 248.888 126.067 249.195 126.72C249.501 127.373 249.655 128.153 249.655 129.06C249.655 130.127 249.441 131.047 249.015 131.82C248.588 132.58 248.021 133.167 247.315 133.58C246.608 133.993 245.841 134.2 245.015 134.2C244.708 134.2 244.408 134.187 244.115 134.16C243.835 134.133 243.568 134.08 243.315 134V137.64L244.875 138.28V138.6L239.175 138.6ZM244.655 126.32C244.415 126.32 244.188 126.353 243.975 126.42C243.775 126.487 243.555 126.587 243.315 126.72V132.5C243.701 132.94 244.228 133.16 244.895 133.16C245.215 133.16 245.521 133.06 245.815 132.86C246.121 132.66 246.368 132.307 246.555 131.8C246.755 131.293 246.855 130.573 246.855 129.64C246.855 128.493 246.628 127.653 246.175 127.12C245.721 126.587 245.215 126.32 244.655 126.32ZM273.312 134.2C271.912 134.2 270.685 133.913 269.632 133.34C268.579 132.767 267.759 131.993 267.172 131.02C266.599 130.033 266.312 128.92 266.312 127.68C266.312 126.68 266.512 125.753 266.912 124.9C267.312 124.047 267.852 123.3 268.532 122.66C269.225 122.007 270.005 121.5 270.872 121.14C271.752 120.78 272.672 120.6 273.632 120.6C274.339 120.6 274.925 120.64 275.392 120.72C275.859 120.8 276.279 120.913 276.652 121.06C277.025 121.207 277.399 121.373 277.772 121.56L277.992 125.3H277.632L275.732 122.2C275.399 121.987 275.085 121.833 274.792 121.74C274.499 121.647 274.145 121.6 273.732 121.6C272.919 121.6 272.185 121.847 271.532 122.34C270.892 122.82 270.385 123.507 270.012 124.4C269.639 125.28 269.452 126.307 269.452 127.48C269.452 128.64 269.632 129.647 269.992 130.5C270.352 131.34 270.839 131.993 271.452 132.46C272.079 132.913 272.779 133.14 273.552 133.14C274.045 133.14 274.485 133.08 274.872 132.96C275.272 132.827 275.652 132.66 276.012 132.46L277.812 129.78H278.152L277.872 133.16C277.325 133.48 276.665 133.733 275.892 133.92C275.132 134.107 274.272 134.2 273.312 134.2ZM284.631 134.2C283.777 134.2 283.024 134.02 282.371 133.66C281.717 133.3 281.211 132.793 280.851 132.14C280.491 131.487 280.311 130.727 280.311 129.86C280.311 128.847 280.517 127.953 280.931 127.18C281.357 126.393 281.944 125.78 282.691 125.34C283.451 124.9 284.331 124.68 285.331 124.68C285.957 124.68 286.524 124.767 287.031 124.94C287.537 125.113 287.917 125.353 288.171 125.66C288.384 125.913 288.491 126.113 288.491 126.26C288.491 126.42 288.404 126.58 288.231 126.74L287.291 127.54L287.151 127.54L286.451 126.56C286.224 126.253 285.997 126.013 285.771 125.84C285.544 125.653 285.244 125.56 284.871 125.56C284.257 125.56 283.791 125.867 283.471 126.48C283.164 127.08 283.011 127.887 283.011 128.9C283.011 129.473 283.111 130 283.311 130.48C283.511 130.96 283.824 131.34 284.251 131.62C284.691 131.9 285.257 132.04 285.951 132.04C286.324 132.04 286.724 131.993 287.151 131.9C287.577 131.807 288.017 131.647 288.471 131.42H288.531V131.74C288.197 132.447 287.691 133.033 287.011 133.5C286.344 133.967 285.551 134.2 284.631 134.2ZM307.618 134V133.68L309.738 132.86V121.9H306.878L305.278 125.2H304.958V120.8H317.538V125.2H317.218L315.618 121.9H312.758V132.86L314.878 133.68V134H307.618ZM318.387 128.3V124.88H327.747V128.3H327.367L325.947 125.86H324.467V133.04L326.147 133.68V134H320.007V133.68L321.667 133.04V125.86H320.187L318.767 128.3H318.387ZM350.245 132.72C349.712 133.36 349.225 133.767 348.785 133.94C348.345 134.113 347.899 134.2 347.445 134.2C347.139 134.2 346.945 134.16 346.865 134.08C346.799 134 346.765 133.847 346.765 133.62V132.08L346.885 131.98H347.265C347.905 131.98 348.425 131.9 348.825 131.74C349.225 131.58 349.605 131.293 349.965 130.88L344.985 121.96L343.485 121.12V120.8H349.725V121.12L348.125 121.88L351.525 128.02H351.785L355.145 121.86L353.545 121.12V120.8H357.825V121.12L356.605 121.8L352.205 129.66C352.032 129.98 351.825 130.34 351.585 130.74C351.359 131.127 351.119 131.5 350.865 131.86C350.625 132.22 350.419 132.507 350.245 132.72ZM358.984 138.82C358.678 138.82 358.484 138.773 358.404 138.68C358.338 138.6 358.304 138.453 358.304 138.24V136.86L358.404 136.76H359.304C359.638 136.76 359.911 136.733 360.124 136.68C360.351 136.64 360.551 136.513 360.724 136.3C360.911 136.1 361.104 135.76 361.304 135.28L361.824 134.02L357.844 125.74L356.604 125.2V124.88H362.124V125.2L360.884 125.78V125.84L363.084 130.46H363.224L364.924 125.92V125.84L363.744 125.2V124.88H367.564V125.2L366.144 125.86L362.144 135.58C362.024 135.887 361.918 136.14 361.824 136.34C361.744 136.553 361.651 136.753 361.544 136.94C361.438 137.14 361.284 137.38 361.084 137.66C360.818 138.047 360.484 138.333 360.084 138.52C359.698 138.72 359.331 138.82 358.984 138.82ZM397.596 134.4V134.08L399.316 133.26V132.4C397.849 132.373 396.589 132.153 395.536 131.74C394.496 131.313 393.696 130.747 393.136 130.04C392.589 129.32 392.316 128.507 392.316 127.6C392.316 126.653 392.589 125.793 393.136 125.02C393.696 124.247 394.496 123.627 395.536 123.16C396.589 122.68 397.849 122.427 399.316 122.4V121.54L397.596 120.72V120.4H404.036V120.72L402.316 121.54V122.4C403.796 122.44 405.049 122.673 406.076 123.1C407.116 123.513 407.903 124.08 408.436 124.8C408.969 125.507 409.236 126.307 409.236 127.2C409.236 128.147 408.969 129.007 408.436 129.78C407.903 130.553 407.116 131.173 406.076 131.64C405.049 132.107 403.796 132.36 402.316 132.4V133.26L404.036 134.08V134.4H397.596ZM399.316 123.42C398.129 123.42 397.196 123.747 396.516 124.4C395.836 125.053 395.496 125.907 395.496 126.96C395.496 128.213 395.843 129.227 396.536 130C397.243 130.773 398.169 131.22 399.316 131.34V123.42ZM406.096 127.8C406.096 126.56 405.756 125.553 405.076 124.78C404.409 124.007 403.489 123.56 402.316 123.44V131.36C403.569 131.36 404.509 131.033 405.136 130.38C405.776 129.713 406.096 128.853 406.096 127.8ZM414.581 138.6V138.28L415.921 137.64V134.18C414.881 134.1 413.961 133.853 413.161 133.44C412.375 133.013 411.755 132.467 411.301 131.8C410.861 131.133 410.641 130.387 410.641 129.56C410.641 128.693 410.861 127.907 411.301 127.2C411.755 126.493 412.375 125.92 413.161 125.48C413.961 125.04 414.881 124.78 415.921 124.7V121.28L414.641 120.34V120.1L418.481 119H418.721V124.7C419.748 124.793 420.655 125.047 421.441 125.46C422.228 125.873 422.841 126.413 423.281 127.08C423.735 127.747 423.961 128.493 423.961 129.32C423.961 130.187 423.735 130.973 423.281 131.68C422.841 132.373 422.228 132.94 421.441 133.38C420.655 133.82 419.748 134.087 418.721 134.18V137.64L419.921 138.28V138.6H414.581ZM413.521 129.14C413.521 130.153 413.721 131.033 414.121 131.78C414.521 132.513 415.121 132.987 415.921 133.2V125.62C415.121 125.727 414.521 126.1 414.121 126.74C413.721 127.367 413.521 128.167 413.521 129.14ZM421.061 129.72C421.061 128.707 420.868 127.833 420.481 127.1C420.108 126.367 419.521 125.893 418.721 125.68V133.26C419.508 133.14 420.095 132.76 420.481 132.12C420.868 131.467 421.061 130.667 421.061 129.72ZM440.188 134V133.68L441.768 132.88L445.928 127.78L441.748 121.86L440.428 121.12V120.8H447.028V121.12L445.448 121.9V122L448.168 125.76L451.168 122V121.92L449.608 121.12V120.8H454.308V121.12L452.968 121.82L448.888 126.76L453.328 132.88L454.748 133.68V134H448.048V133.68L449.488 132.92V132.84L446.648 128.8L443.428 132.82L443.388 132.9L444.988 133.68V134H440.188ZM455.633 134V133.68L456.673 133.06L459.433 129.82L456.533 125.74L455.633 125.2V124.88H461.073V125.2L459.953 125.72V125.84L461.473 127.98L463.033 125.96V125.84L462.013 125.2V124.88L465.593 124.88V125.2L464.533 125.82L462.033 128.78L465.113 133.14L465.933 133.68V134L460.613 134V133.68L461.713 133.16V133.04L459.973 130.6L458.233 132.92V133.04L459.333 133.68V134H455.633ZM13.38 164H0.88V163.68L2.56 162.86L2.56 151.94L0.88 151.12L0.88 150.8H7.08V151.12L5.58 151.94L5.58 162.9H10.64L10.64 151.94L9.12 151.12V150.8H15.36V151.12L13.64 151.94L13.64 162.9H15.62L15.62 167.44H15.3L13.38 164ZM18.3858 163.04L18.3858 155.84L17.0458 155.2V154.88H22.1458V155.2L21.1858 155.84L21.1858 163.02H24.0058L24.0058 155.84L23.0658 155.2V154.88H28.1658V155.2L26.8258 155.84L26.8258 163.02H28.2458V166.56H27.8658L26.3058 164H17.0458V163.68L18.3858 163.04ZM51.9281 164V163.68L53.8481 162.86V157.94C53.3948 158.14 52.8615 158.307 52.2481 158.44C51.6481 158.573 50.9948 158.64 50.2881 158.64C49.3681 158.64 48.5681 158.513 47.8881 158.26C47.2215 158.007 46.7081 157.56 46.3481 156.92C45.9881 156.28 45.8081 155.387 45.8081 154.24V151.96L44.0881 151.12V150.8H50.3881V151.12L48.8281 151.96V154.36C48.8281 155.48 49.0348 156.253 49.4481 156.68C49.8615 157.093 50.5615 157.3 51.5481 157.3C51.9215 157.3 52.3081 157.273 52.7081 157.22C53.1081 157.153 53.4881 157.04 53.8481 156.88V151.96L52.2681 151.12V150.8H58.5481V151.12L56.8681 151.96V162.86L58.5481 163.68V164H51.9281ZM60.8936 157.16V155.84L59.7136 155.2V154.88H64.6336V155.2L63.7136 155.84V157.58C63.7136 158.233 63.8536 158.687 64.1336 158.94C64.4136 159.193 64.8203 159.32 65.3536 159.32C65.7536 159.32 66.1269 159.28 66.4736 159.2V155.84L65.5536 155.2V154.88H70.6136V155.2L69.2936 155.84V163.04L70.6136 163.68V164H64.9736V163.68L66.4736 163.04V160.04C65.8736 160.187 65.2069 160.26 64.4736 160.26C63.2469 160.26 62.3403 160.033 61.7536 159.58C61.1803 159.113 60.8936 158.307 60.8936 157.16ZM93.1905 150.8V151.12L91.8105 151.94V162.9H95.7105V151.94L94.3305 151.12V150.8H100.11V151.12L98.7305 151.94V162.9H102.63V151.94L101.33 151.12V150.8H107.35V151.12L105.65 151.94V162.86L107.35 163.68V164H87.1105V163.68L88.7905 162.86V151.94L87.1105 151.12V150.8H93.1905ZM110.183 163.04V155.84L108.843 155.2V154.88H114.063V155.2L112.983 155.84V163.02H115.863V155.84L114.803 155.2V154.88H119.743V155.2L118.683 155.84V163.02H121.543V155.84L120.483 155.2V154.88H125.703V155.2L124.363 155.84V163.04L125.703 163.68V164H108.843V163.68L110.183 163.04ZM148.132 150.8V151.12L146.752 151.94V162.9H150.652V151.94L149.272 151.12V150.8H155.052V151.12L153.672 151.94V162.9H157.572V151.94L156.272 151.12V150.8H162.292V151.12L160.592 151.94V162.9H162.572V167.44H162.252L160.332 164H142.052V163.68L143.732 162.86V151.94L142.052 151.12V150.8H148.132ZM165.339 163.04V155.84L163.999 155.2V154.88H169.219V155.2L168.139 155.84V163.02H171.019V155.84L169.959 155.2V154.88H174.899V155.2L173.839 155.84V163.02H176.699V155.84L175.639 155.2V154.88H180.859V155.2L179.519 155.84V163.02H180.919V166.56H180.539L178.999 164H163.999V163.68L165.339 163.04ZM206.001 164H199.361V163.68L201.061 162.86V151.9H199.121L197.521 155.2H197.201V150.8H206.201V151.12L204.081 151.94V156.14H206.001C207.147 156.14 208.154 156.293 209.021 156.6C209.887 156.893 210.561 157.327 211.041 157.9C211.534 158.473 211.781 159.153 211.781 159.94C211.781 160.753 211.534 161.467 211.041 162.08C210.547 162.68 209.867 163.153 209.001 163.5C208.134 163.833 207.134 164 206.001 164ZM205.341 157.24H204.081V162.9H205.481C206.521 162.9 207.314 162.633 207.861 162.1C208.421 161.553 208.701 160.867 208.701 160.04C208.701 158.173 207.581 157.24 205.341 157.24ZM219.339 158.38C221.085 158.38 222.365 158.627 223.179 159.12C223.992 159.613 224.399 160.247 224.399 161.02C224.399 162.02 223.959 162.767 223.079 163.26C222.199 163.753 220.932 164 219.279 164H214.679V163.68L216.019 163.04V155.86H214.719L213.299 158.3H212.919V154.88H220.439V155.2L218.819 155.84V158.38H219.339ZM219.419 159.3H218.819V163.08H219.379C220.085 163.08 220.619 162.92 220.979 162.6C221.339 162.267 221.519 161.807 221.519 161.22C221.519 160.647 221.339 160.187 220.979 159.84C220.632 159.48 220.112 159.3 219.419 159.3ZM257.286 164H250.646V163.68L252.346 162.86V151.94L250.646 151.12V150.8H257.466V151.12L255.366 151.94V156.14H257.286C258.419 156.14 259.419 156.293 260.286 156.6C261.152 156.893 261.832 157.327 262.326 157.9C262.819 158.473 263.066 159.153 263.066 159.94C263.066 160.753 262.819 161.467 262.326 162.08C261.832 162.68 261.152 163.153 260.286 163.5C259.419 163.833 258.419 164 257.286 164ZM256.626 157.24H255.366V162.9H256.766C257.806 162.9 258.599 162.633 259.146 162.1C259.706 161.553 259.986 160.867 259.986 160.04C259.986 158.173 258.866 157.24 256.626 157.24ZM264.486 164V163.68L266.186 162.86V151.94L264.486 151.12V150.8H270.906V151.12L269.206 151.94V162.86L270.906 163.68V164H264.486ZM286.116 155.84V163.04L287.436 163.68V164H281.956V163.68L283.296 163.04V155.84L281.956 155.2V154.88H287.436V155.2L286.116 155.84ZM277.096 158.38C278.843 158.38 280.123 158.627 280.936 159.12C281.75 159.613 282.156 160.247 282.156 161.02C282.156 162.02 281.716 162.767 280.836 163.26C279.97 163.753 278.703 164 277.036 164H272.436V163.68L273.776 163.04V155.84L272.436 155.2V154.88H278.196V155.2L276.576 155.84V158.38H277.096ZM277.176 159.3H276.576V163.08H277.136C277.843 163.08 278.376 162.92 278.736 162.6C279.096 162.267 279.276 161.807 279.276 161.22C279.276 160.647 279.096 160.187 278.736 159.84C278.39 159.48 277.87 159.3 277.176 159.3ZM310.567 164H303.927V163.68L305.627 162.86V151.94L303.927 151.12V150.8H310.747V151.12L308.647 151.94V156.14H310.567C311.7 156.14 312.7 156.293 313.567 156.6C314.434 156.893 315.114 157.327 315.607 157.9C316.1 158.473 316.347 159.153 316.347 159.94C316.347 160.753 316.1 161.467 315.607 162.08C315.114 162.68 314.434 163.153 313.567 163.5C312.7 163.833 311.7 164 310.567 164ZM309.907 157.24H308.647V162.9H310.047C311.087 162.9 311.88 162.633 312.427 162.1C312.987 161.553 313.267 160.867 313.267 160.04C313.267 158.173 312.147 157.24 309.907 157.24ZM322.135 158.38C323.882 158.38 325.162 158.627 325.975 159.12C326.789 159.613 327.195 160.247 327.195 161.02C327.195 162.02 326.755 162.767 325.875 163.26C325.009 163.753 323.742 164 322.075 164H317.475V163.68L318.815 163.04V155.84L317.475 155.2V154.88H323.235V155.2L321.615 155.84V158.38H322.135ZM322.215 159.3H321.615V163.08H322.175C322.882 163.08 323.415 162.92 323.775 162.6C324.135 162.267 324.315 161.807 324.315 161.22C324.315 160.647 324.135 160.187 323.775 159.84C323.429 159.48 322.909 159.3 322.215 159.3ZM348.719 163.14C349.972 163.14 350.945 162.68 351.639 161.76C352.332 160.827 352.679 159.573 352.679 158C352.679 157.907 352.679 157.813 352.679 157.72H348.819L347.699 159.42H347.379V154.92H347.699L348.819 156.62H352.599C352.412 155.087 351.945 153.873 351.199 152.98C350.465 152.073 349.565 151.62 348.499 151.62C348.112 151.62 347.765 151.66 347.459 151.74C347.165 151.807 346.865 151.933 346.559 152.12L344.619 155.26H344.259L344.479 151.54C345.052 151.26 345.679 151.033 346.359 150.86C347.039 150.687 347.905 150.6 348.959 150.6C349.959 150.6 350.879 150.773 351.719 151.12C352.559 151.453 353.285 151.927 353.899 152.54C354.525 153.14 355.012 153.853 355.359 154.68C355.705 155.507 355.879 156.413 355.879 157.4C355.879 158.707 355.579 159.873 354.979 160.9C354.392 161.927 353.579 162.733 352.539 163.32C351.499 163.907 350.305 164.2 348.959 164.2C347.985 164.2 347.085 164.107 346.259 163.92C345.445 163.733 344.765 163.48 344.219 163.16L343.939 159.78H344.279L346.079 162.44C346.439 162.653 346.832 162.827 347.259 162.96C347.699 163.08 348.185 163.14 348.719 163.14ZM359.795 159.82V158.86H363.315C363.222 157.9 362.975 157.12 362.575 156.52C362.189 155.907 361.635 155.6 360.915 155.6C360.515 155.6 360.169 155.693 359.875 155.88C359.595 156.053 359.322 156.333 359.055 156.72L358.435 157.66H358.135V155.28C358.549 155.067 359.049 154.913 359.635 154.82C360.235 154.727 360.762 154.68 361.215 154.68C362.282 154.68 363.189 154.893 363.935 155.32C364.695 155.747 365.269 156.32 365.655 157.04C366.055 157.76 366.255 158.56 366.255 159.44C366.255 160.307 366.055 161.1 365.655 161.82C365.255 162.54 364.695 163.12 363.975 163.56C363.255 163.987 362.422 164.2 361.475 164.2C360.595 164.2 359.895 164.133 359.375 164C358.855 163.88 358.362 163.707 357.895 163.48V161.16H358.255L358.735 161.9C359.069 162.393 359.415 162.747 359.775 162.96C360.135 163.173 360.595 163.28 361.155 163.28C361.649 163.28 362.055 163.12 362.375 162.8C362.709 162.467 362.955 162.04 363.115 161.52C363.275 160.987 363.355 160.427 363.355 159.84V159.82H359.795ZM382.833 164V163.68L384.533 162.86V151.94L382.833 151.12V150.8H389.113V151.12L387.553 151.94V156.66H389.413C389.52 155.487 389.873 154.447 390.473 153.54C391.086 152.62 391.873 151.9 392.833 151.38C393.806 150.86 394.886 150.6 396.073 150.6C397.033 150.6 397.92 150.773 398.733 151.12C399.56 151.453 400.273 151.927 400.873 152.54C401.486 153.14 401.96 153.853 402.293 154.68C402.64 155.507 402.813 156.413 402.813 157.4C402.813 158.387 402.64 159.293 402.293 160.12C401.96 160.947 401.486 161.667 400.873 162.28C400.273 162.88 399.56 163.353 398.733 163.7C397.92 164.033 397.033 164.2 396.073 164.2C394.833 164.2 393.72 163.927 392.733 163.38C391.746 162.82 390.953 162.053 390.353 161.08C389.766 160.107 389.44 159 389.373 157.76H387.553V162.86L389.113 163.68V164H382.833ZM396.413 163.16C397.04 163.16 397.593 162.947 398.073 162.52C398.566 162.093 398.946 161.493 399.213 160.72C399.48 159.947 399.613 159.04 399.613 158C399.613 156.72 399.44 155.6 399.093 154.64C398.76 153.68 398.306 152.94 397.733 152.42C397.16 151.887 396.52 151.62 395.813 151.62C395.186 151.62 394.626 151.833 394.133 152.26C393.653 152.673 393.273 153.267 392.993 154.04C392.713 154.813 392.573 155.72 392.573 156.76C392.573 158.04 392.74 159.16 393.073 160.12C393.42 161.08 393.886 161.827 394.473 162.36C395.06 162.893 395.706 163.16 396.413 163.16ZM405.73 155.84L404.39 155.2V154.88H409.87V155.2L408.53 155.84V158.74H409.93C410.036 157.98 410.29 157.293 410.69 156.68C411.103 156.067 411.636 155.58 412.29 155.22C412.943 154.86 413.69 154.68 414.53 154.68C415.436 154.68 416.236 154.893 416.93 155.32C417.636 155.747 418.183 156.32 418.57 157.04C418.956 157.76 419.15 158.56 419.15 159.44C419.15 160.307 418.956 161.1 418.57 161.82C418.183 162.54 417.636 163.12 416.93 163.56C416.236 163.987 415.436 164.2 414.53 164.2C413.65 164.2 412.87 164 412.19 163.6C411.51 163.2 410.97 162.66 410.57 161.98C410.17 161.3 409.943 160.547 409.89 159.72H408.53V163.04L409.87 163.68V164H404.39V163.68L405.73 163.04V155.84ZM414.75 163.22C415.11 163.22 415.396 163.067 415.61 162.76C415.836 162.44 416.003 162.02 416.11 161.5C416.216 160.98 416.27 160.427 416.27 159.84C416.27 159.12 416.203 158.44 416.07 157.8C415.936 157.16 415.73 156.64 415.45 156.24C415.17 155.84 414.803 155.64 414.35 155.64C413.99 155.64 413.69 155.8 413.45 156.12C413.223 156.427 413.05 156.84 412.93 157.36C412.823 157.867 412.77 158.42 412.77 159.02C412.77 159.753 412.836 160.44 412.97 161.08C413.116 161.707 413.33 162.22 413.61 162.62C413.903 163.02 414.283 163.22 414.75 163.22ZM439.524 164H435.304V163.68L436.744 162.88L440.304 157.78C439.184 157.527 438.364 157.113 437.844 156.54C437.337 155.953 437.084 155.287 437.084 154.54C437.084 153.353 437.557 152.433 438.504 151.78C439.464 151.127 440.844 150.8 442.644 150.8H449.084V151.12L447.384 151.94V162.86L449.084 163.68V164H442.824V163.68L444.364 162.84V158.2H443.264L439.524 164ZM443.344 157.22H444.364V151.9H443.424C442.357 151.9 441.537 152.127 440.964 152.58C440.404 153.033 440.124 153.673 440.124 154.5C440.124 155.3 440.397 155.953 440.944 156.46C441.49 156.967 442.29 157.22 443.344 157.22ZM455.981 164V163.68L456.961 163.04V160.12H456.341L454.521 162.96L454.001 164H450.261V163.68L451.441 163L453.641 159.74C453.001 159.593 452.494 159.333 452.121 158.96C451.748 158.573 451.561 158.1 451.561 157.54C451.561 156.887 451.748 156.367 452.121 155.98C452.494 155.593 453.001 155.313 453.641 155.14C454.294 154.967 455.041 154.88 455.881 154.88H461.101V155.2L459.781 155.84V163.04L461.101 163.68V164H455.981ZM456.281 159.34H456.961V155.76H456.361C455.694 155.76 455.188 155.927 454.841 156.26C454.508 156.593 454.341 157.013 454.341 157.52C454.341 158.013 454.501 158.44 454.821 158.8C455.141 159.16 455.628 159.34 456.281 159.34Z" fill="white"/>
<path d="M2.96 214V213.68L4.86 212.98L4.86 203.1L1.54 204.6L1.54 203.8L6.52 200.8H7.78L7.78 212.98L9.48 213.68V214H2.96ZM17.2509 214V213.26C18.3309 212.087 19.2243 211.107 19.9309 210.32C20.6376 209.52 21.1976 208.84 21.6109 208.28C22.0376 207.72 22.3509 207.22 22.5509 206.78C22.7643 206.327 22.8976 205.88 22.9509 205.44C23.0176 204.987 23.0509 204.467 23.0509 203.88C23.0509 203.24 22.9043 202.7 22.6109 202.26C22.3176 201.82 21.8709 201.6 21.2709 201.6C20.6309 201.6 20.1443 201.8 19.8109 202.2C19.4909 202.6 19.3309 203.167 19.3309 203.9V204.84L19.1909 205.02H17.8309C17.5643 205.02 17.3643 204.973 17.2309 204.88C17.0976 204.787 17.0309 204.553 17.0309 204.18C17.0309 203.793 17.1509 203.407 17.3909 203.02C17.6309 202.62 18.0309 202.22 18.5909 201.82C19.1109 201.433 19.6243 201.133 20.1309 200.92C20.6376 200.707 21.3043 200.6 22.1309 200.6C22.9309 200.6 23.6376 200.76 24.2509 201.08C24.8643 201.387 25.3376 201.813 25.6709 202.36C26.0176 202.893 26.1909 203.487 26.1909 204.14C26.1909 204.553 26.1376 204.94 26.0309 205.3C25.9376 205.66 25.7643 206.033 25.5109 206.42C25.2576 206.793 24.8976 207.227 24.4309 207.72C23.9643 208.2 23.3576 208.767 22.6109 209.42C21.8776 210.073 20.9709 210.853 19.8909 211.76H25.1909L26.3509 209.76H26.6709L26.4709 214H17.2509ZM37.7619 214.2C37.1885 214.2 36.6085 214.127 36.0219 213.98C35.4485 213.833 34.9285 213.607 34.4619 213.3C34.0885 213.047 33.7752 212.773 33.5219 212.48C33.2819 212.173 33.1619 211.84 33.1619 211.48C33.1619 211.133 33.2219 210.92 33.3419 210.84C33.4752 210.76 33.6752 210.72 33.9419 210.72H35.2619L35.4619 210.92V211.62C35.4619 212.167 35.6485 212.573 36.0219 212.84C36.3952 213.107 36.8952 213.24 37.5219 213.24C38.2685 213.24 38.8352 212.987 39.2219 212.48C39.6085 211.973 39.8019 211.333 39.8019 210.56C39.8019 209.627 39.5619 208.907 39.0819 208.4C38.6152 207.893 37.8085 207.64 36.6619 207.64H35.6019V206.68H36.6019C37.4019 206.68 38.0219 206.407 38.4619 205.86C38.9019 205.3 39.1219 204.62 39.1219 203.82C39.1219 202.3 38.5552 201.54 37.4219 201.54C36.9552 201.54 36.5552 201.7 36.2219 202.02C35.9019 202.327 35.7419 202.773 35.7419 203.36V204.24L35.5819 204.42H34.2419C33.9885 204.42 33.7952 204.38 33.6619 204.3C33.5285 204.207 33.4619 203.987 33.4619 203.64C33.4619 202.88 33.9019 202.227 34.7819 201.68C35.3552 201.307 35.8819 201.033 36.3619 200.86C36.8552 200.687 37.4552 200.6 38.1619 200.6C38.9352 200.6 39.6285 200.727 40.2419 200.98C40.8685 201.233 41.3619 201.593 41.7219 202.06C42.0819 202.527 42.2619 203.087 42.2619 203.74C42.2619 204.273 42.1019 204.747 41.7819 205.16C41.4752 205.573 41.0552 205.92 40.5219 206.2C40.0019 206.48 39.4085 206.68 38.7419 206.8C40.0752 206.96 41.1085 207.333 41.8419 207.92C42.5885 208.493 42.9619 209.307 42.9619 210.36C42.9619 211.107 42.7152 211.773 42.2219 212.36C41.7419 212.933 41.1085 213.387 40.3219 213.72C39.5352 214.04 38.6819 214.2 37.7619 214.2ZM52.4128 214V213.68L54.3128 212.98V210.5H48.9328V209.92L55.9728 200.8H57.2328V208.92H59.6128V210.5H57.2328V212.98L58.9328 213.68V214H52.4128ZM50.8928 208.92H54.3128V204.38L50.8928 208.92ZM69.4238 214.2C68.6504 214.2 67.9838 214.107 67.4238 213.92C66.8771 213.72 66.4571 213.427 66.1637 213.04C66.0571 212.893 66.0038 212.76 66.0038 212.64C66.0038 212.453 66.1238 212.273 66.3638 212.1L67.4038 211.3H67.6838L67.9038 211.76C68.1304 212.24 68.3971 212.613 68.7038 212.88C69.0104 213.147 69.4304 213.28 69.9638 213.28C70.6038 213.28 71.1304 213.033 71.5438 212.54C71.9571 212.047 72.1638 211.387 72.1638 210.56C72.1638 209.627 71.8771 208.9 71.3038 208.38C70.7304 207.847 69.8038 207.58 68.5238 207.58C68.1904 207.58 67.8771 207.6 67.5838 207.64C67.3038 207.667 66.9838 207.707 66.6238 207.76V200.8H73.7438V202.82H67.6838V205.32C67.8971 205.307 68.1304 205.293 68.3838 205.28C68.6371 205.267 68.9238 205.26 69.2438 205.26C70.5104 205.26 71.5571 205.447 72.3838 205.82C73.2104 206.193 73.8238 206.7 74.2238 207.34C74.6238 207.98 74.8238 208.707 74.8238 209.52C74.8238 210.413 74.5904 211.213 74.1238 211.92C73.6571 212.627 73.0171 213.187 72.2038 213.6C71.3904 214 70.4638 214.2 69.4238 214.2ZM86.7147 214.2C85.7147 214.2 84.8414 213.993 84.0947 213.58C83.3614 213.153 82.788 212.56 82.3747 211.8C81.9614 211.04 81.7547 210.147 81.7547 209.12C81.7547 207.653 82.1014 206.347 82.7947 205.2C83.488 204.053 84.468 203.087 85.7347 202.3C87.0147 201.513 88.5414 200.947 90.3147 200.6V201.3C88.7547 201.78 87.528 202.56 86.6347 203.64C85.7547 204.72 85.2014 206.013 84.9747 207.52C85.3214 207.067 85.7547 206.72 86.2747 206.48C86.808 206.24 87.408 206.12 88.0747 206.12C88.8214 206.12 89.4614 206.287 89.9947 206.62C90.528 206.953 90.9347 207.407 91.2147 207.98C91.4947 208.553 91.6347 209.193 91.6347 209.9C91.6347 210.66 91.448 211.367 91.0747 212.02C90.7147 212.673 90.168 213.2 89.4347 213.6C88.7014 214 87.7947 214.2 86.7147 214.2ZM84.8547 209.14C84.8547 210.433 85.0214 211.44 85.3547 212.16C85.688 212.88 86.168 213.24 86.7947 213.24C87.2347 213.24 87.5814 213.093 87.8347 212.8C88.1014 212.507 88.2947 212.147 88.4147 211.72C88.5347 211.28 88.5947 210.853 88.5947 210.44C88.5947 209.613 88.4414 208.933 88.1347 208.4C87.828 207.867 87.348 207.6 86.6947 207.6C86.308 207.6 85.9614 207.693 85.6547 207.88C85.348 208.067 85.088 208.32 84.8747 208.64C84.8614 208.8 84.8547 208.967 84.8547 209.14ZM99.4456 214C99.8723 212.973 100.359 211.933 100.906 210.88C101.466 209.827 102.106 208.693 102.826 207.48C103.546 206.253 104.379 204.873 105.326 203.34H98.4056V200.8H107.326V201.56C106.686 202.8 106.026 204.12 105.346 205.52C104.679 206.92 104.066 208.34 103.506 209.78C102.959 211.22 102.546 212.627 102.266 214H99.4456ZM118.997 214.2C118.117 214.2 117.317 214.073 116.597 213.82C115.89 213.553 115.323 213.187 114.897 212.72C114.483 212.24 114.277 211.68 114.277 211.04C114.277 210.667 114.35 210.293 114.497 209.92C114.643 209.547 114.903 209.173 115.277 208.8C115.65 208.427 116.19 208.067 116.897 207.72C116.07 207.2 115.497 206.673 115.177 206.14C114.87 205.593 114.717 204.953 114.717 204.22C114.717 203.567 114.923 202.967 115.337 202.42C115.763 201.86 116.317 201.42 116.997 201.1C117.69 200.767 118.443 200.6 119.257 200.6C120.017 200.6 120.703 200.74 121.317 201.02C121.943 201.287 122.443 201.667 122.817 202.16C123.19 202.64 123.377 203.187 123.377 203.8C123.377 204.347 123.143 204.847 122.677 205.3C122.21 205.753 121.61 206.167 120.877 206.54C121.943 207.127 122.71 207.713 123.177 208.3C123.643 208.873 123.877 209.547 123.877 210.32C123.877 211.067 123.657 211.733 123.217 212.32C122.79 212.907 122.21 213.367 121.477 213.7C120.743 214.033 119.917 214.2 118.997 214.2ZM117.397 203.24C117.397 203.56 117.45 203.867 117.557 204.16C117.677 204.44 117.917 204.733 118.277 205.04C118.65 205.333 119.21 205.673 119.957 206.06C120.303 205.807 120.583 205.493 120.797 205.12C121.01 204.733 121.117 204.293 121.117 203.8C121.117 203.027 120.93 202.453 120.557 202.08C120.197 201.707 119.737 201.52 119.177 201.52C118.657 201.52 118.23 201.673 117.897 201.98C117.563 202.287 117.397 202.707 117.397 203.24ZM116.657 210.74C116.657 211.527 116.87 212.153 117.297 212.62C117.737 213.073 118.29 213.3 118.957 213.3C119.65 213.3 120.177 213.127 120.537 212.78C120.91 212.42 121.097 211.953 121.097 211.38C121.097 210.94 120.997 210.573 120.797 210.28C120.61 209.973 120.277 209.667 119.797 209.36C119.317 209.053 118.65 208.68 117.797 208.24L117.757 208.22C117.33 208.513 117.037 208.867 116.877 209.28C116.73 209.68 116.657 210.167 116.657 210.74ZM131.648 214.2V213.5C133.208 213.02 134.428 212.24 135.308 211.16C136.201 210.08 136.761 208.787 136.988 207.28C136.641 207.733 136.201 208.08 135.668 208.32C135.148 208.56 134.554 208.68 133.888 208.68C133.141 208.68 132.501 208.513 131.968 208.18C131.434 207.847 131.028 207.393 130.748 206.82C130.468 206.247 130.328 205.607 130.328 204.9C130.328 204.14 130.508 203.433 130.868 202.78C131.241 202.127 131.788 201.6 132.508 201.2C133.241 200.8 134.154 200.6 135.248 200.6C136.234 200.6 137.101 200.813 137.848 201.24C138.608 201.653 139.194 202.24 139.608 203C140.021 203.76 140.228 204.653 140.228 205.68C140.228 207.147 139.881 208.453 139.188 209.6C138.494 210.747 137.501 211.713 136.208 212.5C134.928 213.287 133.408 213.853 131.648 214.2ZM133.388 204.36C133.388 205.187 133.534 205.867 133.828 206.4C134.134 206.933 134.614 207.2 135.268 207.2C135.654 207.2 136.001 207.107 136.308 206.92C136.614 206.733 136.874 206.48 137.088 206.16C137.101 206 137.108 205.833 137.108 205.66C137.108 204.367 136.934 203.36 136.588 202.64C136.254 201.92 135.781 201.56 135.168 201.56C134.741 201.56 134.394 201.707 134.128 202C133.861 202.293 133.668 202.66 133.548 203.1C133.441 203.527 133.388 203.947 133.388 204.36ZM151.498 214.2C150.458 214.2 149.565 213.927 148.818 213.38C148.085 212.833 147.518 212.053 147.118 211.04C146.732 210.013 146.538 208.8 146.538 207.4C146.538 206.093 146.745 204.933 147.158 203.92C147.585 202.893 148.172 202.087 148.918 201.5C149.665 200.9 150.525 200.6 151.498 200.6C152.538 200.6 153.432 200.873 154.178 201.42C154.925 201.967 155.492 202.753 155.878 203.78C156.278 204.793 156.478 206 156.478 207.4C156.478 208.707 156.265 209.873 155.838 210.9C155.412 211.913 154.825 212.72 154.078 213.32C153.332 213.907 152.472 214.2 151.498 214.2ZM151.838 213.22C152.185 213.22 152.472 213 152.698 212.56C152.925 212.107 153.092 211.493 153.198 210.72C153.305 209.933 153.358 209.033 153.358 208.02C153.358 206.833 153.285 205.753 153.138 204.78C153.005 203.807 152.785 203.027 152.478 202.44C152.172 201.853 151.758 201.56 151.238 201.56C150.705 201.56 150.305 202.033 150.038 202.98C149.785 203.913 149.658 205.167 149.658 206.74C149.658 207.927 149.732 209.013 149.878 210C150.025 210.973 150.258 211.753 150.578 212.34C150.898 212.927 151.318 213.22 151.838 213.22Z" fill="white"/>
</svg>
