<svg width="21" height="32" viewBox="0 0 21 32" fill="none" xmlns="http://www.w3.org/2000/svg">
<path d="M5.24895 31.9999C8.14637 31.9999 10.4979 29.6106 10.4979 26.6666V21.3333H5.24895C2.35153 21.3333 0 23.7226 0 26.6666C0 29.6106 2.35153 31.9999 5.24895 31.9999Z" fill="#0ACF83"/>
<path d="M0 16C0 13.056 2.35153 10.6666 5.24895 10.6666H10.4979V21.3333H5.24895C2.35153 21.3333 0 18.944 0 16Z" fill="#A259FF"/>
<path d="M0 5.33333C0 2.38933 2.35153 0 5.24895 0H10.4979V10.6667H5.24895C2.35153 10.6667 0 8.27733 0 5.33333Z" fill="#F24E1E"/>
<path d="M10.498 0H15.747C18.6444 0 20.996 2.38933 20.996 5.33333C20.996 8.27733 18.6444 10.6667 15.747 10.6667H10.498V0Z" fill="#FF7262"/>
<path d="M20.996 16C20.996 18.944 18.6444 21.3333 15.747 21.3333C12.8496 21.3333 10.498 18.944 10.498 16C10.498 13.056 12.8496 10.6666 15.747 10.6666C18.6444 10.6666 20.996 13.056 20.996 16Z" fill="#1ABCFE"/>
</svg>
