<svg width="38" height="38" viewBox="0 0 38 38" fill="none"
    xmlns="http://www.w3.org/2000/svg">
    <path d="M19.0342 0.142578C8.56155 0.142578 0.0693359 8.778 0.0693359 19.4312C0.0693359 27.9535 5.50334 35.1838 13.0386 37.7344C13.9864 37.9129 14.3344 37.3159 14.3344 36.8065C14.3344 36.3465 14.3168 34.8271 14.3087 33.2153C9.03263 34.3821 7.91932 30.9394 7.91932 30.9394C7.05663 28.7099 5.81362 28.1171 5.81362 28.1171C4.09294 26.9199 5.94332 26.9445 5.94332 26.9445C7.84772 27.0802 8.85048 28.9322 8.85048 28.9322C10.5419 31.8811 13.2871 31.0286 14.3693 30.5357C14.5395 29.2893 15.031 28.4378 15.5733 27.9564C11.361 27.4687 6.93289 25.8147 6.93289 18.4237C6.93289 16.3178 7.67373 14.5971 8.88691 13.2463C8.69 12.7602 8.04086 10.7986 9.07063 8.14172C9.07063 8.14172 10.6632 7.62331 14.2873 10.1189C15.8001 9.69153 17.4225 9.4772 19.0342 9.46986C20.6459 9.4772 22.2695 9.69153 23.7851 10.1189C27.4048 7.62331 28.9952 8.14172 28.9952 8.14172C30.0275 10.7986 29.378 12.7602 29.1811 13.2463C30.3971 14.5971 31.1329 16.3178 31.1329 18.4237C31.1329 25.8323 26.6963 27.4635 22.4733 27.9411C23.1536 28.5397 23.7597 29.7135 23.7597 31.5131C23.7597 34.0937 23.7377 36.1708 23.7377 36.8065C23.7377 37.3198 24.0791 37.9212 25.0404 37.7318C32.5716 35.1784 37.9987 27.9507 37.9987 19.4312C37.9987 8.778 29.5077 0.142578 19.0342 0.142578" fill="white"/>
    <path d="M7.25204 27.8368C7.21027 27.9329 7.06204 27.9614 6.927 27.8956C6.78945 27.8326 6.71219 27.702 6.75679 27.6058C6.79761 27.5071 6.94616 27.48 7.0834 27.5455C7.22127 27.6087 7.29978 27.7406 7.25204 27.8368" fill="white"/>
    <path d="M8.0201 28.7082C7.92965 28.7935 7.75284 28.7539 7.63287 28.6191C7.50882 28.4846 7.48558 28.3048 7.57729 28.2182C7.67056 28.1329 7.84203 28.1728 7.9664 28.3073C8.09045 28.4434 8.11463 28.6219 8.0201 28.7082" fill="white"/>
    <path d="M8.7683 29.8195C8.65211 29.9016 8.4621 29.8246 8.34465 29.653C8.22845 29.4815 8.22845 29.2758 8.34716 29.1934C8.46493 29.111 8.65211 29.1851 8.77113 29.3554C8.88702 29.5294 8.88702 29.7355 8.7683 29.8195" fill="white"/>
    <path d="M9.79228 30.8925C9.68833 31.0091 9.46692 30.9778 9.30488 30.8187C9.13906 30.6631 9.09289 30.4424 9.19716 30.3258C9.30236 30.2089 9.52502 30.2418 9.68833 30.3996C9.85289 30.5549 9.90314 30.7772 9.79228 30.8925" fill="white"/>
    <path d="M11.2054 31.5155C11.1596 31.6666 10.9463 31.7353 10.7315 31.6711C10.517 31.605 10.3766 31.428 10.42 31.2753C10.4646 31.1233 10.6787 31.0517 10.8951 31.1204C11.1093 31.1862 11.25 31.3619 11.2054 31.5155" fill="white"/>
    <path d="M12.7583 31.6311C12.7637 31.7902 12.5815 31.9221 12.356 31.9247C12.1293 31.9301 11.9459 31.8014 11.9434 31.6449C11.9434 31.4842 12.1214 31.3536 12.3482 31.3497C12.5737 31.3453 12.7583 31.473 12.7583 31.6311" fill="white"/>
    <path d="M14.2021 31.3812C14.2291 31.5364 14.0724 31.6958 13.8485 31.738C13.6284 31.7792 13.4246 31.6834 13.3966 31.5294C13.3693 31.3703 13.5288 31.2109 13.7487 31.1697C13.9729 31.1301 14.1736 31.2234 14.2021 31.3812" fill="white"/>
</svg>
