<svg width="502" height="218" viewBox="0 0 502 218" fill="none" xmlns="http://www.w3.org/2000/svg">
<path d="M4.6875 43L4.6875 8.73438L8.67187 8.73438L8.67187 39.4375L23.8828 39.4375V43L4.6875 43ZM51.2578 43L47.0391 32.125H33.3047L29.1094 43H25.0781L38.4844 8.59375L42.0703 8.59375L55.3828 43H51.2578ZM45.8437 28.5859L41.8359 17.7813C41.7422 17.5 41.5859 17.0391 41.3672 16.3984C41.1641 15.7578 40.9531 15.0938 40.7344 14.4063C40.5156 13.7188 40.3359 13.1641 40.1953 12.7422C40.0391 13.3828 39.8672 14.0234 39.6797 14.6641C39.5078 15.2891 39.3359 15.875 39.1641 16.4219C38.9922 16.9531 38.8438 17.4063 38.7188 17.7813L34.6406 28.5859H45.8437ZM70.6641 43H66.6562V12.25L55.875 12.25V8.73438L81.3984 8.73438V12.25L70.6641 12.25V43ZM116.297 25.8203C116.297 28.4609 115.961 30.8672 115.289 33.0391C114.617 35.1953 113.617 37.0547 112.289 38.6172C110.977 40.1641 109.344 41.3594 107.391 42.2031C105.438 43.0469 103.172 43.4688 100.594 43.4688C97.9375 43.4688 95.6172 43.0469 93.6328 42.2031C91.6641 41.3594 90.0234 40.1563 88.7109 38.5938C87.4141 37.0313 86.4375 35.1641 85.7812 32.9922C85.1406 30.8203 84.8203 28.4141 84.8203 25.7734C84.8203 22.2734 85.3984 19.2031 86.5547 16.5625C87.7109 13.9219 89.4609 11.8672 91.8047 10.3984C94.1641 8.92969 97.1172 8.19531 100.664 8.19531C104.055 8.19531 106.906 8.92188 109.219 10.375C111.547 11.8281 113.305 13.875 114.492 16.5156C115.695 19.1406 116.297 22.2422 116.297 25.8203ZM89.0156 25.8203C89.0156 28.7266 89.4297 31.2422 90.2578 33.3672C91.0859 35.4922 92.3516 37.1328 94.0547 38.2891C95.7734 39.4453 97.9531 40.0234 100.594 40.0234C103.25 40.0234 105.422 39.4453 107.109 38.2891C108.812 37.1328 110.07 35.4922 110.883 33.3672C111.695 31.2422 112.102 28.7266 112.102 25.8203C112.102 21.3984 111.172 17.9453 109.312 15.4609C107.469 12.9609 104.586 11.7109 100.664 11.7109C98.0078 11.7109 95.8203 12.2813 94.1016 13.4219C92.3828 14.5625 91.1016 16.1875 90.2578 18.2969C89.4297 20.3906 89.0156 22.8984 89.0156 25.8203ZM145.664 8.73438C148.477 8.73438 150.797 9.08594 152.625 9.78906C154.469 10.4766 155.844 11.5313 156.75 12.9531C157.656 14.375 158.109 16.1875 158.109 18.3906C158.109 20.2031 157.781 21.7188 157.125 22.9375C156.469 24.1406 155.609 25.1172 154.547 25.8672C153.484 26.6172 152.352 27.1953 151.148 27.6016L160.547 43H155.906L147.516 28.7031L140.391 28.7031V43H136.406V8.73438L145.664 8.73438ZM145.43 12.1797H140.391V25.3281L145.828 25.3281C148.625 25.3281 150.68 24.7578 151.992 23.6172C153.32 22.4766 153.984 20.7969 153.984 18.5781C153.984 16.25 153.281 14.6016 151.875 13.6328C150.484 12.6641 148.336 12.1797 145.43 12.1797ZM185.109 43H166.031V8.73438L185.109 8.73438V12.25L170.016 12.25V23.3359H184.242V26.8047H170.016V39.4844H185.109V43ZM207.352 25.0469L219.328 25.0469V41.6641C217.531 42.2734 215.68 42.7266 213.773 43.0234C211.883 43.3203 209.766 43.4688 207.422 43.4688C203.859 43.4688 200.852 42.7578 198.398 41.3359C195.961 39.9141 194.109 37.8906 192.844 35.2656C191.578 32.625 190.945 29.4922 190.945 25.8672C190.945 22.3203 191.641 19.2266 193.031 16.5859C194.438 13.9453 196.461 11.8984 199.102 10.4453C201.758 8.97656 204.945 8.24219 208.664 8.24219C210.57 8.24219 212.375 8.42188 214.078 8.78125C215.797 9.125 217.391 9.61719 218.859 10.2578L217.336 13.7266C216.07 13.1797 214.672 12.7109 213.141 12.3203C211.625 11.9297 210.055 11.7344 208.43 11.7344C205.633 11.7344 203.234 12.3125 201.234 13.4688C199.25 14.625 197.727 16.2578 196.664 18.3672C195.617 20.4766 195.094 22.9766 195.094 25.8672C195.094 28.7266 195.555 31.2188 196.477 33.3438C197.398 35.4531 198.836 37.0938 200.789 38.2656C202.742 39.4375 205.258 40.0234 208.336 40.0234C209.883 40.0234 211.211 39.9375 212.32 39.7656C213.43 39.5781 214.438 39.3594 215.344 39.1094V28.6094L207.352 28.6094V25.0469ZM253.547 8.73438V30.9063C253.547 33.3281 253.055 35.4844 252.07 37.375C251.102 39.2656 249.633 40.7578 247.664 41.8516C245.695 42.9297 243.227 43.4688 240.258 43.4688C236.023 43.4688 232.797 42.3203 230.578 40.0234C228.375 37.7266 227.273 34.6563 227.273 30.8125V8.73438H231.281V30.9297C231.281 33.8359 232.047 36.0781 233.578 37.6563C235.125 39.2344 237.43 40.0234 240.492 40.0234C242.586 40.0234 244.297 39.6484 245.625 38.8984C246.969 38.1328 247.961 37.0703 248.602 35.7109C249.258 34.3359 249.586 32.75 249.586 30.9531V8.73438H253.547ZM262.641 43V8.73438H266.625V39.4375H281.836V43H262.641ZM309.211 43L304.992 32.125H291.258L287.062 43H283.031L296.438 8.59375H300.023L313.336 43H309.211ZM303.797 28.5859L299.789 17.7813C299.695 17.5 299.539 17.0391 299.32 16.3984C299.117 15.7578 298.906 15.0938 298.688 14.4063C298.469 13.7188 298.289 13.1641 298.148 12.7422C297.992 13.3828 297.82 14.0234 297.633 14.6641C297.461 15.2891 297.289 15.875 297.117 16.4219C296.945 16.9531 296.797 17.4063 296.672 17.7813L292.594 28.5859L303.797 28.5859ZM327.352 8.73438C330.164 8.73438 332.484 9.08594 334.312 9.78906C336.156 10.4766 337.531 11.5313 338.438 12.9531C339.344 14.375 339.797 16.1875 339.797 18.3906C339.797 20.2031 339.469 21.7188 338.812 22.9375C338.156 24.1406 337.297 25.1172 336.234 25.8672C335.172 26.6172 334.039 27.1953 332.836 27.6016L342.234 43H337.594L329.203 28.7031H322.078V43H318.094V8.73438L327.352 8.73438ZM327.117 12.1797L322.078 12.1797V25.3281H327.516C330.312 25.3281 332.367 24.7578 333.68 23.6172C335.008 22.4766 335.672 20.7969 335.672 18.5781C335.672 16.25 334.969 14.6016 333.562 13.6328C332.172 12.6641 330.023 12.1797 327.117 12.1797Z" fill="white"/>
<path d="M10.9082 106L9.15039 101.469H3.42773L1.67969 106H0L5.58594 91.6641H7.08008L12.627 106H10.9082ZM8.65234 99.9941L6.98242 95.4922C6.94336 95.375 6.87826 95.1829 6.78711 94.916C6.70247 94.6491 6.61458 94.3724 6.52344 94.0859C6.43229 93.7995 6.35742 93.5684 6.29883 93.3926C6.23372 93.6595 6.16211 93.9264 6.08398 94.1934C6.01237 94.4538 5.94076 94.6979 5.86914 94.9258C5.79753 95.1471 5.73568 95.3359 5.68359 95.4922L3.98437 99.9941H8.65234ZM18.3691 95.1211C19.6452 95.1211 20.5924 95.4076 21.2109 95.9805C21.8294 96.5534 22.1387 97.4681 22.1387 98.7246V106H20.957L20.6445 104.418H20.5664C20.2669 104.809 19.9544 105.137 19.6289 105.404C19.3034 105.665 18.9258 105.863 18.4961 106C18.0729 106.13 17.5521 106.195 16.9336 106.195C16.2826 106.195 15.7031 106.081 15.1953 105.854C14.694 105.626 14.2969 105.281 14.0039 104.818C13.7174 104.356 13.5742 103.77 13.5742 103.061C13.5742 101.993 13.9974 101.173 14.8437 100.6C15.6901 100.027 16.9792 99.7142 18.7109 99.6621L20.5566 99.584V98.9297C20.5566 98.0052 20.3581 97.3574 19.9609 96.9863C19.5638 96.6152 19.0039 96.4297 18.2812 96.4297C17.7214 96.4297 17.1875 96.5111 16.6797 96.6738C16.1719 96.8366 15.6901 97.0286 15.2344 97.25L14.7363 96.0195C15.2181 95.7721 15.7715 95.5605 16.3965 95.3848C17.0215 95.209 17.679 95.1211 18.3691 95.1211ZM20.5371 100.727L18.9062 100.795C17.5716 100.847 16.6309 101.065 16.084 101.449C15.5371 101.833 15.2637 102.377 15.2637 103.08C15.2637 103.692 15.4492 104.145 15.8203 104.438C16.1914 104.73 16.6829 104.877 17.2949 104.877C18.2454 104.877 19.0234 104.613 19.6289 104.086C20.2344 103.559 20.5371 102.768 20.5371 101.713V100.727ZM41.3086 106L41.3086 91.7227H49.6973V93.1875H42.9688V97.7969H45.1855C46.5592 97.7969 47.6335 97.9661 48.4082 98.3047C49.1829 98.6432 49.7266 99.1152 50.0391 99.7207C50.3581 100.326 50.5176 101.029 50.5176 101.83C50.5176 103.145 50.1237 104.171 49.3359 104.906C48.5547 105.635 47.2559 106 45.4395 106H41.3086ZM42.9688 104.574H45.2637C46.5527 104.574 47.4642 104.35 47.998 103.9C48.5384 103.445 48.8086 102.755 48.8086 101.83C48.8086 101.186 48.6784 100.674 48.418 100.297C48.1576 99.9193 47.7474 99.6491 47.1875 99.4863C46.6276 99.3236 45.8919 99.2422 44.9805 99.2422H42.9688V104.574ZM52.7539 99.5742C52.7539 98.0508 52.9004 96.752 53.1934 95.6777C53.4863 94.597 53.9388 93.7311 54.5508 93.0801C55.1693 92.4225 55.9635 91.9733 56.9336 91.7324C57.7669 91.5046 58.6133 91.3092 59.4727 91.1465C60.332 90.9772 61.1686 90.8307 61.9824 90.707L62.2656 92.1328C61.8555 92.1914 61.4258 92.2598 60.9766 92.3379C60.5273 92.4095 60.0781 92.4876 59.6289 92.5723C59.1797 92.6504 58.7565 92.735 58.3594 92.8262C57.9622 92.9108 57.6107 92.9987 57.3047 93.0898C56.7513 93.2396 56.2728 93.5 55.8691 93.8711C55.472 94.2422 55.1562 94.7533 54.9219 95.4043C54.694 96.0553 54.5573 96.8757 54.5117 97.8652H54.6289C54.8242 97.5788 55.0911 97.2956 55.4297 97.0156C55.7682 96.7357 56.1719 96.5046 56.6406 96.3223C57.1094 96.1335 57.6367 96.0391 58.2227 96.0391C59.1471 96.0391 59.9186 96.2409 60.5371 96.6445C61.1556 97.0417 61.6211 97.6016 61.9336 98.3242C62.2461 99.0469 62.4023 99.8932 62.4023 100.863C62.4023 102.029 62.2005 103.008 61.7969 103.803C61.3997 104.597 60.8398 105.196 60.1172 105.6C59.3945 105.997 58.5449 106.195 57.5684 106.195C56.8132 106.195 56.1361 106.049 55.5371 105.756C54.9447 105.463 54.4401 105.033 54.0234 104.467C53.6133 103.9 53.2975 103.207 53.0762 102.387C52.8613 101.566 52.7539 100.629 52.7539 99.5742ZM57.6953 104.848C58.3138 104.848 58.8444 104.717 59.2871 104.457C59.7363 104.197 60.0814 103.786 60.3223 103.227C60.5697 102.66 60.6934 101.924 60.6934 101.02C60.6934 99.8867 60.4753 99.0013 60.0391 98.3633C59.6094 97.7188 58.9193 97.3965 57.9688 97.3965C57.3763 97.3965 56.8392 97.5234 56.3574 97.7773C55.8757 98.0247 55.4688 98.321 55.1367 98.666C54.8047 99.0111 54.5638 99.3203 54.4141 99.5938C54.4141 100.258 54.4629 100.902 54.5605 101.527C54.6582 102.152 54.8275 102.715 55.0684 103.217C55.3092 103.718 55.6413 104.115 56.0645 104.408C56.4941 104.701 57.0378 104.848 57.6953 104.848ZM81.0352 91.7227H85.0781C86.862 91.7227 88.2031 91.9896 89.1016 92.5234C90 93.0573 90.4492 93.9655 90.4492 95.248C90.4492 95.8014 90.3418 96.2995 90.127 96.7422C89.9186 97.1784 89.6126 97.5397 89.209 97.8262C88.8053 98.1126 88.3073 98.3112 87.7148 98.4219V98.5195C88.3398 98.6172 88.8932 98.7962 89.375 99.0566C89.8568 99.3171 90.2344 99.6816 90.5078 100.15C90.7812 100.619 90.918 101.215 90.918 101.938C90.918 102.816 90.7129 103.559 90.3027 104.164C89.8991 104.77 89.3262 105.229 88.584 105.541C87.8418 105.847 86.9629 106 85.9473 106H81.0352V91.7227ZM82.6953 97.8457H85.4297C86.6732 97.8457 87.5326 97.6406 88.0078 97.2305C88.4896 96.8203 88.7305 96.2214 88.7305 95.4336C88.7305 94.6198 88.444 94.0339 87.8711 93.6758C87.3047 93.3177 86.3997 93.1387 85.1562 93.1387H82.6953V97.8457ZM82.6953 99.2422V104.584H85.6641C86.9336 104.584 87.832 104.337 88.3594 103.842C88.8867 103.34 89.1504 102.667 89.1504 101.82C89.1504 101.28 89.0299 100.818 88.7891 100.434C88.5547 100.049 88.1706 99.7565 87.6367 99.5547C87.1094 99.3464 86.403 99.2422 85.5176 99.2422H82.6953ZM102.227 97.9824C102.227 98.653 102.031 99.1771 101.641 99.5547C101.25 99.9258 100.745 100.176 100.127 100.307V100.385C100.798 100.476 101.374 100.717 101.855 101.107C102.344 101.492 102.588 102.081 102.588 102.875C102.588 103.487 102.441 104.027 102.148 104.496C101.855 104.965 101.396 105.333 100.771 105.6C100.146 105.867 99.3327 106 98.3301 106H93.7207V95.2969H98.291C99.0592 95.2969 99.7363 95.3848 100.322 95.5605C100.915 95.7298 101.38 96.0098 101.719 96.4004C102.057 96.791 102.227 97.3184 102.227 97.9824ZM100.898 102.875C100.898 102.243 100.658 101.788 100.176 101.508C99.7005 101.228 99.0072 101.088 98.0957 101.088H95.3516V104.682H98.1348C99.0332 104.682 99.7168 104.545 100.186 104.271C100.661 103.992 100.898 103.526 100.898 102.875ZM100.576 98.168C100.576 97.6602 100.391 97.2826 100.02 97.0352C99.6484 96.7813 99.0397 96.6543 98.1934 96.6543H95.3516V99.7305H97.9102C98.7891 99.7305 99.4531 99.6035 99.9023 99.3496C100.352 99.0957 100.576 98.7018 100.576 98.168ZM129.053 91.7227V93.207L122.695 93.207V106L121.035 106V91.7227L129.053 91.7227ZM137.695 95.2969V96.6738H132.832V106H131.201V95.2969H137.695ZM165.176 91.7227V104.516H166.934V109.73H165.342V106H155.42V109.73H153.828V104.516H154.922C155.41 103.682 155.866 102.748 156.289 101.713C156.719 100.671 157.1 99.584 157.432 98.4512C157.77 97.3118 158.044 96.1693 158.252 95.0234C158.467 93.8776 158.604 92.7773 158.662 91.7227H165.176ZM163.525 93.2168H160.127C160.068 94.0241 159.938 94.9258 159.736 95.9219C159.535 96.9115 159.274 97.9271 158.955 98.9688C158.643 100.01 158.291 101.01 157.9 101.967C157.516 102.924 157.109 103.773 156.68 104.516H163.525V93.2168ZM176.953 95.2969V104.623H178.486V109.701H176.914V106H169.336V109.701H167.783V104.623H168.623C169.235 103.777 169.743 102.849 170.146 101.84C170.55 100.831 170.856 99.7728 171.064 98.666C171.273 97.5527 171.383 96.4297 171.396 95.2969H176.953ZM175.381 96.5859H172.842C172.783 97.5365 172.643 98.5033 172.422 99.4863C172.207 100.469 171.921 101.407 171.562 102.299C171.204 103.184 170.788 103.959 170.312 104.623H175.381V96.5859ZM204.395 106H196.445V91.7227H204.395V93.1875H198.105V97.8066H204.033V99.252H198.105V104.535H204.395V106ZM211.436 95.1016C212.347 95.1016 213.128 95.3034 213.779 95.707C214.43 96.1107 214.928 96.6771 215.273 97.4063C215.618 98.1289 215.791 98.9753 215.791 99.9453V100.951H208.398C208.418 102.208 208.73 103.165 209.336 103.822C209.941 104.48 210.794 104.809 211.895 104.809C212.572 104.809 213.171 104.747 213.691 104.623C214.212 104.499 214.753 104.317 215.312 104.076V105.502C214.772 105.743 214.235 105.919 213.701 106.029C213.174 106.14 212.549 106.195 211.826 106.195C210.798 106.195 209.899 105.987 209.131 105.57C208.369 105.147 207.777 104.529 207.354 103.715C206.93 102.901 206.719 101.905 206.719 100.727C206.719 99.5742 206.911 98.5781 207.295 97.7383C207.686 96.8919 208.232 96.2409 208.936 95.7852C209.645 95.3294 210.479 95.1016 211.436 95.1016ZM211.416 96.4297C210.55 96.4297 209.86 96.7129 209.346 97.2793C208.831 97.8457 208.525 98.6367 208.428 99.6523H214.092C214.085 99.0143 213.984 98.4544 213.789 97.9727C213.6 97.4844 213.311 97.1068 212.92 96.8398C212.529 96.5664 212.028 96.4297 211.416 96.4297ZM242.324 106H234.375V91.7227H242.324V93.1875H236.035V97.8066H241.963V99.252H236.035V104.535H242.324V106ZM235.771 88.8027C235.771 88.4772 235.856 88.2396 236.025 88.0898C236.195 87.9401 236.403 87.8652 236.65 87.8652C236.904 87.8652 237.116 87.9401 237.285 88.0898C237.461 88.2396 237.549 88.4772 237.549 88.8027C237.549 89.1217 237.461 89.3626 237.285 89.5254C237.116 89.6816 236.904 89.7598 236.65 89.7598C236.403 89.7598 236.195 89.6816 236.025 89.5254C235.856 89.3626 235.771 89.1217 235.771 88.8027ZM239.521 88.8027C239.521 88.4772 239.606 88.2396 239.775 88.0898C239.945 87.9401 240.15 87.8652 240.391 87.8652C240.638 87.8652 240.85 87.9401 241.025 88.0898C241.201 88.2396 241.289 88.4772 241.289 88.8027C241.289 89.1217 241.201 89.3626 241.025 89.5254C240.85 89.6816 240.638 89.7598 240.391 89.7598C240.15 89.7598 239.945 89.6816 239.775 89.5254C239.606 89.3626 239.521 89.1217 239.521 88.8027ZM249.365 95.1016C250.277 95.1016 251.058 95.3034 251.709 95.707C252.36 96.1107 252.858 96.6771 253.203 97.4063C253.548 98.1289 253.721 98.9753 253.721 99.9453V100.951H246.328C246.348 102.208 246.66 103.165 247.266 103.822C247.871 104.48 248.724 104.809 249.824 104.809C250.501 104.809 251.1 104.747 251.621 104.623C252.142 104.499 252.682 104.317 253.242 104.076V105.502C252.702 105.743 252.165 105.919 251.631 106.029C251.104 106.14 250.479 106.195 249.756 106.195C248.727 106.195 247.829 105.987 247.061 105.57C246.299 105.147 245.706 104.529 245.283 103.715C244.86 102.901 244.648 101.905 244.648 100.727C244.648 99.5742 244.84 98.5781 245.225 97.7383C245.615 96.8919 246.162 96.2409 246.865 95.7852C247.575 95.3294 248.408 95.1016 249.365 95.1016ZM249.346 96.4297C248.48 96.4297 247.79 96.7129 247.275 97.2793C246.761 97.8457 246.455 98.6367 246.357 99.6523H252.021C252.015 99.0143 251.914 98.4544 251.719 97.9727C251.53 97.4844 251.24 97.1068 250.85 96.8398C250.459 96.5664 249.958 96.4297 249.346 96.4297ZM246.465 92.3867C246.465 92.0612 246.549 91.8236 246.719 91.6738C246.888 91.5241 247.096 91.4492 247.344 91.4492C247.598 91.4492 247.809 91.5241 247.979 91.6738C248.154 91.8236 248.242 92.0612 248.242 92.3867C248.242 92.7057 248.154 92.9466 247.979 93.1094C247.809 93.2656 247.598 93.3438 247.344 93.3438C247.096 93.3438 246.888 93.2656 246.719 93.1094C246.549 92.9466 246.465 92.7057 246.465 92.3867ZM250.215 92.3867C250.215 92.0612 250.299 91.8236 250.469 91.6738C250.638 91.5241 250.843 91.4492 251.084 91.4492C251.331 91.4492 251.543 91.5241 251.719 91.6738C251.895 91.8236 251.982 92.0612 251.982 92.3867C251.982 92.7057 251.895 92.9466 251.719 93.1094C251.543 93.2656 251.331 93.3438 251.084 93.3438C250.843 93.3438 250.638 93.2656 250.469 93.1094C250.299 92.9466 250.215 92.7057 250.215 92.3867ZM281.387 98.6563L275.801 91.7227H277.646L283.154 98.6367V91.7227H284.756V98.6367L290.264 91.7227H292.109L286.523 98.6465L292.314 106H290.4L284.756 98.7637V106H283.154V98.7637L277.5 106H275.586L281.387 98.6563ZM306.631 95.2969L302.178 100.502L307.012 106H305.156L300.469 100.57V106H298.955V100.57L294.277 106H292.422L297.256 100.502L292.793 95.2969H294.58L298.955 100.492V95.2969H300.469V100.492L304.863 95.2969H306.631ZM327.764 95.0723C327.764 96.0423 327.464 96.8105 326.865 97.377C326.266 97.9368 325.465 98.3014 324.463 98.4707V98.5391C325.635 98.7083 326.527 99.0859 327.139 99.6719C327.751 100.258 328.057 101.026 328.057 101.977C328.057 102.816 327.845 103.555 327.422 104.193C327.005 104.825 326.377 105.316 325.537 105.668C324.697 106.02 323.652 106.195 322.402 106.195C321.628 106.195 320.889 106.133 320.186 106.01C319.482 105.893 318.838 105.694 318.252 105.414V103.881C318.656 104.076 319.092 104.245 319.561 104.389C320.029 104.532 320.505 104.643 320.986 104.721C321.475 104.792 321.94 104.828 322.383 104.828C323.672 104.828 324.648 104.581 325.312 104.086C325.983 103.585 326.318 102.882 326.318 101.977C326.318 101.046 325.931 100.368 325.156 99.9453C324.388 99.5156 323.307 99.3008 321.914 99.3008H319.863V97.9043H321.846C322.783 97.9043 323.561 97.7969 324.18 97.582C324.798 97.3607 325.26 97.0514 325.566 96.6543C325.879 96.2507 326.035 95.7754 326.035 95.2285C326.035 94.4798 325.762 93.9036 325.215 93.5C324.674 93.0964 323.968 92.8945 323.096 92.8945C322.191 92.8945 321.442 93.0117 320.85 93.2461C320.257 93.474 319.681 93.7702 319.121 94.1348L318.32 93.002C318.698 92.7285 319.128 92.4811 319.609 92.2598C320.091 92.0319 320.625 91.8529 321.211 91.7227C321.797 91.5859 322.428 91.5176 323.105 91.5176C324.115 91.5176 324.964 91.6706 325.654 91.9766C326.344 92.276 326.868 92.6927 327.227 93.2266C327.585 93.7604 327.764 94.3757 327.764 95.0723ZM333.604 95.1016C334.404 95.1016 335.098 95.2122 335.684 95.4336C336.27 95.6484 336.722 95.9642 337.041 96.3809C337.36 96.7975 337.52 97.3053 337.52 97.9043C337.52 98.5488 337.344 99.0632 336.992 99.4473C336.641 99.8314 336.156 100.108 335.537 100.277V100.355C335.973 100.473 336.367 100.642 336.719 100.863C337.077 101.078 337.36 101.365 337.568 101.723C337.783 102.074 337.891 102.514 337.891 103.041C337.891 103.64 337.728 104.18 337.402 104.662C337.077 105.137 336.582 105.512 335.918 105.785C335.254 106.059 334.414 106.195 333.398 106.195C332.897 106.195 332.422 106.166 331.973 106.107C331.523 106.055 331.117 105.977 330.752 105.873C330.387 105.769 330.068 105.645 329.795 105.502V104.027C330.251 104.249 330.785 104.444 331.396 104.613C332.008 104.783 332.669 104.867 333.379 104.867C333.926 104.867 334.417 104.805 334.854 104.682C335.29 104.551 335.635 104.346 335.889 104.066C336.149 103.78 336.279 103.406 336.279 102.943C336.279 102.52 336.165 102.172 335.938 101.898C335.71 101.618 335.368 101.413 334.912 101.283C334.463 101.146 333.893 101.078 333.203 101.078H331.768V99.75H332.949C333.867 99.75 334.6 99.6198 335.146 99.3594C335.693 99.099 335.967 98.6595 335.967 98.041C335.967 97.5072 335.755 97.11 335.332 96.8496C334.909 96.5827 334.303 96.4492 333.516 96.4492C332.93 96.4492 332.412 96.5111 331.963 96.6348C331.514 96.752 331.029 96.9212 330.508 97.1426L329.932 95.8438C330.492 95.5964 331.077 95.4108 331.689 95.2871C332.301 95.1634 332.939 95.1016 333.604 95.1016ZM356.367 91.7227H357.92V99.9746C357.92 100.287 357.917 100.629 357.91 101C357.904 101.365 357.894 101.723 357.881 102.074C357.868 102.426 357.852 102.745 357.832 103.031C357.819 103.318 357.806 103.539 357.793 103.695H357.871L365.82 91.7227H367.646V106H366.094V97.8457C366.094 97.5007 366.1 97.1361 366.113 96.752C366.126 96.3613 366.139 95.9837 366.152 95.6191C366.172 95.2546 366.191 94.929 366.211 94.6426C366.23 94.3496 366.243 94.125 366.25 93.9688H366.162L358.203 106H356.367V91.7227ZM372.842 95.2969V102.025C372.842 102.156 372.839 102.325 372.832 102.533C372.826 102.735 372.816 102.953 372.803 103.188C372.79 103.415 372.777 103.637 372.764 103.852C372.757 104.06 372.747 104.232 372.734 104.369L378.574 95.2969H380.566V106H379.053V99.4375C379.053 99.2292 379.056 98.9622 379.062 98.6367C379.069 98.3112 379.079 97.9922 379.092 97.6797C379.105 97.3607 379.115 97.1133 379.121 96.9375L373.301 106H371.299V95.2969H372.842ZM399.863 91.7227H401.416V99.9746C401.416 100.287 401.413 100.629 401.406 101C401.4 101.365 401.39 101.723 401.377 102.074C401.364 102.426 401.348 102.745 401.328 103.031C401.315 103.318 401.302 103.539 401.289 103.695H401.367L409.316 91.7227H411.143V106H409.59V97.8457C409.59 97.5007 409.596 97.1361 409.609 96.752C409.622 96.3613 409.635 95.9837 409.648 95.6191C409.668 95.2546 409.688 94.929 409.707 94.6426C409.727 94.3496 409.74 94.125 409.746 93.9688H409.658L401.699 106H399.863V91.7227ZM409.375 87.3086C409.316 87.9661 409.15 88.5163 408.877 88.959C408.61 89.4017 408.216 89.737 407.695 89.9648C407.174 90.1862 406.507 90.2969 405.693 90.2969C404.854 90.2969 404.176 90.1895 403.662 89.9746C403.154 89.7533 402.777 89.4212 402.529 88.9785C402.288 88.5358 402.145 87.9792 402.1 87.3086H403.623C403.695 88.0247 403.887 88.513 404.199 88.7734C404.512 89.0339 405.02 89.1641 405.723 89.1641C406.348 89.1641 406.839 89.0273 407.197 88.7539C407.555 88.4805 407.77 87.9987 407.842 87.3086H409.375ZM416.338 95.2969V102.025C416.338 102.156 416.335 102.325 416.328 102.533C416.322 102.735 416.312 102.953 416.299 103.188C416.286 103.415 416.273 103.637 416.26 103.852C416.253 104.06 416.243 104.232 416.23 104.369L422.07 95.2969H424.062V106H422.549V99.4375C422.549 99.2292 422.552 98.9622 422.559 98.6367C422.565 98.3112 422.575 97.9922 422.588 97.6797C422.601 97.3607 422.611 97.1133 422.617 96.9375L416.797 106H414.795V95.2969H416.338ZM423.262 90.8926C423.203 91.5501 423.037 92.1003 422.764 92.543C422.497 92.9857 422.103 93.321 421.582 93.5488C421.061 93.7702 420.394 93.8809 419.58 93.8809C418.74 93.8809 418.063 93.7734 417.549 93.5586C417.041 93.3372 416.663 93.0052 416.416 92.5625C416.175 92.1198 416.032 91.5632 415.986 90.8926H417.51C417.581 91.6087 417.773 92.097 418.086 92.3574C418.398 92.6178 418.906 92.748 419.609 92.748C420.234 92.748 420.726 92.6113 421.084 92.3379C421.442 92.0645 421.657 91.5827 421.729 90.8926H423.262ZM453.574 106H451.562L445 98.7539V106H443.34V91.7227H445V98.6367L451.396 91.7227H453.301L446.982 98.6563L453.574 106ZM461.543 95.2969H463.33L458.711 100.463L463.701 106H461.797L456.934 100.57V106H455.303V95.2969H456.934V100.492L461.543 95.2969ZM486.426 106H484.766V93.1875L480.137 93.1875C480.046 93.9167 479.948 94.6784 479.844 95.4727C479.74 96.2669 479.632 97.0579 479.521 97.8457C479.411 98.6335 479.3 99.3789 479.189 100.082C479.079 100.785 478.968 101.41 478.857 101.957C478.688 102.862 478.477 103.633 478.223 104.271C477.975 104.903 477.643 105.388 477.227 105.727C476.816 106.059 476.273 106.225 475.596 106.225C475.368 106.225 475.14 106.202 474.912 106.156C474.691 106.111 474.495 106.055 474.326 105.99V104.594C474.476 104.659 474.642 104.714 474.824 104.76C475.013 104.805 475.212 104.828 475.42 104.828C475.83 104.828 476.152 104.665 476.387 104.34C476.628 104.008 476.816 103.588 476.953 103.08C477.096 102.572 477.22 102.051 477.324 101.518C477.409 101.075 477.507 100.515 477.617 99.8379C477.728 99.1608 477.845 98.3926 477.969 97.5332C478.092 96.6673 478.219 95.7428 478.35 94.7598C478.486 93.7767 478.62 92.7643 478.75 91.7227L486.426 91.7227V106ZM498.115 106H496.465V96.6543H493.213C493.083 98.3405 492.917 99.7858 492.715 100.99C492.52 102.188 492.272 103.168 491.973 103.93C491.68 104.685 491.322 105.242 490.898 105.6C490.482 105.951 489.984 106.127 489.404 106.127C489.229 106.127 489.062 106.117 488.906 106.098C488.75 106.078 488.617 106.046 488.506 106V104.77C488.59 104.796 488.678 104.815 488.77 104.828C488.867 104.841 488.968 104.848 489.072 104.848C489.365 104.848 489.632 104.727 489.873 104.486C490.12 104.239 490.342 103.868 490.537 103.373C490.739 102.878 490.918 102.253 491.074 101.498C491.23 100.736 491.367 99.8411 491.484 98.8125C491.608 97.7773 491.715 96.6055 491.807 95.2969H498.115V106ZM8.23242 136L3.4375 123.363H3.35937C3.38542 123.63 3.4082 123.956 3.42773 124.34C3.44727 124.724 3.46354 125.144 3.47656 125.6C3.48958 126.049 3.49609 126.508 3.49609 126.977L3.49609 136H1.95312L1.95312 121.723H4.41406L8.93555 133.598H9.00391L13.5937 121.723H16.0352V136H14.3945L14.3945 126.859C14.3945 126.436 14.401 126.013 14.4141 125.59C14.4271 125.16 14.4434 124.757 14.4629 124.379C14.4824 123.995 14.502 123.663 14.5215 123.383H14.4434L9.58984 136H8.23242ZM30.9961 125.297V136H29.5312V129.027C29.5312 128.741 29.5378 128.451 29.5508 128.158C29.5703 127.859 29.5931 127.559 29.6191 127.26H29.5605L26.0059 136H24.6289L21.1621 127.26H21.1035C21.123 127.559 21.1361 127.859 21.1426 128.158C21.1556 128.451 21.1621 128.76 21.1621 129.086V136H19.6875V125.297H21.8652L25.3223 134.047L28.8281 125.297H30.9961ZM66.2109 136H64.5508V129.271H57.0508V136H55.3906V121.723H57.0508V127.807H64.5508L64.5508 121.723H66.2109L66.2109 136ZM71.5234 125.297L71.5234 129.789H77.4902L77.4902 125.297H79.1113L79.1113 136H77.4902V131.166H71.5234V136H69.8926L69.8926 125.297H71.5234ZM110.762 128.842C110.762 129.942 110.622 130.945 110.342 131.85C110.062 132.748 109.645 133.523 109.092 134.174C108.545 134.818 107.865 135.316 107.051 135.668C106.237 136.02 105.293 136.195 104.219 136.195C103.112 136.195 102.145 136.02 101.318 135.668C100.498 135.316 99.8145 134.815 99.2676 134.164C98.7272 133.513 98.3203 132.735 98.0469 131.83C97.7799 130.925 97.6465 129.923 97.6465 128.822C97.6465 127.364 97.8874 126.085 98.3691 124.984C98.8509 123.884 99.5801 123.028 100.557 122.416C101.54 121.804 102.77 121.498 104.248 121.498C105.661 121.498 106.849 121.801 107.812 122.406C108.783 123.012 109.515 123.865 110.01 124.965C110.511 126.059 110.762 127.351 110.762 128.842ZM99.3945 128.842C99.3945 130.053 99.5671 131.101 99.9121 131.986C100.257 132.872 100.785 133.555 101.494 134.037C102.21 134.519 103.118 134.76 104.219 134.76C105.326 134.76 106.23 134.519 106.934 134.037C107.643 133.555 108.167 132.872 108.506 131.986C108.844 131.101 109.014 130.053 109.014 128.842C109.014 126.999 108.626 125.561 107.852 124.525C107.083 123.484 105.882 122.963 104.248 122.963C103.141 122.963 102.23 123.201 101.514 123.676C100.798 124.151 100.264 124.828 99.9121 125.707C99.5671 126.579 99.3945 127.624 99.3945 128.842ZM122.93 130.629C122.93 131.508 122.816 132.292 122.588 132.982C122.36 133.673 122.031 134.255 121.602 134.73C121.172 135.206 120.651 135.57 120.039 135.824C119.434 136.072 118.747 136.195 117.979 136.195C117.262 136.195 116.605 136.072 116.006 135.824C115.413 135.57 114.899 135.206 114.463 134.73C114.033 134.255 113.698 133.673 113.457 132.982C113.223 132.292 113.105 131.508 113.105 130.629C113.105 129.457 113.304 128.461 113.701 127.641C114.098 126.814 114.665 126.186 115.4 125.756C116.143 125.32 117.025 125.102 118.047 125.102C119.023 125.102 119.876 125.32 120.605 125.756C121.341 126.192 121.911 126.824 122.314 127.65C122.725 128.471 122.93 129.464 122.93 130.629ZM114.785 130.629C114.785 131.488 114.899 132.234 115.127 132.865C115.355 133.497 115.706 133.985 116.182 134.33C116.657 134.675 117.269 134.848 118.018 134.848C118.76 134.848 119.368 134.675 119.844 134.33C120.326 133.985 120.68 133.497 120.908 132.865C121.136 132.234 121.25 131.488 121.25 130.629C121.25 129.776 121.136 129.04 120.908 128.422C120.68 127.797 120.329 127.315 119.854 126.977C119.378 126.638 118.763 126.469 118.008 126.469C116.895 126.469 116.077 126.837 115.557 127.572C115.042 128.308 114.785 129.327 114.785 130.629ZM141.562 136V121.723H152.197V136H150.557V123.188H143.223V136H141.562ZM164.854 125.297V136H163.223V126.693H157.52V136H155.889V125.297H164.854ZM187.852 121.723C189.694 121.723 191.038 122.084 191.885 122.807C192.738 123.523 193.164 124.551 193.164 125.893C193.164 126.498 193.063 127.074 192.861 127.621C192.666 128.161 192.347 128.64 191.904 129.057C191.462 129.467 190.879 129.792 190.156 130.033C189.44 130.268 188.561 130.385 187.52 130.385H185.781V136H184.121V121.723H187.852ZM187.695 123.139H185.781V128.959H187.334C188.245 128.959 189.004 128.861 189.609 128.666C190.221 128.471 190.68 128.155 190.986 127.719C191.292 127.276 191.445 126.69 191.445 125.961C191.445 125.01 191.143 124.304 190.537 123.842C189.932 123.373 188.984 123.139 187.695 123.139ZM200.938 125.102C202.272 125.102 203.337 125.561 204.131 126.479C204.925 127.396 205.322 128.777 205.322 130.619C205.322 131.837 205.14 132.859 204.775 133.686C204.411 134.512 203.896 135.137 203.232 135.561C202.575 135.984 201.797 136.195 200.898 136.195C200.332 136.195 199.834 136.12 199.404 135.971C198.975 135.821 198.607 135.619 198.301 135.365C197.995 135.111 197.741 134.835 197.539 134.535H197.422C197.441 134.789 197.464 135.095 197.49 135.453C197.523 135.811 197.539 136.124 197.539 136.391V140.785H195.908V125.297H197.246L197.461 126.879H197.539C197.747 126.553 198.001 126.257 198.301 125.99C198.6 125.717 198.965 125.502 199.395 125.346C199.831 125.183 200.345 125.102 200.938 125.102ZM200.654 126.469C199.912 126.469 199.313 126.612 198.857 126.898C198.408 127.185 198.079 127.615 197.871 128.188C197.663 128.754 197.552 129.467 197.539 130.326V130.639C197.539 131.544 197.637 132.309 197.832 132.934C198.034 133.559 198.363 134.034 198.818 134.359C199.281 134.685 199.899 134.848 200.674 134.848C201.338 134.848 201.891 134.669 202.334 134.311C202.777 133.952 203.105 133.454 203.32 132.816C203.542 132.172 203.652 131.433 203.652 130.6C203.652 129.337 203.405 128.334 202.91 127.592C202.422 126.843 201.67 126.469 200.654 126.469ZM230.088 122.982C229.3 122.982 228.59 123.119 227.959 123.393C227.334 123.66 226.8 124.05 226.357 124.564C225.921 125.072 225.586 125.688 225.352 126.41C225.117 127.133 225 127.947 225 128.852C225 130.049 225.186 131.091 225.557 131.977C225.934 132.855 226.494 133.536 227.236 134.018C227.985 134.499 228.919 134.74 230.039 134.74C230.677 134.74 231.276 134.688 231.836 134.584C232.402 134.473 232.952 134.337 233.486 134.174V135.619C232.965 135.814 232.419 135.958 231.846 136.049C231.273 136.146 230.592 136.195 229.805 136.195C228.353 136.195 227.139 135.896 226.162 135.297C225.192 134.691 224.463 133.839 223.975 132.738C223.493 131.638 223.252 130.339 223.252 128.842C223.252 127.761 223.402 126.775 223.701 125.883C224.007 124.984 224.45 124.21 225.029 123.559C225.615 122.908 226.331 122.406 227.178 122.055C228.031 121.697 229.007 121.518 230.107 121.518C230.83 121.518 231.527 121.589 232.197 121.732C232.868 121.876 233.473 122.081 234.014 122.348L233.35 123.754C232.894 123.546 232.393 123.367 231.846 123.217C231.305 123.061 230.719 122.982 230.088 122.982ZM240.625 136.195C239.661 136.195 238.812 135.997 238.076 135.6C237.34 135.202 236.768 134.597 236.357 133.783C235.947 132.969 235.742 131.944 235.742 130.707C235.742 129.411 235.957 128.354 236.387 127.533C236.823 126.706 237.422 126.094 238.184 125.697C238.945 125.3 239.811 125.102 240.781 125.102C241.315 125.102 241.829 125.157 242.324 125.268C242.826 125.372 243.236 125.505 243.555 125.668L243.066 127.025C242.741 126.895 242.363 126.778 241.934 126.674C241.51 126.57 241.113 126.518 240.742 126.518C240 126.518 239.382 126.677 238.887 126.996C238.398 127.315 238.031 127.784 237.783 128.402C237.542 129.021 237.422 129.783 237.422 130.688C237.422 131.553 237.539 132.292 237.773 132.904C238.014 133.516 238.369 133.985 238.838 134.311C239.313 134.63 239.906 134.789 240.615 134.789C241.182 134.789 241.693 134.73 242.148 134.613C242.604 134.49 243.018 134.346 243.389 134.184V135.629C243.031 135.811 242.63 135.951 242.188 136.049C241.751 136.146 241.23 136.195 240.625 136.195ZM266.143 136H264.473V123.188H259.98V121.723H270.615V123.188H266.143V136ZM279.824 126.674H276.299V136H274.697V126.674H271.221V125.297H279.824V126.674ZM308.174 121.723L303.525 132.074C303.122 132.986 302.712 133.747 302.295 134.359C301.878 134.971 301.383 135.43 300.811 135.736C300.238 136.042 299.512 136.195 298.633 136.195C298.255 136.195 297.904 136.166 297.578 136.107C297.259 136.055 296.973 135.987 296.719 135.902V134.252C296.979 134.376 297.259 134.473 297.559 134.545C297.865 134.61 298.187 134.643 298.525 134.643C299.027 134.643 299.456 134.568 299.814 134.418C300.173 134.262 300.488 134.018 300.762 133.686C301.035 133.347 301.296 132.901 301.543 132.348L296.035 121.723H297.852L301.914 129.701C301.966 129.799 302.021 129.913 302.08 130.043C302.139 130.167 302.197 130.297 302.256 130.434C302.314 130.564 302.367 130.694 302.412 130.824H302.48C302.52 130.727 302.562 130.613 302.607 130.482C302.66 130.352 302.712 130.222 302.764 130.092C302.816 129.962 302.861 129.851 302.9 129.76L306.406 121.723H308.174ZM308.203 125.297H309.941L312.305 131.508C312.441 131.872 312.568 132.224 312.686 132.563C312.803 132.895 312.907 133.214 312.998 133.52C313.089 133.826 313.161 134.122 313.213 134.408H313.281C313.372 134.083 313.503 133.656 313.672 133.129C313.841 132.595 314.023 132.051 314.219 131.498L316.455 125.297H318.203L313.545 137.572C313.298 138.23 313.008 138.803 312.676 139.291C312.35 139.779 311.953 140.154 311.484 140.414C311.016 140.681 310.449 140.814 309.785 140.814C309.479 140.814 309.209 140.795 308.975 140.756C308.74 140.723 308.538 140.684 308.369 140.639V139.34C308.512 139.372 308.685 139.402 308.887 139.428C309.095 139.454 309.31 139.467 309.531 139.467C309.935 139.467 310.283 139.389 310.576 139.232C310.876 139.083 311.133 138.861 311.348 138.568C311.562 138.275 311.748 137.927 311.904 137.523L312.49 136.02L308.203 125.297ZM347.764 121.518V123.275C349.274 123.301 350.475 123.549 351.367 124.018C352.259 124.486 352.9 125.115 353.291 125.902C353.682 126.69 353.877 127.582 353.877 128.578C353.877 129.255 353.773 129.913 353.564 130.551C353.356 131.189 353.018 131.765 352.549 132.279C352.08 132.787 351.452 133.197 350.664 133.51C349.883 133.816 348.916 133.979 347.764 133.998V136.195H346.123V133.998C344.945 133.979 343.962 133.809 343.174 133.49C342.386 133.171 341.761 132.755 341.299 132.24C340.837 131.726 340.505 131.153 340.303 130.521C340.107 129.89 340.01 129.249 340.01 128.598C340.01 127.875 340.117 127.198 340.332 126.566C340.547 125.928 340.892 125.368 341.367 124.887C341.849 124.398 342.48 124.014 343.262 123.734C344.043 123.448 344.997 123.295 346.123 123.275V121.518H347.764ZM346.123 124.682C345.042 124.708 344.176 124.883 343.525 125.209C342.881 125.528 342.415 125.974 342.129 126.547C341.842 127.12 341.699 127.797 341.699 128.578C341.699 129.398 341.855 130.108 342.168 130.707C342.487 131.299 342.972 131.762 343.623 132.094C344.281 132.419 345.114 132.598 346.123 132.631V124.682ZM347.764 124.682V132.631C348.805 132.598 349.652 132.413 350.303 132.074C350.954 131.736 351.432 131.267 351.738 130.668C352.044 130.069 352.197 129.366 352.197 128.559C352.197 127.771 352.054 127.094 351.768 126.527C351.481 125.954 351.012 125.512 350.361 125.199C349.717 124.88 348.851 124.708 347.764 124.682ZM362.852 120.805V125.141C363.913 125.232 364.837 125.508 365.625 125.971C366.413 126.426 367.025 127.048 367.461 127.836C367.897 128.624 368.115 129.561 368.115 130.648C368.115 131.716 367.904 132.647 367.48 133.441C367.064 134.236 366.462 134.864 365.674 135.326C364.893 135.788 363.952 136.065 362.852 136.156V140.805H361.27V136.156C360.208 136.078 359.284 135.811 358.496 135.355C357.715 134.893 357.106 134.265 356.67 133.471C356.234 132.676 356.016 131.736 356.016 130.648C356.016 129.561 356.224 128.624 356.641 127.836C357.064 127.042 357.669 126.417 358.457 125.961C359.245 125.499 360.199 125.225 361.318 125.141V120.805H362.852ZM361.318 126.488C360.492 126.56 359.811 126.768 359.277 127.113C358.743 127.458 358.346 127.927 358.086 128.52C357.832 129.112 357.705 129.822 357.705 130.648C357.705 131.475 357.835 132.188 358.096 132.787C358.356 133.38 358.753 133.848 359.287 134.193C359.821 134.538 360.498 134.75 361.318 134.828V126.488ZM362.852 126.508V134.828C363.672 134.743 364.346 134.525 364.873 134.174C365.407 133.822 365.801 133.35 366.055 132.758C366.315 132.165 366.445 131.462 366.445 130.648C366.445 129.411 366.149 128.445 365.557 127.748C364.964 127.045 364.062 126.632 362.852 126.508ZM396.309 136H394.424L390.566 129.711L386.65 136H384.883L389.639 128.559L385.215 121.723H387.061L390.625 127.416L394.209 121.723H395.967L391.553 128.529L396.309 136ZM400.645 130.521L396.943 125.297H398.799L401.621 129.418L404.434 125.297H406.27L402.568 130.521L406.475 136H404.619L401.621 131.635L398.604 136H396.768L400.645 130.521ZM436.738 134.535V139.73H435.146V136H424.395V121.723H426.055V134.516H433.389V121.723H435.029V134.535H436.738ZM449.316 139.701H447.734V136H438.896V125.297H440.527V134.623H446.201V125.297H447.822V134.643H449.316V139.701ZM477.197 136H475.547V130.082C474.785 130.355 474.062 130.577 473.379 130.746C472.695 130.915 471.937 131 471.104 131C469.756 131 468.721 130.691 467.998 130.072C467.282 129.447 466.924 128.552 466.924 127.387V121.723H468.584V127.152C468.584 127.94 468.792 128.536 469.209 128.939C469.632 129.337 470.319 129.535 471.27 129.535C472.07 129.535 472.786 129.464 473.418 129.32C474.056 129.171 474.766 128.959 475.547 128.686V121.723H477.197V136ZM482.285 125.297V129.145C482.285 129.815 482.467 130.31 482.832 130.629C483.203 130.948 483.74 131.107 484.443 131.107C485.12 131.107 485.736 131.003 486.289 130.795C486.842 130.587 487.402 130.303 487.969 129.945V125.297H489.59V136H487.969V131.205C487.37 131.589 486.781 131.892 486.201 132.113C485.622 132.335 484.928 132.445 484.121 132.445C483.021 132.445 482.168 132.159 481.562 131.586C480.964 131.013 480.664 130.238 480.664 129.262V125.297H482.285ZM18.6621 166H1.95312L1.95312 151.723H3.61328L3.61328 164.516H9.46289L9.46289 151.723H11.123L11.123 164.516H16.9824L16.9824 151.723H18.6621L18.6621 166ZM36.709 155.297V166H22.3535L22.3535 155.297H23.9746L23.9746 164.623H28.7109L28.7109 155.297H30.3418L30.3418 164.623H35.0879V155.297H36.709ZM74.1406 164.535V169.73H72.5488V166H55.9766V151.723H57.6367V164.516H63.3594V151.723H65.0391V164.516H70.7715V151.723H72.4316V164.535H74.1406ZM90.8203 155.297V164.643H92.3535V169.682H90.7227V166H76.4746V155.297H78.0957V164.623H82.832V155.297H84.4629V164.623H89.209V155.297H90.8203ZM111.777 166V153.188H108.447V151.723H113.428V157.797H115.762C117.057 157.797 118.086 157.973 118.848 158.324C119.609 158.669 120.156 159.148 120.488 159.76C120.827 160.365 120.996 161.055 120.996 161.83C120.996 163.106 120.592 164.122 119.785 164.877C118.978 165.626 117.718 166 116.006 166H111.777ZM113.428 164.574H115.82C117.005 164.574 117.878 164.35 118.437 163.9C118.997 163.445 119.277 162.755 119.277 161.83C119.277 161.186 119.141 160.674 118.867 160.297C118.594 159.919 118.18 159.649 117.627 159.486C117.08 159.324 116.39 159.242 115.557 159.242H113.428V164.574ZM127.402 155.297V159.711H130.498C131.455 159.711 132.246 159.825 132.871 160.053C133.496 160.281 133.962 160.619 134.268 161.068C134.574 161.518 134.727 162.074 134.727 162.738C134.727 163.402 134.58 163.979 134.287 164.467C133.994 164.955 133.532 165.333 132.9 165.6C132.275 165.867 131.458 166 130.449 166H125.781V156.674H122.402V155.297H127.402ZM130.43 161.078H127.402V164.682H130.449C131.283 164.682 131.937 164.538 132.412 164.252C132.887 163.959 133.125 163.48 133.125 162.816C133.125 162.165 132.9 161.713 132.451 161.459C132.008 161.205 131.335 161.078 130.43 161.078ZM158.516 166V151.723H160.176V157.797H162.461C163.75 157.797 164.775 157.973 165.537 158.324C166.299 158.669 166.846 159.148 167.178 159.76C167.51 160.365 167.676 161.055 167.676 161.83C167.676 163.106 167.272 164.122 166.465 164.877C165.664 165.626 164.404 166 162.686 166H158.516ZM160.176 164.584H162.52C163.698 164.584 164.564 164.356 165.117 163.9C165.677 163.445 165.957 162.755 165.957 161.83C165.957 161.186 165.82 160.678 165.547 160.307C165.28 159.929 164.873 159.662 164.326 159.506C163.786 159.343 163.102 159.262 162.275 159.262H160.176V164.584ZM169.844 166V151.723H171.504V166H169.844ZM175.244 166V155.297H176.875V159.711H179.805C180.716 159.711 181.465 159.825 182.051 160.053C182.643 160.281 183.083 160.619 183.369 161.068C183.656 161.518 183.799 162.074 183.799 162.738C183.799 163.402 183.656 163.979 183.369 164.467C183.089 164.955 182.646 165.333 182.041 165.6C181.442 165.867 180.661 166 179.697 166H175.244ZM176.875 164.682H179.541C180.348 164.682 180.993 164.538 181.475 164.252C181.956 163.965 182.197 163.487 182.197 162.816C182.197 162.159 181.973 161.703 181.523 161.449C181.074 161.189 180.43 161.059 179.59 161.059H176.875V164.682ZM185.566 166V155.297H187.188V166H185.566ZM206.445 166V151.723H208.105V157.797H210.82C212.109 157.797 213.141 157.973 213.916 158.324C214.697 158.669 215.26 159.148 215.605 159.76C215.957 160.365 216.133 161.055 216.133 161.83C216.133 163.106 215.713 164.122 214.873 164.877C214.033 165.626 212.757 166 211.045 166H206.445ZM208.105 164.574H210.869C212.054 164.574 212.943 164.35 213.535 163.9C214.128 163.445 214.424 162.755 214.424 161.83C214.424 161.186 214.277 160.674 213.984 160.297C213.691 159.919 213.262 159.649 212.695 159.486C212.135 159.324 211.442 159.242 210.615 159.242H208.105V164.574ZM220.508 159.711L223.789 159.711C224.701 159.711 225.459 159.825 226.064 160.053C226.67 160.281 227.122 160.619 227.422 161.068C227.728 161.518 227.881 162.074 227.881 162.738C227.881 163.402 227.731 163.979 227.432 164.467C227.139 164.955 226.683 165.333 226.064 165.6C225.452 165.867 224.661 166 223.691 166L218.877 166V155.297H220.508V159.711ZM226.25 162.816C226.25 162.159 226.016 161.703 225.547 161.449C225.085 161.189 224.437 161.059 223.604 161.059L220.508 161.059V164.682L223.613 164.682C224.395 164.682 225.029 164.538 225.518 164.252C226.006 163.959 226.25 163.48 226.25 162.816ZM249.18 152.982C248.522 152.982 247.913 153.057 247.354 153.207C246.8 153.357 246.299 153.536 245.85 153.744L245.166 152.348C245.719 152.081 246.344 151.876 247.041 151.732C247.738 151.589 248.457 151.518 249.199 151.518C250.339 151.518 251.328 151.693 252.168 152.045C253.014 152.39 253.714 152.882 254.268 153.52C254.821 154.158 255.234 154.91 255.508 155.775C255.781 156.641 255.918 157.592 255.918 158.627C255.918 160.17 255.664 161.508 255.156 162.641C254.648 163.773 253.883 164.649 252.861 165.268C251.846 165.886 250.573 166.195 249.043 166.195C248.216 166.195 247.513 166.146 246.934 166.049C246.361 165.958 245.801 165.814 245.254 165.619V164.174C245.807 164.324 246.37 164.457 246.943 164.574C247.523 164.685 248.138 164.74 248.789 164.74C249.661 164.74 250.426 164.62 251.084 164.379C251.748 164.138 252.305 163.783 252.754 163.314C253.203 162.846 253.545 162.273 253.779 161.596C254.02 160.919 254.15 160.144 254.17 159.271H247.109V157.807H254.15C254.092 157.051 253.936 156.378 253.682 155.785C253.428 155.186 253.086 154.678 252.656 154.262C252.227 153.845 251.719 153.529 251.133 153.314C250.553 153.093 249.902 152.982 249.18 152.982ZM260.625 166.195C260.02 166.195 259.492 166.146 259.043 166.049C258.6 165.951 258.187 165.811 257.803 165.629V164.213C258.206 164.376 258.639 164.516 259.102 164.633C259.564 164.75 260.081 164.809 260.654 164.809C261.383 164.809 262.008 164.675 262.529 164.408C263.057 164.141 263.467 163.738 263.76 163.197C264.059 162.65 264.232 161.97 264.277 161.156H258.848V159.818H264.258C264.173 158.692 263.857 157.859 263.311 157.318C262.764 156.771 261.956 156.498 260.889 156.498C260.505 156.498 260.081 156.553 259.619 156.664C259.163 156.768 258.753 156.889 258.389 157.025L257.939 155.697C258.317 155.528 258.766 155.388 259.287 155.277C259.814 155.16 260.345 155.102 260.879 155.102C261.888 155.102 262.773 155.29 263.535 155.668C264.297 156.046 264.889 156.641 265.312 157.455C265.742 158.262 265.957 159.32 265.957 160.629C265.957 161.872 265.732 162.908 265.283 163.734C264.834 164.561 264.209 165.18 263.408 165.59C262.614 165.993 261.686 166.195 260.625 166.195ZM302.354 158.842C302.354 159.942 302.22 160.945 301.953 161.85C301.693 162.748 301.299 163.523 300.771 164.174C300.244 164.825 299.587 165.326 298.799 165.678C298.018 166.023 297.109 166.195 296.074 166.195C294.72 166.195 293.581 165.912 292.656 165.346C291.738 164.773 291.035 163.969 290.547 162.934C290.065 161.892 289.798 160.674 289.746 159.281H286.25V166H284.59V151.723H286.25V157.816H289.775C289.867 156.54 290.156 155.43 290.645 154.486C291.139 153.536 291.836 152.8 292.734 152.279C293.633 151.758 294.736 151.498 296.045 151.498C297.419 151.498 298.571 151.804 299.502 152.416C300.439 153.021 301.149 153.874 301.631 154.975C302.113 156.075 302.354 157.364 302.354 158.842ZM291.484 158.813C291.484 160.03 291.644 161.085 291.963 161.977C292.288 162.862 292.786 163.549 293.457 164.037C294.128 164.519 294.984 164.76 296.025 164.76C297.093 164.76 297.965 164.519 298.643 164.037C299.32 163.555 299.818 162.872 300.137 161.986C300.456 161.101 300.615 160.053 300.615 158.842C300.615 157.631 300.456 156.586 300.137 155.707C299.824 154.828 299.333 154.151 298.662 153.676C297.992 153.201 297.126 152.963 296.064 152.963C295.01 152.963 294.144 153.201 293.467 153.676C292.796 154.145 292.298 154.818 291.973 155.697C291.647 156.57 291.484 157.608 291.484 158.813ZM319.062 160.629C319.062 161.794 318.874 162.794 318.496 163.627C318.125 164.46 317.591 165.098 316.895 165.541C316.198 165.977 315.365 166.195 314.395 166.195C313.49 166.195 312.699 166 312.021 165.609C311.351 165.219 310.82 164.649 310.43 163.9C310.046 163.152 309.824 162.24 309.766 161.166H306.924V166H305.303V155.297H306.924V159.789H309.785C309.876 158.799 310.117 157.956 310.508 157.26C310.898 156.563 311.426 156.029 312.09 155.658C312.754 155.287 313.535 155.102 314.434 155.102C315.371 155.102 316.185 155.323 316.875 155.766C317.572 156.202 318.109 156.833 318.486 157.66C318.87 158.48 319.062 159.47 319.062 160.629ZM311.426 160.629C311.426 161.527 311.527 162.292 311.729 162.924C311.937 163.549 312.259 164.027 312.695 164.359C313.138 164.685 313.711 164.848 314.414 164.848C315.111 164.848 315.677 164.685 316.113 164.359C316.556 164.034 316.878 163.559 317.08 162.934C317.288 162.302 317.393 161.534 317.393 160.629C317.393 159.737 317.288 158.982 317.08 158.363C316.872 157.745 316.549 157.276 316.113 156.957C315.677 156.632 315.111 156.469 314.414 156.469C313.717 156.469 313.148 156.632 312.705 156.957C312.269 157.276 311.947 157.745 311.738 158.363C311.53 158.982 311.426 159.737 311.426 160.629ZM341.865 160.033L338.154 166H336.211L340.205 159.73C339.684 159.568 339.196 159.337 338.74 159.037C338.291 158.731 337.926 158.311 337.646 157.777C337.373 157.243 337.236 156.56 337.236 155.727C337.236 154.424 337.679 153.432 338.564 152.748C339.456 152.064 340.781 151.723 342.539 151.723H346.455V166H344.795V160.033H341.865ZM344.795 153.139H342.598C341.81 153.139 341.143 153.23 340.596 153.412C340.055 153.594 339.645 153.881 339.365 154.271C339.085 154.662 338.945 155.173 338.945 155.805C338.945 156.71 339.245 157.406 339.844 157.895C340.443 158.376 341.357 158.617 342.588 158.617H344.795V153.139ZM350.645 166H348.75L351.836 161.488C351.387 161.391 350.97 161.225 350.586 160.99C350.202 160.749 349.889 160.421 349.648 160.004C349.414 159.587 349.297 159.07 349.297 158.451C349.297 157.423 349.639 156.641 350.322 156.107C351.012 155.567 351.921 155.297 353.047 155.297H357.783V166H356.162V161.703H353.447L350.645 166ZM350.869 158.461C350.869 159.099 351.097 159.574 351.553 159.887C352.008 160.193 352.66 160.346 353.506 160.346H356.162V156.654H353.223C352.389 156.654 351.787 156.824 351.416 157.162C351.051 157.494 350.869 157.927 350.869 158.461Z" fill="white"/>
<path d="M7.02148 216H5.43945L5.43945 205.883C5.43945 205.499 5.43945 205.17 5.43945 204.896C5.44596 204.617 5.45247 204.363 5.45898 204.135C5.47201 203.9 5.48828 203.663 5.50781 203.422C5.30599 203.63 5.11719 203.809 4.94141 203.959C4.76562 204.102 4.54753 204.281 4.28711 204.496L2.65625 205.805L1.80664 204.701L5.67383 201.723H7.02148L7.02148 216ZM26.9824 216H17.627V214.643L21.4453 210.766C22.1549 210.049 22.7507 209.411 23.2324 208.852C23.7207 208.292 24.0918 207.742 24.3457 207.201C24.5996 206.654 24.7266 206.055 24.7266 205.404C24.7266 204.597 24.4857 203.982 24.0039 203.559C23.5286 203.129 22.9004 202.914 22.1191 202.914C21.4355 202.914 20.8301 203.031 20.3027 203.266C19.7754 203.5 19.235 203.832 18.6816 204.262L17.8125 203.168C18.1901 202.849 18.6003 202.566 19.043 202.318C19.4922 202.071 19.9707 201.876 20.4785 201.732C20.9928 201.589 21.5397 201.518 22.1191 201.518C22.998 201.518 23.7565 201.671 24.3945 201.977C25.0326 202.283 25.5241 202.719 25.8691 203.285C26.2207 203.852 26.3965 204.525 26.3965 205.307C26.3965 206.062 26.2467 206.765 25.9473 207.416C25.6478 208.061 25.2279 208.702 24.6875 209.34C24.1471 209.971 23.5156 210.642 22.793 211.352L19.6875 214.447V214.516H26.9824V216ZM43.0957 205.053C43.0957 205.691 42.972 206.244 42.7246 206.713C42.4772 207.182 42.1322 207.566 41.6895 207.865C41.2467 208.158 40.7259 208.363 40.127 208.48V208.559C41.2598 208.702 42.1094 209.066 42.6758 209.652C43.2487 210.238 43.5352 211.007 43.5352 211.957C43.5352 212.784 43.3398 213.516 42.9492 214.154C42.5651 214.792 41.9727 215.294 41.1719 215.658C40.3776 216.016 39.3587 216.195 38.1152 216.195C37.36 216.195 36.6602 216.133 36.0156 216.01C35.3776 215.893 34.7656 215.694 34.1797 215.414V213.891C34.7721 214.184 35.4167 214.415 36.1133 214.584C36.8099 214.747 37.4837 214.828 38.1348 214.828C39.4368 214.828 40.3776 214.571 40.957 214.057C41.5365 213.536 41.8262 212.826 41.8262 211.928C41.8262 211.309 41.6634 210.811 41.3379 210.434C41.0189 210.049 40.5566 209.77 39.9512 209.594C39.3522 209.411 38.6296 209.32 37.7832 209.32H36.3574V207.934H37.793C38.5677 207.934 39.2253 207.82 39.7656 207.592C40.306 207.364 40.7161 207.045 40.9961 206.635C41.2826 206.218 41.4258 205.727 41.4258 205.16C41.4258 204.438 41.1849 203.881 40.7031 203.49C40.2214 203.093 39.5671 202.895 38.7402 202.895C38.2324 202.895 37.7702 202.947 37.3535 203.051C36.9368 203.155 36.5462 203.298 36.1816 203.48C35.8171 203.663 35.4525 203.874 35.0879 204.115L34.2676 203.002C34.7884 202.598 35.4232 202.25 36.1719 201.957C36.9206 201.664 37.7702 201.518 38.7207 201.518C40.179 201.518 41.2728 201.85 42.002 202.514C42.7311 203.178 43.0957 204.024 43.0957 205.053ZM60.9766 212.689H58.8379V216H57.2559V212.689H50.3516V211.322L57.1484 201.645H58.8379V211.225H60.9766V212.689ZM57.2559 211.225V206.557C57.2559 206.199 57.2591 205.876 57.2656 205.59C57.2721 205.297 57.2819 205.027 57.2949 204.779C57.3079 204.525 57.3177 204.285 57.3242 204.057C57.3372 203.829 57.347 203.604 57.3535 203.383H57.2754C57.1517 203.643 57.0085 203.92 56.8457 204.213C56.6895 204.499 56.5299 204.757 56.3672 204.984L51.9629 211.225H57.2559ZM72.0605 207.27C73.0306 207.27 73.8737 207.436 74.5898 207.768C75.306 208.093 75.8594 208.568 76.25 209.193C76.6471 209.818 76.8457 210.577 76.8457 211.469C76.8457 212.445 76.6341 213.288 76.2109 213.998C75.7878 214.701 75.179 215.245 74.3848 215.629C73.5905 216.007 72.64 216.195 71.5332 216.195C70.791 216.195 70.1009 216.13 69.4629 216C68.8249 215.87 68.2878 215.674 67.8516 215.414V213.871C68.3268 214.158 68.903 214.385 69.5801 214.555C70.2572 214.724 70.9147 214.809 71.5527 214.809C72.2754 214.809 72.9069 214.695 73.4473 214.467C73.9941 214.232 74.4173 213.881 74.7168 213.412C75.0228 212.937 75.1758 212.341 75.1758 211.625C75.1758 210.674 74.8828 209.942 74.2969 209.428C73.7174 208.907 72.7995 208.646 71.543 208.646C71.1393 208.646 70.6966 208.679 70.2148 208.744C69.7331 208.809 69.3359 208.881 69.0234 208.959L68.2031 208.422L68.75 201.723H75.8496V203.207H70.1367L69.7754 207.514C70.0228 207.462 70.3418 207.41 70.7324 207.357C71.123 207.299 71.5658 207.27 72.0605 207.27ZM84.3359 209.896C84.3359 209.037 84.3945 208.197 84.5117 207.377C84.6354 206.557 84.8405 205.795 85.127 205.092C85.4134 204.382 85.804 203.76 86.2988 203.227C86.7936 202.693 87.4089 202.276 88.1445 201.977C88.8867 201.671 89.7754 201.518 90.8105 201.518C91.1035 201.518 91.4193 201.534 91.7578 201.566C92.0964 201.592 92.3763 201.638 92.5977 201.703V203.1C92.3568 203.015 92.0801 202.953 91.7676 202.914C91.4616 202.875 91.1523 202.855 90.8398 202.855C89.6289 202.855 88.6751 203.119 87.9785 203.646C87.2884 204.174 86.7904 204.89 86.4844 205.795C86.1784 206.693 86.0026 207.706 85.957 208.832H86.0645C86.2663 208.507 86.5234 208.214 86.8359 207.953C87.1484 207.686 87.526 207.475 87.9688 207.318C88.418 207.162 88.9388 207.084 89.5312 207.084C90.3646 207.084 91.0905 207.253 91.709 207.592C92.334 207.93 92.8158 208.422 93.1543 209.066C93.4993 209.711 93.6719 210.492 93.6719 211.41C93.6719 212.393 93.4896 213.243 93.125 213.959C92.7604 214.675 92.2396 215.229 91.5625 215.619C90.8919 216.003 90.0911 216.195 89.1602 216.195C88.4635 216.195 87.8223 216.062 87.2363 215.795C86.6504 215.528 86.1393 215.131 85.7031 214.604C85.2734 214.076 84.9382 213.422 84.6973 212.641C84.4564 211.853 84.3359 210.938 84.3359 209.896ZM89.1406 214.828C90.026 214.828 90.7357 214.545 91.2695 213.979C91.8034 213.412 92.0703 212.556 92.0703 211.41C92.0703 210.473 91.8327 209.73 91.3574 209.184C90.8822 208.637 90.166 208.363 89.209 208.363C88.5579 208.363 87.9915 208.5 87.5098 208.773C87.028 209.04 86.6536 209.379 86.3867 209.789C86.1198 210.199 85.9863 210.616 85.9863 211.039C85.9863 211.469 86.0482 211.905 86.1719 212.348C86.3021 212.79 86.4974 213.201 86.7578 213.578C87.0182 213.956 87.347 214.258 87.7441 214.486C88.1413 214.714 88.6068 214.828 89.1406 214.828ZM102.676 216L108.535 203.207H100.752V201.723H110.273V202.973L104.453 216H102.676ZM122.188 201.518C123.014 201.518 123.747 201.648 124.385 201.908C125.023 202.169 125.521 202.553 125.879 203.061C126.243 203.562 126.426 204.18 126.426 204.916C126.426 205.495 126.299 206.003 126.045 206.439C125.798 206.869 125.462 207.247 125.039 207.572C124.616 207.891 124.147 208.178 123.633 208.432C124.245 208.712 124.795 209.027 125.283 209.379C125.778 209.73 126.169 210.144 126.455 210.619C126.742 211.094 126.885 211.658 126.885 212.309C126.885 213.109 126.689 213.803 126.299 214.389C125.915 214.968 125.374 215.414 124.678 215.727C123.981 216.039 123.164 216.195 122.227 216.195C121.217 216.195 120.358 216.046 119.648 215.746C118.945 215.44 118.408 215.004 118.037 214.438C117.673 213.865 117.49 213.178 117.49 212.377C117.49 211.719 117.63 211.15 117.91 210.668C118.19 210.18 118.561 209.76 119.023 209.408C119.486 209.057 119.99 208.76 120.537 208.52C120.062 208.259 119.626 207.963 119.229 207.631C118.838 207.299 118.525 206.911 118.291 206.469C118.063 206.02 117.949 205.499 117.949 204.906C117.949 204.184 118.132 203.572 118.496 203.07C118.867 202.563 119.372 202.178 120.01 201.918C120.654 201.651 121.38 201.518 122.188 201.518ZM119.082 212.387C119.082 213.116 119.339 213.718 119.854 214.193C120.368 214.662 121.146 214.896 122.188 214.896C123.177 214.896 123.942 214.662 124.482 214.193C125.023 213.718 125.293 213.096 125.293 212.328C125.293 211.853 125.169 211.436 124.922 211.078C124.674 210.714 124.323 210.388 123.867 210.102C123.411 209.815 122.874 209.555 122.256 209.32L121.904 209.193C121.305 209.441 120.794 209.717 120.371 210.023C119.954 210.323 119.635 210.665 119.414 211.049C119.193 211.433 119.082 211.879 119.082 212.387ZM122.168 202.846C121.4 202.846 120.771 203.031 120.283 203.402C119.795 203.767 119.551 204.294 119.551 204.984C119.551 205.479 119.668 205.899 119.902 206.244C120.143 206.583 120.469 206.876 120.879 207.123C121.289 207.364 121.748 207.589 122.256 207.797C122.751 207.589 123.19 207.361 123.574 207.113C123.958 206.859 124.261 206.56 124.482 206.215C124.704 205.87 124.814 205.456 124.814 204.975C124.814 204.285 124.57 203.757 124.082 203.393C123.6 203.028 122.962 202.846 122.168 202.846ZM143.486 207.807C143.486 208.673 143.424 209.516 143.301 210.336C143.184 211.156 142.979 211.921 142.686 212.631C142.399 213.34 142.008 213.962 141.514 214.496C141.019 215.03 140.397 215.45 139.648 215.756C138.906 216.055 138.018 216.205 136.982 216.205C136.702 216.205 136.383 216.186 136.025 216.146C135.667 216.114 135.374 216.065 135.146 216V214.594C135.387 214.678 135.671 214.747 135.996 214.799C136.322 214.844 136.641 214.867 136.953 214.867C138.171 214.867 139.128 214.607 139.824 214.086C140.521 213.559 141.022 212.846 141.328 211.947C141.634 211.042 141.807 210.027 141.846 208.9H141.729C141.533 209.213 141.276 209.503 140.957 209.77C140.645 210.03 140.264 210.242 139.814 210.404C139.365 210.561 138.841 210.639 138.242 210.639C137.415 210.639 136.693 210.469 136.074 210.131C135.462 209.792 134.984 209.301 134.639 208.656C134.3 208.012 134.131 207.234 134.131 206.322C134.131 205.339 134.316 204.49 134.688 203.773C135.065 203.051 135.592 202.494 136.27 202.104C136.947 201.713 137.744 201.518 138.662 201.518C139.365 201.518 140.01 201.651 140.596 201.918C141.182 202.185 141.689 202.585 142.119 203.119C142.555 203.646 142.891 204.301 143.125 205.082C143.366 205.863 143.486 206.771 143.486 207.807ZM138.662 202.895C137.796 202.895 137.093 203.178 136.553 203.744C136.019 204.311 135.752 205.163 135.752 206.303C135.752 207.247 135.983 207.992 136.445 208.539C136.908 209.086 137.62 209.359 138.584 209.359C139.248 209.359 139.821 209.226 140.303 208.959C140.791 208.692 141.165 208.354 141.426 207.943C141.693 207.533 141.826 207.113 141.826 206.684C141.826 206.254 141.761 205.818 141.631 205.375C141.507 204.932 141.315 204.525 141.055 204.154C140.794 203.777 140.465 203.474 140.068 203.246C139.671 203.012 139.202 202.895 138.662 202.895ZM160.186 208.842C160.186 210.001 160.098 211.036 159.922 211.947C159.746 212.859 159.469 213.63 159.092 214.262C158.714 214.893 158.226 215.375 157.627 215.707C157.028 216.033 156.309 216.195 155.469 216.195C154.408 216.195 153.529 215.906 152.832 215.326C152.142 214.747 151.624 213.91 151.279 212.816C150.941 211.716 150.771 210.391 150.771 208.842C150.771 207.318 150.924 206.01 151.23 204.916C151.543 203.816 152.044 202.973 152.734 202.387C153.424 201.794 154.336 201.498 155.469 201.498C156.543 201.498 157.428 201.791 158.125 202.377C158.822 202.956 159.339 203.796 159.678 204.896C160.016 205.99 160.186 207.305 160.186 208.842ZM152.402 208.842C152.402 210.17 152.503 211.277 152.705 212.162C152.907 213.048 153.232 213.712 153.682 214.154C154.137 214.59 154.733 214.809 155.469 214.809C156.204 214.809 156.797 214.59 157.246 214.154C157.702 213.718 158.031 213.057 158.232 212.172C158.441 211.286 158.545 210.176 158.545 208.842C158.545 207.533 158.444 206.439 158.242 205.561C158.04 204.675 157.715 204.011 157.266 203.568C156.816 203.119 156.217 202.895 155.469 202.895C154.72 202.895 154.121 203.119 153.672 203.568C153.223 204.011 152.897 204.675 152.695 205.561C152.5 206.439 152.402 207.533 152.402 208.842Z" fill="white"/>
</svg>
