<svg width="38" height="38" viewBox="0 0 38 38" fill="none"
    xmlns="http://www.w3.org/2000/svg">
    <path fill-rule="evenodd" clip-rule="evenodd" d="M19 0C8.50659 0 0 8.50659 0 19C0 29.4934 8.50659 38 19 38C29.4934 38 38 29.4934 38 19C38 8.50659 29.4934 0 19 0ZM7.91667 18.9686C7.91667 12.8745 12.8885 7.91667 18.9998 7.91667C25.1112 7.91667 30.0831 12.8745 30.0831 18.9686C30.0831 19.8319 30.011 20.5307 29.8496 21.2323L29.8472 21.2439C29.8468 21.246 29.7667 21.5693 29.7225 21.7104C29.4486 22.584 28.9527 23.3116 28.2882 23.8145C27.6439 24.3023 26.845 24.571 26.0387 24.571C25.9391 24.571 25.8388 24.567 25.7406 24.5591C24.5956 24.4675 23.5889 23.8667 22.9717 22.9087C21.9099 23.9732 20.5013 24.5589 18.9998 24.5589C15.9086 24.5589 13.3938 22.0511 13.3938 18.9686C13.3938 15.8861 15.9086 13.3783 18.9998 13.3783C22.091 13.3783 24.6059 15.8861 24.6059 18.9686V20.7706C24.6106 21.8221 25.3182 22.2519 25.9227 22.3006C26.5241 22.3468 27.3245 21.9975 27.6033 20.8573C27.7409 20.232 27.8108 19.5964 27.8108 18.9686C27.8108 14.1239 23.8582 10.1825 18.9998 10.1825C14.1415 10.1825 10.189 14.1239 10.189 18.9686C10.189 23.8132 14.1415 27.7547 18.9998 27.7547C20.691 27.7547 22.3358 27.273 23.7563 26.3618L23.7817 26.3454L25.2748 28.0764L25.2428 28.0983C23.3976 29.3559 21.2388 30.0206 18.9998 30.0206C12.8885 30.0206 7.91667 25.0627 7.91667 18.9686Z" fill="white"/>
    <path fill-rule="evenodd" clip-rule="evenodd" d="M22.3336 18.9684C22.3336 20.8015 20.838 22.2928 18.9998 22.2928C17.1615 22.2928 15.666 20.8015 15.666 18.9684C15.666 17.1353 17.1615 15.644 18.9998 15.644C20.838 15.644 22.3336 17.1353 22.3336 18.9684" fill="white"/>
</svg>
