<svg width="596" height="218" viewBox="0 0 596 218" fill="none" xmlns="http://www.w3.org/2000/svg">
<path d="M40.368 7.4L40.368 41H36.96L36.96 14.12L23.76 36.728L22.08 36.728L8.88 14.264L8.88 41H5.472L5.472 7.4L8.4 7.4L22.992 32.312L37.44 7.4H40.368ZM66.0038 41.288C62.6758 41.288 59.6518 40.552 56.9318 39.08C54.2438 37.576 52.1318 35.528 50.5958 32.936C49.0918 30.344 48.3398 27.432 48.3398 24.2C48.3398 20.968 49.0918 18.056 50.5958 15.464C52.1318 12.872 54.2438 10.84 56.9318 9.368C59.6518 7.864 62.6758 7.112 66.0038 7.112C69.3318 7.112 72.3238 7.848 74.9798 9.32C77.6678 10.792 79.7798 12.84 81.3158 15.464C82.8518 18.056 83.6198 20.968 83.6198 24.2C83.6198 27.432 82.8518 30.36 81.3158 32.984C79.7798 35.576 77.6678 37.608 74.9798 39.08C72.3238 40.552 69.3318 41.288 66.0038 41.288ZM66.0038 38.12C68.6598 38.12 71.0598 37.528 73.2038 36.344C75.3478 35.128 77.0278 33.464 78.2438 31.352C79.4598 29.208 80.0678 26.824 80.0678 24.2C80.0678 21.576 79.4598 19.208 78.2438 17.096C77.0278 14.952 75.3478 13.288 73.2038 12.104C71.0598 10.888 68.6598 10.28 66.0038 10.28C63.3478 10.28 60.9318 10.888 58.7558 12.104C56.6118 13.288 54.9158 14.952 53.6678 17.096C52.4518 19.208 51.8438 21.576 51.8437 24.2C51.8437 26.824 52.4518 29.208 53.6678 31.352C54.9158 33.464 56.6118 35.128 58.7558 36.344C60.9318 37.528 63.3478 38.12 66.0038 38.12ZM119.661 7.4V41H116.733L95.1334 13.736V41H91.5814V7.4H94.5094L116.157 34.664V7.4L119.661 7.4ZM137.156 10.472L125.348 10.472V7.4L152.516 7.4V10.472L140.708 10.472V41H137.156V10.472ZM166.939 41.288C164.443 41.288 162.043 40.888 159.739 40.088C157.467 39.288 155.707 38.232 154.459 36.92L155.851 34.184C157.067 35.4 158.683 36.392 160.699 37.16C162.715 37.896 164.795 38.264 166.939 38.264C169.947 38.264 172.203 37.72 173.707 36.632C175.211 35.512 175.963 34.072 175.963 32.312C175.963 30.968 175.547 29.896 174.715 29.096C173.915 28.296 172.923 27.688 171.739 27.272C170.555 26.824 168.907 26.344 166.795 25.832C164.267 25.192 162.251 24.584 160.747 24.008C159.243 23.4 157.947 22.488 156.859 21.272C155.803 20.056 155.275 18.408 155.275 16.328C155.275 14.632 155.723 13.096 156.619 11.72C157.515 10.312 158.891 9.192 160.747 8.36C162.603 7.528 164.907 7.112 167.659 7.112C169.579 7.112 171.451 7.384 173.275 7.928C175.131 8.44 176.731 9.16 178.075 10.088L176.875 12.92C175.467 11.992 173.963 11.304 172.363 10.856C170.763 10.376 169.195 10.136 167.659 10.136C164.715 10.136 162.491 10.712 160.987 11.864C159.515 12.984 158.779 14.44 158.779 16.232C158.779 17.576 159.179 18.664 159.979 19.496C160.811 20.296 161.835 20.92 163.051 21.368C164.299 21.784 165.963 22.248 168.043 22.76C170.507 23.368 172.491 23.976 173.995 24.584C175.531 25.16 176.827 26.056 177.883 27.272C178.939 28.456 179.467 30.072 179.467 32.12C179.467 33.816 179.003 35.368 178.075 36.776C177.179 38.152 175.787 39.256 173.899 40.088C172.011 40.888 169.691 41.288 166.939 41.288ZM210.966 37.928V41L187.206 41V7.4L210.246 7.4V10.472L190.758 10.472V22.424H208.134V25.448H190.758V37.928L210.966 37.928ZM242.26 41L234.58 30.2C233.716 30.296 232.82 30.344 231.892 30.344H222.868V41H219.316V7.4L231.892 7.4C236.18 7.4 239.54 8.424 241.972 10.472C244.404 12.52 245.62 15.336 245.62 18.92C245.62 21.544 244.948 23.768 243.604 25.592C242.292 27.384 240.404 28.68 237.94 29.48L246.148 41L242.26 41ZM231.796 27.32C235.124 27.32 237.668 26.584 239.428 25.112C241.188 23.64 242.068 21.576 242.068 18.92C242.068 16.2 241.188 14.12 239.428 12.68C237.668 11.208 235.124 10.472 231.796 10.472L222.868 10.472V27.32H231.796ZM276.947 41L269.267 30.2C268.403 30.296 267.507 30.344 266.579 30.344H257.555V41H254.003V7.4L266.579 7.4C270.867 7.4 274.227 8.424 276.659 10.472C279.091 12.52 280.307 15.336 280.307 18.92C280.307 21.544 279.635 23.768 278.291 25.592C276.979 27.384 275.091 28.68 272.627 29.48L280.835 41H276.947ZM266.483 27.32C269.811 27.32 272.355 26.584 274.115 25.112C275.875 23.64 276.755 21.576 276.755 18.92C276.755 16.2 275.875 14.12 274.115 12.68C272.355 11.208 269.811 10.472 266.483 10.472L257.555 10.472V27.32H266.483ZM309.763 32.024H291.043L287.011 41H283.315L298.675 7.4L302.179 7.4L317.539 41H313.795L309.763 32.024ZM308.467 29.144L300.403 11.096L292.339 29.144L308.467 29.144ZM327.938 10.472L316.13 10.472V7.4L343.298 7.4V10.472L331.49 10.472V41L327.938 41V10.472ZM384.479 41L376.799 30.2C375.935 30.296 375.039 30.344 374.111 30.344H365.087V41H361.535V7.4L374.111 7.4C378.399 7.4 381.759 8.424 384.191 10.472C386.623 12.52 387.839 15.336 387.839 18.92C387.839 21.544 387.167 23.768 385.823 25.592C384.511 27.384 382.623 28.68 380.159 29.48L388.367 41H384.479ZM374.015 27.32C377.343 27.32 379.887 26.584 381.647 25.112C383.407 23.64 384.286 21.576 384.286 18.92C384.286 16.2 383.407 14.12 381.647 12.68C379.887 11.208 377.343 10.472 374.015 10.472L365.087 10.472V27.32H374.015ZM419.982 37.928V41L396.222 41V7.4L419.262 7.4V10.472L399.774 10.472V22.424L417.15 22.424V25.448L399.774 25.448V37.928L419.982 37.928ZM451.808 24.2L455.216 24.2V37.016C453.648 38.392 451.792 39.448 449.648 40.184C447.504 40.92 445.248 41.288 442.88 41.288C439.52 41.288 436.496 40.552 433.808 39.08C431.12 37.608 429.008 35.576 427.472 32.984C425.936 30.36 425.168 27.432 425.168 24.2C425.168 20.968 425.936 18.056 427.472 15.464C429.008 12.84 431.12 10.792 433.808 9.32C436.496 7.848 439.536 7.112 442.928 7.112C445.488 7.112 447.84 7.528 449.984 8.36C452.128 9.16 453.936 10.36 455.408 11.96L453.2 14.216C450.544 11.592 447.168 10.28 443.072 10.28C440.352 10.28 437.888 10.888 435.68 12.104C433.504 13.288 431.792 14.952 430.544 17.096C429.296 19.208 428.672 21.576 428.672 24.2C428.672 26.824 429.296 29.192 430.544 31.304C431.792 33.416 433.504 35.08 435.68 36.296C437.856 37.512 440.304 38.12 443.024 38.12C446.48 38.12 449.408 37.256 451.808 35.528V24.2ZM478.805 41.288C474.453 41.288 471.061 40.04 468.629 37.544C466.197 35.048 464.981 31.416 464.981 26.648V7.4L468.533 7.4V26.504C468.533 30.408 469.413 33.32 471.173 35.24C472.933 37.16 475.477 38.12 478.805 38.12C482.165 38.12 484.725 37.16 486.485 35.24C488.245 33.32 489.125 30.408 489.125 26.504V7.4H492.581V26.648C492.581 31.416 491.365 35.048 488.933 37.544C486.533 40.04 483.157 41.288 478.805 41.288ZM503.285 7.4L506.837 7.4V37.928L525.653 37.928V41L503.285 41V7.4ZM552.716 32.024L533.996 32.024L529.964 41H526.268L541.628 7.4L545.132 7.4L560.492 41H556.748L552.716 32.024ZM551.42 29.144L543.356 11.096L535.292 29.144L551.42 29.144ZM588.994 41L581.314 30.2C580.45 30.296 579.554 30.344 578.626 30.344H569.602V41H566.05V7.4L578.626 7.4C582.914 7.4 586.274 8.424 588.706 10.472C591.138 12.52 592.354 15.336 592.354 18.92C592.354 21.544 591.682 23.768 590.338 25.592C589.026 27.384 587.138 28.68 584.674 29.48L592.882 41H588.994ZM578.53 27.32C581.858 27.32 584.402 26.584 586.162 25.112C587.922 23.64 588.802 21.576 588.802 18.92C588.802 16.2 587.922 14.12 586.162 12.68C584.402 11.208 581.858 10.472 578.53 10.472H569.602V27.32H578.53Z" fill="white"/>
<path d="M11.32 101.26H3.52L1.84 105H0.3L6.7 91H8.16L14.56 105H13L11.32 101.26ZM10.78 100.06L7.42 92.54L4.06 100.06H10.78ZM20.5228 94.4C21.8961 94.4 22.9495 94.7467 23.6828 95.44C24.4161 96.12 24.7828 97.1333 24.7828 98.48V105H23.4228V103.36C23.1028 103.907 22.6295 104.333 22.0028 104.64C21.3895 104.947 20.6561 105.1 19.8028 105.1C18.6295 105.1 17.6961 104.82 17.0028 104.26C16.3095 103.7 15.9628 102.96 15.9628 102.04C15.9628 101.147 16.2828 100.427 16.9228 99.88C17.5761 99.3333 18.6095 99.06 20.0228 99.06H23.3628V98.42C23.3628 97.5133 23.1095 96.8267 22.6028 96.36C22.0961 95.88 21.3561 95.64 20.3828 95.64C19.7161 95.64 19.0761 95.7533 18.4628 95.98C17.8495 96.1933 17.3228 96.4933 16.8828 96.88L16.2428 95.82C16.7761 95.3667 17.4161 95.02 18.1628 94.78C18.9095 94.5267 19.6961 94.4 20.5228 94.4ZM20.0228 103.98C20.8228 103.98 21.5095 103.8 22.0828 103.44C22.6561 103.067 23.0828 102.533 23.3628 101.84V100.12H20.0628C18.2628 100.12 17.3628 100.747 17.3628 102C17.3628 102.613 17.5961 103.1 18.0628 103.46C18.5295 103.807 19.1828 103.98 20.0228 103.98ZM44.6061 91L54.8461 91V92.26L46.0661 92.26V96.84L50.6461 96.84C52.2994 96.84 53.5528 97.18 54.4061 97.86C55.2728 98.54 55.7061 99.5267 55.7061 100.82C55.7061 102.167 55.2394 103.2 54.3061 103.92C53.3861 104.64 52.0594 105 50.3261 105H44.6061V91ZM50.3061 103.82C51.5994 103.82 52.5728 103.573 53.2261 103.08C53.8928 102.587 54.2261 101.853 54.2261 100.88C54.2261 99.92 53.8994 99.2067 53.2461 98.74C52.6061 98.26 51.6261 98.02 50.3061 98.02L46.0661 98.02V103.82H50.3061ZM63.8973 94.74C64.8707 94.74 65.7373 94.96 66.4973 95.4C67.2707 95.8267 67.8707 96.4333 68.2973 97.22C68.724 97.9933 68.9373 98.88 68.9373 99.88C68.9373 100.907 68.7107 101.82 68.2573 102.62C67.8173 103.407 67.1973 104.02 66.3973 104.46C65.5973 104.9 64.6773 105.12 63.6373 105.12C61.8907 105.12 60.5373 104.507 59.5773 103.28C58.6173 102.053 58.1373 100.36 58.1373 98.2C58.1373 95.9467 58.564 94.22 59.4173 93.02C60.284 91.82 61.6307 91.0067 63.4573 90.58L68.1773 89.5L68.4173 90.8L63.9773 91.82C62.4707 92.1533 61.364 92.7467 60.6573 93.6C59.9507 94.44 59.564 95.6867 59.4973 97.34C59.924 96.5267 60.5173 95.8933 61.2773 95.44C62.0373 94.9733 62.9107 94.74 63.8973 94.74ZM63.6773 103.94C64.4107 103.94 65.064 103.773 65.6373 103.44C66.224 103.093 66.6773 102.613 66.9973 102C67.3307 101.387 67.4973 100.693 67.4973 99.92C67.4973 99.1467 67.3373 98.4667 67.0173 97.88C66.6973 97.2933 66.244 96.84 65.6573 96.52C65.084 96.1867 64.424 96.02 63.6773 96.02C62.9307 96.02 62.264 96.1867 61.6773 96.52C61.104 96.84 60.6507 97.2933 60.3173 97.88C59.9973 98.4667 59.8373 99.1467 59.8373 99.92C59.8373 100.693 59.9973 101.387 60.3173 102C60.6507 102.613 61.1107 103.093 61.6973 103.44C62.284 103.773 62.944 103.94 63.6773 103.94ZM96.3241 97.78C97.2974 97.98 98.0374 98.3733 98.5441 98.96C99.0507 99.5333 99.3041 100.287 99.3041 101.22C99.3041 102.433 98.8707 103.367 98.0041 104.02C97.1507 104.673 95.8907 105 94.2241 105H88.0241V91H93.8441C95.3374 91 96.5041 91.3067 97.3441 91.92C98.1841 92.5333 98.6041 93.42 98.6041 94.58C98.6041 95.3667 98.4041 96.0333 98.0041 96.58C97.6041 97.1133 97.0441 97.5133 96.3241 97.78ZM89.4841 97.34H93.7641C94.8441 97.34 95.6707 97.12 96.2441 96.68C96.8307 96.24 97.1241 95.6 97.1241 94.76C97.1241 93.92 96.8307 93.28 96.2441 92.84C95.6707 92.4 94.8441 92.18 93.7641 92.18H89.4841V97.34ZM94.2241 103.82C96.6374 103.82 97.8441 102.92 97.8441 101.12C97.8441 99.36 96.6374 98.48 94.2241 98.48H89.4841V103.82H94.2241ZM109.365 99.56C110.791 99.8933 111.505 100.753 111.505 102.14C111.505 103.06 111.165 103.767 110.485 104.26C109.805 104.753 108.791 105 107.445 105H102.665V94.48H107.305C108.505 94.48 109.445 94.7133 110.125 95.18C110.805 95.6467 111.145 96.3133 111.145 97.18C111.145 97.7533 110.985 98.2467 110.665 98.66C110.358 99.06 109.925 99.36 109.365 99.56ZM104.045 99.16H107.205C108.018 99.16 108.638 99.0067 109.065 98.7C109.505 98.3933 109.725 97.9467 109.725 97.36C109.725 96.7733 109.505 96.3333 109.065 96.04C108.638 95.7467 108.018 95.6 107.205 95.6H104.045V99.16ZM107.385 103.88C108.291 103.88 108.971 103.733 109.425 103.44C109.878 103.147 110.105 102.687 110.105 102.06C110.105 101.433 109.898 100.973 109.485 100.68C109.071 100.373 108.418 100.22 107.525 100.22H104.045V103.88H107.385ZM139.776 92.28H132.316L132.336 105H130.876V91H139.776V92.28ZM147.019 95.74H140.999V105H139.579V94.48H147.019V95.74ZM177.974 103.72V108.14H176.594V105H164.374L164.354 108.14H162.974L162.994 103.72H163.694C164.614 103.667 165.254 102.94 165.614 101.54C165.974 100.127 166.194 98.1267 166.274 95.54L166.434 91H175.874V103.72H177.974ZM167.594 95.68C167.527 97.8133 167.361 99.5733 167.094 100.96C166.841 102.333 166.407 103.253 165.794 103.72H174.414V92.28H167.714L167.594 95.68ZM190.913 103.76V107.54H189.573V105H180.153V107.54H178.813V103.76H179.413C180.119 103.72 180.599 103.2 180.853 102.2C181.106 101.2 181.279 99.8 181.373 98L181.513 94.48H189.273V103.76H190.913ZM182.673 98.08C182.606 99.5733 182.479 100.807 182.293 101.78C182.106 102.74 181.773 103.4 181.293 103.76H187.853V95.74H182.793L182.673 98.08ZM219.623 103.72V105H209.723V91H219.323V92.28H211.203V97.26H218.443V98.52H211.203V103.72H219.623ZM231.611 100.18H222.811C222.891 101.273 223.311 102.16 224.071 102.84C224.831 103.507 225.791 103.84 226.951 103.84C227.604 103.84 228.204 103.727 228.751 103.5C229.297 103.26 229.771 102.913 230.171 102.46L230.971 103.38C230.504 103.94 229.917 104.367 229.211 104.66C228.517 104.953 227.751 105.1 226.911 105.1C225.831 105.1 224.871 104.873 224.031 104.42C223.204 103.953 222.557 103.313 222.091 102.5C221.624 101.687 221.391 100.767 221.391 99.74C221.391 98.7133 221.611 97.7933 222.051 96.98C222.504 96.1667 223.117 95.5333 223.891 95.08C224.677 94.6267 225.557 94.4 226.531 94.4C227.504 94.4 228.377 94.6267 229.151 95.08C229.924 95.5333 230.531 96.1667 230.971 96.98C231.411 97.78 231.631 98.7 231.631 99.74L231.611 100.18ZM226.531 95.62C225.517 95.62 224.664 95.9467 223.971 96.6C223.291 97.24 222.904 98.08 222.811 99.12H230.271C230.177 98.08 229.784 97.24 229.091 96.6C228.411 95.9467 227.557 95.62 226.531 95.62ZM260.717 103.72V105H250.817V91H260.417V92.28H252.297V97.26H259.537V98.52H252.297V103.72H260.717ZM253.857 89.4C253.617 89.4 253.41 89.32 253.237 89.16C253.077 89 252.997 88.7933 252.997 88.54C252.997 88.3 253.077 88.1 253.237 87.94C253.41 87.7667 253.617 87.68 253.857 87.68C254.084 87.68 254.284 87.7667 254.457 87.94C254.63 88.1 254.717 88.3 254.717 88.54C254.717 88.78 254.63 88.9867 254.457 89.16C254.297 89.32 254.097 89.4 253.857 89.4ZM257.417 89.4C257.177 89.4 256.97 89.32 256.797 89.16C256.637 88.9867 256.557 88.78 256.557 88.54C256.557 88.3 256.644 88.1 256.817 87.94C256.99 87.7667 257.19 87.68 257.417 87.68C257.657 87.68 257.857 87.7667 258.017 87.94C258.19 88.1 258.277 88.3 258.277 88.54C258.277 88.7933 258.19 89 258.017 89.16C257.857 89.32 257.657 89.4 257.417 89.4ZM272.704 100.18H263.904C263.984 101.273 264.404 102.16 265.164 102.84C265.924 103.507 266.884 103.84 268.044 103.84C268.698 103.84 269.298 103.727 269.844 103.5C270.391 103.26 270.864 102.913 271.264 102.46L272.064 103.38C271.598 103.94 271.011 104.367 270.304 104.66C269.611 104.953 268.844 105.1 268.004 105.1C266.924 105.1 265.964 104.873 265.124 104.42C264.298 103.953 263.651 103.313 263.184 102.5C262.718 101.687 262.484 100.767 262.484 99.74C262.484 98.7133 262.704 97.7933 263.144 96.98C263.598 96.1667 264.211 95.5333 264.984 95.08C265.771 94.6267 266.651 94.4 267.624 94.4C268.598 94.4 269.471 94.6267 270.244 95.08C271.018 95.5333 271.624 96.1667 272.064 96.98C272.504 97.78 272.724 98.7 272.724 99.74L272.704 100.18ZM267.624 95.62C266.611 95.62 265.758 95.9467 265.064 96.6C264.384 97.24 263.998 98.08 263.904 99.12H271.364C271.271 98.08 270.878 97.24 270.184 96.6C269.504 95.9467 268.651 95.62 267.624 95.62ZM265.844 92.38C265.604 92.38 265.398 92.3 265.224 92.14C265.064 91.98 264.984 91.7733 264.984 91.52C264.984 91.28 265.064 91.08 265.224 90.92C265.398 90.7467 265.604 90.66 265.844 90.66C266.071 90.66 266.271 90.7467 266.444 90.92C266.618 91.08 266.704 91.28 266.704 91.52C266.704 91.76 266.618 91.9667 266.444 92.14C266.284 92.3 266.084 92.38 265.844 92.38ZM269.404 92.38C269.164 92.38 268.958 92.3 268.784 92.14C268.624 91.9667 268.544 91.76 268.544 91.52C268.544 91.28 268.631 91.08 268.804 90.92C268.978 90.7467 269.178 90.66 269.404 90.66C269.644 90.66 269.844 90.7467 270.004 90.92C270.178 91.08 270.264 91.28 270.264 91.52C270.264 91.7733 270.178 91.98 270.004 92.14C269.844 92.3 269.644 92.38 269.404 92.38ZM308.525 98.58H305.625V105H304.185V98.58L301.265 98.58L296.985 105H295.265L300.065 97.78L295.625 91H297.225L301.245 97.28L304.185 97.28V91H305.625V97.28H308.525L312.565 91H314.165L309.725 97.78L314.525 105H312.805L308.525 98.58ZM325.537 100.32H323.257V105H321.837V100.32H319.557L316.337 105H314.637L318.417 99.58L314.937 94.48H316.477L319.557 99.1H321.837V94.48H323.257V99.1H325.537L328.637 94.48H330.177L326.697 99.6L330.477 105H328.777L325.537 100.32ZM349.729 97.68C350.649 97.9067 351.369 98.32 351.889 98.92C352.422 99.52 352.689 100.24 352.689 101.08C352.689 101.893 352.436 102.607 351.929 103.22C351.422 103.833 350.749 104.307 349.909 104.64C349.069 104.96 348.156 105.12 347.169 105.12C346.236 105.12 345.316 104.973 344.409 104.68C343.516 104.373 342.709 103.92 341.989 103.32L342.529 102.26C343.142 102.78 343.842 103.18 344.629 103.46C345.416 103.727 346.209 103.86 347.009 103.86C347.769 103.86 348.469 103.74 349.109 103.5C349.749 103.26 350.256 102.92 350.629 102.48C351.016 102.027 351.209 101.493 351.209 100.88C351.209 100.067 350.889 99.44 350.249 99C349.609 98.56 348.709 98.34 347.549 98.34H344.549V97.14H347.469C348.456 97.14 349.222 96.9333 349.769 96.52C350.329 96.0933 350.609 95.5067 350.609 94.76C350.609 93.9333 350.256 93.2867 349.549 92.82C348.842 92.34 347.956 92.1 346.889 92.1C346.222 92.1 345.549 92.2 344.869 92.4C344.189 92.5867 343.542 92.8733 342.929 93.26L342.429 92.04C343.816 91.2133 345.316 90.8 346.929 90.8C347.876 90.8 348.742 90.9533 349.529 91.26C350.316 91.5667 350.936 92.0067 351.389 92.58C351.856 93.1533 352.089 93.8267 352.089 94.6C352.089 95.3467 351.882 95.9933 351.469 96.54C351.056 97.0733 350.476 97.4533 349.729 97.68ZM361.144 99.52C361.891 99.6933 362.464 99.9933 362.864 100.42C363.277 100.847 363.484 101.367 363.484 101.98C363.484 102.593 363.271 103.14 362.844 103.62C362.431 104.1 361.864 104.473 361.144 104.74C360.424 104.993 359.631 105.12 358.764 105.12C358.004 105.12 357.257 105.013 356.524 104.8C355.791 104.573 355.151 104.247 354.604 103.82L355.084 102.76C355.564 103.12 356.124 103.4 356.764 103.6C357.404 103.8 358.051 103.9 358.704 103.9C359.677 103.9 360.471 103.72 361.084 103.36C361.711 102.987 362.024 102.487 362.024 101.86C362.024 101.3 361.771 100.867 361.264 100.56C360.757 100.24 360.064 100.08 359.184 100.08H357.384V99.04H359.104C359.891 99.04 360.524 98.8933 361.004 98.6C361.484 98.2933 361.724 97.8867 361.724 97.38C361.724 96.82 361.451 96.38 360.904 96.06C360.371 95.74 359.671 95.58 358.804 95.58C357.671 95.58 356.551 95.8667 355.444 96.44L355.044 95.34C356.297 94.6867 357.597 94.36 358.944 94.36C359.744 94.36 360.464 94.48 361.104 94.72C361.757 94.9467 362.264 95.2733 362.624 95.7C362.997 96.1267 363.184 96.62 363.184 97.18C363.184 97.7133 362.997 98.1867 362.624 98.6C362.264 99.0133 361.771 99.32 361.144 99.52ZM382.751 91H384.211V102.6L393.171 91H394.511V105H393.051V93.42L384.091 105H382.751V91ZM398.895 94.48H400.315V102.84L407.335 94.48H408.595V105H407.175V96.64L400.175 105H398.895V94.48ZM428.708 91H430.168V102.6L439.128 91H440.468V105H439.008V93.42L430.048 105H428.708V91ZM434.548 89.98C433.548 89.98 432.754 89.7533 432.168 89.3C431.594 88.8467 431.301 88.2133 431.288 87.4H432.388C432.401 87.9333 432.601 88.3533 432.988 88.66C433.374 88.9667 433.894 89.12 434.548 89.12C435.188 89.12 435.701 88.9667 436.088 88.66C436.488 88.3533 436.694 87.9333 436.708 87.4H437.808C437.794 88.2133 437.494 88.8467 436.908 89.3C436.321 89.7533 435.534 89.98 434.548 89.98ZM444.852 94.48H446.272V102.84L453.292 94.48H454.552V105H453.132V96.64L446.132 105H444.852V94.48ZM449.632 92.96C448.725 92.96 448.005 92.7333 447.472 92.28C446.939 91.8267 446.665 91.1867 446.652 90.36H447.672C447.685 90.88 447.872 91.3 448.232 91.62C448.592 91.9267 449.059 92.08 449.632 92.08C450.205 92.08 450.672 91.9267 451.032 91.62C451.405 91.3 451.599 90.88 451.612 90.36H452.632C452.619 91.1867 452.339 91.8267 451.792 92.28C451.259 92.7333 450.539 92.96 449.632 92.96ZM479.305 98.58H476.105V105L474.665 105V91H476.105V97.28H479.305L484.045 91H485.645L480.445 97.8L485.945 105H484.245L479.305 98.58ZM491.992 100.32H489.592V105H488.172V94.48H489.592V99.1H492.012L495.712 94.48H497.252L493.112 99.58L497.552 105H495.872L491.992 100.32ZM13.34 121L13.34 135H11.88L11.88 122.28H5.12L4.96 126.96C4.89333 128.893 4.73333 130.453 4.48 131.64C4.24 132.813 3.86667 133.693 3.36 134.28C2.85333 134.853 2.18 135.14 1.34 135.14C0.98 135.14 0.606667 135.093 0.22 135L0.34 133.68C0.566667 133.733 0.786667 133.76 1 133.76C1.58667 133.76 2.06 133.527 2.42 133.06C2.79333 132.593 3.07333 131.873 3.26 130.9C3.44667 129.913 3.57333 128.613 3.64 127L3.84 121H13.34ZM26.3231 124.48V135H24.9031V125.74H19.8631L19.7231 128.34C19.6165 130.527 19.3631 132.207 18.9631 133.38C18.5631 134.553 17.8498 135.14 16.8231 135.14C16.5431 135.14 16.2031 135.087 15.8031 134.98L15.9031 133.76C16.1431 133.813 16.3098 133.84 16.4031 133.84C16.9498 133.84 17.3631 133.587 17.6431 133.08C17.9231 132.573 18.1098 131.947 18.2031 131.2C18.2965 130.453 18.3765 129.467 18.4431 128.24L18.6231 124.48H26.3231ZM60.943 121V135H59.523V123.8L54.023 133.22H53.323L47.823 123.86V135H46.403V121H47.623L53.703 131.38L59.723 121H60.943ZM77.0808 124.48L77.0808 135H75.7808L75.7808 126.68L71.5208 133.72H70.8808L66.6208 126.66L66.6208 135H65.3208L65.3208 124.48L66.7608 124.48L71.2208 132.06L75.7608 124.48H77.0808ZM114.099 121L114.099 135H112.639V128.54L103.879 128.54V135H102.399L102.399 121H103.879L103.879 127.24L112.639 127.24L112.639 121H114.099ZM118.485 124.48H119.905L119.905 129.14H126.525L126.525 124.48H127.945L127.945 135H126.525V130.36H119.905V135H118.485L118.485 124.48ZM154.164 135.12C152.777 135.12 151.517 134.813 150.384 134.2C149.264 133.573 148.384 132.72 147.744 131.64C147.117 130.56 146.804 129.347 146.804 128C146.804 126.653 147.117 125.44 147.744 124.36C148.384 123.28 149.264 122.433 150.384 121.82C151.517 121.193 152.777 120.88 154.164 120.88C155.551 120.88 156.797 121.187 157.904 121.8C159.024 122.413 159.904 123.267 160.544 124.36C161.184 125.44 161.504 126.653 161.504 128C161.504 129.347 161.184 130.567 160.544 131.66C159.904 132.74 159.024 133.587 157.904 134.2C156.797 134.813 155.551 135.12 154.164 135.12ZM154.164 133.8C155.271 133.8 156.271 133.553 157.164 133.06C158.057 132.553 158.757 131.86 159.264 130.98C159.771 130.087 160.024 129.093 160.024 128C160.024 126.907 159.771 125.92 159.264 125.04C158.757 124.147 158.057 123.453 157.164 122.96C156.271 122.453 155.271 122.2 154.164 122.2C153.057 122.2 152.051 122.453 151.144 122.96C150.251 123.453 149.544 124.147 149.024 125.04C148.517 125.92 148.264 126.907 148.264 128C148.264 129.093 148.517 130.087 149.024 130.98C149.544 131.86 150.251 132.553 151.144 133.06C152.051 133.553 153.057 133.8 154.164 133.8ZM169.036 135.1C168.022 135.1 167.109 134.873 166.296 134.42C165.482 133.953 164.842 133.313 164.376 132.5C163.909 131.687 163.676 130.767 163.676 129.74C163.676 128.713 163.909 127.793 164.376 126.98C164.842 126.167 165.482 125.533 166.296 125.08C167.109 124.627 168.022 124.4 169.036 124.4C170.049 124.4 170.962 124.627 171.776 125.08C172.589 125.533 173.222 126.167 173.676 126.98C174.142 127.793 174.376 128.713 174.376 129.74C174.376 130.767 174.142 131.687 173.676 132.5C173.222 133.313 172.589 133.953 171.776 134.42C170.962 134.873 170.049 135.1 169.036 135.1ZM169.036 133.84C169.782 133.84 170.449 133.673 171.036 133.34C171.636 132.993 172.102 132.507 172.436 131.88C172.769 131.253 172.936 130.54 172.936 129.74C172.936 128.94 172.769 128.227 172.436 127.6C172.102 126.973 171.636 126.493 171.036 126.16C170.449 125.813 169.782 125.64 169.036 125.64C168.289 125.64 167.616 125.813 167.016 126.16C166.429 126.493 165.962 126.973 165.616 127.6C165.282 128.227 165.116 128.94 165.116 129.74C165.116 130.54 165.282 131.253 165.616 131.88C165.962 132.507 166.429 132.993 167.016 133.34C167.616 133.673 168.289 133.84 169.036 133.84ZM205.234 121V135H203.774V122.28H194.914V135H193.454V121H205.234ZM219.058 124.48V135H217.638V125.74H211.038V135H209.618V124.48H219.058ZM244.377 121C246.164 121 247.564 121.427 248.577 122.28C249.591 123.133 250.097 124.307 250.097 125.8C250.097 127.293 249.591 128.467 248.577 129.32C247.564 130.16 246.164 130.58 244.377 130.58L240.617 130.58V135H239.137V121L244.377 121ZM244.337 129.28C245.724 129.28 246.784 128.98 247.517 128.38C248.251 127.767 248.617 126.907 248.617 125.8C248.617 124.667 248.251 123.8 247.517 123.2C246.784 122.587 245.724 122.28 244.337 122.28L240.617 122.28V129.28L244.337 129.28ZM257.948 124.4C258.934 124.4 259.828 124.627 260.628 125.08C261.428 125.52 262.054 126.147 262.508 126.96C262.961 127.773 263.188 128.7 263.188 129.74C263.188 130.793 262.961 131.727 262.508 132.54C262.054 133.353 261.428 133.987 260.628 134.44C259.841 134.88 258.948 135.1 257.948 135.1C257.094 135.1 256.321 134.927 255.628 134.58C254.948 134.22 254.388 133.7 253.948 133.02V138.88H252.528V124.48H253.888V126.56C254.314 125.867 254.874 125.333 255.568 124.96C256.274 124.587 257.068 124.4 257.948 124.4ZM257.848 133.84C258.581 133.84 259.248 133.673 259.848 133.34C260.448 132.993 260.914 132.507 261.248 131.88C261.594 131.253 261.768 130.54 261.768 129.74C261.768 128.94 261.594 128.233 261.248 127.62C260.914 126.993 260.448 126.507 259.848 126.16C259.248 125.813 258.581 125.64 257.848 125.64C257.101 125.64 256.428 125.813 255.828 126.16C255.241 126.507 254.774 126.993 254.428 127.62C254.094 128.233 253.928 128.94 253.928 129.74C253.928 130.54 254.094 131.253 254.428 131.88C254.774 132.507 255.241 132.993 255.828 133.34C256.428 133.673 257.101 133.84 257.848 133.84ZM288.402 135.12C287.015 135.12 285.762 134.813 284.642 134.2C283.535 133.587 282.662 132.74 282.022 131.66C281.395 130.567 281.082 129.347 281.082 128C281.082 126.653 281.395 125.44 282.022 124.36C282.662 123.267 283.542 122.413 284.662 121.8C285.782 121.187 287.035 120.88 288.422 120.88C289.462 120.88 290.422 121.053 291.302 121.4C292.182 121.747 292.929 122.253 293.542 122.92L292.602 123.86C291.509 122.753 290.129 122.2 288.462 122.2C287.355 122.2 286.349 122.453 285.442 122.96C284.535 123.467 283.822 124.16 283.302 125.04C282.795 125.92 282.542 126.907 282.542 128C282.542 129.093 282.795 130.08 283.302 130.96C283.822 131.84 284.535 132.533 285.442 133.04C286.349 133.547 287.355 133.8 288.462 133.8C290.142 133.8 291.522 133.24 292.602 132.12L293.542 133.06C292.929 133.727 292.175 134.24 291.282 134.6C290.402 134.947 289.442 135.12 288.402 135.12ZM300.19 135.1C299.15 135.1 298.216 134.873 297.39 134.42C296.576 133.967 295.936 133.333 295.47 132.52C295.003 131.693 294.77 130.767 294.77 129.74C294.77 128.713 295.003 127.793 295.47 126.98C295.936 126.167 296.576 125.533 297.39 125.08C298.216 124.627 299.15 124.4 300.19 124.4C301.096 124.4 301.903 124.58 302.61 124.94C303.33 125.287 303.896 125.8 304.31 126.48L303.25 127.2C302.903 126.68 302.463 126.293 301.93 126.04C301.396 125.773 300.816 125.64 300.19 125.64C299.43 125.64 298.743 125.813 298.13 126.16C297.53 126.493 297.056 126.973 296.71 127.6C296.376 128.227 296.21 128.94 296.21 129.74C296.21 130.553 296.376 131.273 296.71 131.9C297.056 132.513 297.53 132.993 298.13 133.34C298.743 133.673 299.43 133.84 300.19 133.84C300.816 133.84 301.396 133.713 301.93 133.46C302.463 133.207 302.903 132.82 303.25 132.3L304.31 133.02C303.896 133.7 303.33 134.22 302.61 134.58C301.89 134.927 301.083 135.1 300.19 135.1ZM332.262 122.28H327.342V135H325.882V122.28H320.962V121H332.262V122.28ZM341.451 125.74H337.471V135H336.051V125.74H332.071V124.48H341.451V125.74ZM370.548 121L364.188 132.78C363.734 133.62 363.201 134.247 362.588 134.66C361.988 135.06 361.328 135.26 360.608 135.26C360.074 135.26 359.501 135.133 358.888 134.88L359.308 133.68C359.788 133.867 360.228 133.96 360.628 133.96C361.548 133.96 362.301 133.46 362.888 132.46L363.288 131.78L357.608 121H359.188L364.068 130.48L369.068 121H370.548ZM381.429 124.48L376.169 136.26C375.742 137.247 375.249 137.947 374.689 138.36C374.129 138.773 373.455 138.98 372.669 138.98C372.162 138.98 371.689 138.9 371.249 138.74C370.809 138.58 370.429 138.34 370.109 138.02L370.769 136.96C371.302 137.493 371.942 137.76 372.689 137.76C373.169 137.76 373.575 137.627 373.909 137.36C374.255 137.093 374.575 136.64 374.869 136L375.329 134.98L370.629 124.48H372.109L376.069 133.42L380.029 124.48H381.429ZM419.899 127.98C419.899 129.833 419.239 131.293 417.919 132.36C416.612 133.413 414.779 133.973 412.419 134.04V135.48H411.039V134.04C408.679 133.96 406.839 133.393 405.519 132.34C404.212 131.287 403.559 129.833 403.559 127.98C403.559 126.127 404.212 124.673 405.519 123.62C406.839 122.567 408.679 122 411.039 121.92V120.52H412.419V121.92C414.765 122 416.599 122.573 417.919 123.64C419.239 124.693 419.899 126.14 419.899 127.98ZM412.419 132.86C414.352 132.78 415.845 132.32 416.899 131.48C417.952 130.64 418.479 129.473 418.479 127.98C418.479 126.487 417.945 125.32 416.879 124.48C415.825 123.64 414.339 123.187 412.419 123.12V132.86ZM404.979 127.98C404.979 129.473 405.505 130.64 406.559 131.48C407.625 132.307 409.119 132.767 411.039 132.86V123.12C409.092 123.2 407.592 123.66 406.539 124.5C405.499 125.327 404.979 126.487 404.979 127.98ZM435.618 129.72C435.618 131.36 435.078 132.647 433.998 133.58C432.918 134.513 431.392 135.02 429.418 135.1V138.88H428.038V135.12C426.078 135.04 424.558 134.533 423.478 133.6C422.412 132.653 421.878 131.36 421.878 129.72C421.878 128.093 422.412 126.82 423.478 125.9C424.558 124.98 426.078 124.48 428.038 124.4V120.16H429.418V124.4C431.392 124.493 432.918 125 433.998 125.92C435.078 126.84 435.618 128.107 435.618 129.72ZM423.278 129.72C423.278 130.973 423.678 131.953 424.478 132.66C425.292 133.367 426.478 133.767 428.038 133.86V125.66C426.492 125.74 425.312 126.133 424.498 126.84C423.685 127.533 423.278 128.493 423.278 129.72ZM429.418 133.86C430.978 133.78 432.165 133.387 432.978 132.68C433.805 131.973 434.218 130.987 434.218 129.72C434.218 128.48 433.805 127.513 432.978 126.82C432.165 126.127 430.978 125.74 429.418 125.66V133.86ZM454.805 121L458.785 126.54L462.745 121L464.485 121L459.705 127.72L464.865 135L463.125 135L458.785 128.98L454.445 135H452.745L457.885 127.78L453.105 121H454.805ZM473.209 135L469.869 130.6L466.509 135H464.909L469.069 129.6L465.109 124.48H466.709L469.869 128.6L473.029 124.48H474.589L470.629 129.6L474.829 135H473.209ZM15.96 163.72L15.96 168.28H14.58L14.58 165H2.36L2.36 151H3.82L3.82 163.72H12.28L12.28 151H13.74L13.74 163.72H15.96ZM29.523 163.76V167.64H28.183V165H18.563L18.563 154.48H19.983L19.983 163.76H26.403L26.403 154.48H27.823L27.823 163.76H29.523ZM58.158 151V165H56.718V159.2C55.198 159.853 53.7246 160.18 52.298 160.18C50.658 160.18 49.378 159.78 48.458 158.98C47.5513 158.18 47.098 157.06 47.098 155.62V151H48.558V155.46C48.558 156.54 48.898 157.38 49.578 157.98C50.258 158.58 51.2113 158.88 52.438 158.88C53.838 158.88 55.2646 158.547 56.718 157.88V151H58.158ZM70.5069 154.48V165H69.0869V160.62C67.8735 161.153 66.6802 161.42 65.5069 161.42C64.2402 161.42 63.2535 161.133 62.5469 160.56C61.8402 159.973 61.4869 159.1 61.4869 157.94V154.48H62.9069V157.86C62.9069 158.647 63.1602 159.247 63.6669 159.66C64.1735 160.06 64.8735 160.26 65.7669 160.26C66.7535 160.26 67.8602 160 69.0869 159.48V154.48H70.5069ZM107.743 151V165H90.5827V151H92.0427V163.72H98.4427V151H99.9027V163.72H106.283V151H107.743ZM126.638 154.48V165H112.118V154.48H113.538V163.76H118.698V154.48H120.118V163.76H125.218V154.48H126.638ZM163.895 151V165H146.735V151H148.195V163.72H154.595V151H156.055V163.72H162.435V151H163.895ZM166.075 163.72V168.14H164.695V165H162.415V163.72H166.075ZM183.259 154.48V165H168.739V154.48H170.159V163.76H175.319V154.48H176.739V163.76H181.839V154.48H183.259ZM184.879 163.76V167.3H183.539V165H181.759V163.76H184.879ZM211.436 156C213.089 156 214.349 156.373 215.216 157.12C216.083 157.867 216.516 158.96 216.516 160.4C216.516 161.907 216.049 163.053 215.116 163.84C214.196 164.613 212.863 165 211.116 165H205.576V152.28H201.216V151H207.036V156H211.436ZM211.096 163.82C212.389 163.82 213.369 163.533 214.036 162.96C214.716 162.387 215.056 161.54 215.056 160.42C215.056 158.273 213.736 157.2 211.096 157.2H207.036V163.82H211.096ZM224.674 158.16C225.967 158.16 226.954 158.453 227.634 159.04C228.314 159.627 228.654 160.453 228.654 161.52C228.654 162.653 228.287 163.52 227.554 164.12C226.821 164.707 225.767 165 224.394 165L220.234 165V155.74H216.954V154.48L221.654 154.48V158.16H224.674ZM224.374 163.9C225.307 163.9 226.014 163.7 226.494 163.3C226.974 162.9 227.214 162.307 227.214 161.52C227.214 160 226.267 159.24 224.374 159.24H221.654V163.9H224.374ZM258.493 156C260.147 156 261.407 156.373 262.273 157.12C263.153 157.867 263.593 158.96 263.593 160.4C263.593 161.907 263.127 163.053 262.193 163.84C261.273 164.613 259.94 165 258.193 165H252.633V151H254.093V156H258.493ZM258.153 163.82C259.447 163.82 260.427 163.533 261.093 162.96C261.773 162.387 262.113 161.54 262.113 160.42C262.113 158.273 260.793 157.2 258.153 157.2H254.093V163.82H258.153ZM266.013 151H267.473V165H266.013V151ZM276.264 158.2C277.584 158.213 278.591 158.507 279.284 159.08C279.978 159.653 280.324 160.48 280.324 161.56C280.324 162.68 279.951 163.54 279.204 164.14C278.458 164.74 277.391 165.033 276.004 165.02L271.844 165V154.48H273.264V158.16L276.264 158.2ZM282.084 154.48H283.504V165H282.084V154.48ZM275.924 163.94C276.898 163.953 277.631 163.76 278.124 163.36C278.631 162.947 278.884 162.347 278.884 161.56C278.884 160.787 278.638 160.213 278.144 159.84C277.651 159.467 276.911 159.273 275.924 159.26L273.264 159.22V163.9L275.924 163.94ZM309.45 156C311.104 156 312.364 156.373 313.23 157.12C314.11 157.867 314.55 158.96 314.55 160.4C314.55 161.907 314.084 163.053 313.15 163.84C312.23 164.613 310.897 165 309.15 165H303.59V151H305.05V156H309.45ZM309.11 163.82C310.404 163.82 311.384 163.533 312.05 162.96C312.73 162.387 313.07 161.54 313.07 160.42C313.07 158.273 311.75 157.2 309.11 157.2H305.05V163.82H309.11ZM321.97 158.2C323.29 158.213 324.29 158.507 324.97 159.08C325.663 159.653 326.01 160.48 326.01 161.56C326.01 162.68 325.636 163.54 324.89 164.14C324.156 164.74 323.09 165.033 321.69 165.02L317.45 165V154.48H318.87V158.16L321.97 158.2ZM321.61 163.94C322.583 163.953 323.316 163.76 323.81 163.36C324.316 162.947 324.57 162.347 324.57 161.56C324.57 160.787 324.323 160.213 323.83 159.84C323.336 159.467 322.596 159.273 321.61 159.26L318.87 159.22V163.9L321.61 163.94ZM348.382 150.88C349.689 150.88 350.869 151.187 351.922 151.8C352.989 152.413 353.822 153.267 354.422 154.36C355.036 155.44 355.342 156.653 355.342 158C355.342 159.347 355.036 160.567 354.422 161.66C353.822 162.74 352.989 163.587 351.922 164.2C350.869 164.813 349.689 165.12 348.382 165.12C347.289 165.12 346.289 164.947 345.382 164.6C344.476 164.253 343.716 163.74 343.102 163.06L344.022 162.12C345.129 163.24 346.562 163.8 348.322 163.8C349.309 163.8 350.209 163.573 351.022 163.12C351.836 162.653 352.489 162.02 352.982 161.22C353.489 160.407 353.776 159.493 353.842 158.48H346.622V157.26H353.822C353.716 156.287 353.409 155.42 352.902 154.66C352.409 153.887 351.762 153.287 350.962 152.86C350.162 152.42 349.282 152.2 348.322 152.2C346.562 152.2 345.129 152.76 344.022 153.88L343.102 152.94C343.716 152.26 344.476 151.747 345.382 151.4C346.289 151.053 347.289 150.88 348.382 150.88ZM361.032 154.4C362.086 154.4 363.032 154.633 363.872 155.1C364.726 155.553 365.392 156.187 365.872 157C366.366 157.813 366.612 158.727 366.612 159.74C366.612 160.753 366.366 161.673 365.872 162.5C365.392 163.313 364.726 163.953 363.872 164.42C363.032 164.887 362.086 165.12 361.032 165.12C360.152 165.12 359.346 164.987 358.612 164.72C357.879 164.44 357.259 164.04 356.752 163.52L357.592 162.68C358.486 163.52 359.612 163.94 360.972 163.94C361.732 163.94 362.419 163.78 363.032 163.46C363.659 163.14 364.166 162.693 364.552 162.12C364.952 161.547 365.186 160.907 365.252 160.2H359.632V159.12H365.232C365.086 158.067 364.619 157.213 363.832 156.56C363.046 155.893 362.092 155.56 360.972 155.56C359.612 155.56 358.486 155.98 357.592 156.82L356.752 156C357.259 155.48 357.879 155.087 358.612 154.82C359.346 154.54 360.152 154.4 361.032 154.4ZM396.941 150.88C398.261 150.88 399.455 151.187 400.521 151.8C401.588 152.413 402.421 153.267 403.021 154.36C403.635 155.44 403.941 156.653 403.941 158C403.941 159.347 403.635 160.567 403.021 161.66C402.421 162.74 401.588 163.587 400.521 164.2C399.455 164.813 398.261 165.12 396.941 165.12C395.688 165.12 394.548 164.84 393.521 164.28C392.495 163.72 391.668 162.94 391.041 161.94C390.415 160.94 390.061 159.813 389.981 158.56H387.101V165H385.641V151H387.101V157.22H390.001C390.108 156.007 390.475 154.92 391.101 153.96C391.741 152.987 392.568 152.233 393.581 151.7C394.595 151.153 395.715 150.88 396.941 150.88ZM396.941 163.8C397.981 163.8 398.921 163.553 399.761 163.06C400.601 162.553 401.261 161.86 401.741 160.98C402.221 160.1 402.461 159.107 402.461 158C402.461 156.893 402.221 155.9 401.741 155.02C401.261 154.14 400.601 153.453 399.761 152.96C398.921 152.453 397.981 152.2 396.941 152.2C395.915 152.2 394.981 152.453 394.141 152.96C393.301 153.453 392.641 154.14 392.161 155.02C391.681 155.9 391.441 156.893 391.441 158C391.441 159.107 391.681 160.1 392.161 160.98C392.641 161.86 393.301 162.553 394.141 163.06C394.981 163.553 395.915 163.8 396.941 163.8ZM416.177 154.4C417.164 154.4 418.051 154.627 418.837 155.08C419.637 155.533 420.264 156.167 420.717 156.98C421.171 157.793 421.397 158.713 421.397 159.74C421.397 160.767 421.171 161.687 420.717 162.5C420.264 163.313 419.637 163.953 418.837 164.42C418.051 164.873 417.164 165.1 416.177 165.1C415.244 165.1 414.397 164.9 413.637 164.5C412.877 164.087 412.257 163.52 411.777 162.8C411.311 162.08 411.037 161.253 410.957 160.32H408.557V165H407.137V154.48H408.557V159.02H410.977C411.084 158.113 411.371 157.313 411.837 156.62C412.317 155.913 412.931 155.367 413.677 154.98C414.424 154.593 415.257 154.4 416.177 154.4ZM416.177 163.86C416.897 163.86 417.544 163.687 418.117 163.34C418.704 162.993 419.164 162.507 419.497 161.88C419.831 161.253 419.997 160.54 419.997 159.74C419.997 158.94 419.831 158.227 419.497 157.6C419.164 156.973 418.704 156.493 418.117 156.16C417.544 155.813 416.897 155.64 416.177 155.64C415.457 155.64 414.804 155.813 414.217 156.16C413.644 156.493 413.191 156.973 412.857 157.6C412.524 158.227 412.357 158.94 412.357 159.74C412.357 160.54 412.524 161.253 412.857 161.88C413.191 162.507 413.644 162.993 414.217 163.34C414.804 163.687 415.457 163.86 416.177 163.86ZM450.405 151V165H448.945V160.76H444.765C444.578 160.76 444.312 160.747 443.965 160.72L441.025 165H439.445L442.625 160.46C441.598 160.153 440.812 159.613 440.265 158.84C439.718 158.053 439.445 157.093 439.445 155.96C439.445 154.387 439.938 153.167 440.925 152.3C441.925 151.433 443.272 151 444.965 151H450.405ZM440.925 155.92C440.925 157.067 441.258 157.953 441.925 158.58C442.605 159.193 443.592 159.5 444.885 159.5H448.945V152.28H445.025C443.718 152.28 442.705 152.593 441.985 153.22C441.278 153.833 440.925 154.733 440.925 155.92ZM462.873 154.48V165H461.573V161.52H458.273H457.873L455.433 165H453.893L456.513 161.32C455.7 161.093 455.073 160.707 454.633 160.16C454.193 159.613 453.973 158.92 453.973 158.08C453.973 156.907 454.373 156.013 455.173 155.4C455.973 154.787 457.067 154.48 458.453 154.48H462.873ZM455.413 158.12C455.413 159.68 456.407 160.46 458.393 160.46H461.573V155.74H458.493C456.44 155.74 455.413 156.533 455.413 158.12Z" fill="white"/>
<path d="M4.92 201L4.92 215H3.48L3.48 202.28H0.18L0.18 201H4.92ZM23.0609 213.72V215H13.2409L13.2409 213.98L19.0609 208.28C19.7943 207.56 20.2876 206.94 20.5409 206.42C20.8076 205.887 20.9409 205.353 20.9409 204.82C20.9409 203.993 20.6543 203.353 20.0809 202.9C19.5209 202.433 18.7143 202.2 17.6609 202.2C16.0209 202.2 14.7476 202.72 13.8409 203.76L12.8209 202.88C13.3676 202.24 14.0609 201.747 14.9009 201.4C15.7543 201.053 16.7143 200.88 17.7809 200.88C19.2076 200.88 20.3343 201.22 21.1609 201.9C22.0009 202.567 22.4209 203.487 22.4209 204.66C22.4209 205.38 22.2609 206.073 21.9409 206.74C21.6209 207.407 21.0143 208.173 20.1209 209.04L15.3609 213.72H23.0609ZM34.8625 207C36.3292 207.08 37.4425 207.48 38.2025 208.2C38.9758 208.907 39.3625 209.833 39.3625 210.98C39.3625 211.78 39.1692 212.493 38.7825 213.12C38.3958 213.733 37.8225 214.22 37.0625 214.58C36.3025 214.94 35.3758 215.12 34.2825 215.12C33.2692 215.12 32.3092 214.96 31.4025 214.64C30.5092 214.307 29.7892 213.867 29.2425 213.32L29.9425 212.18C30.4092 212.66 31.0292 213.053 31.8025 213.36C32.5758 213.653 33.4025 213.8 34.2825 213.8C35.4292 213.8 36.3158 213.553 36.9425 213.06C37.5692 212.553 37.8825 211.86 37.8825 210.98C37.8825 210.113 37.5692 209.433 36.9425 208.94C36.3158 208.447 35.3692 208.2 34.1025 208.2H33.1025V207.14L36.9825 202.28H29.8225V201H38.8225V202.02L34.8625 207ZM58.5259 211.32H55.7259V215H54.2859V211.32H46.3859V210.28L53.8059 201H55.4059L48.2459 210.04H54.3259V206.8H55.7259V210.04H58.5259V211.32ZM68.763 206.74C70.7896 206.74 72.263 207.107 73.183 207.84C74.1163 208.56 74.583 209.573 74.583 210.88C74.583 211.693 74.3896 212.42 74.003 213.06C73.6296 213.7 73.063 214.207 72.303 214.58C71.543 214.94 70.6096 215.12 69.503 215.12C68.503 215.12 67.5496 214.96 66.643 214.64C65.7496 214.307 65.0296 213.867 64.483 213.32L65.183 212.18C65.6496 212.66 66.263 213.053 67.023 213.36C67.783 213.653 68.603 213.8 69.483 213.8C70.643 213.8 71.5363 213.54 72.163 213.02C72.803 212.5 73.123 211.807 73.123 210.94C73.123 209.98 72.763 209.253 72.043 208.76C71.3363 208.267 70.1363 208.02 68.443 208.02H65.463L66.183 201H73.843V202.28H67.443L66.963 206.74H68.763ZM87.4455 206.62C88.3655 206.62 89.1788 206.793 89.8855 207.14C90.6055 207.487 91.1655 207.98 91.5655 208.62C91.9655 209.247 92.1655 209.98 92.1655 210.82C92.1655 211.673 91.9588 212.427 91.5455 213.08C91.1321 213.733 90.5588 214.24 89.8255 214.6C89.1055 214.947 88.2921 215.12 87.3855 215.12C85.5321 215.12 84.1121 214.513 83.1255 213.3C82.1388 212.073 81.6455 210.347 81.6455 208.12C81.6455 206.56 81.9121 205.24 82.4455 204.16C82.9788 203.08 83.7255 202.267 84.6855 201.72C85.6455 201.16 86.7655 200.88 88.0455 200.88C89.4321 200.88 90.5388 201.133 91.3655 201.64L90.7855 202.8C90.1188 202.36 89.2121 202.14 88.0655 202.14C86.5188 202.14 85.3055 202.633 84.4255 203.62C83.5455 204.593 83.1055 206.013 83.1055 207.88C83.1055 208.213 83.1255 208.593 83.1655 209.02C83.5121 208.26 84.0655 207.673 84.8255 207.26C85.5855 206.833 86.4588 206.62 87.4455 206.62ZM87.3255 213.9C88.3388 213.9 89.1588 213.627 89.7855 213.08C90.4255 212.52 90.7455 211.78 90.7455 210.86C90.7455 209.94 90.4255 209.207 89.7855 208.66C89.1588 208.113 88.3055 207.84 87.2255 207.84C86.5188 207.84 85.8921 207.973 85.3455 208.24C84.8121 208.507 84.3921 208.873 84.0855 209.34C83.7788 209.807 83.6255 210.327 83.6255 210.9C83.6255 211.433 83.7655 211.927 84.0455 212.38C84.3388 212.833 84.7655 213.2 85.3255 213.48C85.8855 213.76 86.5521 213.9 87.3255 213.9ZM108.947 201V202.02L103.087 215H101.527L107.287 202.28H100.087V204.9H98.6673V201H108.947ZM124.099 207.66C124.979 207.953 125.652 208.393 126.119 208.98C126.599 209.567 126.839 210.273 126.839 211.1C126.839 211.913 126.619 212.627 126.179 213.24C125.739 213.84 125.106 214.307 124.279 214.64C123.466 214.96 122.506 215.12 121.399 215.12C119.719 215.12 118.399 214.76 117.439 214.04C116.479 213.32 115.999 212.34 115.999 211.1C115.999 210.26 116.226 209.553 116.679 208.98C117.146 208.393 117.819 207.953 118.699 207.66C117.979 207.38 117.432 206.98 117.059 206.46C116.686 205.927 116.499 205.3 116.499 204.58C116.499 203.447 116.939 202.547 117.819 201.88C118.712 201.213 119.906 200.88 121.399 200.88C122.386 200.88 123.246 201.033 123.979 201.34C124.726 201.633 125.306 202.06 125.719 202.62C126.132 203.18 126.339 203.833 126.339 204.58C126.339 205.3 126.146 205.927 125.759 206.46C125.372 206.98 124.819 207.38 124.099 207.66ZM117.939 204.62C117.939 205.393 118.246 206.007 118.859 206.46C119.472 206.913 120.319 207.14 121.399 207.14C122.479 207.14 123.326 206.913 123.939 206.46C124.566 206.007 124.879 205.4 124.879 204.64C124.879 203.853 124.559 203.233 123.919 202.78C123.292 202.327 122.452 202.1 121.399 202.1C120.332 202.1 119.486 202.327 118.859 202.78C118.246 203.233 117.939 203.847 117.939 204.62ZM121.399 213.9C122.639 213.9 123.606 213.647 124.299 213.14C125.006 212.633 125.359 211.947 125.359 211.08C125.359 210.213 125.006 209.533 124.299 209.04C123.606 208.533 122.639 208.28 121.399 208.28C120.172 208.28 119.206 208.533 118.499 209.04C117.806 209.533 117.459 210.213 117.459 211.08C117.459 211.96 117.806 212.653 118.499 213.16C119.192 213.653 120.159 213.9 121.399 213.9ZM138.427 200.88C140.281 200.88 141.701 201.493 142.687 202.72C143.674 203.933 144.167 205.653 144.167 207.88C144.167 209.44 143.901 210.76 143.367 211.84C142.834 212.92 142.087 213.74 141.127 214.3C140.167 214.847 139.047 215.12 137.767 215.12C136.381 215.12 135.274 214.867 134.447 214.36L135.027 213.2C135.694 213.64 136.601 213.86 137.747 213.86C139.294 213.86 140.507 213.373 141.387 212.4C142.267 211.413 142.707 209.987 142.707 208.12C142.707 207.773 142.687 207.393 142.647 206.98C142.301 207.74 141.747 208.333 140.987 208.76C140.227 209.173 139.354 209.38 138.367 209.38C137.447 209.38 136.627 209.207 135.907 208.86C135.201 208.513 134.647 208.027 134.247 207.4C133.847 206.76 133.647 206.02 133.647 205.18C133.647 204.327 133.854 203.573 134.267 202.92C134.681 202.267 135.247 201.767 135.967 201.42C136.701 201.06 137.521 200.88 138.427 200.88ZM138.587 208.16C139.294 208.16 139.914 208.027 140.447 207.76C140.994 207.493 141.421 207.127 141.727 206.66C142.034 206.193 142.187 205.673 142.187 205.1C142.187 204.567 142.041 204.073 141.747 203.62C141.467 203.167 141.047 202.8 140.487 202.52C139.927 202.24 139.261 202.1 138.487 202.1C137.474 202.1 136.647 202.38 136.007 202.94C135.381 203.487 135.067 204.22 135.067 205.14C135.067 206.06 135.381 206.793 136.007 207.34C136.647 207.887 137.507 208.16 138.587 208.16ZM157.069 215.12C155.989 215.12 155.023 214.833 154.169 214.26C153.329 213.687 152.669 212.867 152.189 211.8C151.723 210.72 151.489 209.453 151.489 208C151.489 206.547 151.723 205.287 152.189 204.22C152.669 203.14 153.329 202.313 154.169 201.74C155.023 201.167 155.989 200.88 157.069 200.88C158.149 200.88 159.109 201.167 159.949 201.74C160.803 202.313 161.469 203.14 161.949 204.22C162.429 205.287 162.669 206.547 162.669 208C162.669 209.453 162.429 210.72 161.949 211.8C161.469 212.867 160.803 213.687 159.949 214.26C159.109 214.833 158.149 215.12 157.069 215.12ZM157.069 213.8C157.883 213.8 158.596 213.573 159.209 213.12C159.836 212.667 160.323 212.007 160.669 211.14C161.016 210.273 161.189 209.227 161.189 208C161.189 206.773 161.016 205.727 160.669 204.86C160.323 203.993 159.836 203.333 159.209 202.88C158.596 202.427 157.883 202.2 157.069 202.2C156.256 202.2 155.536 202.427 154.909 202.88C154.296 203.333 153.816 203.993 153.469 204.86C153.123 205.727 152.949 206.773 152.949 208C152.949 209.227 153.123 210.273 153.469 211.14C153.816 212.007 154.296 212.667 154.909 213.12C155.536 213.573 156.256 213.8 157.069 213.8Z" fill="white"/>
</svg>
