<svg width="527" height="218" viewBox="0 0 527 218" fill="none" xmlns="http://www.w3.org/2000/svg">
<path d="M34.56 41L34.512 20.84L24.624 37.448L21.12 37.448L11.28 21.272L11.28 41H3.984L3.984 7.4L10.416 7.4L22.992 28.28L35.376 7.4L41.76 7.4L41.856 41H34.56ZM66.0998 41.576C62.6118 41.576 59.4598 40.824 56.6438 39.32C53.8598 37.816 51.6678 35.752 50.0678 33.128C48.4998 30.472 47.7158 27.496 47.7158 24.2C47.7158 20.904 48.4998 17.944 50.0678 15.32C51.6678 12.664 53.8598 10.584 56.6438 9.08C59.4598 7.576 62.6118 6.824 66.0998 6.824C69.5878 6.824 72.7238 7.576 75.5078 9.08C78.2918 10.584 80.4838 12.664 82.0838 15.32C83.6838 17.944 84.4838 20.904 84.4838 24.2C84.4838 27.496 83.6838 30.472 82.0838 33.128C80.4838 35.752 78.2918 37.816 75.5078 39.32C72.7238 40.824 69.5878 41.576 66.0998 41.576ZM66.0998 34.952C68.0838 34.952 69.8758 34.504 71.4758 33.608C73.0758 32.68 74.3238 31.4 75.2198 29.768C76.1478 28.136 76.6118 26.28 76.6118 24.2C76.6118 22.12 76.1478 20.264 75.2198 18.632C74.3238 17 73.0758 15.736 71.4758 14.84C69.8758 13.912 68.0838 13.448 66.0998 13.448C64.1158 13.448 62.3238 13.912 60.7238 14.84C59.1238 15.736 57.8598 17 56.9318 18.632C56.0358 20.264 55.5878 22.12 55.5878 24.2C55.5878 26.28 56.0358 28.136 56.9318 29.768C57.8598 31.4 59.1238 32.68 60.7238 33.608C62.3238 34.504 64.1158 34.952 66.0998 34.952ZM121.144 7.4V41H114.76L98.0078 20.6V41H90.3278V7.4L96.7598 7.4L113.464 27.8V7.4L121.144 7.4ZM136.053 13.736L125.301 13.736V7.4L154.581 7.4V13.736L143.829 13.736V41H136.053V13.736ZM169.571 41.576C166.915 41.576 164.339 41.224 161.843 40.52C159.379 39.784 157.395 38.84 155.891 37.688L158.531 31.832C159.971 32.888 161.683 33.736 163.667 34.376C165.651 35.016 167.635 35.336 169.619 35.336C171.827 35.336 173.459 35.016 174.515 34.376C175.571 33.704 176.099 32.824 176.099 31.736C176.099 30.936 175.779 30.28 175.139 29.768C174.531 29.224 173.731 28.792 172.739 28.472C171.779 28.152 170.467 27.8 168.803 27.416C166.243 26.808 164.147 26.2 162.515 25.592C160.883 24.984 159.475 24.008 158.291 22.664C157.139 21.32 156.563 19.528 156.563 17.288C156.563 15.336 157.091 13.576 158.147 12.008C159.203 10.408 160.787 9.144 162.899 8.216C165.043 7.288 167.651 6.824 170.723 6.824C172.867 6.824 174.963 7.08 177.011 7.592C179.059 8.104 180.851 8.84 182.387 9.8L179.987 15.704C176.883 13.944 173.779 13.064 170.675 13.064C168.499 13.064 166.883 13.416 165.827 14.12C164.803 14.824 164.291 15.752 164.291 16.904C164.291 18.056 164.883 18.92 166.067 19.496C167.283 20.04 169.123 20.584 171.587 21.128C174.147 21.736 176.243 22.344 177.875 22.952C179.507 23.56 180.899 24.52 182.051 25.832C183.235 27.144 183.827 28.92 183.827 31.16C183.827 33.08 183.283 34.84 182.195 36.44C181.139 38.008 179.539 39.256 177.395 40.184C175.251 41.112 172.643 41.576 169.571 41.576ZM215.156 34.76V41L189.14 41V7.4L214.532 7.4V13.64L196.868 13.64V20.936L212.468 20.936V26.984L196.868 26.984V34.76L215.156 34.76ZM242.751 41L236.271 31.64H235.887L229.119 31.64V41H221.343V7.4L235.887 7.4C238.863 7.4 241.439 7.896 243.615 8.888C245.823 9.88 247.519 11.288 248.703 13.112C249.887 14.936 250.479 17.096 250.479 19.592C250.479 22.088 249.871 24.248 248.655 26.072C247.471 27.864 245.775 29.24 243.567 30.2L251.103 41L242.751 41ZM242.607 19.592C242.607 17.704 241.999 16.264 240.783 15.272C239.567 14.248 237.791 13.736 235.455 13.736H229.119V25.448L235.455 25.448C237.791 25.448 239.567 24.936 240.783 23.912C241.999 22.888 242.607 21.448 242.607 19.592ZM278.048 41L271.568 31.64H271.184H264.416V41H256.64V7.4L271.184 7.4C274.16 7.4 276.736 7.896 278.912 8.888C281.12 9.88 282.816 11.288 284 13.112C285.184 14.936 285.776 17.096 285.776 19.592C285.776 22.088 285.168 24.248 283.952 26.072C282.768 27.864 281.072 29.24 278.864 30.2L286.4 41H278.048ZM277.904 19.592C277.904 17.704 277.296 16.264 276.08 15.272C274.864 14.248 273.088 13.736 270.752 13.736L264.416 13.736V25.448H270.752C273.088 25.448 274.864 24.936 276.08 23.912C277.296 22.888 277.904 21.448 277.904 19.592ZM314.065 33.8H298.465L295.489 41H287.521L302.497 7.4L310.177 7.4L325.201 41H317.041L314.065 33.8ZM311.617 27.896L306.289 15.032L300.961 27.896H311.617ZM333.96 13.736L323.208 13.736V7.4L352.488 7.4V13.736L341.736 13.736V41H333.96V13.736ZM394.937 23.528C396.857 24.136 398.361 25.16 399.449 26.6C400.537 28.008 401.081 29.752 401.081 31.832C401.081 34.776 399.929 37.048 397.625 38.648C395.353 40.216 392.025 41 387.641 41L370.265 41V7.4L386.681 7.4C390.777 7.4 393.913 8.184 396.089 9.752C398.297 11.32 399.401 13.448 399.401 16.136C399.401 17.768 399.001 19.224 398.201 20.504C397.433 21.784 396.345 22.792 394.937 23.528ZM377.993 13.256V21.176H385.721C387.641 21.176 389.097 20.84 390.089 20.168C391.081 19.496 391.577 18.504 391.577 17.192C391.577 15.88 391.081 14.904 390.089 14.264C389.097 13.592 387.641 13.256 385.721 13.256L377.993 13.256ZM387.065 35.144C389.113 35.144 390.649 34.808 391.673 34.136C392.729 33.464 393.257 32.424 393.257 31.016C393.257 28.232 391.193 26.84 387.065 26.84L377.993 26.84V35.144H387.065ZM423.24 41.576C419.752 41.576 416.6 40.824 413.784 39.32C411 37.816 408.808 35.752 407.208 33.128C405.64 30.472 404.856 27.496 404.856 24.2C404.856 20.904 405.64 17.944 407.208 15.32C408.808 12.664 411 10.584 413.784 9.08C416.6 7.576 419.752 6.824 423.24 6.824C426.728 6.824 429.864 7.576 432.648 9.08C435.432 10.584 437.624 12.664 439.224 15.32C440.824 17.944 441.624 20.904 441.624 24.2C441.624 27.496 440.824 30.472 439.224 33.128C437.624 35.752 435.432 37.816 432.648 39.32C429.864 40.824 426.728 41.576 423.24 41.576ZM423.24 34.952C425.224 34.952 427.016 34.504 428.616 33.608C430.216 32.68 431.464 31.4 432.36 29.768C433.288 28.136 433.752 26.28 433.752 24.2C433.752 22.12 433.288 20.264 432.36 18.632C431.464 17 430.216 15.736 428.616 14.84C427.016 13.912 425.224 13.448 423.24 13.448C421.256 13.448 419.464 13.912 417.864 14.84C416.264 15.736 415 17 414.072 18.632C413.176 20.264 412.728 22.12 412.728 24.2C412.728 26.28 413.176 28.136 414.072 29.768C415 31.4 416.264 32.68 417.864 33.608C419.464 34.504 421.256 34.952 423.24 34.952ZM447.468 7.4L455.244 7.4V34.664L472.092 34.664V41L447.468 41V7.4ZM476.437 7.4L491.701 7.4C495.349 7.4 498.565 8.104 501.349 9.512C504.165 10.888 506.341 12.84 507.877 15.368C509.445 17.896 510.229 20.84 510.229 24.2C510.229 27.56 509.445 30.504 507.877 33.032C506.341 35.56 504.165 37.528 501.349 38.936C498.565 40.312 495.349 41 491.701 41H476.437V7.4ZM491.317 34.616C494.677 34.616 497.349 33.688 499.333 31.832C501.349 29.944 502.357 27.4 502.357 24.2C502.357 21 501.349 18.472 499.333 16.616C497.349 14.728 494.677 13.784 491.317 13.784H484.213V34.616H491.317Z" fill="white"/>
<path d="M11.22 102H4.72L3.48 105H0.16L6.4 91H9.6L15.86 105H12.46L11.22 102ZM10.2 99.54L7.98 94.18L5.76 99.54H10.2ZM21.6566 94.08C23.3232 94.08 24.6032 94.48 25.4966 95.28C26.3899 96.0667 26.8366 97.26 26.8366 98.86V105H23.9166V103.66C23.3299 104.66 22.2366 105.16 20.6366 105.16C19.8099 105.16 19.0899 105.02 18.4766 104.74C17.8766 104.46 17.4166 104.073 17.0966 103.58C16.7766 103.087 16.6166 102.527 16.6166 101.9C16.6166 100.9 16.9899 100.113 17.7366 99.54C18.4966 98.9667 19.6632 98.68 21.2366 98.68H23.7166C23.7166 98 23.5099 97.48 23.0966 97.12C22.6832 96.7467 22.0632 96.56 21.2366 96.56C20.6632 96.56 20.0966 96.6533 19.5366 96.84C18.9899 97.0133 18.5232 97.2533 18.1366 97.56L17.0166 95.38C17.6032 94.9667 18.3032 94.6467 19.1166 94.42C19.9432 94.1933 20.7899 94.08 21.6566 94.08ZM21.4166 103.06C21.9499 103.06 22.4232 102.94 22.8366 102.7C23.2499 102.447 23.5432 102.08 23.7166 101.6V100.5H21.5766C20.2966 100.5 19.6566 100.92 19.6566 101.76C19.6566 102.16 19.8099 102.48 20.1166 102.72C20.4366 102.947 20.8699 103.06 21.4166 103.06ZM46.7791 91L58.0791 91V93.58H49.9991V96.46H53.8791C55.5724 96.46 56.8591 96.8133 57.7391 97.52C58.6324 98.2267 59.0791 99.2467 59.0791 100.58C59.0791 101.98 58.5857 103.067 57.5991 103.84C56.6124 104.613 55.2191 105 53.4191 105H46.7791V91ZM53.2391 102.6C54.0657 102.6 54.6991 102.44 55.1391 102.12C55.5791 101.787 55.7991 101.307 55.7991 100.68C55.7991 99.4533 54.9457 98.84 53.2391 98.84H49.9991V102.6H53.2391ZM67.5247 94.98C68.5514 94.98 69.4514 95.1933 70.2247 95.62C70.998 96.0333 71.5914 96.62 72.0047 97.38C72.4314 98.14 72.6447 99.02 72.6447 100.02C72.6447 101.047 72.3914 101.96 71.8847 102.76C71.3914 103.547 70.698 104.16 69.8047 104.6C68.9114 105.027 67.898 105.24 66.7647 105.24C64.8847 105.24 63.4047 104.64 62.3247 103.44C61.258 102.227 60.7247 100.453 60.7247 98.12C60.7247 95.96 61.1914 94.24 62.1247 92.96C63.0714 91.6667 64.518 90.82 66.4647 90.42L71.5847 89.4L72.0047 92.08L67.4847 92.98C66.258 93.22 65.3447 93.62 64.7447 94.18C64.158 94.74 63.8114 95.5333 63.7047 96.56C64.1714 96.0533 64.7314 95.6667 65.3847 95.4C66.038 95.12 66.7514 94.98 67.5247 94.98ZM66.7847 102.82C67.5847 102.82 68.2247 102.56 68.7047 102.04C69.198 101.52 69.4447 100.86 69.4447 100.06C69.4447 99.2467 69.198 98.6 68.7047 98.12C68.2247 97.64 67.5847 97.4 66.7847 97.4C65.9714 97.4 65.318 97.64 64.8247 98.12C64.3314 98.6 64.0847 99.2467 64.0847 100.06C64.0847 100.873 64.338 101.54 64.8447 102.06C65.3514 102.567 65.998 102.82 66.7847 102.82ZM101.694 97.7C102.547 97.9533 103.201 98.3667 103.654 98.94C104.107 99.5133 104.334 100.22 104.334 101.06C104.334 102.3 103.861 103.267 102.914 103.96C101.981 104.653 100.641 105 98.8939 105H91.9939V91H98.5139C100.141 91 101.407 91.3133 102.314 91.94C103.221 92.5667 103.674 93.46 103.674 94.62C103.674 95.3133 103.501 95.9267 103.154 96.46C102.807 96.98 102.321 97.3933 101.694 97.7ZM95.2139 96.8H98.2339C98.9406 96.8 99.4739 96.66 99.8339 96.38C100.194 96.0867 100.374 95.66 100.374 95.1C100.374 94.5533 100.187 94.1333 99.8139 93.84C99.4539 93.5467 98.9272 93.4 98.2339 93.4H95.2139V96.8ZM98.7739 102.6C100.294 102.6 101.054 102 101.054 100.8C101.054 99.64 100.294 99.06 98.7739 99.06H95.2139V102.6H98.7739ZM114.876 99.38C116.143 99.8067 116.776 100.66 116.776 101.94C116.776 102.913 116.41 103.667 115.676 104.2C114.943 104.733 113.85 105 112.396 105H106.656V94.24H112.156C113.503 94.24 114.556 94.4867 115.316 94.98C116.076 95.46 116.456 96.14 116.456 97.02C116.456 97.5533 116.316 98.0267 116.036 98.44C115.77 98.84 115.383 99.1533 114.876 99.38ZM109.516 98.66H111.876C112.97 98.66 113.516 98.2733 113.516 97.5C113.516 96.74 112.97 96.36 111.876 96.36H109.516V98.66ZM112.136 102.88C113.283 102.88 113.856 102.487 113.856 101.7C113.856 101.287 113.723 100.987 113.456 100.8C113.19 100.6 112.77 100.5 112.196 100.5H109.516V102.88H112.136ZM146.19 93.64H139.53L139.55 105H136.33V91H146.21L146.19 93.64ZM155.491 96.8H149.971V105H146.871V94.24H155.491V96.8ZM188.817 102.36V107.9H185.817V105H175.937V107.9H172.937L172.957 102.36H173.517C174.357 102.333 174.95 101.72 175.297 100.52C175.643 99.32 175.857 97.6067 175.937 95.38L176.097 91H186.857V102.36H188.817ZM178.797 95.68C178.73 97.3467 178.59 98.7467 178.377 99.88C178.163 101 177.837 101.827 177.397 102.36H183.657V93.64H178.857L178.797 95.68ZM202.818 102.44V107.32H199.918V105H192.358V107.32H189.458V102.44H189.898C190.564 102.427 191.024 102.033 191.278 101.26C191.531 100.487 191.691 99.3867 191.758 97.96L191.898 94.24H201.278V102.44H202.818ZM194.578 98.18C194.538 99.2733 194.451 100.167 194.318 100.86C194.198 101.553 193.964 102.08 193.618 102.44H198.158V96.8H194.638L194.578 98.18ZM232.853 102.4V105L222.013 105V91L232.593 91V93.6L225.233 93.6V96.64L231.733 96.64V99.16H225.233V102.4L232.853 102.4ZM245.612 99.66C245.612 99.7 245.592 99.98 245.552 100.5H237.412C237.559 101.167 237.906 101.693 238.452 102.08C238.999 102.467 239.679 102.66 240.492 102.66C241.052 102.66 241.546 102.58 241.972 102.42C242.412 102.247 242.819 101.98 243.192 101.62L244.852 103.42C243.839 104.58 242.359 105.16 240.412 105.16C239.199 105.16 238.126 104.927 237.192 104.46C236.259 103.98 235.539 103.32 235.032 102.48C234.526 101.64 234.272 100.687 234.272 99.62C234.272 98.5667 234.519 97.62 235.012 96.78C235.519 95.9267 236.206 95.2667 237.072 94.8C237.952 94.32 238.932 94.08 240.012 94.08C241.066 94.08 242.019 94.3067 242.872 94.76C243.726 95.2133 244.392 95.8667 244.872 96.72C245.366 97.56 245.612 98.54 245.612 99.66ZM240.032 96.44C239.326 96.44 238.732 96.64 238.252 97.04C237.772 97.44 237.479 97.9867 237.372 98.68H242.672C242.566 98 242.272 97.46 241.792 97.06C241.312 96.6467 240.726 96.44 240.032 96.44ZM276.076 102.4V105H265.236V91H275.816V93.6H268.456V96.64H274.956V99.16H268.456V102.4H276.076ZM268.516 89.76C268.116 89.76 267.783 89.6333 267.516 89.38C267.249 89.1133 267.116 88.78 267.116 88.38C267.116 87.98 267.249 87.6533 267.516 87.4C267.783 87.1333 268.116 87 268.516 87C268.916 87 269.243 87.1333 269.496 87.4C269.763 87.6533 269.896 87.98 269.896 88.38C269.896 88.78 269.763 89.1133 269.496 89.38C269.243 89.6333 268.916 89.76 268.516 89.76ZM272.556 89.76C272.156 89.76 271.823 89.6333 271.556 89.38C271.303 89.1133 271.176 88.78 271.176 88.38C271.176 87.98 271.303 87.6533 271.556 87.4C271.823 87.1333 272.156 87 272.556 87C272.956 87 273.289 87.1333 273.556 87.4C273.823 87.6533 273.956 87.98 273.956 88.38C273.956 88.78 273.823 89.1133 273.556 89.38C273.289 89.6333 272.956 89.76 272.556 89.76ZM288.835 99.66C288.835 99.7 288.815 99.98 288.775 100.5H280.635C280.782 101.167 281.128 101.693 281.675 102.08C282.222 102.467 282.902 102.66 283.715 102.66C284.275 102.66 284.768 102.58 285.195 102.42C285.635 102.247 286.042 101.98 286.415 101.62L288.075 103.42C287.062 104.58 285.582 105.16 283.635 105.16C282.422 105.16 281.348 104.927 280.415 104.46C279.482 103.98 278.762 103.32 278.255 102.48C277.748 101.64 277.495 100.687 277.495 99.62C277.495 98.5667 277.742 97.62 278.235 96.78C278.742 95.9267 279.428 95.2667 280.295 94.8C281.175 94.32 282.155 94.08 283.235 94.08C284.288 94.08 285.242 94.3067 286.095 94.76C286.948 95.2133 287.615 95.8667 288.095 96.72C288.588 97.56 288.835 98.54 288.835 99.66ZM283.255 96.44C282.548 96.44 281.955 96.64 281.475 97.04C280.995 97.44 280.702 97.9867 280.595 98.68H285.895C285.788 98 285.495 97.46 285.015 97.06C284.535 96.6467 283.948 96.44 283.255 96.44ZM281.155 92.76C280.755 92.76 280.422 92.6333 280.155 92.38C279.888 92.1133 279.755 91.78 279.755 91.38C279.755 90.98 279.888 90.6533 280.155 90.4C280.422 90.1333 280.755 90 281.155 90C281.555 90 281.882 90.1333 282.135 90.4C282.402 90.6533 282.535 90.98 282.535 91.38C282.535 91.78 282.402 92.1133 282.135 92.38C281.882 92.6333 281.555 92.76 281.155 92.76ZM285.195 92.76C284.795 92.76 284.462 92.6333 284.195 92.38C283.942 92.1133 283.815 91.78 283.815 91.38C283.815 90.98 283.942 90.6533 284.195 90.4C284.462 90.1333 284.795 90 285.195 90C285.595 90 285.928 90.1333 286.195 90.4C286.462 90.6533 286.595 90.98 286.595 91.38C286.595 91.78 286.462 92.1133 286.195 92.38C285.928 92.6333 285.595 92.76 285.195 92.76ZM326.823 99.36H324.783V105H321.603V99.36H319.523L316.383 105H312.643L316.843 97.68L312.903 91H316.323L319.463 96.66H321.603V91H324.783V96.66H326.863L330.023 91H333.443L329.523 97.68L333.703 105H329.963L326.823 99.36ZM345.265 100.92H343.765V105H340.685V100.92H339.185L336.905 105H333.225L336.605 99.44L333.465 94.24H336.765L339.145 98.42H340.685V94.24H343.765V98.42H345.285L347.685 94.24H350.985L347.845 99.44L351.245 105H347.545L345.265 100.92ZM372.395 97.7C373.209 97.98 373.842 98.42 374.295 99.02C374.762 99.6067 374.995 100.293 374.995 101.08C374.995 101.933 374.715 102.673 374.155 103.3C373.595 103.927 372.835 104.407 371.875 104.74C370.929 105.073 369.889 105.24 368.755 105.24C367.795 105.24 366.835 105.12 365.875 104.88C364.929 104.64 364.029 104.273 363.175 103.78L364.175 101.46C364.789 101.833 365.462 102.12 366.195 102.32C366.942 102.507 367.669 102.6 368.375 102.6C369.335 102.6 370.129 102.427 370.755 102.08C371.395 101.733 371.715 101.247 371.715 100.62C371.715 100.1 371.495 99.7067 371.055 99.44C370.629 99.1733 370.042 99.04 369.295 99.04H365.875V96.6H369.055C369.709 96.6 370.215 96.4667 370.575 96.2C370.949 95.9333 371.135 95.5667 371.135 95.1C371.135 94.5533 370.869 94.1267 370.335 93.82C369.815 93.5133 369.142 93.36 368.315 93.36C367.702 93.36 367.069 93.4467 366.415 93.62C365.762 93.78 365.142 94.0267 364.555 94.36L363.575 91.84C365.055 91.08 366.655 90.7 368.375 90.7C369.469 90.7 370.475 90.86 371.395 91.18C372.315 91.5 373.049 91.9667 373.595 92.58C374.142 93.1933 374.415 93.9067 374.415 94.72C374.415 95.3867 374.235 95.98 373.875 96.5C373.515 97.02 373.022 97.42 372.395 97.7ZM384.3 99.4C384.94 99.6 385.434 99.9067 385.78 100.32C386.14 100.733 386.32 101.227 386.32 101.8C386.32 102.48 386.087 103.08 385.62 103.6C385.154 104.107 384.514 104.5 383.7 104.78C382.887 105.06 381.967 105.2 380.94 105.2C380.1 105.2 379.274 105.113 378.46 104.94C377.647 104.767 376.894 104.507 376.2 104.16L377.04 101.98C378.174 102.527 379.427 102.8 380.8 102.8C381.534 102.8 382.107 102.693 382.52 102.48C382.947 102.253 383.16 101.94 383.16 101.54C383.16 101.193 383.014 100.933 382.72 100.76C382.427 100.573 382 100.48 381.44 100.48H379.24V98.54H381.16C381.707 98.54 382.127 98.4533 382.42 98.28C382.714 98.1067 382.86 97.8533 382.86 97.52C382.86 97.1733 382.674 96.9067 382.3 96.72C381.94 96.5333 381.42 96.44 380.74 96.44C379.7 96.44 378.567 96.6867 377.34 97.18L376.58 95.02C378.074 94.3667 379.527 94.04 380.94 94.04C381.914 94.04 382.78 94.16 383.54 94.4C384.314 94.64 384.92 94.9933 385.36 95.46C385.8 95.9133 386.02 96.4467 386.02 97.06C386.02 97.5667 385.867 98.0267 385.56 98.44C385.254 98.84 384.834 99.16 384.3 99.4ZM405.822 91H409.042V100.12L415.722 91H418.762V105H415.562V95.9L408.882 105L405.822 105V91ZM422.008 94.24H425.108V100.64L430.348 94.24H433.208V105H430.108V98.6L424.888 105H422.008V94.24ZM453.439 91H456.659V100.12L463.339 91H466.379V105H463.179V95.9L456.499 105H453.439V91ZM459.899 90.1C457.339 90.1 456.046 89.08 456.019 87.04H458.239C458.266 88.0133 458.819 88.5 459.899 88.5C460.433 88.5 460.839 88.38 461.119 88.14C461.399 87.8867 461.546 87.52 461.559 87.04H463.779C463.766 88.04 463.439 88.8 462.799 89.32C462.159 89.84 461.193 90.1 459.899 90.1ZM469.625 94.24H472.725V100.64L477.965 94.24L480.825 94.24V105H477.725V98.6L472.505 105H469.625V94.24ZM475.025 93.08C472.678 93.08 471.498 92.0467 471.485 89.98H473.525C473.538 90.4467 473.665 90.8133 473.905 91.08C474.158 91.3333 474.525 91.46 475.005 91.46C475.485 91.46 475.852 91.3333 476.105 91.08C476.372 90.8133 476.505 90.4467 476.505 89.98H478.585C478.572 92.0467 477.385 93.08 475.025 93.08ZM506.476 99.36H504.236V105H501.016V91H504.236V96.66H506.556L510.236 91H513.656L509.076 97.76L513.796 105H510.116L506.476 99.36ZM520.068 100.92H518.448V105H515.328V94.24H518.448V98.42H520.128L523.048 94.24H526.368L522.608 99.4L526.628 105H522.948L520.068 100.92ZM14.22 121L14.22 135H11.02L11.02 123.64H6.22L6.12 126.56C6.05333 128.547 5.89333 130.16 5.64 131.4C5.38667 132.627 4.96 133.573 4.36 134.24C3.77333 134.893 2.94667 135.22 1.88 135.22C1.44 135.22 0.906667 135.147 0.28 135L0.48 132.26C0.653333 132.313 0.846667 132.34 1.06 132.34C1.83333 132.34 2.37333 131.887 2.68 130.98C2.98667 130.06 3.18 128.627 3.26 126.68L3.46 121H14.22ZM27.7966 124.24V135H24.6766V126.8H21.2766L21.1766 128.7C21.1232 130.113 20.9899 131.287 20.7766 132.22C20.5632 133.153 20.2166 133.887 19.7366 134.42C19.2566 134.953 18.5899 135.22 17.7366 135.22C17.2832 135.22 16.7432 135.14 16.1166 134.98L16.2766 132.42C16.4899 132.447 16.6432 132.46 16.7366 132.46C17.2032 132.46 17.5499 132.293 17.7766 131.96C18.0166 131.613 18.1766 131.18 18.2566 130.66C18.3366 130.127 18.3966 129.427 18.4366 128.56L18.5966 124.24H27.7966ZM60.7691 135L60.7491 126.62L56.6291 133.52H55.1891L51.0691 126.78V135H48.0291V121H50.7091L55.9491 129.7L61.1091 121H63.7891L63.8091 135H60.7691ZM77.5469 135V128.56L74.3269 133.96H73.0069L69.8669 128.54V135H67.0469L67.0469 124.24H70.3069L73.7469 130.46L77.4069 124.24H80.3269L80.3669 135H77.5469ZM119.092 121L119.092 135H115.852V129.26L109.492 129.26V135H106.252L106.252 121H109.492V126.52L115.852 126.52V121H119.092ZM122.359 124.24H125.459L125.459 128.44H130.139V124.24H133.259V135H130.139V130.98H125.459V135H122.359L122.359 124.24ZM160.158 135.24C158.705 135.24 157.392 134.927 156.218 134.3C155.058 133.673 154.145 132.813 153.478 131.72C152.825 130.613 152.498 129.373 152.498 128C152.498 126.627 152.825 125.393 153.478 124.3C154.145 123.193 155.058 122.327 156.218 121.7C157.392 121.073 158.705 120.76 160.158 120.76C161.612 120.76 162.918 121.073 164.078 121.7C165.238 122.327 166.152 123.193 166.818 124.3C167.485 125.393 167.818 126.627 167.818 128C167.818 129.373 167.485 130.613 166.818 131.72C166.152 132.813 165.238 133.673 164.078 134.3C162.918 134.927 161.612 135.24 160.158 135.24ZM160.158 132.48C160.985 132.48 161.732 132.293 162.398 131.92C163.065 131.533 163.585 131 163.958 130.32C164.345 129.64 164.538 128.867 164.538 128C164.538 127.133 164.345 126.36 163.958 125.68C163.585 125 163.065 124.473 162.398 124.1C161.732 123.713 160.985 123.52 160.158 123.52C159.332 123.52 158.585 123.713 157.918 124.1C157.252 124.473 156.725 125 156.338 125.68C155.965 126.36 155.778 127.133 155.778 128C155.778 128.867 155.965 129.64 156.338 130.32C156.725 131 157.252 131.533 157.918 131.92C158.585 132.293 159.332 132.48 160.158 132.48ZM175.114 135.16C173.981 135.16 172.961 134.927 172.054 134.46C171.161 133.98 170.461 133.32 169.954 132.48C169.448 131.64 169.194 130.687 169.194 129.62C169.194 128.553 169.448 127.6 169.954 126.76C170.461 125.92 171.161 125.267 172.054 124.8C172.961 124.32 173.981 124.08 175.114 124.08C176.248 124.08 177.261 124.32 178.154 124.8C179.048 125.267 179.748 125.92 180.254 126.76C180.761 127.6 181.014 128.553 181.014 129.62C181.014 130.687 180.761 131.64 180.254 132.48C179.748 133.32 179.048 133.98 178.154 134.46C177.261 134.927 176.248 135.16 175.114 135.16ZM175.114 132.6C175.914 132.6 176.568 132.333 177.074 131.8C177.594 131.253 177.854 130.527 177.854 129.62C177.854 128.713 177.594 127.993 177.074 127.46C176.568 126.913 175.914 126.64 175.114 126.64C174.314 126.64 173.654 126.913 173.134 127.46C172.614 127.993 172.354 128.713 172.354 129.62C172.354 130.527 172.614 131.253 173.134 131.8C173.654 132.333 174.314 132.6 175.114 132.6ZM213.152 121V135H209.932V123.64H203.612V135H200.392V121H213.152ZM227.083 124.24V135H223.963V126.8H219.483V135H216.383V124.24H227.083ZM253.366 121C254.606 121 255.68 121.207 256.586 121.62C257.506 122.033 258.213 122.62 258.706 123.38C259.2 124.14 259.446 125.04 259.446 126.08C259.446 127.107 259.2 128.007 258.706 128.78C258.213 129.54 257.506 130.127 256.586 130.54C255.68 130.94 254.606 131.14 253.366 131.14H250.546V135H247.306V121H253.366ZM253.186 128.5C254.16 128.5 254.9 128.293 255.406 127.88C255.913 127.453 256.166 126.853 256.166 126.08C256.166 125.293 255.913 124.693 255.406 124.28C254.9 123.853 254.16 123.64 253.186 123.64H250.546V128.5H253.186ZM267.684 124.08C268.684 124.08 269.59 124.313 270.404 124.78C271.23 125.233 271.877 125.88 272.344 126.72C272.81 127.547 273.044 128.513 273.044 129.62C273.044 130.727 272.81 131.7 272.344 132.54C271.877 133.367 271.23 134.013 270.404 134.48C269.59 134.933 268.684 135.16 267.684 135.16C266.31 135.16 265.23 134.727 264.444 133.86V138.88H261.324V124.24H264.304V125.48C265.077 124.547 266.204 124.08 267.684 124.08ZM267.144 132.6C267.944 132.6 268.597 132.333 269.104 131.8C269.624 131.253 269.884 130.527 269.884 129.62C269.884 128.713 269.624 127.993 269.104 127.46C268.597 126.913 267.944 126.64 267.144 126.64C266.344 126.64 265.684 126.913 265.164 127.46C264.657 127.993 264.404 128.713 264.404 129.62C264.404 130.527 264.657 131.253 265.164 131.8C265.684 132.333 266.344 132.6 267.144 132.6ZM299.083 135.24C297.656 135.24 296.363 134.933 295.203 134.32C294.056 133.693 293.149 132.833 292.483 131.74C291.829 130.633 291.503 129.387 291.503 128C291.503 126.613 291.829 125.373 292.483 124.28C293.149 123.173 294.056 122.313 295.203 121.7C296.363 121.073 297.663 120.76 299.103 120.76C300.316 120.76 301.409 120.973 302.383 121.4C303.369 121.827 304.196 122.44 304.863 123.24L302.783 125.16C301.836 124.067 300.663 123.52 299.263 123.52C298.396 123.52 297.623 123.713 296.943 124.1C296.263 124.473 295.729 125 295.343 125.68C294.969 126.36 294.783 127.133 294.783 128C294.783 128.867 294.969 129.64 295.343 130.32C295.729 131 296.263 131.533 296.943 131.92C297.623 132.293 298.396 132.48 299.263 132.48C300.663 132.48 301.836 131.927 302.783 130.82L304.863 132.74C304.196 133.553 303.369 134.173 302.383 134.6C301.396 135.027 300.296 135.24 299.083 135.24ZM311.483 135.16C310.337 135.16 309.303 134.927 308.383 134.46C307.477 133.98 306.763 133.32 306.243 132.48C305.737 131.64 305.483 130.687 305.483 129.62C305.483 128.553 305.737 127.6 306.243 126.76C306.763 125.92 307.477 125.267 308.383 124.8C309.303 124.32 310.337 124.08 311.483 124.08C312.617 124.08 313.603 124.32 314.443 124.8C315.297 125.267 315.917 125.94 316.303 126.82L313.883 128.12C313.323 127.133 312.517 126.64 311.463 126.64C310.65 126.64 309.977 126.907 309.443 127.44C308.91 127.973 308.643 128.7 308.643 129.62C308.643 130.54 308.91 131.267 309.443 131.8C309.977 132.333 310.65 132.6 311.463 132.6C312.53 132.6 313.337 132.107 313.883 131.12L316.303 132.44C315.917 133.293 315.297 133.96 314.443 134.44C313.603 134.92 312.617 135.16 311.483 135.16ZM346.131 123.64H341.651V135H338.451V123.64H333.991V121H346.131V123.64ZM356.77 126.8H353.13V135H350.03V126.8H346.39V124.24H356.77V126.8ZM388.306 121L382.346 132.08C381.772 133.147 381.079 133.953 380.266 134.5C379.466 135.047 378.592 135.32 377.646 135.32C376.912 135.32 376.152 135.16 375.366 134.84L376.146 132.38C376.706 132.553 377.172 132.64 377.546 132.64C377.946 132.64 378.306 132.547 378.626 132.36C378.946 132.16 379.239 131.853 379.506 131.44L379.626 131.28L374.106 121H377.566L381.286 128.52L385.126 121H388.306ZM400.327 124.24L395.467 135.66C394.974 136.9 394.36 137.773 393.627 138.28C392.907 138.787 392.034 139.04 391.007 139.04C390.447 139.04 389.894 138.953 389.347 138.78C388.8 138.607 388.354 138.367 388.007 138.06L389.147 135.84C389.387 136.053 389.66 136.22 389.967 136.34C390.287 136.46 390.6 136.52 390.907 136.52C391.334 136.52 391.68 136.413 391.947 136.2C392.214 136 392.454 135.66 392.667 135.18L392.707 135.08L388.047 124.24H391.267L394.287 131.54L397.327 124.24H400.327ZM441.308 127.96C441.308 129.813 440.675 131.273 439.408 132.34C438.155 133.393 436.348 133.98 433.988 134.1V135.62H431.008V134.08C428.635 133.947 426.815 133.353 425.548 132.3C424.295 131.233 423.668 129.787 423.668 127.96C423.668 126.12 424.295 124.68 425.548 123.64C426.815 122.587 428.635 121.987 431.008 121.84V120.4H433.988V121.82C436.348 121.953 438.155 122.553 439.408 123.62C440.675 124.687 441.308 126.133 441.308 127.96ZM433.988 131.56C435.402 131.427 436.455 131.067 437.148 130.48C437.842 129.88 438.188 129.033 438.188 127.94C438.188 125.807 436.788 124.62 433.988 124.38V131.56ZM426.808 127.96C426.808 130.067 428.208 131.267 431.008 131.56V124.38C429.582 124.513 428.522 124.873 427.828 125.46C427.148 126.033 426.808 126.867 426.808 127.96ZM458.352 129.58C458.352 131.247 457.792 132.567 456.672 133.54C455.566 134.5 453.979 135.053 451.912 135.2V138.88H449.052V135.2C446.986 135.053 445.392 134.507 444.272 133.56C443.166 132.6 442.612 131.273 442.612 129.58C442.612 127.913 443.159 126.62 444.252 125.7C445.359 124.78 446.959 124.247 449.052 124.1V120.16H451.912V124.1C453.979 124.247 455.566 124.787 456.672 125.72C457.792 126.653 458.352 127.94 458.352 129.58ZM445.632 129.58C445.632 130.54 445.906 131.28 446.452 131.8C446.999 132.32 447.866 132.647 449.052 132.78V126.52C447.866 126.64 446.999 126.953 446.452 127.46C445.906 127.953 445.632 128.66 445.632 129.58ZM451.912 132.78C453.099 132.647 453.966 132.32 454.512 131.8C455.072 131.28 455.352 130.54 455.352 129.58C455.352 128.66 455.072 127.953 454.512 127.46C453.966 126.953 453.099 126.64 451.912 126.52V132.78ZM480.217 121L483.117 125.24L486.017 121H489.817L485.157 127.7L490.197 135H486.377L483.117 130.36L479.897 135H476.157L481.157 127.84L476.477 121H480.217ZM497.791 135L495.431 131.7L492.991 135H489.591L493.731 129.58L489.731 124.24H493.231L495.511 127.38L497.851 124.24H501.171L497.171 129.5L501.331 135H497.791ZM16.42 162.36V167.96H13.44L13.44 165H1.74L1.74 151H4.96L4.96 162.36H11.2L11.2 151H14.42L14.42 162.36H16.42ZM30.4364 162.44V167.36H27.5364V165H18.3164L18.3164 154.24H21.4164L21.4164 162.44H25.7564L25.7564 154.24H28.8764L28.8764 162.44H30.4364ZM61.1306 151V165H57.9306V159.96C56.7173 160.4 55.5906 160.62 54.5506 160.62C52.6706 160.62 51.2306 160.173 50.2306 159.28C49.2306 158.373 48.7306 157.073 48.7306 155.38V151H51.9306V155.02C51.9306 155.98 52.184 156.707 52.6906 157.2C53.2106 157.68 53.9573 157.92 54.9306 157.92C55.9973 157.92 56.9973 157.713 57.9306 157.3V151H61.1306ZM74.0511 154.24V165H70.9311V161C70.0244 161.453 69.0244 161.68 67.9311 161.68C66.4778 161.68 65.3778 161.353 64.6311 160.7C63.8978 160.033 63.5311 159.007 63.5311 157.62V154.24H66.6511V157.42C66.6511 158.073 66.8178 158.547 67.1511 158.84C67.4978 159.133 67.9911 159.28 68.6311 159.28C69.4444 159.28 70.2111 159.107 70.9311 158.76V154.24H74.0511ZM112.759 151V165H94.2791V151H97.4991V162.36H101.919V151H105.139V162.36H109.539V151H112.759ZM132.412 154.24V165H115.992V154.24H119.092V162.44H122.672V154.24H125.772V162.44H129.312V154.24H132.412ZM171.118 151V165H152.638V151H155.858V162.36H160.278V151H163.498V162.36H167.898V151H171.118ZM173.018 162.36V167.9H170.018V165H167.838V162.36H173.018ZM191.416 154.24V165H174.996V154.24H178.096V162.44H181.676V154.24H184.776V162.44H188.316V154.24H191.416ZM192.916 162.44V167.14H190.016V165H188.236V162.44H192.916ZM220.922 155.6C222.629 155.6 223.936 155.98 224.842 156.74C225.749 157.5 226.202 158.627 226.202 160.12C226.202 161.707 225.696 162.92 224.682 163.76C223.682 164.587 222.269 165 220.442 165H214.142V153.64H210.202V151H217.342V155.6H220.922ZM220.262 162.6C221.116 162.6 221.776 162.393 222.242 161.98C222.709 161.567 222.942 160.967 222.942 160.18C222.942 158.727 222.049 158 220.262 158H217.342V162.6H220.262ZM235.248 157.68C236.634 157.68 237.694 157.993 238.428 158.62C239.174 159.233 239.548 160.107 239.548 161.24C239.548 162.427 239.128 163.353 238.288 164.02C237.461 164.673 236.301 165 234.808 165H229.608V156.8H226.508V154.24H232.728V157.68H235.248ZM234.628 162.8C235.201 162.8 235.634 162.66 235.928 162.38C236.221 162.1 236.368 161.7 236.368 161.18C236.368 160.193 235.788 159.7 234.628 159.7H232.728V162.8H234.628ZM271.157 155.6C272.863 155.6 274.17 155.98 275.077 156.74C275.997 157.5 276.457 158.627 276.457 160.12C276.457 161.707 275.95 162.92 274.937 163.76C273.937 164.587 272.523 165 270.697 165H264.377V151H267.597V155.6H271.157ZM270.517 162.6C271.357 162.6 272.01 162.393 272.477 161.98C272.957 161.567 273.197 160.967 273.197 160.18C273.197 158.727 272.303 158 270.517 158H267.597V162.6H270.517ZM278.237 151H281.457V165H278.237V151ZM290.363 157.68C291.763 157.693 292.823 158.007 293.543 158.62C294.263 159.233 294.623 160.113 294.623 161.26C294.623 162.46 294.216 163.387 293.403 164.04C292.59 164.693 291.436 165.02 289.943 165.02L284.703 165V154.24H287.803V157.68H290.363ZM295.783 154.24H298.883V165H295.783V154.24ZM289.663 162.8C290.263 162.813 290.723 162.687 291.043 162.42C291.363 162.153 291.523 161.753 291.523 161.22C291.523 160.7 291.363 160.32 291.043 160.08C290.736 159.84 290.276 159.713 289.663 159.7L287.803 159.68V162.8H289.663ZM325.903 155.6C327.609 155.6 328.916 155.98 329.823 156.74C330.743 157.5 331.203 158.627 331.203 160.12C331.203 161.707 330.696 162.92 329.683 163.76C328.683 164.587 327.269 165 325.443 165H319.123V151H322.343V155.6H325.903ZM325.263 162.6C326.103 162.6 326.756 162.393 327.223 161.98C327.703 161.567 327.943 160.967 327.943 160.18C327.943 158.727 327.049 158 325.263 158H322.343V162.6H325.263ZM339.117 157.68C340.517 157.693 341.59 158.013 342.337 158.64C343.084 159.253 343.457 160.127 343.457 161.26C343.457 162.447 343.037 163.373 342.197 164.04C341.37 164.693 340.204 165.02 338.697 165.02L333.297 165V154.24H336.397V157.68H339.117ZM338.417 162.8C339.017 162.813 339.477 162.687 339.797 162.42C340.117 162.153 340.277 161.753 340.277 161.22C340.277 160.7 340.117 160.32 339.797 160.08C339.49 159.84 339.03 159.713 338.417 159.7L336.397 159.68V162.8H338.417ZM367.118 150.76C368.505 150.76 369.745 151.073 370.838 151.7C371.945 152.313 372.812 153.173 373.438 154.28C374.065 155.373 374.378 156.613 374.378 158C374.378 159.387 374.065 160.633 373.438 161.74C372.812 162.833 371.945 163.693 370.838 164.32C369.745 164.933 368.505 165.24 367.118 165.24C365.878 165.24 364.758 165.027 363.758 164.6C362.772 164.173 361.945 163.553 361.278 162.74L363.338 160.82C364.325 161.927 365.532 162.48 366.958 162.48C367.985 162.48 368.852 162.18 369.558 161.58C370.278 160.98 370.745 160.173 370.958 159.16H365.278V156.68H370.918C370.692 155.72 370.225 154.953 369.518 154.38C368.812 153.807 367.958 153.52 366.958 153.52C365.532 153.52 364.325 154.073 363.338 155.18L361.278 153.26C361.945 152.447 362.772 151.827 363.758 151.4C364.758 150.973 365.878 150.76 367.118 150.76ZM379.984 154.04C381.144 154.04 382.177 154.28 383.084 154.76C384.004 155.227 384.724 155.887 385.244 156.74C385.764 157.593 386.024 158.553 386.024 159.62C386.024 160.687 385.764 161.647 385.244 162.5C384.724 163.353 384.004 164.02 383.084 164.5C382.177 164.967 381.144 165.2 379.984 165.2C378.957 165.2 378.024 165.033 377.184 164.7C376.357 164.353 375.67 163.86 375.124 163.22L376.904 161.54C377.717 162.38 378.704 162.8 379.864 162.8C380.637 162.8 381.304 162.607 381.864 162.22C382.424 161.833 382.804 161.307 383.004 160.64H378.484V158.5H382.964C382.75 157.86 382.37 157.353 381.824 156.98C381.277 156.607 380.624 156.42 379.864 156.42C378.717 156.42 377.73 156.847 376.904 157.7L375.124 156.04C375.67 155.387 376.357 154.893 377.184 154.56C378.024 154.213 378.957 154.04 379.984 154.04ZM417.733 150.76C419.133 150.76 420.393 151.073 421.513 151.7C422.646 152.327 423.533 153.193 424.173 154.3C424.813 155.393 425.133 156.627 425.133 158C425.133 159.373 424.813 160.613 424.173 161.72C423.533 162.813 422.646 163.673 421.513 164.3C420.393 164.927 419.133 165.24 417.733 165.24C416.479 165.24 415.333 164.993 414.293 164.5C413.253 163.993 412.393 163.293 411.713 162.4C411.046 161.493 410.619 160.46 410.433 159.3H408.593V165H405.373V151H408.593V156.5H410.473C410.686 155.38 411.126 154.387 411.793 153.52C412.473 152.64 413.326 151.96 414.353 151.48C415.379 151 416.506 150.76 417.733 150.76ZM417.733 162.48C418.506 162.48 419.206 162.293 419.833 161.92C420.459 161.547 420.953 161.02 421.313 160.34C421.673 159.66 421.853 158.88 421.853 158C421.853 157.12 421.673 156.34 421.313 155.66C420.953 154.98 420.459 154.453 419.833 154.08C419.206 153.707 418.506 153.52 417.733 153.52C416.959 153.52 416.259 153.707 415.633 154.08C415.006 154.453 414.513 154.98 414.153 155.66C413.793 156.34 413.613 157.12 413.613 158C413.613 158.88 413.793 159.66 414.153 160.34C414.513 161.02 415.006 161.547 415.633 161.92C416.259 162.293 416.959 162.48 417.733 162.48ZM437.598 154.08C438.691 154.08 439.671 154.32 440.538 154.8C441.405 155.267 442.085 155.92 442.578 156.76C443.071 157.6 443.318 158.553 443.318 159.62C443.318 160.687 443.071 161.64 442.578 162.48C442.085 163.32 441.405 163.98 440.538 164.46C439.671 164.927 438.691 165.16 437.598 165.16C436.651 165.16 435.785 164.987 434.998 164.64C434.211 164.28 433.558 163.78 433.038 163.14C432.518 162.487 432.171 161.74 431.998 160.9H430.518V165H427.418V154.24H430.518V158.2H432.018C432.325 156.947 432.978 155.947 433.978 155.2C434.978 154.453 436.185 154.08 437.598 154.08ZM437.598 162.6C438.358 162.6 438.985 162.333 439.478 161.8C439.985 161.253 440.238 160.527 440.238 159.62C440.238 158.7 439.985 157.973 439.478 157.44C438.985 156.907 438.358 156.64 437.598 156.64C436.825 156.64 436.185 156.907 435.678 157.44C435.185 157.973 434.938 158.7 434.938 159.62C434.938 160.527 435.185 161.253 435.678 161.8C436.185 162.333 436.825 162.6 437.598 162.6ZM473.897 151V165H470.697V161.28H467.737L465.257 165H461.837L464.757 160.78C463.81 160.393 463.083 159.813 462.577 159.04C462.07 158.253 461.817 157.313 461.817 156.22C461.817 155.14 462.063 154.213 462.557 153.44C463.05 152.653 463.75 152.053 464.657 151.64C465.563 151.213 466.63 151 467.857 151H473.897ZM467.937 153.64C467.017 153.64 466.31 153.853 465.817 154.28C465.337 154.707 465.097 155.34 465.097 156.18C465.097 156.993 465.33 157.62 465.797 158.06C466.263 158.5 466.95 158.72 467.857 158.72H470.697V153.64H467.937ZM486.724 154.24V165L483.944 165V161.92H481.644L479.604 165H476.284L478.744 161.48C477.997 161.187 477.424 160.767 477.024 160.22C476.637 159.66 476.444 158.987 476.444 158.2C476.444 156.933 476.897 155.96 477.804 155.28C478.724 154.587 479.984 154.24 481.584 154.24L486.724 154.24ZM481.644 156.78C480.977 156.78 480.471 156.9 480.124 157.14C479.791 157.38 479.624 157.767 479.624 158.3C479.624 158.833 479.784 159.227 480.104 159.48C480.437 159.72 480.937 159.84 481.604 159.84H483.944V156.78H481.644Z" fill="white"/>
<path d="M6.18 201L6.18 215H2.94L2.94 203.6H0.14L0.14 201H6.18ZM24.7361 212.36V215H14.1561L14.1561 212.9L19.5561 207.8C20.1294 207.253 20.5161 206.787 20.7161 206.4C20.9161 206 21.0161 205.607 21.0161 205.22C21.0161 204.66 20.8228 204.233 20.4361 203.94C20.0628 203.633 19.5094 203.48 18.7761 203.48C18.1628 203.48 17.6094 203.6 17.1161 203.84C16.6228 204.067 16.2094 204.413 15.8761 204.88L13.5161 203.36C14.0628 202.547 14.8161 201.913 15.7761 201.46C16.7361 200.993 17.8361 200.76 19.0761 200.76C20.1161 200.76 21.0228 200.933 21.7961 201.28C22.5828 201.613 23.1894 202.093 23.6161 202.72C24.0561 203.333 24.2761 204.06 24.2761 204.9C24.2761 205.66 24.1161 206.373 23.7961 207.04C23.4761 207.707 22.8561 208.467 21.9361 209.32L18.7161 212.36H24.7361ZM38.277 206.7C39.5037 206.9 40.4437 207.36 41.097 208.08C41.7504 208.787 42.077 209.667 42.077 210.72C42.077 211.533 41.8637 212.287 41.437 212.98C41.0104 213.66 40.357 214.207 39.477 214.62C38.6104 215.033 37.5437 215.24 36.277 215.24C35.2904 215.24 34.317 215.113 33.357 214.86C32.4104 214.593 31.6037 214.22 30.937 213.74L32.197 211.26C32.7304 211.66 33.3437 211.973 34.037 212.2C34.7437 212.413 35.4637 212.52 36.197 212.52C37.0104 212.52 37.6504 212.367 38.117 212.06C38.5837 211.74 38.817 211.293 38.817 210.72C38.817 209.573 37.9437 209 36.197 209H34.717V206.86L37.597 203.6H31.637V201H41.437V203.1L38.277 206.7ZM62.057 212.06H59.777V215H56.617V212.06H49.077V209.88L55.677 201H59.077L52.957 209.42H56.717V206.8H59.777V209.42H62.057V212.06ZM73.4902 206.26C75.4635 206.26 76.9168 206.653 77.8502 207.44C78.7968 208.227 79.2702 209.28 79.2702 210.6C79.2702 211.453 79.0568 212.233 78.6302 212.94C78.2035 213.633 77.5502 214.193 76.6702 214.62C75.8035 215.033 74.7302 215.24 73.4502 215.24C72.4635 215.24 71.4902 215.113 70.5302 214.86C69.5835 214.593 68.7768 214.22 68.1102 213.74L69.3902 211.26C69.9235 211.66 70.5368 211.973 71.2302 212.2C71.9235 212.413 72.6368 212.52 73.3702 212.52C74.1835 212.52 74.8235 212.36 75.2902 212.04C75.7568 211.72 75.9902 211.273 75.9902 210.7C75.9902 210.1 75.7435 209.647 75.2502 209.34C74.7702 209.033 73.9302 208.88 72.7302 208.88H69.1502L69.8702 201H78.4102V203.6H72.5702L72.3502 206.26H73.4902ZM92.9888 206.22C93.8821 206.22 94.6954 206.4 95.4288 206.76C96.1621 207.12 96.7421 207.633 97.1688 208.3C97.5954 208.953 97.8088 209.713 97.8088 210.58C97.8088 211.513 97.5754 212.333 97.1088 213.04C96.6421 213.747 96.0021 214.293 95.1888 214.68C94.3888 215.053 93.4954 215.24 92.5088 215.24C90.5488 215.24 89.0154 214.64 87.9088 213.44C86.8021 212.24 86.2488 210.527 86.2488 208.3C86.2488 206.713 86.5488 205.353 87.1488 204.22C87.7488 203.087 88.5821 202.227 89.6488 201.64C90.7288 201.053 91.9754 200.76 93.3888 200.76C94.1354 200.76 94.8488 200.847 95.5288 201.02C96.2221 201.18 96.8088 201.413 97.2888 201.72L96.0888 204.1C95.3954 203.633 94.5221 203.4 93.4688 203.4C92.2821 203.4 91.3421 203.747 90.6488 204.44C89.9554 205.133 89.5821 206.14 89.5288 207.46C90.3554 206.633 91.5088 206.22 92.9888 206.22ZM92.3288 212.82C93.0221 212.82 93.5821 212.633 94.0088 212.26C94.4488 211.887 94.6688 211.38 94.6688 210.74C94.6688 210.1 94.4488 209.593 94.0088 209.22C93.5821 208.833 93.0088 208.64 92.2888 208.64C91.5821 208.64 91.0021 208.84 90.5488 209.24C90.0954 209.627 89.8688 210.127 89.8688 210.74C89.8688 211.353 90.0888 211.853 90.5288 212.24C90.9688 212.627 91.5688 212.82 92.3288 212.82ZM115.607 201V203.1L110.407 215H106.887L111.907 203.64H107.267V205.92H104.387V201H115.607ZM132.294 207.64C132.987 207.987 133.514 208.44 133.874 209C134.247 209.56 134.434 210.207 134.434 210.94C134.434 211.807 134.187 212.567 133.694 213.22C133.2 213.86 132.507 214.36 131.614 214.72C130.72 215.067 129.687 215.24 128.514 215.24C127.34 215.24 126.307 215.067 125.414 214.72C124.534 214.36 123.847 213.86 123.354 213.22C122.874 212.567 122.634 211.807 122.634 210.94C122.634 210.207 122.814 209.56 123.174 209C123.547 208.44 124.074 207.987 124.754 207.64C124.234 207.32 123.834 206.92 123.554 206.44C123.274 205.947 123.134 205.387 123.134 204.76C123.134 203.947 123.36 203.24 123.814 202.64C124.267 202.04 124.9 201.58 125.714 201.26C126.527 200.927 127.46 200.76 128.514 200.76C129.58 200.76 130.52 200.927 131.334 201.26C132.16 201.58 132.8 202.04 133.254 202.64C133.707 203.24 133.934 203.947 133.934 204.76C133.934 205.387 133.794 205.947 133.514 206.44C133.234 206.92 132.827 207.32 132.294 207.64ZM128.514 203.14C127.86 203.14 127.334 203.3 126.934 203.62C126.547 203.927 126.354 204.353 126.354 204.9C126.354 205.433 126.547 205.853 126.934 206.16C127.32 206.467 127.847 206.62 128.514 206.62C129.18 206.62 129.714 206.467 130.114 206.16C130.514 205.853 130.714 205.433 130.714 204.9C130.714 204.353 130.514 203.927 130.114 203.62C129.714 203.3 129.18 203.14 128.514 203.14ZM128.514 212.86C129.327 212.86 129.967 212.68 130.434 212.32C130.914 211.947 131.154 211.453 131.154 210.84C131.154 210.227 130.914 209.74 130.434 209.38C129.967 209.02 129.327 208.84 128.514 208.84C127.714 208.84 127.08 209.02 126.614 209.38C126.147 209.74 125.914 210.227 125.914 210.84C125.914 211.467 126.147 211.96 126.614 212.32C127.08 212.68 127.714 212.86 128.514 212.86ZM146.501 200.76C148.461 200.76 149.994 201.36 151.101 202.56C152.207 203.747 152.761 205.46 152.761 207.7C152.761 209.287 152.461 210.647 151.861 211.78C151.274 212.913 150.441 213.773 149.361 214.36C148.281 214.947 147.034 215.24 145.621 215.24C144.874 215.24 144.161 215.16 143.481 215C142.801 214.827 142.221 214.587 141.741 214.28L142.941 211.9C143.621 212.367 144.494 212.6 145.561 212.6C146.747 212.6 147.687 212.253 148.381 211.56C149.074 210.853 149.447 209.84 149.501 208.52C148.661 209.36 147.501 209.78 146.021 209.78C145.127 209.78 144.314 209.6 143.581 209.24C142.847 208.88 142.267 208.373 141.841 207.72C141.414 207.053 141.201 206.287 141.201 205.42C141.201 204.487 141.434 203.667 141.901 202.96C142.367 202.253 143.001 201.713 143.801 201.34C144.614 200.953 145.514 200.76 146.501 200.76ZM146.741 207.36C147.447 207.36 148.021 207.167 148.461 206.78C148.914 206.38 149.141 205.873 149.141 205.26C149.141 204.647 148.921 204.147 148.481 203.76C148.054 203.373 147.461 203.18 146.701 203.18C146.007 203.18 145.441 203.367 145.001 203.74C144.574 204.113 144.361 204.62 144.361 205.26C144.361 205.9 144.574 206.413 145.001 206.8C145.441 207.173 146.021 207.36 146.741 207.36ZM165.979 215.24C164.819 215.24 163.786 214.953 162.879 214.38C161.973 213.807 161.259 212.98 160.739 211.9C160.233 210.807 159.979 209.507 159.979 208C159.979 206.493 160.233 205.2 160.739 204.12C161.259 203.027 161.973 202.193 162.879 201.62C163.786 201.047 164.819 200.76 165.979 200.76C167.139 200.76 168.173 201.047 169.079 201.62C169.986 202.193 170.693 203.027 171.199 204.12C171.719 205.2 171.979 206.493 171.979 208C171.979 209.507 171.719 210.807 171.199 211.9C170.693 212.98 169.986 213.807 169.079 214.38C168.173 214.953 167.139 215.24 165.979 215.24ZM165.979 212.5C166.833 212.5 167.499 212.133 167.979 211.4C168.473 210.667 168.719 209.533 168.719 208C168.719 206.467 168.473 205.333 167.979 204.6C167.499 203.867 166.833 203.5 165.979 203.5C165.139 203.5 164.473 203.867 163.979 204.6C163.499 205.333 163.259 206.467 163.259 208C163.259 209.533 163.499 210.667 163.979 211.4C164.473 212.133 165.139 212.5 165.979 212.5Z" fill="white"/>
</svg>
