<svg width="502" height="218" viewBox="0 0 502 218" fill="none" xmlns="http://www.w3.org/2000/svg">
<path d="M26.928 17.576C26.928 19.272 26.528 20.872 25.728 22.376C24.928 23.88 23.648 25.112 21.888 26.072C20.128 27 17.872 27.464 15.12 27.464L9.072 27.464L9.072 41H3.6L3.6 7.64L15.12 7.64C17.68 7.64 19.84 8.088 21.6 8.984C23.392 9.848 24.72 11.032 25.584 12.536C26.48 14.04 26.928 15.72 26.928 17.576ZM15.12 23C17.2 23 18.752 22.536 19.776 21.608C20.8 20.648 21.312 19.304 21.312 17.576C21.312 13.928 19.248 12.104 15.12 12.104H9.072L9.072 23L15.12 23ZM47.3629 41.336C44.2589 41.336 41.3949 40.616 38.7709 39.176C36.1789 37.704 34.1149 35.672 32.5789 33.08C31.0749 30.456 30.3229 27.512 30.3229 24.248C30.3229 20.984 31.0749 18.056 32.5789 15.464C34.1149 12.872 36.1789 10.856 38.7709 9.416C41.3949 7.944 44.2589 7.208 47.3629 7.208C50.4989 7.208 53.3629 7.944 55.9549 9.416C58.5789 10.856 60.6429 12.872 62.1469 15.464C63.6509 18.056 64.4029 20.984 64.4029 24.248C64.4029 27.512 63.6509 30.456 62.1469 33.08C60.6429 35.672 58.5789 37.704 55.9549 39.176C53.3629 40.616 50.4989 41.336 47.3629 41.336ZM47.3629 36.584C49.5709 36.584 51.5389 36.088 53.2669 35.096C54.9949 34.072 56.3389 32.632 57.2989 30.776C58.2909 28.888 58.7869 26.712 58.7869 24.248C58.7869 21.784 58.2909 19.624 57.2989 17.768C56.3389 15.912 54.9949 14.488 53.2669 13.496C51.5389 12.504 49.5709 12.008 47.3629 12.008C45.1549 12.008 43.1869 12.504 41.4589 13.496C39.7309 14.488 38.3709 15.912 37.3789 17.768C36.4189 19.624 35.9389 21.784 35.9389 24.248C35.9389 26.712 36.4189 28.888 37.3789 30.776C38.3709 32.632 39.7309 34.072 41.4589 35.096C43.1869 36.088 45.1549 36.584 47.3629 36.584ZM93.1155 17.576C93.1155 19.272 92.7155 20.872 91.9155 22.376C91.1155 23.88 89.8355 25.112 88.0755 26.072C86.3155 27 84.0595 27.464 81.3075 27.464L75.2595 27.464V41H69.7875V7.64L81.3075 7.64C83.8675 7.64 86.0275 8.088 87.7875 8.984C89.5795 9.848 90.9075 11.032 91.7715 12.536C92.6675 14.04 93.1155 15.72 93.1155 17.576ZM81.3075 23C83.3875 23 84.9395 22.536 85.9635 21.608C86.9875 20.648 87.4995 19.304 87.4995 17.576C87.4995 13.928 85.4355 12.104 81.3075 12.104H75.2595V23L81.3075 23ZM121.662 17.576C121.662 19.272 121.262 20.872 120.462 22.376C119.662 23.88 118.382 25.112 116.622 26.072C114.862 27 112.606 27.464 109.854 27.464H103.806V41H98.3344V7.64L109.854 7.64C112.414 7.64 114.574 8.088 116.334 8.984C118.126 9.848 119.454 11.032 120.318 12.536C121.214 14.04 121.662 15.72 121.662 17.576ZM109.854 23C111.934 23 113.486 22.536 114.51 21.608C115.534 20.648 116.046 19.304 116.046 17.576C116.046 13.928 113.982 12.104 109.854 12.104L103.806 12.104V23H109.854ZM132.353 7.64V41H126.881V7.64L132.353 7.64ZM166.946 41H161.474L145.01 16.088V41H139.538V7.592L145.01 7.592L161.474 32.456V7.592L166.946 7.592V41ZM185.123 41.336C182.883 41.336 180.867 40.952 179.075 40.184C177.283 39.384 175.875 38.264 174.851 36.824C173.827 35.384 173.315 33.704 173.315 31.784H179.171C179.299 33.224 179.859 34.408 180.851 35.336C181.875 36.264 183.299 36.728 185.123 36.728C187.011 36.728 188.483 36.28 189.539 35.384C190.595 34.456 191.123 33.272 191.123 31.832C191.123 30.712 190.787 29.8 190.115 29.096C189.475 28.392 188.659 27.848 187.667 27.464C186.707 27.08 185.363 26.664 183.635 26.216C181.459 25.64 179.683 25.064 178.307 24.488C176.963 23.88 175.811 22.952 174.851 21.704C173.891 20.456 173.411 18.792 173.411 16.712C173.411 14.792 173.891 13.112 174.851 11.672C175.811 10.232 177.155 9.128 178.883 8.36C180.611 7.592 182.611 7.208 184.883 7.208C188.115 7.208 190.755 8.024 192.803 9.656C194.883 11.256 196.035 13.464 196.259 16.28H190.211C190.115 15.064 189.539 14.024 188.483 13.16C187.427 12.296 186.035 11.864 184.307 11.864C182.739 11.864 181.459 12.264 180.467 13.064C179.475 13.864 178.979 15.016 178.979 16.52C178.979 17.544 179.283 18.392 179.891 19.064C180.531 19.704 181.331 20.216 182.291 20.6C183.251 20.984 184.563 21.4 186.227 21.848C188.435 22.456 190.227 23.064 191.603 23.672C193.011 24.28 194.195 25.224 195.155 26.504C196.147 27.752 196.643 29.432 196.643 31.544C196.643 33.24 196.179 34.84 195.251 36.344C194.355 37.848 193.027 39.064 191.267 39.992C189.539 40.888 187.491 41.336 185.123 41.336ZM226.561 41.336C224.321 41.336 222.305 40.952 220.513 40.184C218.721 39.384 217.313 38.264 216.289 36.824C215.265 35.384 214.753 33.704 214.753 31.784H220.609C220.737 33.224 221.297 34.408 222.289 35.336C223.313 36.264 224.737 36.728 226.561 36.728C228.449 36.728 229.921 36.28 230.977 35.384C232.033 34.456 232.561 33.272 232.561 31.832C232.561 30.712 232.225 29.8 231.553 29.096C230.913 28.392 230.097 27.848 229.105 27.464C228.145 27.08 226.801 26.664 225.073 26.216C222.897 25.64 221.121 25.064 219.745 24.488C218.401 23.88 217.249 22.952 216.289 21.704C215.329 20.456 214.849 18.792 214.849 16.712C214.849 14.792 215.329 13.112 216.289 11.672C217.249 10.232 218.593 9.128 220.321 8.36C222.049 7.592 224.049 7.208 226.321 7.208C229.553 7.208 232.193 8.024 234.241 9.656C236.321 11.256 237.473 13.464 237.697 16.28L231.649 16.28C231.553 15.064 230.977 14.024 229.921 13.16C228.865 12.296 227.473 11.864 225.745 11.864C224.177 11.864 222.897 12.264 221.905 13.064C220.913 13.864 220.417 15.016 220.417 16.52C220.417 17.544 220.721 18.392 221.329 19.064C221.969 19.704 222.769 20.216 223.729 20.6C224.689 20.984 226.001 21.4 227.665 21.848C229.873 22.456 231.665 23.064 233.041 23.672C234.449 24.28 235.633 25.224 236.593 26.504C237.585 27.752 238.081 29.432 238.081 31.544C238.081 33.24 237.617 34.84 236.689 36.344C235.793 37.848 234.465 39.064 232.705 39.992C230.977 40.888 228.929 41.336 226.561 41.336ZM250.01 12.056V21.848L261.53 21.848V26.312L250.01 26.312V36.536H262.97V41H244.538V7.592L262.97 7.592V12.056L250.01 12.056ZM304.845 7.64V41H299.373V18.152L289.197 41L285.405 41L275.181 18.152V41H269.709V7.64L275.613 7.64L287.325 33.8L298.989 7.64L304.845 7.64ZM317.51 7.64V41H312.038V7.64L317.51 7.64ZM342.55 23.864C344.342 24.184 345.862 25.128 347.11 26.696C348.358 28.264 348.982 30.04 348.982 32.024C348.982 33.72 348.534 35.256 347.638 36.632C346.774 37.976 345.51 39.048 343.846 39.848C342.182 40.616 340.246 41 338.038 41L324.694 41V7.64L337.414 7.64C339.686 7.64 341.638 8.024 343.27 8.792C344.902 9.56 346.134 10.6 346.966 11.912C347.798 13.192 348.214 14.632 348.214 16.232C348.214 18.152 347.702 19.752 346.678 21.032C345.654 22.312 344.278 23.256 342.55 23.864ZM330.166 21.656H336.934C338.726 21.656 340.118 21.256 341.11 20.456C342.134 19.624 342.646 18.44 342.646 16.904C342.646 15.4 342.134 14.232 341.11 13.4C340.118 12.536 338.726 12.104 336.934 12.104L330.166 12.104V21.656ZM337.558 36.536C339.414 36.536 340.87 36.088 341.926 35.192C342.982 34.296 343.51 33.048 343.51 31.448C343.51 29.816 342.95 28.52 341.83 27.56C340.71 26.6 339.222 26.12 337.366 26.12H330.166V36.536L337.558 36.536ZM370.144 41.336C367.04 41.336 364.176 40.616 361.552 39.176C358.96 37.704 356.896 35.672 355.36 33.08C353.856 30.456 353.104 27.512 353.104 24.248C353.104 20.984 353.856 18.056 355.36 15.464C356.896 12.872 358.96 10.856 361.552 9.416C364.176 7.944 367.04 7.208 370.144 7.208C373.28 7.208 376.144 7.944 378.736 9.416C381.36 10.856 383.424 12.872 384.928 15.464C386.432 18.056 387.184 20.984 387.184 24.248C387.184 27.512 386.432 30.456 384.928 33.08C383.424 35.672 381.36 37.704 378.736 39.176C376.144 40.616 373.28 41.336 370.144 41.336ZM370.144 36.584C372.352 36.584 374.32 36.088 376.048 35.096C377.776 34.072 379.12 32.632 380.08 30.776C381.072 28.888 381.568 26.712 381.568 24.248C381.568 21.784 381.072 19.624 380.08 17.768C379.12 15.912 377.776 14.488 376.048 13.496C374.32 12.504 372.352 12.008 370.144 12.008C367.936 12.008 365.968 12.504 364.24 13.496C362.512 14.488 361.152 15.912 360.16 17.768C359.2 19.624 358.72 21.784 358.72 24.248C358.72 26.712 359.2 28.888 360.16 30.776C361.152 32.632 362.512 34.072 364.24 35.096C365.968 36.088 367.936 36.584 370.144 36.584ZM398.041 36.584H409.321V41H392.569V7.64L398.041 7.64V36.584ZM424.793 7.64C428.345 7.64 431.449 8.328 434.105 9.704C436.793 11.048 438.857 13 440.297 15.56C441.769 18.088 442.505 21.048 442.505 24.44C442.505 27.832 441.769 30.776 440.297 33.272C438.857 35.768 436.793 37.688 434.105 39.032C431.449 40.344 428.345 41 424.793 41L413.897 41V7.64L424.793 7.64ZM424.793 36.536C428.697 36.536 431.689 35.48 433.769 33.368C435.849 31.256 436.889 28.28 436.889 24.44C436.889 20.568 435.849 17.544 433.769 15.368C431.689 13.192 428.697 12.104 424.793 12.104H419.369V36.536L424.793 36.536Z" fill="white"/>
<path d="M10.9 105L9.18 100.58H3.52L1.82 105H0L5.58 90.66H7.2L12.76 105H10.9ZM7.04 94.66C7 94.5533 6.93333 94.36 6.84 94.08C6.74667 93.8 6.65333 93.5133 6.56 93.22C6.48 92.9133 6.41333 92.68 6.36 92.52C6.29333 92.7867 6.22 93.06 6.14 93.34C6.07333 93.6067 6 93.8533 5.92 94.08C5.85333 94.3067 5.79333 94.5 5.74 94.66L4.12 98.98H8.64L7.04 94.66ZM18.5334 94.1C19.8401 94.1 20.8068 94.3867 21.4334 94.96C22.0601 95.5333 22.3734 96.4467 22.3734 97.7V105H21.0934L20.7534 103.48H20.6734C20.3668 103.867 20.0468 104.193 19.7134 104.46C19.3934 104.713 19.0201 104.9 18.5934 105.02C18.1801 105.14 17.6734 105.2 17.0734 105.2C16.4334 105.2 15.8534 105.087 15.3334 104.86C14.8268 104.633 14.4268 104.287 14.1334 103.82C13.8401 103.34 13.6934 102.74 13.6934 102.02C13.6934 100.953 14.1134 100.133 14.9534 99.56C15.7934 98.9733 17.0868 98.6533 18.8334 98.6L20.6534 98.54V97.9C20.6534 97.0067 20.4601 96.3867 20.0734 96.04C19.6868 95.6933 19.1401 95.52 18.4334 95.52C17.8734 95.52 17.3401 95.6067 16.8334 95.78C16.3268 95.94 15.8534 96.1267 15.4134 96.34L14.8734 95.02C15.3401 94.7667 15.8934 94.5533 16.5334 94.38C17.1734 94.1933 17.8401 94.1 18.5334 94.1ZM19.0534 99.82C17.7201 99.8733 16.7934 100.087 16.2734 100.46C15.7668 100.833 15.5134 101.36 15.5134 102.04C15.5134 102.64 15.6934 103.08 16.0534 103.36C16.4268 103.64 16.9001 103.78 17.4734 103.78C18.3801 103.78 19.1334 103.533 19.7334 103.04C20.3334 102.533 20.6334 101.76 20.6334 100.72V99.76L19.0534 99.82ZM41.5103 105V90.72L49.9903 90.72V92.3L43.3103 92.3V96.76H45.4303C46.857 96.76 47.9636 96.94 48.7503 97.3C49.537 97.6467 50.0836 98.1267 50.3903 98.74C50.697 99.34 50.8503 100.033 50.8503 100.82C50.8503 101.687 50.677 102.433 50.3303 103.06C49.997 103.687 49.4503 104.167 48.6903 104.5C47.9303 104.833 46.9303 105 45.6903 105H41.5103ZM45.5103 103.46C46.7903 103.46 47.6903 103.247 48.2103 102.82C48.7303 102.38 48.9903 101.713 48.9903 100.82C48.9903 100.207 48.8636 99.72 48.6103 99.36C48.3703 98.9867 47.9703 98.72 47.4103 98.56C46.8636 98.4 46.1303 98.32 45.2103 98.32H43.3103V103.46H45.5103ZM53.015 98.56C53.015 97 53.1683 95.6733 53.475 94.58C53.795 93.4733 54.2817 92.5933 54.935 91.94C55.6017 91.2733 56.455 90.8267 57.495 90.6C58.3617 90.4133 59.2083 90.2467 60.035 90.1C60.8617 89.9533 61.635 89.82 62.355 89.7L62.655 91.24C62.3083 91.2933 61.9217 91.36 61.495 91.44C61.0683 91.5067 60.635 91.58 60.195 91.66C59.755 91.7267 59.3283 91.8 58.915 91.88C58.515 91.9467 58.1617 92.0133 57.855 92.08C57.415 92.1733 57.0217 92.3333 56.675 92.56C56.3283 92.7733 56.0283 93.0667 55.775 93.44C55.535 93.8133 55.3417 94.2733 55.195 94.82C55.0483 95.3667 54.9617 96.0133 54.935 96.76H55.055C55.2417 96.5067 55.495 96.2467 55.815 95.98C56.1483 95.7133 56.5417 95.4867 56.995 95.3C57.4617 95.1133 57.9883 95.02 58.575 95.02C59.5083 95.02 60.2817 95.2267 60.895 95.64C61.5217 96.04 61.9883 96.6 62.295 97.32C62.615 98.04 62.775 98.88 62.775 99.84C62.775 101.027 62.5683 102.02 62.155 102.82C61.7417 103.62 61.1683 104.22 60.435 104.62C59.7017 105.007 58.8483 105.2 57.875 105.2C57.1417 105.2 56.475 105.06 55.875 104.78C55.275 104.487 54.7617 104.06 54.335 103.5C53.9083 102.94 53.5817 102.247 53.355 101.42C53.1283 100.593 53.015 99.64 53.015 98.56ZM58.015 103.74C58.6017 103.74 59.1083 103.62 59.535 103.38C59.975 103.14 60.315 102.747 60.555 102.2C60.795 101.653 60.915 100.927 60.915 100.02C60.915 98.9267 60.7083 98.0667 60.295 97.44C59.895 96.8 59.2283 96.48 58.295 96.48C57.7083 96.48 57.175 96.6133 56.695 96.88C56.215 97.1333 55.815 97.4267 55.495 97.76C55.175 98.0933 54.9483 98.3733 54.815 98.6C54.815 99.2533 54.8617 99.8867 54.955 100.5C55.0483 101.113 55.2083 101.667 55.435 102.16C55.675 102.64 56.0017 103.027 56.415 103.32C56.8417 103.6 57.375 103.74 58.015 103.74ZM85.4536 90.72C86.6403 90.72 87.6336 90.8333 88.4336 91.06C89.2469 91.2867 89.8536 91.66 90.2536 92.18C90.6669 92.7 90.8736 93.3933 90.8736 94.26C90.8736 94.82 90.7669 95.32 90.5536 95.76C90.3536 96.1867 90.0469 96.5467 89.6336 96.84C89.2336 97.12 88.7403 97.3133 88.1536 97.42V97.52C88.7536 97.6133 89.2936 97.7867 89.7736 98.04C90.2669 98.2933 90.6536 98.6533 90.9336 99.12C91.2136 99.5867 91.3536 100.193 91.3536 100.94C91.3536 101.807 91.1536 102.547 90.7536 103.16C90.3536 103.76 89.7803 104.22 89.0336 104.54C88.3003 104.847 87.4203 105 86.3936 105H81.3736V90.72H85.4536ZM85.8136 96.8C87.0403 96.8 87.8803 96.6067 88.3336 96.22C88.7869 95.82 89.0136 95.2333 89.0136 94.46C89.0136 93.6733 88.7336 93.1133 88.1736 92.78C87.6269 92.4333 86.7469 92.26 85.5336 92.26H83.1736V96.8H85.8136ZM83.1736 98.3V103.48H86.0536C87.3203 103.48 88.2003 103.233 88.6936 102.74C89.1869 102.247 89.4336 101.6 89.4336 100.8C89.4336 100.293 89.3203 99.8533 89.0936 99.48C88.8803 99.1067 88.5136 98.82 87.9936 98.62C87.4869 98.4067 86.7936 98.3 85.9136 98.3H83.1736ZM102.761 96.98C102.761 97.6467 102.561 98.1667 102.161 98.54C101.761 98.9133 101.248 99.1667 100.621 99.3V99.38C101.288 99.4733 101.868 99.7133 102.361 100.1C102.855 100.473 103.101 101.06 103.101 101.86C103.101 102.313 103.015 102.733 102.841 103.12C102.681 103.507 102.428 103.84 102.081 104.12C101.735 104.4 101.288 104.62 100.741 104.78C100.195 104.927 99.5347 105 98.7614 105H94.1414V94.28H98.7414C99.5014 94.28 100.181 94.3667 100.781 94.54C101.395 94.7 101.875 94.98 102.221 95.38C102.581 95.7667 102.761 96.3 102.761 96.98ZM101.281 101.86C101.281 101.247 101.048 100.807 100.581 100.54C100.115 100.273 99.4281 100.14 98.5214 100.14H95.9014V103.58H98.5614C99.4414 103.58 100.115 103.453 100.581 103.2C101.048 102.933 101.281 102.487 101.281 101.86ZM100.981 97.2C100.981 96.6933 100.795 96.3267 100.421 96.1C100.061 95.86 99.4681 95.74 98.6414 95.74H95.9014V98.68H98.3214C99.1881 98.68 99.8481 98.56 100.301 98.32C100.755 98.08 100.981 97.7067 100.981 97.2ZM129.551 90.72V92.32L123.291 92.32V105L121.491 105V90.72H129.551ZM137.283 94.28V95.76H132.503V105H130.743V94.28H137.283ZM164.841 90.72V103.4H166.661V108.76H164.941V105H155.121V108.76H153.401V103.4H154.501C154.981 102.573 155.435 101.647 155.861 100.62C156.301 99.5933 156.688 98.52 157.021 97.4C157.355 96.2667 157.628 95.1333 157.841 94C158.055 92.8667 158.188 91.7733 158.241 90.72H164.841ZM159.821 92.34C159.768 93.1133 159.635 93.9867 159.421 94.96C159.221 95.9333 158.961 96.9333 158.641 97.96C158.335 98.9733 157.988 99.9533 157.601 100.9C157.228 101.847 156.828 102.68 156.401 103.4H163.061V92.34H159.821ZM176.769 94.28V103.52H178.329V108.72H176.629V105H169.169V108.72H167.489V103.52H168.349C168.963 102.667 169.469 101.74 169.869 100.74C170.283 99.7267 170.589 98.6733 170.789 97.58C171.003 96.4733 171.116 95.3733 171.129 94.28H176.769ZM172.689 95.66C172.636 96.5667 172.496 97.5067 172.269 98.48C172.043 99.44 171.749 100.36 171.389 101.24C171.043 102.12 170.636 102.88 170.169 103.52H175.069V95.66H172.689ZM204.236 105H196.256V90.72H204.236V92.3H198.056V96.76H203.876V98.32H198.056V103.42H204.236V105ZM211.27 94.08C212.19 94.08 212.976 94.28 213.63 94.68C214.296 95.08 214.803 95.6467 215.15 96.38C215.51 97.1 215.69 97.9467 215.69 98.92V99.98H208.35C208.376 101.193 208.683 102.12 209.27 102.76C209.87 103.387 210.703 103.7 211.77 103.7C212.45 103.7 213.05 103.64 213.57 103.52C214.103 103.387 214.65 103.2 215.21 102.96V104.5C214.663 104.74 214.123 104.913 213.59 105.02C213.056 105.14 212.423 105.2 211.69 105.2C210.676 105.2 209.776 104.993 208.99 104.58C208.216 104.167 207.61 103.553 207.17 102.74C206.743 101.913 206.53 100.907 206.53 99.72C206.53 98.5467 206.723 97.54 207.11 96.7C207.51 95.86 208.063 95.2133 208.77 94.76C209.49 94.3067 210.323 94.08 211.27 94.08ZM211.25 95.52C210.41 95.52 209.743 95.7933 209.25 96.34C208.77 96.8733 208.483 97.62 208.39 98.58H213.85C213.85 97.9667 213.756 97.4333 213.57 96.98C213.383 96.5267 213.096 96.1733 212.71 95.92C212.336 95.6533 211.85 95.52 211.25 95.52ZM242.225 105H234.245V90.72H242.225V92.3H236.045V96.76H241.865V98.32H236.045V103.42H242.225V105ZM235.585 87.82C235.585 87.4733 235.678 87.2267 235.865 87.08C236.051 86.92 236.271 86.84 236.525 86.84C236.778 86.84 236.998 86.92 237.185 87.08C237.371 87.2267 237.465 87.4733 237.465 87.82C237.465 88.1533 237.371 88.4067 237.185 88.58C236.998 88.74 236.778 88.82 236.525 88.82C236.271 88.82 236.051 88.74 235.865 88.58C235.678 88.4067 235.585 88.1533 235.585 87.82ZM239.345 87.82C239.345 87.4733 239.431 87.2267 239.605 87.08C239.791 86.92 240.011 86.84 240.265 86.84C240.518 86.84 240.738 86.92 240.925 87.08C241.111 87.2267 241.205 87.4733 241.205 87.82C241.205 88.1533 241.111 88.4067 240.925 88.58C240.738 88.74 240.518 88.82 240.265 88.82C240.011 88.82 239.791 88.74 239.605 88.58C239.431 88.4067 239.345 88.1533 239.345 87.82ZM249.258 94.08C250.178 94.08 250.965 94.28 251.618 94.68C252.285 95.08 252.791 95.6467 253.138 96.38C253.498 97.1 253.678 97.9467 253.678 98.92V99.98H246.338C246.365 101.193 246.671 102.12 247.258 102.76C247.858 103.387 248.691 103.7 249.758 103.7C250.438 103.7 251.038 103.64 251.558 103.52C252.091 103.387 252.638 103.2 253.198 102.96V104.5C252.651 104.74 252.111 104.913 251.578 105.02C251.045 105.14 250.411 105.2 249.678 105.2C248.665 105.2 247.765 104.993 246.978 104.58C246.205 104.167 245.598 103.553 245.158 102.74C244.731 101.913 244.518 100.907 244.518 99.72C244.518 98.5467 244.711 97.54 245.098 96.7C245.498 95.86 246.051 95.2133 246.758 94.76C247.478 94.3067 248.311 94.08 249.258 94.08ZM249.238 95.52C248.398 95.52 247.731 95.7933 247.238 96.34C246.758 96.8733 246.471 97.62 246.378 98.58H251.838C251.838 97.9667 251.745 97.4333 251.558 96.98C251.371 96.5267 251.085 96.1733 250.698 95.92C250.325 95.6533 249.838 95.52 249.238 95.52ZM246.298 91.38C246.298 91.0333 246.391 90.7867 246.578 90.64C246.765 90.48 246.985 90.4 247.238 90.4C247.491 90.4 247.711 90.48 247.898 90.64C248.085 90.7867 248.178 91.0333 248.178 91.38C248.178 91.7133 248.085 91.9667 247.898 92.14C247.711 92.3 247.491 92.38 247.238 92.38C246.985 92.38 246.765 92.3 246.578 92.14C246.391 91.9667 246.298 91.7133 246.298 91.38ZM250.058 91.38C250.058 91.0333 250.145 90.7867 250.318 90.64C250.505 90.48 250.725 90.4 250.978 90.4C251.231 90.4 251.451 90.48 251.638 90.64C251.825 90.7867 251.918 91.0333 251.918 91.38C251.918 91.7133 251.825 91.9667 251.638 92.14C251.451 92.3 251.231 92.38 250.978 92.38C250.725 92.38 250.505 92.3 250.318 92.14C250.145 91.9667 250.058 91.7133 250.058 91.38ZM281.248 97.66L275.708 90.72H277.708L283.168 97.64V90.72H284.888V97.64L290.348 90.72H292.348L286.808 97.64L292.528 105H290.468L284.888 97.76V105H283.168V97.76L277.568 105H275.508L281.248 97.66ZM307.119 94.28L302.699 99.48L307.499 105H305.499L300.859 99.56V105H299.219V99.56L294.579 105H292.579L297.379 99.48L292.959 94.28H294.879L299.219 99.48V94.28H300.859V99.48L305.219 94.28H307.119ZM328.329 94.06C328.329 95.0333 328.023 95.8067 327.409 96.38C326.796 96.94 325.976 97.3 324.949 97.46V97.54C326.149 97.7 327.063 98.0733 327.689 98.66C328.316 99.2467 328.629 100.013 328.629 100.96C328.629 101.8 328.416 102.54 327.989 103.18C327.563 103.807 326.923 104.3 326.069 104.66C325.216 105.02 324.149 105.2 322.869 105.2C322.096 105.2 321.356 105.14 320.649 105.02C319.956 104.913 319.309 104.713 318.709 104.42V102.78C319.123 102.98 319.563 103.153 320.029 103.3C320.509 103.433 320.989 103.54 321.469 103.62C321.949 103.687 322.409 103.72 322.849 103.72C324.129 103.72 325.096 103.48 325.749 103C326.416 102.52 326.749 101.84 326.749 100.96C326.749 100.053 326.363 99.3933 325.589 98.98C324.816 98.5667 323.736 98.36 322.349 98.36H320.309V96.86H322.249C323.196 96.86 323.976 96.7533 324.589 96.54C325.216 96.3267 325.683 96.0267 325.989 95.64C326.309 95.24 326.469 94.7733 326.469 94.24C326.469 93.52 326.203 92.9667 325.669 92.58C325.136 92.1933 324.443 92 323.589 92C322.696 92 321.949 92.1133 321.349 92.34C320.763 92.5667 320.189 92.86 319.629 93.22L318.769 92C319.143 91.72 319.569 91.4733 320.049 91.26C320.543 91.0333 321.089 90.8533 321.689 90.72C322.289 90.5867 322.929 90.52 323.609 90.52C324.636 90.52 325.496 90.6733 326.189 90.98C326.896 91.2867 327.429 91.7067 327.789 92.24C328.149 92.76 328.329 93.3667 328.329 94.06ZM334.227 94.08C335.04 94.08 335.747 94.1933 336.347 94.42C336.947 94.6333 337.414 94.9533 337.747 95.38C338.08 95.7933 338.247 96.3 338.247 96.9C338.247 97.5533 338.067 98.0733 337.707 98.46C337.347 98.8333 336.854 99.1067 336.227 99.28V99.36C336.654 99.48 337.047 99.6467 337.407 99.86C337.767 100.073 338.054 100.353 338.267 100.7C338.494 101.047 338.607 101.493 338.607 102.04C338.607 102.627 338.44 103.16 338.107 103.64C337.787 104.12 337.287 104.5 336.607 104.78C335.94 105.06 335.08 105.2 334.027 105.2C333.52 105.2 333.034 105.173 332.567 105.12C332.114 105.067 331.7 104.987 331.327 104.88C330.967 104.773 330.647 104.647 330.367 104.5V102.92C330.82 103.133 331.354 103.327 331.967 103.5C332.594 103.673 333.274 103.76 334.007 103.76C334.54 103.76 335.02 103.7 335.447 103.58C335.887 103.46 336.234 103.273 336.487 103.02C336.74 102.753 336.867 102.393 336.867 101.94C336.867 101.527 336.754 101.193 336.527 100.94C336.3 100.673 335.96 100.473 335.507 100.34C335.067 100.207 334.5 100.14 333.807 100.14H332.367V98.7H333.527C334.447 98.7 335.18 98.58 335.727 98.34C336.287 98.0867 336.567 97.66 336.567 97.06C336.567 96.5533 336.354 96.1733 335.927 95.92C335.514 95.6667 334.914 95.54 334.127 95.54C333.54 95.54 333.02 95.6 332.567 95.72C332.127 95.8267 331.64 95.9933 331.107 96.22L330.487 94.82C331.06 94.5667 331.66 94.38 332.287 94.26C332.914 94.14 333.56 94.08 334.227 94.08ZM357.058 90.72H358.738V98.56C358.738 98.8933 358.731 99.26 358.718 99.66C358.718 100.047 358.711 100.433 358.698 100.82C358.684 101.207 358.664 101.553 358.638 101.86C358.624 102.153 358.611 102.38 358.598 102.54H358.678L366.538 90.72H368.538V105H366.858V97.24C366.858 96.88 366.864 96.4933 366.878 96.08C366.891 95.6533 366.904 95.2467 366.918 94.86C366.944 94.46 366.964 94.1067 366.978 93.8C366.991 93.4933 367.004 93.2667 367.018 93.12H366.938L359.058 105H357.058V90.72ZM373.809 100.82C373.809 100.94 373.803 101.113 373.789 101.34C373.789 101.553 373.783 101.787 373.769 102.04C373.756 102.28 373.743 102.513 373.729 102.74C373.716 102.953 373.703 103.127 373.689 103.26L379.429 94.28H381.589V105H379.949V98.68C379.949 98.4667 379.949 98.1867 379.949 97.84C379.963 97.4933 379.976 97.1533 379.989 96.82C380.003 96.4733 380.016 96.2133 380.029 96.04L374.329 105H372.149V94.28H373.809V100.82ZM410.567 86.28C410.513 86.9467 410.347 87.5067 410.067 87.96C409.8 88.4133 409.4 88.7533 408.867 88.98C408.333 89.2067 407.64 89.32 406.787 89.32C405.92 89.32 405.22 89.2067 404.687 88.98C404.167 88.7533 403.787 88.42 403.547 87.98C403.307 87.5267 403.16 86.96 403.107 86.28H404.747C404.813 87 405 87.4867 405.307 87.74C405.627 87.98 406.133 88.1 406.827 88.1C407.44 88.1 407.92 87.9733 408.267 87.72C408.627 87.4533 408.84 86.9733 408.907 86.28H410.567ZM400.847 90.72H402.527V98.56C402.527 98.8933 402.52 99.26 402.507 99.66C402.507 100.047 402.5 100.433 402.487 100.82C402.473 101.207 402.453 101.553 402.427 101.86C402.413 102.153 402.4 102.38 402.387 102.54H402.467L410.327 90.72H412.327V105H410.647V97.24C410.647 96.88 410.653 96.4933 410.667 96.08C410.68 95.6533 410.693 95.2467 410.707 94.86C410.733 94.46 410.753 94.1067 410.767 93.8C410.78 93.4933 410.793 93.2667 410.807 93.12H410.727L402.847 105H400.847V90.72ZM424.618 89.84C424.565 90.5067 424.398 91.0667 424.118 91.52C423.852 91.9733 423.452 92.3133 422.918 92.54C422.385 92.7667 421.692 92.88 420.838 92.88C419.972 92.88 419.272 92.7667 418.738 92.54C418.218 92.3133 417.838 91.98 417.598 91.54C417.358 91.0867 417.212 90.52 417.158 89.84H418.798C418.865 90.56 419.052 91.0467 419.358 91.3C419.678 91.54 420.185 91.66 420.878 91.66C421.492 91.66 421.972 91.5333 422.318 91.28C422.678 91.0133 422.892 90.5333 422.958 89.84H424.618ZM417.598 100.82C417.598 100.94 417.592 101.113 417.578 101.34C417.578 101.553 417.572 101.787 417.558 102.04C417.545 102.28 417.532 102.513 417.518 102.74C417.505 102.953 417.492 103.127 417.478 103.26L423.218 94.28H425.378V105H423.738V98.68C423.738 98.4667 423.738 98.1867 423.738 97.84C423.752 97.4933 423.765 97.1533 423.778 96.82C423.792 96.4733 423.805 96.2133 423.818 96.04L418.118 105H415.938V94.28H417.598V100.82ZM455.036 105H452.876L446.416 97.76V105H444.616V90.72H446.416V97.64L452.716 90.72H454.756L448.556 97.66L455.036 105ZM463.079 94.28H464.999L460.419 99.44L465.379 105H463.339L458.499 99.56V105H456.739V94.28H458.499V99.48L463.079 94.28ZM488.236 105H486.436V92.3H481.916C481.822 93.0333 481.722 93.8067 481.616 94.62C481.509 95.42 481.396 96.2133 481.276 97C481.169 97.7867 481.062 98.5267 480.956 99.22C480.849 99.9133 480.742 100.52 480.636 101.04C480.462 101.933 480.249 102.693 479.996 103.32C479.742 103.947 479.402 104.42 478.976 104.74C478.562 105.06 478.016 105.22 477.336 105.22C477.109 105.22 476.876 105.193 476.636 105.14C476.409 105.1 476.209 105.047 476.036 104.98V103.48C476.182 103.547 476.349 103.607 476.536 103.66C476.722 103.7 476.922 103.72 477.136 103.72C477.536 103.72 477.849 103.56 478.076 103.24C478.316 102.907 478.502 102.5 478.636 102.02C478.769 101.527 478.882 101.04 478.976 100.56C479.056 100.173 479.149 99.66 479.256 99.02C479.362 98.3667 479.476 97.6067 479.596 96.74C479.729 95.8733 479.862 94.9333 479.996 93.92C480.142 92.8933 480.282 91.8267 480.416 90.72L488.236 90.72V105ZM500.036 105H498.256V95.74H495.096C494.962 97.4333 494.796 98.88 494.596 100.08C494.396 101.267 494.142 102.233 493.836 102.98C493.529 103.727 493.162 104.273 492.736 104.62C492.309 104.967 491.809 105.14 491.236 105.14C491.062 105.14 490.889 105.127 490.716 105.1C490.556 105.087 490.422 105.053 490.316 105V103.68C490.396 103.707 490.482 103.727 490.576 103.74C490.669 103.753 490.762 103.76 490.856 103.76C491.149 103.76 491.416 103.64 491.656 103.4C491.896 103.16 492.109 102.793 492.296 102.3C492.496 101.807 492.676 101.187 492.836 100.44C492.996 99.68 493.136 98.7867 493.256 97.76C493.376 96.7333 493.482 95.5733 493.576 94.28H500.036V105ZM8.24 135L3.54 122.48H3.46C3.48667 122.747 3.50667 123.087 3.52 123.5C3.54667 123.913 3.56667 124.367 3.58 124.86C3.59333 125.34 3.6 125.833 3.6 126.34L3.6 135H1.94L1.94 120.72H4.6L9 132.42H9.08L13.56 120.72H16.2V135H14.42L14.42 126.22C14.42 125.753 14.4267 125.293 14.44 124.84C14.4533 124.373 14.4733 123.94 14.5 123.54C14.5267 123.127 14.5467 122.78 14.56 122.5H14.48L9.72 135H8.24ZM31.3445 124.28V135H29.7645V128.16C29.7645 127.88 29.7712 127.587 29.7845 127.28C29.8112 126.973 29.8379 126.673 29.8645 126.38H29.8045L26.3045 135H24.8245L21.4245 126.38H21.3645C21.3912 126.673 21.4045 126.973 21.4045 127.28C21.4179 127.587 21.4245 127.9 21.4245 128.22V135H19.8445V124.28H22.1845L25.5645 132.9L29.0045 124.28H31.3445ZM66.7077 135H64.9077V128.34H57.5877V135H55.7877V120.72H57.5877V126.76H64.9077V120.72L66.7077 120.72L66.7077 135ZM72.1319 124.28L72.1319 128.74H77.9519L77.9519 124.28H79.7119L79.7119 135H77.9519V130.22H72.1319V135H70.3719L70.3719 124.28H72.1319ZM111.392 127.84C111.392 128.947 111.252 129.953 110.972 130.86C110.692 131.753 110.272 132.527 109.712 133.18C109.166 133.833 108.479 134.333 107.652 134.68C106.839 135.027 105.892 135.2 104.812 135.2C103.692 135.2 102.719 135.027 101.892 134.68C101.066 134.32 100.379 133.82 99.8322 133.18C99.2855 132.527 98.8789 131.747 98.6122 130.84C98.3455 129.933 98.2122 128.927 98.2122 127.82C98.2122 126.353 98.4522 125.073 98.9322 123.98C99.4122 122.887 100.139 122.033 101.112 121.42C102.099 120.807 103.339 120.5 104.832 120.5C106.259 120.5 107.459 120.807 108.432 121.42C109.406 122.02 110.139 122.873 110.632 123.98C111.139 125.073 111.392 126.36 111.392 127.84ZM100.112 127.84C100.112 129.04 100.279 130.073 100.612 130.94C100.946 131.807 101.459 132.473 102.152 132.94C102.859 133.407 103.746 133.64 104.812 133.64C105.892 133.64 106.772 133.407 107.452 132.94C108.146 132.473 108.659 131.807 108.992 130.94C109.326 130.073 109.492 129.04 109.492 127.84C109.492 126.04 109.119 124.633 108.372 123.62C107.626 122.593 106.446 122.08 104.832 122.08C103.752 122.08 102.859 122.313 102.152 122.78C101.459 123.233 100.946 123.893 100.612 124.76C100.279 125.613 100.112 126.64 100.112 127.84ZM123.637 129.62C123.637 130.513 123.517 131.307 123.277 132C123.051 132.68 122.717 133.26 122.277 133.74C121.851 134.22 121.324 134.587 120.697 134.84C120.084 135.08 119.397 135.2 118.637 135.2C117.931 135.2 117.277 135.08 116.677 134.84C116.077 134.587 115.557 134.22 115.117 133.74C114.677 133.26 114.331 132.68 114.077 132C113.837 131.307 113.717 130.513 113.717 129.62C113.717 128.433 113.917 127.433 114.317 126.62C114.717 125.793 115.291 125.167 116.037 124.74C116.784 124.3 117.671 124.08 118.697 124.08C119.671 124.08 120.524 124.3 121.257 124.74C122.004 125.167 122.584 125.793 122.997 126.62C123.424 127.433 123.637 128.433 123.637 129.62ZM115.537 129.62C115.537 130.46 115.644 131.193 115.857 131.82C116.084 132.433 116.431 132.907 116.897 133.24C117.364 133.573 117.957 133.74 118.677 133.74C119.397 133.74 119.991 133.573 120.457 133.24C120.924 132.907 121.264 132.433 121.477 131.82C121.704 131.193 121.817 130.46 121.817 129.62C121.817 128.767 121.704 128.04 121.477 127.44C121.251 126.84 120.904 126.38 120.437 126.06C119.984 125.727 119.391 125.56 118.657 125.56C117.564 125.56 116.771 125.92 116.277 126.64C115.784 127.36 115.537 128.353 115.537 129.62ZM142.253 135V120.72H152.973V135H151.193V122.3H144.053V135H142.253ZM165.701 124.28V135H163.941V125.78H158.401V135H156.641V124.28H165.701ZM188.728 120.72C190.594 120.72 191.954 121.087 192.808 121.82C193.661 122.553 194.088 123.587 194.088 124.92C194.088 125.507 193.988 126.073 193.788 126.62C193.601 127.153 193.288 127.633 192.848 128.06C192.408 128.487 191.821 128.827 191.088 129.08C190.354 129.32 189.454 129.44 188.388 129.44H186.748V135H184.948V120.72H188.728ZM188.568 122.26H186.748V127.9H188.188C189.094 127.9 189.848 127.807 190.448 127.62C191.048 127.42 191.494 127.107 191.788 126.68C192.081 126.253 192.228 125.693 192.228 125C192.228 124.08 191.934 123.393 191.348 122.94C190.761 122.487 189.834 122.26 188.568 122.26ZM201.917 124.08C203.237 124.08 204.297 124.54 205.097 125.46C205.911 126.38 206.317 127.767 206.317 129.62C206.317 130.833 206.131 131.86 205.757 132.7C205.397 133.527 204.884 134.153 204.217 134.58C203.564 134.993 202.791 135.2 201.897 135.2C201.351 135.2 200.864 135.127 200.437 134.98C200.011 134.833 199.644 134.647 199.337 134.42C199.044 134.18 198.791 133.92 198.577 133.64H198.457C198.484 133.867 198.511 134.153 198.537 134.5C198.564 134.847 198.577 135.147 198.577 135.4V139.8H196.817V124.28H198.257L198.497 125.74H198.577C198.791 125.433 199.044 125.153 199.337 124.9C199.644 124.647 200.004 124.447 200.417 124.3C200.844 124.153 201.344 124.08 201.917 124.08ZM201.597 125.56C200.877 125.56 200.297 125.7 199.857 125.98C199.417 126.247 199.097 126.653 198.897 127.2C198.697 127.747 198.591 128.44 198.577 129.28V129.62C198.577 130.5 198.671 131.247 198.857 131.86C199.044 132.473 199.357 132.94 199.797 133.26C200.251 133.58 200.864 133.74 201.637 133.74C202.291 133.74 202.824 133.56 203.237 133.2C203.664 132.84 203.977 132.353 204.177 131.74C204.391 131.113 204.497 130.4 204.497 129.6C204.497 128.373 204.257 127.393 203.777 126.66C203.311 125.927 202.584 125.56 201.597 125.56ZM231.068 122.1C230.308 122.1 229.621 122.233 229.008 122.5C228.394 122.753 227.874 123.133 227.448 123.64C227.021 124.133 226.694 124.74 226.468 125.46C226.241 126.167 226.128 126.967 226.128 127.86C226.128 129.033 226.308 130.053 226.668 130.92C227.041 131.787 227.588 132.453 228.308 132.92C229.041 133.387 229.954 133.62 231.048 133.62C231.674 133.62 232.268 133.567 232.828 133.46C233.388 133.353 233.934 133.22 234.468 133.06V134.62C233.934 134.82 233.381 134.967 232.808 135.06C232.248 135.153 231.574 135.2 230.788 135.2C229.334 135.2 228.121 134.9 227.148 134.3C226.174 133.7 225.441 132.847 224.948 131.74C224.468 130.633 224.228 129.333 224.228 127.84C224.228 126.76 224.374 125.773 224.668 124.88C224.974 123.987 225.414 123.213 225.988 122.56C226.574 121.907 227.294 121.407 228.148 121.06C229.001 120.7 229.981 120.52 231.088 120.52C231.821 120.52 232.528 120.593 233.208 120.74C233.888 120.887 234.494 121.093 235.028 121.36L234.308 122.88C233.868 122.68 233.374 122.5 232.828 122.34C232.294 122.18 231.708 122.1 231.068 122.1ZM241.645 135.2C240.698 135.2 239.851 135.007 239.105 134.62C238.371 134.233 237.791 133.633 237.365 132.82C236.951 132.007 236.745 130.967 236.745 129.7C236.745 128.38 236.965 127.307 237.405 126.48C237.845 125.653 238.438 125.047 239.185 124.66C239.945 124.273 240.805 124.08 241.765 124.08C242.311 124.08 242.838 124.14 243.345 124.26C243.851 124.367 244.265 124.5 244.585 124.66L244.045 126.12C243.725 126 243.351 125.887 242.925 125.78C242.498 125.673 242.098 125.62 241.725 125.62C241.005 125.62 240.411 125.773 239.945 126.08C239.478 126.387 239.131 126.84 238.905 127.44C238.678 128.04 238.565 128.787 238.565 129.68C238.565 130.533 238.678 131.26 238.905 131.86C239.131 132.46 239.471 132.913 239.925 133.22C240.378 133.527 240.945 133.68 241.625 133.68C242.211 133.68 242.725 133.62 243.165 133.5C243.618 133.38 244.031 133.233 244.405 133.06V134.62C244.045 134.807 243.645 134.947 243.205 135.04C242.778 135.147 242.258 135.2 241.645 135.2ZM267.3 135H265.5V122.3H261.04V120.72H271.74V122.3H267.3V135ZM280.252 125.76H276.752V135H275.012V125.76H271.552V124.28H280.252V125.76ZM304.17 130.94C303.743 131.887 303.31 132.68 302.87 133.32C302.443 133.947 301.937 134.42 301.35 134.74C300.763 135.047 300.017 135.2 299.11 135.2C298.737 135.2 298.383 135.173 298.05 135.12C297.73 135.067 297.437 134.993 297.17 134.9V133.12C297.437 133.24 297.723 133.34 298.03 133.42C298.337 133.487 298.657 133.52 298.99 133.52C299.483 133.52 299.903 133.453 300.25 133.32C300.61 133.173 300.923 132.94 301.19 132.62C301.47 132.3 301.73 131.873 301.97 131.34L296.47 120.72H298.45L302.43 128.58C302.483 128.673 302.537 128.787 302.59 128.92C302.643 129.04 302.697 129.167 302.75 129.3C302.817 129.433 302.87 129.56 302.91 129.68H302.99C303.03 129.587 303.07 129.48 303.11 129.36C303.163 129.227 303.21 129.1 303.25 128.98C303.303 128.847 303.35 128.733 303.39 128.64L306.83 120.72H308.73L304.17 130.94ZM308.75 124.28H310.63L312.95 130.38C313.084 130.74 313.204 131.087 313.31 131.42C313.43 131.753 313.537 132.08 313.63 132.4C313.724 132.707 313.797 133.007 313.85 133.3H313.93C314.01 132.967 314.137 132.533 314.31 132C314.484 131.453 314.664 130.907 314.85 130.36L317.03 124.28H318.93L314.31 136.48C314.057 137.147 313.757 137.727 313.41 138.22C313.077 138.727 312.664 139.113 312.17 139.38C311.69 139.66 311.104 139.8 310.41 139.8C310.09 139.8 309.81 139.78 309.57 139.74C309.33 139.713 309.124 139.68 308.95 139.64V138.24C309.097 138.267 309.27 138.293 309.47 138.32C309.684 138.347 309.904 138.36 310.13 138.36C310.544 138.36 310.897 138.28 311.19 138.12C311.497 137.973 311.757 137.753 311.97 137.46C312.184 137.18 312.364 136.847 312.51 136.46L313.07 135.04L308.75 124.28ZM348.627 120.52V122.28C350.174 122.307 351.394 122.56 352.287 123.04C353.18 123.52 353.814 124.16 354.187 124.96C354.56 125.747 354.747 126.627 354.747 127.6C354.747 128.24 354.647 128.88 354.447 129.52C354.26 130.147 353.934 130.72 353.467 131.24C353 131.747 352.374 132.16 351.587 132.48C350.8 132.8 349.814 132.973 348.627 133V135.2H346.847V133C345.634 132.973 344.627 132.8 343.827 132.48C343.04 132.147 342.42 131.72 341.967 131.2C341.514 130.667 341.194 130.087 341.007 129.46C340.82 128.833 340.727 128.213 340.727 127.6C340.727 126.893 340.827 126.227 341.027 125.6C341.24 124.96 341.58 124.4 342.047 123.92C342.527 123.427 343.16 123.033 343.947 122.74C344.734 122.447 345.7 122.293 346.847 122.28V120.52H348.627ZM346.847 123.8C345.78 123.827 344.927 124 344.287 124.32C343.66 124.64 343.214 125.08 342.947 125.64C342.68 126.187 342.547 126.833 342.547 127.58C342.547 128.367 342.694 129.053 342.987 129.64C343.294 130.213 343.76 130.66 344.387 130.98C345.027 131.3 345.847 131.48 346.847 131.52V123.8ZM348.627 131.52C349.654 131.48 350.48 131.293 351.107 130.96C351.747 130.627 352.207 130.173 352.487 129.6C352.78 129.013 352.927 128.34 352.927 127.58C352.927 126.82 352.794 126.167 352.527 125.62C352.26 125.06 351.814 124.627 351.187 124.32C350.56 124 349.707 123.827 348.627 123.8V131.52ZM363.881 124.12C364.948 124.213 365.875 124.493 366.661 124.96C367.461 125.427 368.081 126.053 368.521 126.84C368.961 127.627 369.181 128.56 369.181 129.64C369.181 130.72 368.968 131.66 368.541 132.46C368.115 133.247 367.508 133.873 366.721 134.34C365.935 134.793 364.988 135.067 363.881 135.16V139.8H362.161V135.16C361.108 135.067 360.181 134.793 359.381 134.34C358.581 133.873 357.961 133.247 357.521 132.46C357.081 131.66 356.861 130.72 356.861 129.64C356.861 128.547 357.075 127.607 357.501 126.82C357.928 126.02 358.541 125.393 359.341 124.94C360.141 124.473 361.101 124.2 362.221 124.12V119.8H363.881V124.12ZM362.221 125.58C361.408 125.66 360.741 125.867 360.221 126.2C359.701 126.533 359.315 126.987 359.061 127.56C358.821 128.133 358.701 128.827 358.701 129.64C358.701 130.44 358.821 131.133 359.061 131.72C359.315 132.293 359.701 132.753 360.221 133.1C360.741 133.433 361.408 133.64 362.221 133.72V125.58ZM363.881 133.72C364.681 133.627 365.335 133.413 365.841 133.08C366.361 132.747 366.741 132.293 366.981 131.72C367.235 131.133 367.361 130.44 367.361 129.64C367.361 128.84 367.235 128.153 366.981 127.58C366.728 127.007 366.341 126.553 365.821 126.22C365.315 125.887 364.668 125.68 363.881 125.6V133.72ZM397.499 135H395.459L391.679 128.8L387.839 135H385.939L390.679 127.56L386.239 120.72H388.239L391.739 126.32L395.259 120.72H397.159L392.739 127.52L397.499 135ZM401.818 129.52L398.118 124.28H400.118L402.878 128.32L405.618 124.28H407.598L403.898 129.52L407.798 135H405.798L402.878 130.72L399.918 135H397.938L401.818 129.52ZM438.15 133.42V138.76H436.43V135H425.69V120.72H427.49V133.4H434.63V120.72H436.41V133.42H438.15ZM450.854 138.72H449.134V135H440.274V124.28H442.034V133.52H447.574V124.28H449.334V133.54H450.854V138.72ZM478.817 135H477.017V129.14C476.244 129.407 475.517 129.627 474.837 129.8C474.17 129.96 473.424 130.04 472.597 130.04C471.264 130.04 470.23 129.733 469.497 129.12C468.764 128.493 468.397 127.593 468.397 126.42V120.72H470.197V126.16C470.197 126.933 470.397 127.513 470.797 127.9C471.21 128.273 471.87 128.46 472.777 128.46C473.564 128.46 474.27 128.387 474.897 128.24C475.524 128.093 476.23 127.893 477.017 127.64V120.72H478.817V135ZM484.002 128.18C484.002 128.807 484.175 129.273 484.522 129.58C484.882 129.873 485.395 130.02 486.062 130.02C486.728 130.02 487.335 129.92 487.882 129.72C488.428 129.507 488.988 129.227 489.562 128.88V124.28H491.322V135H489.562V130.22C488.962 130.607 488.368 130.913 487.782 131.14C487.208 131.353 486.515 131.46 485.702 131.46C484.608 131.46 483.755 131.173 483.142 130.6C482.542 130.027 482.242 129.26 482.242 128.3V124.28H484.002V128.18ZM18.78 165H1.94L1.94 150.72H3.74L3.74 163.4H9.44L9.44 150.72H11.24L11.24 163.4H16.96L16.96 150.72H18.78L18.78 165ZM36.9822 154.28V165H22.4422L22.4422 154.28H24.2022L24.2022 163.52H28.8222L28.8222 154.28H30.5822L30.5822 163.52H35.2222V154.28H36.9822ZM74.5169 163.42V168.76H72.7969V165H56.2369V150.72H58.0369V163.4H63.5969V150.72H65.4169V163.4H70.9969V150.72H72.7969V163.42H74.5169ZM91.3372 154.28V163.54H92.8972V168.7H91.1372V165H76.8172V154.28H78.5772V163.52H83.1972V154.28H84.9572V163.52H89.5972V154.28H91.3372ZM112.308 165V152.3H108.988V150.72H114.088V156.76H116.348C117.681 156.76 118.735 156.94 119.508 157.3C120.281 157.66 120.828 158.147 121.148 158.76C121.481 159.373 121.648 160.06 121.648 160.82C121.648 161.66 121.468 162.393 121.108 163.02C120.748 163.647 120.195 164.133 119.448 164.48C118.715 164.827 117.761 165 116.588 165H112.308ZM116.408 163.46C117.568 163.46 118.421 163.247 118.968 162.82C119.515 162.38 119.788 161.713 119.788 160.82C119.788 160.207 119.655 159.72 119.388 159.36C119.121 158.987 118.715 158.72 118.168 158.56C117.635 158.4 116.955 158.32 116.128 158.32H114.088V163.46H116.408ZM127.825 154.28V158.68H130.785C131.772 158.68 132.585 158.793 133.225 159.02C133.865 159.247 134.338 159.587 134.645 160.04C134.965 160.493 135.125 161.053 135.125 161.72C135.125 162.387 134.978 162.967 134.685 163.46C134.392 163.953 133.925 164.333 133.285 164.6C132.645 164.867 131.805 165 130.765 165H126.065V155.76H122.645V154.28H127.825ZM130.725 160.16H127.825V163.58H130.785C131.572 163.58 132.198 163.447 132.665 163.18C133.145 162.913 133.385 162.46 133.385 161.82C133.385 161.18 133.165 160.747 132.725 160.52C132.285 160.28 131.618 160.16 130.725 160.16ZM158.932 165V150.72H160.732V156.76H162.932C164.266 156.76 165.312 156.94 166.072 157.3C166.846 157.66 167.392 158.147 167.712 158.76C168.046 159.373 168.212 160.06 168.212 160.82C168.212 161.66 168.032 162.393 167.672 163.02C167.326 163.647 166.779 164.133 166.032 164.48C165.286 164.827 164.326 165 163.152 165H158.932ZM162.992 163.48C164.139 163.48 164.986 163.26 165.532 162.82C166.079 162.38 166.352 161.713 166.352 160.82C166.352 160.207 166.219 159.72 165.952 159.36C165.699 159 165.306 158.74 164.772 158.58C164.239 158.42 163.559 158.34 162.732 158.34H160.732V163.48H162.992ZM170.412 165V150.72H172.212V165H170.412ZM175.86 165V154.28H177.62V158.68H180.4C181.333 158.68 182.1 158.793 182.7 159.02C183.3 159.247 183.747 159.587 184.04 160.04C184.333 160.48 184.48 161.04 184.48 161.72C184.48 162.387 184.333 162.967 184.04 163.46C183.76 163.953 183.313 164.333 182.7 164.6C182.1 164.867 181.307 165 180.32 165H175.86ZM180.16 163.58C180.92 163.58 181.54 163.453 182.02 163.2C182.5 162.933 182.74 162.473 182.74 161.82C182.74 161.167 182.52 160.727 182.08 160.5C181.64 160.26 181.007 160.14 180.18 160.14H177.62V163.58H180.16ZM186.26 165V154.28H188.02V165H186.26ZM207.253 165V150.72H209.053V156.76H211.733C213.066 156.76 214.126 156.94 214.913 157.3C215.699 157.66 216.266 158.147 216.612 158.76C216.959 159.373 217.133 160.06 217.133 160.82C217.133 161.66 216.939 162.393 216.553 163.02C216.179 163.647 215.613 164.133 214.853 164.48C214.093 164.827 213.126 165 211.953 165H207.253ZM211.773 163.46C212.933 163.46 213.806 163.247 214.393 162.82C214.979 162.38 215.273 161.713 215.273 160.82C215.273 160.207 215.126 159.72 214.833 159.36C214.553 158.987 214.133 158.72 213.573 158.56C213.026 158.4 212.339 158.32 211.513 158.32H209.053V163.46H211.773ZM224.785 158.68C225.718 158.68 226.491 158.793 227.105 159.02C227.718 159.247 228.178 159.587 228.485 160.04C228.805 160.48 228.965 161.04 228.965 161.72C228.965 162.387 228.811 162.967 228.505 163.46C228.211 163.953 227.751 164.333 227.125 164.6C226.498 164.867 225.691 165 224.705 165L219.845 165V154.28L221.605 154.28V158.68H224.785ZM227.205 161.82C227.205 161.167 226.971 160.727 226.505 160.5C226.051 160.26 225.411 160.14 224.585 160.14H221.605V163.58H224.625C225.371 163.58 225.985 163.447 226.465 163.18C226.958 162.913 227.205 162.46 227.205 161.82ZM250.245 152.1C249.579 152.1 248.972 152.18 248.425 152.34C247.879 152.487 247.385 152.66 246.945 152.86L246.205 151.36C246.752 151.093 247.379 150.887 248.085 150.74C248.792 150.593 249.519 150.52 250.265 150.52C251.412 150.52 252.405 150.7 253.245 151.06C254.099 151.407 254.805 151.9 255.365 152.54C255.925 153.18 256.339 153.933 256.605 154.8C256.885 155.653 257.025 156.593 257.025 157.62C257.025 159.18 256.772 160.527 256.265 161.66C255.759 162.793 254.992 163.667 253.965 164.28C252.952 164.893 251.672 165.2 250.125 165.2C249.299 165.2 248.599 165.153 248.025 165.06C247.452 164.967 246.885 164.82 246.325 164.62V163.06C246.885 163.207 247.452 163.34 248.025 163.46C248.599 163.567 249.205 163.62 249.845 163.62C250.712 163.62 251.465 163.507 252.105 163.28C252.759 163.04 253.305 162.7 253.745 162.26C254.185 161.807 254.519 161.253 254.745 160.6C254.972 159.933 255.099 159.173 255.125 158.32H248.185V156.74H255.105C255.039 156.007 254.879 155.353 254.625 154.78C254.372 154.207 254.032 153.72 253.605 153.32C253.192 152.92 252.699 152.62 252.125 152.42C251.565 152.207 250.939 152.1 250.245 152.1ZM261.682 165.2C261.068 165.2 260.535 165.147 260.082 165.04C259.642 164.947 259.228 164.807 258.842 164.62V163.1C259.242 163.26 259.675 163.4 260.142 163.52C260.608 163.64 261.135 163.7 261.722 163.7C262.415 163.7 263.015 163.58 263.522 163.34C264.028 163.087 264.428 162.7 264.722 162.18C265.015 161.66 265.182 161 265.222 160.2H259.942V158.76H265.202C265.108 157.667 264.795 156.867 264.262 156.36C263.742 155.853 262.975 155.6 261.962 155.6C261.575 155.6 261.148 155.653 260.682 155.76C260.228 155.867 259.822 155.987 259.462 156.12L258.962 154.7C259.348 154.527 259.808 154.38 260.342 154.26C260.875 154.14 261.408 154.08 261.942 154.08C262.942 154.08 263.822 154.267 264.582 154.64C265.355 155.013 265.955 155.607 266.382 156.42C266.822 157.233 267.042 158.307 267.042 159.64C267.042 160.907 266.808 161.953 266.342 162.78C265.888 163.607 265.255 164.22 264.442 164.62C263.642 165.007 262.722 165.2 261.682 165.2ZM303.53 157.84C303.53 158.947 303.397 159.953 303.13 160.86C302.864 161.767 302.464 162.547 301.93 163.2C301.397 163.84 300.737 164.333 299.95 164.68C299.177 165.027 298.27 165.2 297.23 165.2C295.87 165.2 294.724 164.92 293.79 164.36C292.87 163.8 292.164 163.007 291.67 161.98C291.177 160.953 290.904 159.74 290.85 158.34H287.47V165H285.67V150.72H287.47V156.76H290.89C290.984 155.493 291.277 154.393 291.77 153.46C292.264 152.513 292.964 151.787 293.87 151.28C294.777 150.76 295.884 150.5 297.19 150.5C298.564 150.5 299.717 150.807 300.65 151.42C301.597 152.02 302.31 152.873 302.79 153.98C303.284 155.073 303.53 156.36 303.53 157.84ZM292.73 157.84C292.73 159.04 292.884 160.073 293.19 160.94C293.51 161.807 293.997 162.473 294.65 162.94C295.317 163.407 296.157 163.64 297.17 163.64C298.21 163.64 299.057 163.407 299.71 162.94C300.377 162.473 300.864 161.807 301.17 160.94C301.49 160.073 301.65 159.04 301.65 157.84C301.65 156.64 301.497 155.613 301.19 154.76C300.884 153.893 300.404 153.233 299.75 152.78C299.097 152.313 298.25 152.08 297.21 152.08C296.184 152.08 295.337 152.313 294.67 152.78C294.004 153.233 293.51 153.893 293.19 154.76C292.884 155.613 292.73 156.64 292.73 157.84ZM320.386 159.62C320.386 160.807 320.192 161.82 319.806 162.66C319.419 163.487 318.872 164.12 318.166 164.56C317.459 164.987 316.619 165.2 315.646 165.2C314.739 165.2 313.946 165.013 313.266 164.64C312.586 164.253 312.046 163.693 311.646 162.96C311.246 162.213 311.012 161.3 310.946 160.22H308.226V165H306.466V154.28H308.226V158.74H310.966C311.059 157.727 311.306 156.88 311.706 156.2C312.119 155.507 312.659 154.98 313.326 154.62C314.006 154.26 314.792 154.08 315.686 154.08C316.606 154.08 317.419 154.3 318.126 154.74C318.832 155.167 319.386 155.793 319.786 156.62C320.186 157.433 320.386 158.433 320.386 159.62ZM312.746 159.62C312.746 160.513 312.846 161.267 313.046 161.88C313.259 162.493 313.579 162.96 314.006 163.28C314.432 163.587 314.986 163.74 315.666 163.74C316.346 163.74 316.899 163.587 317.326 163.28C317.752 162.96 318.066 162.493 318.266 161.88C318.466 161.267 318.566 160.513 318.566 159.62C318.566 158.727 318.466 157.98 318.266 157.38C318.066 156.78 317.752 156.327 317.326 156.02C316.899 155.713 316.346 155.56 315.666 155.56C314.986 155.56 314.432 155.713 314.006 156.02C313.579 156.327 313.259 156.78 313.046 157.38C312.846 157.98 312.746 158.727 312.746 159.62ZM343.31 159.08L339.61 165H337.51L341.51 158.76C341.004 158.587 340.524 158.347 340.07 158.04C339.63 157.733 339.27 157.313 338.99 156.78C338.71 156.247 338.57 155.56 338.57 154.72C338.57 153.427 339.017 152.44 339.91 151.76C340.804 151.067 342.137 150.72 343.91 150.72H347.91V165H346.11V159.08H343.31ZM343.95 152.26C343.19 152.26 342.55 152.347 342.03 152.52C341.51 152.693 341.11 152.967 340.83 153.34C340.564 153.713 340.43 154.2 340.43 154.8C340.43 155.68 340.724 156.36 341.31 156.84C341.897 157.32 342.804 157.56 344.03 157.56H346.11V152.26H343.95ZM352.204 165H350.164L353.224 160.5C352.81 160.393 352.41 160.227 352.024 160C351.637 159.76 351.324 159.433 351.084 159.02C350.844 158.593 350.724 158.067 350.724 157.44C350.724 156.413 351.07 155.633 351.764 155.1C352.457 154.553 353.377 154.28 354.524 154.28H359.324V165H357.564V160.74H354.964L352.204 165ZM352.424 157.46C352.424 158.073 352.65 158.533 353.104 158.84C353.57 159.133 354.217 159.28 355.044 159.28H357.564V155.74H354.704C353.89 155.74 353.304 155.9 352.944 156.22C352.597 156.54 352.424 156.953 352.424 157.46Z" fill="white"/>
<path d="M0.9 202.5L0.9 200.42H5.06L5.06 215H2.76L2.76 202.5H0.9ZM14.6475 211.9C15.9275 210.793 16.9342 209.887 17.6675 209.18C18.4142 208.46 19.0342 207.713 19.5275 206.94C20.0208 206.167 20.2675 205.393 20.2675 204.62C20.2675 203.82 20.0742 203.193 19.6875 202.74C19.3142 202.287 18.7208 202.06 17.9075 202.06C17.1208 202.06 16.5075 202.313 16.0675 202.82C15.6408 203.313 15.4142 203.98 15.3875 204.82H13.1875C13.2275 203.3 13.6808 202.14 14.5475 201.34C15.4275 200.527 16.5408 200.12 17.8875 200.12C19.3408 200.12 20.4742 200.52 21.2875 201.32C22.1142 202.12 22.5275 203.187 22.5275 204.52C22.5275 205.48 22.2808 206.407 21.7875 207.3C21.3075 208.18 20.7275 208.973 20.0475 209.68C19.3808 210.373 18.5275 211.18 17.4875 212.1L16.5875 212.9H22.9275V214.8H13.2075L13.2075 213.14L14.6475 211.9ZM30.0858 204.02C30.1658 202.78 30.6391 201.813 31.5058 201.12C32.3858 200.427 33.5058 200.08 34.8658 200.08C35.7991 200.08 36.6058 200.247 37.2858 200.58C37.9658 200.913 38.4791 201.367 38.8258 201.94C39.1724 202.513 39.3458 203.16 39.3458 203.88C39.3458 204.707 39.1258 205.413 38.6858 206C38.2458 206.587 37.7191 206.98 37.1058 207.18V207.26C37.8924 207.5 38.5058 207.94 38.9458 208.58C39.3858 209.207 39.6058 210.013 39.6058 211C39.6058 211.787 39.4258 212.487 39.0658 213.1C38.7058 213.713 38.1724 214.2 37.4658 214.56C36.7591 214.907 35.9124 215.08 34.9258 215.08C33.4858 215.08 32.2991 214.713 31.3658 213.98C30.4458 213.233 29.9524 212.167 29.8858 210.78H32.0858C32.1391 211.487 32.4124 212.067 32.9058 212.52C33.3991 212.96 34.0658 213.18 34.9058 213.18C35.7191 213.18 36.3458 212.96 36.7858 212.52C37.2258 212.067 37.4458 211.487 37.4458 210.78C37.4458 209.847 37.1458 209.187 36.5458 208.8C35.9591 208.4 35.0524 208.2 33.8258 208.2H33.3058V206.32H33.8458C34.9258 206.307 35.7458 206.127 36.3058 205.78C36.8791 205.433 37.1658 204.887 37.1658 204.14C37.1658 203.5 36.9591 202.993 36.5458 202.62C36.1324 202.233 35.5458 202.04 34.7858 202.04C34.0391 202.04 33.4591 202.233 33.0458 202.62C32.6324 202.993 32.3858 203.46 32.3058 204.02H30.0858ZM46.9161 211.96V210.24L53.6361 200.6H56.3961V209.98H58.2561V211.96H56.3961V215H54.1561V211.96H46.9161ZM54.2561 202.92L49.5361 209.98H54.2561V202.92ZM74.7406 202.38H68.0406V206.36C68.3206 205.987 68.734 205.673 69.2806 205.42C69.8406 205.167 70.434 205.04 71.0606 205.04C72.1806 205.04 73.0873 205.28 73.7806 205.76C74.4873 206.24 74.9873 206.847 75.2806 207.58C75.5873 208.313 75.7406 209.087 75.7406 209.9C75.7406 210.887 75.5473 211.767 75.1606 212.54C74.7873 213.3 74.2206 213.9 73.4606 214.34C72.714 214.78 71.794 215 70.7006 215C69.2473 215 68.0806 214.64 67.2006 213.92C66.3206 213.2 65.794 212.247 65.6206 211.06H67.8406C67.9873 211.687 68.314 212.187 68.8206 212.56C69.3273 212.92 69.9606 213.1 70.7206 213.1C71.6673 213.1 72.374 212.813 72.8406 212.24C73.3206 211.667 73.5606 210.907 73.5606 209.96C73.5606 209 73.3206 208.267 72.8406 207.76C72.3606 207.24 71.654 206.98 70.7206 206.98C70.0673 206.98 69.514 207.147 69.0606 207.48C68.6206 207.8 68.3006 208.24 68.1006 208.8H65.9406V200.38H74.7406V202.38ZM91.1494 203.8C91.0027 203.187 90.736 202.727 90.3494 202.42C89.9627 202.113 89.4227 201.96 88.7294 201.96C87.676 201.96 86.8894 202.367 86.3694 203.18C85.8494 203.98 85.576 205.313 85.5494 207.18C85.896 206.593 86.4027 206.14 87.0694 205.82C87.736 205.5 88.456 205.34 89.2294 205.34C90.1094 205.34 90.8827 205.533 91.5494 205.92C92.2294 206.293 92.756 206.84 93.1294 207.56C93.516 208.28 93.7094 209.14 93.7094 210.14C93.7094 211.073 93.5227 211.907 93.1494 212.64C92.7894 213.373 92.2494 213.953 91.5294 214.38C90.8094 214.793 89.9427 215 88.9294 215C87.556 215 86.476 214.7 85.6894 214.1C84.916 213.487 84.3694 212.627 84.0494 211.52C83.7427 210.413 83.5894 209.033 83.5894 207.38C83.5894 202.5 85.3094 200.06 88.7494 200.06C90.0827 200.06 91.1294 200.42 91.8894 201.14C92.6627 201.86 93.116 202.747 93.2494 203.8H91.1494ZM88.7294 207.26C87.916 207.26 87.2227 207.507 86.6494 208C86.0894 208.48 85.8094 209.18 85.8094 210.1C85.8094 211.02 86.0694 211.753 86.5894 212.3C87.1227 212.833 87.8627 213.1 88.8094 213.1C89.6494 213.1 90.3094 212.84 90.7894 212.32C91.2827 211.8 91.5294 211.107 91.5294 210.24C91.5294 209.333 91.2894 208.613 90.8094 208.08C90.3427 207.533 89.6494 207.26 88.7294 207.26ZM110.577 202.18L105.017 215H102.717L108.337 202.42H100.937V200.48H110.577V202.18ZM120.183 207.38C118.797 206.687 118.103 205.593 118.103 204.1C118.103 203.38 118.283 202.72 118.643 202.12C119.003 201.52 119.543 201.047 120.263 200.7C120.983 200.34 121.863 200.16 122.903 200.16C123.93 200.16 124.803 200.34 125.523 200.7C126.257 201.047 126.803 201.52 127.163 202.12C127.523 202.72 127.703 203.38 127.703 204.1C127.703 204.847 127.51 205.507 127.123 206.08C126.75 206.64 126.25 207.073 125.623 207.38C126.383 207.66 126.983 208.12 127.423 208.76C127.863 209.387 128.083 210.127 128.083 210.98C128.083 211.847 127.863 212.613 127.423 213.28C126.983 213.947 126.37 214.46 125.583 214.82C124.797 215.18 123.903 215.36 122.903 215.36C121.903 215.36 121.01 215.18 120.223 214.82C119.45 214.46 118.843 213.947 118.403 213.28C117.963 212.613 117.743 211.847 117.743 210.98C117.743 210.113 117.963 209.367 118.403 208.74C118.843 208.113 119.437 207.66 120.183 207.38ZM125.523 204.38C125.523 203.633 125.29 203.06 124.823 202.66C124.357 202.26 123.717 202.06 122.903 202.06C122.103 202.06 121.47 202.26 121.003 202.66C120.537 203.06 120.303 203.64 120.303 204.4C120.303 205.067 120.543 205.613 121.023 206.04C121.517 206.453 122.143 206.66 122.903 206.66C123.663 206.66 124.29 206.447 124.783 206.02C125.277 205.593 125.523 205.047 125.523 204.38ZM122.903 208.38C122.023 208.38 121.303 208.6 120.743 209.04C120.197 209.467 119.923 210.087 119.923 210.9C119.923 211.66 120.19 212.28 120.723 212.76C121.257 213.227 121.983 213.46 122.903 213.46C123.81 213.46 124.523 213.22 125.043 212.74C125.577 212.26 125.843 211.647 125.843 210.9C125.843 210.1 125.57 209.48 125.023 209.04C124.49 208.6 123.783 208.38 122.903 208.38ZM138.513 211.04C138.646 211.707 138.933 212.213 139.373 212.56C139.813 212.907 140.406 213.08 141.153 213.08C142.099 213.08 142.793 212.707 143.233 211.96C143.673 211.213 143.893 209.94 143.893 208.14C143.573 208.593 143.119 208.947 142.533 209.2C141.959 209.44 141.333 209.56 140.653 209.56C139.786 209.56 138.999 209.387 138.293 209.04C137.586 208.68 137.026 208.153 136.613 207.46C136.213 206.753 136.013 205.9 136.013 204.9C136.013 203.433 136.439 202.267 137.293 201.4C138.159 200.52 139.346 200.08 140.853 200.08C142.666 200.08 143.953 200.687 144.713 201.9C145.486 203.1 145.873 204.947 145.873 207.44C145.873 209.16 145.726 210.567 145.433 211.66C145.153 212.753 144.659 213.58 143.953 214.14C143.246 214.7 142.266 214.98 141.013 214.98C139.586 214.98 138.486 214.607 137.713 213.86C136.939 213.113 136.506 212.173 136.413 211.04H138.513ZM141.053 207.64C141.853 207.64 142.479 207.393 142.933 206.9C143.399 206.393 143.633 205.727 143.633 204.9C143.633 203.98 143.386 203.267 142.893 202.76C142.413 202.24 141.753 201.98 140.913 201.98C140.073 201.98 139.406 202.247 138.913 202.78C138.433 203.3 138.193 203.987 138.193 204.84C138.193 205.653 138.426 206.327 138.893 206.86C139.373 207.38 140.093 207.64 141.053 207.64ZM153.563 207.52C153.563 205.213 153.95 203.413 154.723 202.12C155.51 200.813 156.857 200.16 158.763 200.16C160.67 200.16 162.01 200.813 162.783 202.12C163.57 203.413 163.963 205.213 163.963 207.52C163.963 209.853 163.57 211.68 162.783 213C162.01 214.307 160.67 214.96 158.763 214.96C156.857 214.96 155.51 214.307 154.723 213C153.95 211.68 153.563 209.853 153.563 207.52ZM161.723 207.52C161.723 206.44 161.65 205.527 161.503 204.78C161.37 204.033 161.09 203.427 160.663 202.96C160.237 202.48 159.603 202.24 158.763 202.24C157.923 202.24 157.29 202.48 156.863 202.96C156.437 203.427 156.15 204.033 156.003 204.78C155.87 205.527 155.803 206.44 155.803 207.52C155.803 208.64 155.87 209.58 156.003 210.34C156.137 211.1 156.417 211.713 156.843 212.18C157.283 212.647 157.923 212.88 158.763 212.88C159.603 212.88 160.237 212.647 160.663 212.18C161.103 211.713 161.39 211.1 161.523 210.34C161.657 209.58 161.723 208.64 161.723 207.52Z" fill="white"/>
</svg>
