<svg width="502" height="218" viewBox="0 0 502 218" fill="none" xmlns="http://www.w3.org/2000/svg">
<path d="M3.46875 5.875L15.5391 5.875C18.1328 5.875 20.3438 6.26563 22.1719 7.04688C24 7.82813 25.3984 8.98438 26.3672 10.5156C27.3516 12.0313 27.8437 13.9063 27.8437 16.1406C27.8437 17.8438 27.5312 19.3438 26.9062 20.6406C26.2812 21.9375 25.3984 23.0313 24.2578 23.9219C23.1172 24.7969 21.7578 25.4766 20.1797 25.9609L18.3984 26.8281L7.54687 26.8281L7.5 22.1641L15.6328 22.1641C17.0391 22.1641 18.2109 21.9141 19.1484 21.4141C20.0859 20.9141 20.7891 20.2344 21.2578 19.375C21.7422 18.5 21.9844 17.5156 21.9844 16.4219C21.9844 15.2344 21.75 14.2031 21.2812 13.3281C20.8281 12.4375 20.125 11.7578 19.1719 11.2891C18.2188 10.8047 17.0078 10.5625 15.5391 10.5625H9.35156L9.35156 40H3.46875L3.46875 5.875ZM22.9453 40L14.9297 24.6719L21.0937 24.6484L29.2266 39.6953V40H22.9453ZM60.9141 22L60.9141 23.875C60.9141 26.4531 60.5781 28.7656 59.9062 30.8125C59.2344 32.8594 58.2734 34.6016 57.0234 36.0391C55.7891 37.4766 54.3047 38.5781 52.5703 39.3438C50.8359 40.0938 48.9141 40.4688 46.8047 40.4688C44.7109 40.4688 42.7969 40.0938 41.0625 39.3438C39.3437 38.5781 37.8516 37.4766 36.5859 36.0391C35.3203 34.6016 34.3359 32.8594 33.6328 30.8125C32.9453 28.7656 32.6016 26.4531 32.6016 23.875L32.6016 22C32.6016 19.4219 32.9453 17.1172 33.6328 15.0859C34.3203 13.0391 35.2891 11.2969 36.5391 9.85938C37.8047 8.40625 39.2969 7.30469 41.0156 6.55469C42.75 5.78906 44.6641 5.40625 46.7578 5.40625C48.8672 5.40625 50.7891 5.78906 52.5234 6.55469C54.2578 7.30469 55.75 8.40625 57 9.85938C58.25 11.2969 59.2109 13.0391 59.8828 15.0859C60.5703 17.1172 60.9141 19.4219 60.9141 22ZM55.0312 23.875L55.0312 21.9531C55.0312 20.0469 54.8438 18.3672 54.4688 16.9141C54.1094 15.4453 53.5703 14.2188 52.8516 13.2344C52.1484 12.2344 51.2812 11.4844 50.25 10.9844C49.2188 10.4688 48.0547 10.2109 46.7578 10.2109C45.4609 10.2109 44.3047 10.4688 43.2891 10.9844C42.2734 11.4844 41.4062 12.2344 40.6875 13.2344C39.9844 14.2188 39.4453 15.4453 39.0703 16.9141C38.6953 18.3672 38.5078 20.0469 38.5078 21.9531L38.5078 23.875C38.5078 25.7813 38.6953 27.4688 39.0703 28.9375C39.4453 30.4063 39.9922 31.6484 40.7109 32.6641C41.4453 33.6641 42.3203 34.4219 43.3359 34.9375C44.3516 35.4375 45.5078 35.6875 46.8047 35.6875C48.1172 35.6875 49.2812 35.4375 50.2969 34.9375C51.3125 34.4219 52.1719 33.6641 52.875 32.6641C53.5781 31.6484 54.1094 30.4063 54.4687 28.9375C54.8437 27.4688 55.0312 25.7813 55.0312 23.875ZM79.5938 24.5781L70.8984 24.5781L70.8516 20.2891L78.4453 20.2891C79.7266 20.2891 80.8125 20.1016 81.7031 19.7266C82.6094 19.3359 83.2969 18.7813 83.7656 18.0625C84.2344 17.3281 84.4688 16.4453 84.4688 15.4141C84.4688 14.2734 84.25 13.3438 83.8125 12.625C83.375 11.9063 82.7031 11.3828 81.7969 11.0547C80.9062 10.7266 79.7656 10.5625 78.375 10.5625H72.6797V40H66.7969V5.875L78.375 5.875C80.25 5.875 81.9219 6.05469 83.3906 6.41406C84.875 6.77344 86.1328 7.33594 87.1641 8.10156C88.2109 8.85156 89 9.80469 89.5312 10.9609C90.0781 12.1172 90.3516 13.4922 90.3516 15.0859C90.3516 16.4922 90.0156 17.7813 89.3438 18.9531C88.6719 20.1094 87.6797 21.0547 86.3672 21.7891C85.0547 22.5234 83.4219 22.9609 81.4688 23.1016L79.5938 24.5781ZM79.3359 40H69.0469L71.6953 35.3359H79.3359C80.6641 35.3359 81.7734 35.1172 82.6641 34.6797C83.5547 34.2266 84.2188 33.6094 84.6562 32.8281C85.1094 32.0313 85.3359 31.1016 85.3359 30.0391C85.3359 28.9297 85.1406 27.9688 84.75 27.1563C84.3594 26.3281 83.7422 25.6953 82.8984 25.2578C82.0547 24.8047 80.9531 24.5781 79.5938 24.5781L72.9844 24.5781L73.0312 20.2891L81.6328 20.2891L82.9688 21.9063C84.8438 21.9688 86.3828 22.3828 87.5859 23.1484C88.8047 23.9141 89.7109 24.9063 90.3047 26.125C90.8984 27.3438 91.1953 28.6563 91.1953 30.0625C91.1953 32.2344 90.7188 34.0547 89.7656 35.5234C88.8281 36.9922 87.4766 38.1094 85.7109 38.875C83.9453 39.625 81.8203 40 79.3359 40ZM124.336 22V23.875C124.336 26.4531 124 28.7656 123.328 30.8125C122.656 32.8594 121.695 34.6016 120.445 36.0391C119.211 37.4766 117.727 38.5781 115.992 39.3438C114.258 40.0938 112.336 40.4688 110.227 40.4688C108.133 40.4688 106.219 40.0938 104.484 39.3438C102.766 38.5781 101.273 37.4766 100.008 36.0391C98.7422 34.6016 97.7578 32.8594 97.0547 30.8125C96.3672 28.7656 96.0234 26.4531 96.0234 23.875V22C96.0234 19.4219 96.3672 17.1172 97.0547 15.0859C97.7422 13.0391 98.7109 11.2969 99.9609 9.85938C101.227 8.40625 102.719 7.30469 104.438 6.55469C106.172 5.78906 108.086 5.40625 110.18 5.40625C112.289 5.40625 114.211 5.78906 115.945 6.55469C117.68 7.30469 119.172 8.40625 120.422 9.85938C121.672 11.2969 122.633 13.0391 123.305 15.0859C123.992 17.1172 124.336 19.4219 124.336 22ZM118.453 23.875V21.9531C118.453 20.0469 118.266 18.3672 117.891 16.9141C117.531 15.4453 116.992 14.2188 116.273 13.2344C115.57 12.2344 114.703 11.4844 113.672 10.9844C112.641 10.4688 111.477 10.2109 110.18 10.2109C108.883 10.2109 107.727 10.4688 106.711 10.9844C105.695 11.4844 104.828 12.2344 104.109 13.2344C103.406 14.2188 102.867 15.4453 102.492 16.9141C102.117 18.3672 101.93 20.0469 101.93 21.9531V23.875C101.93 25.7813 102.117 27.4688 102.492 28.9375C102.867 30.4063 103.414 31.6484 104.133 32.6641C104.867 33.6641 105.742 34.4219 106.758 34.9375C107.773 35.4375 108.93 35.6875 110.227 35.6875C111.539 35.6875 112.703 35.4375 113.719 34.9375C114.734 34.4219 115.594 33.6641 116.297 32.6641C117 31.6484 117.531 30.4063 117.891 28.9375C118.266 27.4688 118.453 25.7813 118.453 23.875ZM143.086 5.875V40H137.25V5.875L143.086 5.875ZM153.797 5.875V10.5625L126.633 10.5625V5.875L153.797 5.875ZM184.852 22V23.875C184.852 26.4531 184.516 28.7656 183.844 30.8125C183.172 32.8594 182.211 34.6016 180.961 36.0391C179.727 37.4766 178.242 38.5781 176.508 39.3438C174.773 40.0938 172.852 40.4688 170.742 40.4688C168.648 40.4688 166.734 40.0938 165 39.3438C163.281 38.5781 161.789 37.4766 160.523 36.0391C159.258 34.6016 158.273 32.8594 157.57 30.8125C156.883 28.7656 156.539 26.4531 156.539 23.875V22C156.539 19.4219 156.883 17.1172 157.57 15.0859C158.258 13.0391 159.227 11.2969 160.477 9.85938C161.742 8.40625 163.234 7.30469 164.953 6.55469C166.688 5.78906 168.602 5.40625 170.695 5.40625C172.805 5.40625 174.727 5.78906 176.461 6.55469C178.195 7.30469 179.688 8.40625 180.938 9.85938C182.188 11.2969 183.148 13.0391 183.82 15.0859C184.508 17.1172 184.852 19.4219 184.852 22ZM178.969 23.875V21.9531C178.969 20.0469 178.781 18.3672 178.406 16.9141C178.047 15.4453 177.508 14.2188 176.789 13.2344C176.086 12.2344 175.219 11.4844 174.188 10.9844C173.156 10.4688 171.992 10.2109 170.695 10.2109C169.398 10.2109 168.242 10.4688 167.227 10.9844C166.211 11.4844 165.344 12.2344 164.625 13.2344C163.922 14.2188 163.383 15.4453 163.008 16.9141C162.633 18.3672 162.445 20.0469 162.445 21.9531V23.875C162.445 25.7813 162.633 27.4688 163.008 28.9375C163.383 30.4063 163.93 31.6484 164.648 32.6641C165.383 33.6641 166.258 34.4219 167.273 34.9375C168.289 35.4375 169.445 35.6875 170.742 35.6875C172.055 35.6875 173.219 35.4375 174.234 34.9375C175.25 34.4219 176.109 33.6641 176.812 32.6641C177.516 31.6484 178.047 30.4063 178.406 28.9375C178.781 27.4688 178.969 25.7813 178.969 23.875ZM205.078 5.875L210.328 5.875L220.195 32.1953L230.039 5.875L235.289 5.875L222.258 40H218.086L205.078 5.875ZM202.688 5.875L207.68 5.875L208.547 28.6563V40H202.688V5.875ZM232.688 5.875L237.703 5.875V40H231.82V28.6563L232.688 5.875ZM267.023 35.3359V40H248.906V35.3359H267.023ZM250.57 5.875V40H244.688V5.875L250.57 5.875ZM264.656 20.125V24.7188L248.906 24.7188V20.125L264.656 20.125ZM266.906 5.875V10.5625L248.906 10.5625V5.875L266.906 5.875ZM281.742 40H274.453L274.5 35.3359H281.742C283.852 35.3359 285.617 34.875 287.039 33.9531C288.477 33.0313 289.555 31.7109 290.273 29.9922C291.008 28.2734 291.375 26.2266 291.375 23.8516V22C291.375 20.1563 291.164 18.5234 290.742 17.1016C290.336 15.6797 289.727 14.4844 288.914 13.5156C288.117 12.5469 287.133 11.8125 285.961 11.3125C284.805 10.8125 283.469 10.5625 281.953 10.5625L274.312 10.5625V5.875L281.953 5.875C284.219 5.875 286.289 6.25781 288.164 7.02344C290.039 7.77344 291.656 8.85938 293.016 10.2813C294.391 11.7031 295.445 13.4063 296.18 15.3906C296.914 17.375 297.281 19.5938 297.281 22.0469V23.8516C297.281 26.3047 296.914 28.5234 296.18 30.5078C295.445 32.4922 294.391 34.1953 293.016 35.6172C291.641 37.0234 290 38.1094 288.094 38.875C286.203 39.625 284.086 40 281.742 40ZM277.711 5.875V40H271.828V5.875L277.711 5.875ZM309.469 5.875V40H303.586V5.875L309.469 5.875ZM335.93 5.875L341.789 5.875V28.6797C341.789 31.2734 341.227 33.4453 340.102 35.1953C338.977 36.9453 337.445 38.2656 335.508 39.1563C333.586 40.0313 331.438 40.4688 329.062 40.4688C326.609 40.4688 324.422 40.0313 322.5 39.1563C320.578 38.2656 319.062 36.9453 317.953 35.1953C316.859 33.4453 316.312 31.2734 316.312 28.6797V5.875L322.172 5.875V28.6797C322.172 30.3203 322.453 31.6719 323.016 32.7344C323.578 33.7813 324.375 34.5547 325.406 35.0547C326.438 35.5547 327.656 35.8047 329.062 35.8047C330.469 35.8047 331.68 35.5547 332.695 35.0547C333.727 34.5547 334.523 33.7813 335.086 32.7344C335.648 31.6719 335.93 30.3203 335.93 28.6797V5.875ZM350.578 5.875L355.828 5.875L365.695 32.1953L375.539 5.875L380.789 5.875L367.758 40H363.586L350.578 5.875ZM348.188 5.875L353.18 5.875L354.047 28.6563V40H348.188V5.875ZM378.188 5.875L383.203 5.875V40H377.32V28.6563L378.188 5.875Z" fill="white"/>
<path d="M6.98242 92.6758L2.73437 105H0.166016L5.51758 90.7812H7.1582L6.98242 92.6758ZM10.5371 105L6.2793 92.6758L6.09375 90.7812H7.74414L13.1152 105H10.5371ZM10.332 99.7266V101.67H2.59766L2.59766 99.7266H10.332ZM20.4297 102.881V97.8418C20.4297 97.4642 20.3613 97.1387 20.2246 96.8652C20.0879 96.5918 19.8796 96.3802 19.5996 96.2305C19.3262 96.0807 18.9811 96.0059 18.5645 96.0059C18.1803 96.0059 17.8483 96.071 17.5684 96.2012C17.2884 96.3314 17.0703 96.5072 16.9141 96.7285C16.7578 96.9499 16.6797 97.2005 16.6797 97.4805H14.3359C14.3359 97.0638 14.4368 96.6602 14.6387 96.2695C14.8405 95.8789 15.1335 95.5306 15.5176 95.2246C15.9017 94.9186 16.3607 94.6777 16.8945 94.502C17.4284 94.3262 18.0273 94.2383 18.6914 94.2383C19.4857 94.2383 20.1888 94.3717 20.8008 94.6387C21.4193 94.9056 21.9043 95.3092 22.2559 95.8496C22.6139 96.3835 22.793 97.054 22.793 97.8613V102.559C22.793 103.04 22.8255 103.473 22.8906 103.857C22.9622 104.235 23.0632 104.564 23.1934 104.844V105H20.7812C20.6706 104.746 20.5827 104.424 20.5176 104.033C20.459 103.636 20.4297 103.252 20.4297 102.881ZM20.7715 98.5742L20.791 100.029H19.1016C18.6654 100.029 18.2812 100.072 17.9492 100.156C17.6172 100.234 17.3405 100.352 17.1191 100.508C16.8978 100.664 16.7318 100.853 16.6211 101.074C16.5104 101.296 16.4551 101.546 16.4551 101.826C16.4551 102.106 16.5202 102.363 16.6504 102.598C16.7806 102.826 16.9694 103.005 17.2168 103.135C17.4707 103.265 17.7767 103.33 18.1348 103.33C18.6165 103.33 19.0365 103.232 19.3945 103.037C19.7591 102.835 20.0456 102.591 20.2539 102.305C20.4622 102.012 20.5729 101.735 20.5859 101.475L21.3477 102.52C21.2695 102.786 21.1361 103.073 20.9473 103.379C20.7585 103.685 20.5111 103.978 20.2051 104.258C19.9056 104.531 19.5443 104.756 19.1211 104.932C18.7044 105.107 18.2227 105.195 17.6758 105.195C16.9857 105.195 16.3704 105.059 15.8301 104.785C15.2897 104.505 14.8665 104.131 14.5605 103.662C14.2546 103.187 14.1016 102.65 14.1016 102.051C14.1016 101.491 14.2057 100.996 14.4141 100.566C14.6289 100.13 14.9414 99.7656 15.3516 99.4727C15.7682 99.1797 16.276 98.9583 16.875 98.8086C17.474 98.6523 18.1576 98.5742 18.9258 98.5742H20.7715ZM49.4434 90.7813V92.7344H42.832V105H40.3906V90.7812L49.4434 90.7813ZM42.0898 96.2402H45.6641C46.7448 96.2402 47.6693 96.4225 48.4375 96.7871C49.2057 97.1452 49.7917 97.6497 50.1953 98.3008C50.599 98.9518 50.8008 99.7103 50.8008 100.576C50.8008 101.227 50.6868 101.823 50.459 102.363C50.2311 102.904 49.8958 103.372 49.4531 103.77C49.0104 104.16 48.4701 104.463 47.832 104.678C47.2005 104.893 46.4779 105 45.6641 105H40.3906V90.7812H42.8516V103.057H45.6641C46.2826 103.057 46.7904 102.943 47.1875 102.715C47.5846 102.48 47.8776 102.174 48.0664 101.797C48.2617 101.419 48.3594 101.006 48.3594 100.557C48.3594 100.12 48.2617 99.7233 48.0664 99.3652C47.8776 99.0072 47.5846 98.7207 47.1875 98.5059C46.7904 98.291 46.2826 98.1836 45.6641 98.1836H42.0898V96.2402ZM59.4043 89.8047H61.3086C61.3086 90.3841 61.2272 90.8626 61.0645 91.2402C60.9082 91.6113 60.6738 91.9173 60.3613 92.1582C60.0553 92.3926 59.6745 92.5814 59.2188 92.7246C58.7695 92.8678 58.2487 92.998 57.6562 93.1152C57.1094 93.2324 56.6146 93.418 56.1719 93.6719C55.7357 93.9193 55.3678 94.2676 55.0684 94.7168C54.7754 95.1595 54.5638 95.7292 54.4336 96.4258C54.3034 97.1224 54.2643 97.972 54.3164 98.9746V99.6387L52.4512 99.8047V99.1406C52.4512 97.8971 52.5651 96.8132 52.793 95.8887C53.0208 94.9642 53.3431 94.1862 53.7598 93.5547C54.1829 92.9167 54.6842 92.4089 55.2637 92.0313C55.8496 91.6536 56.5007 91.3932 57.2168 91.25C57.7051 91.1458 58.112 91.0417 58.4375 90.9375C58.763 90.8268 59.0039 90.6868 59.1602 90.5176C59.3229 90.3418 59.4043 90.1042 59.4043 89.8047ZM57.7539 95.0293C58.457 95.0293 59.082 95.153 59.6289 95.4004C60.1758 95.6413 60.638 95.9798 61.0156 96.416C61.3932 96.8522 61.6797 97.3665 61.875 97.959C62.0768 98.5514 62.1777 99.196 62.1777 99.8926V100.107C62.1777 100.837 62.0703 101.51 61.8555 102.129C61.6406 102.747 61.3249 103.288 60.9082 103.75C60.4915 104.206 59.9805 104.564 59.375 104.824C58.776 105.078 58.0892 105.205 57.3145 105.205C56.5462 105.205 55.8594 105.072 55.2539 104.805C54.6484 104.538 54.1374 104.167 53.7207 103.691C53.304 103.21 52.9883 102.646 52.7734 102.002C52.5586 101.357 52.4512 100.654 52.4512 99.8926V99.6777C52.4447 99.541 52.4805 99.4076 52.5586 99.2773C52.6432 99.1471 52.7441 99.0072 52.8613 98.8574C52.9785 98.7077 53.0827 98.5352 53.1738 98.3398C53.4993 97.6823 53.8835 97.1061 54.3262 96.6113C54.7689 96.1165 55.2734 95.7292 55.8398 95.4492C56.4128 95.1693 57.0508 95.0293 57.7539 95.0293ZM57.2949 96.8945C56.709 96.8945 56.2305 97.0345 55.8594 97.3145C55.4948 97.5879 55.2246 97.9525 55.0488 98.4082C54.8796 98.8639 54.7949 99.3587 54.7949 99.8926V100.107C54.7949 100.544 54.8438 100.957 54.9414 101.348C55.0391 101.738 55.1855 102.083 55.3809 102.383C55.5827 102.676 55.8431 102.907 56.1621 103.076C56.4876 103.245 56.8717 103.33 57.3145 103.33C57.7637 103.33 58.1445 103.245 58.457 103.076C58.776 102.907 59.0332 102.676 59.2285 102.383C59.4303 102.083 59.5768 101.738 59.668 101.348C59.7656 100.957 59.8145 100.544 59.8145 100.107V99.8926C59.8145 99.4889 59.7656 99.1081 59.668 98.75C59.5768 98.3919 59.4303 98.0762 59.2285 97.8027C59.0267 97.5228 58.7663 97.3014 58.4473 97.1387C58.1283 96.9759 57.7441 96.8945 57.2949 96.8945ZM84.5312 98.5742H80.9082L80.8887 96.7871H84.0527C84.5866 96.7871 85.0391 96.709 85.4102 96.5527C85.7878 96.39 86.0742 96.1589 86.2695 95.8594C86.4648 95.5534 86.5625 95.1855 86.5625 94.7559C86.5625 94.2806 86.4714 93.8932 86.2891 93.5938C86.1068 93.2943 85.8268 93.0762 85.4492 92.9395C85.0781 92.8027 84.6029 92.7344 84.0234 92.7344H81.6504V105H79.1992V90.7813H84.0234C84.8047 90.7813 85.5013 90.8561 86.1133 91.0059C86.7318 91.1556 87.2559 91.39 87.6855 91.709C88.1217 92.0215 88.4505 92.4186 88.6719 92.9004C88.8997 93.3822 89.0137 93.9551 89.0137 94.6191C89.0137 95.2051 88.8737 95.7422 88.5938 96.2305C88.3138 96.7122 87.9004 97.1061 87.3535 97.4121C86.8066 97.7181 86.1263 97.9004 85.3125 97.959L84.5312 98.5742ZM84.4238 105H80.1367L81.2402 103.057H84.4238C84.9772 103.057 85.4395 102.965 85.8105 102.783C86.1816 102.594 86.4583 102.337 86.6406 102.012C86.8294 101.68 86.9238 101.292 86.9238 100.85C86.9238 100.387 86.8424 99.987 86.6797 99.6484C86.5169 99.3034 86.2598 99.0397 85.9082 98.8574C85.5566 98.6686 85.0977 98.5742 84.5312 98.5742H81.7773L81.7969 96.7871H85.3809L85.9375 97.4609C86.7188 97.487 87.36 97.6595 87.8613 97.9785C88.3691 98.2975 88.7467 98.7109 88.9941 99.2188C89.2415 99.7266 89.3652 100.273 89.3652 100.859C89.3652 101.764 89.1667 102.523 88.7695 103.135C88.3789 103.747 87.8158 104.212 87.0801 104.531C86.3444 104.844 85.459 105 84.4238 105ZM96.7383 100.479H93.3594L93.3398 98.8184H96.1133C96.569 98.8184 96.9434 98.7728 97.2363 98.6816C97.5358 98.5905 97.7572 98.4538 97.9004 98.2715C98.0436 98.0827 98.1152 97.8548 98.1152 97.5879C98.1152 97.3665 98.0729 97.1745 97.9883 97.0117C97.9036 96.8424 97.7734 96.7057 97.5977 96.6016C97.4284 96.4909 97.2135 96.4128 96.9531 96.3672C96.6992 96.3151 96.403 96.2891 96.0645 96.2891H94.1406V105H91.7871V94.4336H96.0645C96.7415 94.4336 97.3503 94.4922 97.8906 94.6094C98.4375 94.7266 98.903 94.9056 99.2871 95.1465C99.6712 95.3874 99.9642 95.6934 100.166 96.0645C100.374 96.429 100.479 96.8587 100.479 97.3535C100.479 97.679 100.407 97.985 100.264 98.2715C100.127 98.5579 99.9219 98.8118 99.6484 99.0332C99.375 99.2546 99.0397 99.4368 98.6426 99.5801C98.2454 99.7168 97.7897 99.8014 97.2754 99.834L96.7383 100.479ZM96.7383 105H92.6758L93.6133 103.145H96.7383C97.1549 103.145 97.5 103.092 97.7734 102.988C98.0469 102.884 98.2487 102.734 98.3789 102.539C98.5156 102.337 98.584 102.1 98.584 101.826C98.584 101.546 98.5189 101.305 98.3887 101.104C98.2585 100.902 98.0566 100.749 97.7832 100.645C97.5163 100.534 97.168 100.479 96.7383 100.479H94.0527L94.0723 98.8184H97.2656L97.9395 99.4629C98.61 99.5085 99.1667 99.6517 99.6094 99.8926C100.052 100.133 100.384 100.436 100.605 100.801C100.827 101.165 100.938 101.563 100.938 101.992C100.938 102.487 100.843 102.923 100.654 103.301C100.472 103.678 100.199 103.994 99.834 104.248C99.4759 104.495 99.0365 104.684 98.5156 104.814C97.9948 104.938 97.4023 105 96.7383 105ZM127.236 90.7813V92.7344L120.635 92.7344V105H118.193V90.7813H127.236ZM134.18 94.4336V96.3086H129.57V105H127.217V94.4336H134.18ZM161.953 103.057V105H151.475V103.057H161.953ZM152.08 103.057V108.496H149.736L149.648 103.057H152.08ZM163.848 103.057L163.701 108.486H161.396V103.057H163.848ZM160.234 90.7813V92.7344H153.672V90.7813H160.234ZM162.109 90.7813V105H159.668V90.7813H162.109ZM153.184 90.7813H155.635L155.293 96.543C155.241 97.4544 155.146 98.2747 155.01 99.0039C154.873 99.7331 154.707 100.387 154.512 100.967C154.323 101.54 154.108 102.048 153.867 102.49C153.626 102.926 153.369 103.304 153.096 103.623C152.822 103.942 152.542 104.215 152.256 104.443C151.976 104.665 151.699 104.85 151.426 105H150.117V103.057H150.752C150.928 102.894 151.123 102.66 151.338 102.354C151.553 102.041 151.761 101.634 151.963 101.133C152.171 100.625 152.354 99.9967 152.51 99.248C152.666 98.4993 152.773 97.5977 152.832 96.543L153.184 90.7813ZM167.578 94.4336H169.932L169.814 98.1543C169.782 99.235 169.658 100.163 169.443 100.938C169.229 101.712 168.949 102.367 168.604 102.9C168.258 103.428 167.868 103.861 167.432 104.199C167.002 104.538 166.549 104.805 166.074 105H165.381V103.145L165.713 103.125C165.993 102.826 166.234 102.526 166.436 102.227C166.644 101.921 166.82 101.585 166.963 101.221C167.106 100.85 167.217 100.417 167.295 99.9219C167.38 99.4271 167.435 98.8379 167.461 98.1543L167.578 94.4336ZM168.203 94.4336H174.902V105H172.559V96.4258H168.203V94.4336ZM164.844 103.125H176.348V108.145H173.994V105H167.227V108.145H164.834L164.844 103.125ZM202.51 103.057V105H194.961V103.057H202.51ZM195.654 90.7813V105H193.203V90.7813H195.654ZM201.523 96.7188V98.6328H194.961V96.7188H201.523ZM202.461 90.7813V92.7344H194.961V90.7813H202.461ZM208.74 105.195C207.959 105.195 207.253 105.068 206.621 104.814C205.996 104.554 205.462 104.193 205.02 103.73C204.583 103.268 204.248 102.725 204.014 102.1C203.779 101.475 203.662 100.801 203.662 100.078V99.6875C203.662 98.8607 203.783 98.112 204.023 97.4414C204.264 96.7708 204.6 96.1979 205.029 95.7227C205.459 95.2409 205.967 94.873 206.553 94.6191C207.139 94.3652 207.773 94.2383 208.457 94.2383C209.212 94.2383 209.873 94.3652 210.439 94.6191C211.006 94.873 211.475 95.2311 211.846 95.6934C212.223 96.1491 212.503 96.6927 212.686 97.3242C212.874 97.9557 212.969 98.6523 212.969 99.4141V100.42H204.805V98.7305H210.645V98.5449C210.632 98.1217 210.547 97.7246 210.391 97.3535C210.241 96.9824 210.01 96.6829 209.697 96.4551C209.385 96.2272 208.968 96.1133 208.447 96.1133C208.057 96.1133 207.708 96.1979 207.402 96.3672C207.103 96.5299 206.852 96.7676 206.65 97.0801C206.449 97.3926 206.292 97.7702 206.182 98.2129C206.077 98.6491 206.025 99.1406 206.025 99.6875V100.078C206.025 100.54 206.087 100.97 206.211 101.367C206.341 101.758 206.53 102.1 206.777 102.393C207.025 102.686 207.324 102.917 207.676 103.086C208.027 103.249 208.428 103.33 208.877 103.33C209.443 103.33 209.948 103.216 210.391 102.988C210.833 102.76 211.217 102.438 211.543 102.021L212.783 103.223C212.555 103.555 212.259 103.874 211.895 104.18C211.53 104.479 211.084 104.723 210.557 104.912C210.036 105.101 209.43 105.195 208.74 105.195ZM239.287 103.057V105L231.738 105V103.057L239.287 103.057ZM232.432 90.7813V105L229.98 105V90.7813H232.432ZM238.301 96.7188V98.6328H231.738V96.7188H238.301ZM239.238 90.7813V92.7344H231.738V90.7813H239.238ZM231.201 88.5254C231.201 88.2064 231.312 87.9395 231.533 87.7246C231.755 87.5033 232.048 87.3926 232.412 87.3926C232.783 87.3926 233.079 87.5033 233.301 87.7246C233.522 87.9395 233.633 88.2064 233.633 88.5254C233.633 88.8379 233.522 89.1048 233.301 89.3262C233.079 89.541 232.783 89.6484 232.412 89.6484C232.048 89.6484 231.755 89.541 231.533 89.3262C231.312 89.1048 231.201 88.8379 231.201 88.5254ZM235.723 88.5352C235.723 88.2161 235.833 87.9492 236.055 87.7344C236.276 87.513 236.572 87.4023 236.943 87.4023C237.308 87.4023 237.601 87.513 237.822 87.7344C238.05 87.9492 238.164 88.2161 238.164 88.5352C238.164 88.8477 238.05 89.1146 237.822 89.3359C237.601 89.5508 237.308 89.6582 236.943 89.6582C236.572 89.6582 236.276 89.5508 236.055 89.3359C235.833 89.1146 235.723 88.8477 235.723 88.5352ZM245.518 105.195C244.736 105.195 244.03 105.068 243.398 104.814C242.773 104.554 242.24 104.193 241.797 103.73C241.361 103.268 241.025 102.725 240.791 102.1C240.557 101.475 240.439 100.801 240.439 100.078V99.6875C240.439 98.8607 240.56 98.112 240.801 97.4414C241.042 96.7708 241.377 96.1979 241.807 95.7227C242.236 95.2409 242.744 94.873 243.33 94.6191C243.916 94.3652 244.551 94.2383 245.234 94.2383C245.99 94.2383 246.65 94.3652 247.217 94.6191C247.783 94.873 248.252 95.2311 248.623 95.6934C249.001 96.1491 249.281 96.6927 249.463 97.3242C249.652 97.9557 249.746 98.6523 249.746 99.4141V100.42H241.582V98.7305H247.422V98.5449C247.409 98.1217 247.324 97.7246 247.168 97.3535C247.018 96.9824 246.787 96.6829 246.475 96.4551C246.162 96.2272 245.745 96.1133 245.225 96.1133C244.834 96.1133 244.486 96.1979 244.18 96.3672C243.88 96.5299 243.63 96.7676 243.428 97.0801C243.226 97.3926 243.07 97.7702 242.959 98.2129C242.855 98.6491 242.803 99.1406 242.803 99.6875V100.078C242.803 100.54 242.865 100.97 242.988 101.367C243.118 101.758 243.307 102.1 243.555 102.393C243.802 102.686 244.102 102.917 244.453 103.086C244.805 103.249 245.205 103.33 245.654 103.33C246.221 103.33 246.725 103.216 247.168 102.988C247.611 102.76 247.995 102.438 248.32 102.021L249.561 103.223C249.333 103.555 249.036 103.874 248.672 104.18C248.307 104.479 247.861 104.723 247.334 104.912C246.813 105.101 246.208 105.195 245.518 105.195ZM241.582 91.6309C241.582 91.3118 241.693 91.0449 241.914 90.8301C242.135 90.6087 242.428 90.498 242.793 90.498C243.164 90.498 243.46 90.6087 243.682 90.8301C243.903 91.0449 244.014 91.3118 244.014 91.6309C244.014 91.9434 243.903 92.2103 243.682 92.4316C243.46 92.6465 243.164 92.7539 242.793 92.7539C242.428 92.7539 242.135 92.6465 241.914 92.4316C241.693 92.2103 241.582 91.9434 241.582 91.6309ZM246.104 91.6406C246.104 91.3216 246.214 91.0547 246.436 90.8398C246.657 90.6185 246.953 90.5078 247.324 90.5078C247.689 90.5078 247.982 90.6185 248.203 90.8398C248.431 91.0547 248.545 91.3216 248.545 91.6406C248.545 91.9531 248.431 92.2201 248.203 92.4414C247.982 92.6563 247.689 92.7637 247.324 92.7637C246.953 92.7637 246.657 92.6563 246.436 92.4414C246.214 92.2201 246.104 91.9531 246.104 91.6406ZM276.055 98.8477L270.791 90.7813H273.77L277.236 96.7285H279.795L279.453 98.8477H276.055ZM277.275 98.5352L273.545 105H270.498L275.449 96.875L277.275 98.5352ZM281.211 90.7813V105H278.77V90.7813H281.211ZM289.092 90.7813L283.867 98.8477H280.518L280.176 96.7285H282.686L286.104 90.7813H289.092ZM286.328 105L282.656 98.5352L284.492 96.875L289.375 105H286.328ZM294.17 100.732L289.951 94.4336H292.842L295.303 98.5938H297.363L297.061 100.732H294.17ZM295.361 100.391L292.656 105H289.766L293.594 99.0527L295.361 100.391ZM298.779 94.4336V105L296.436 105V94.4336H298.779ZM305.293 94.4336L301.074 100.732L298.174 100.732L297.861 98.5938H299.932L302.393 94.4336L305.293 94.4336ZM302.578 105L299.863 100.391L301.689 99.0527L305.498 105H302.578ZM322.061 98.1836H320.088V96.7871H321.787C322.393 96.7871 322.884 96.6992 323.262 96.5234C323.639 96.3411 323.913 96.0905 324.082 95.7715C324.258 95.446 324.346 95.0684 324.346 94.6387C324.346 94.2546 324.248 93.903 324.053 93.584C323.864 93.265 323.571 93.0111 323.174 92.8223C322.777 92.627 322.266 92.5293 321.641 92.5293C321.172 92.5293 320.745 92.6139 320.361 92.7832C319.977 92.9525 319.671 93.1901 319.443 93.4961C319.222 93.8021 319.111 94.1634 319.111 94.5801H316.66C316.66 93.9616 316.79 93.4082 317.051 92.9199C317.318 92.4251 317.679 92.0052 318.135 91.6602C318.597 91.3151 319.128 91.0514 319.727 90.8691C320.332 90.6803 320.97 90.5859 321.641 90.5859C322.422 90.5859 323.128 90.6738 323.76 90.8496C324.391 91.0189 324.935 91.2728 325.391 91.6113C325.846 91.9499 326.195 92.373 326.436 92.8809C326.676 93.3822 326.797 93.9648 326.797 94.6289C326.797 95.1172 326.683 95.5762 326.455 96.0059C326.234 96.4355 325.915 96.8132 325.498 97.1387C325.081 97.4642 324.58 97.7214 323.994 97.9102C323.415 98.0924 322.77 98.1836 322.061 98.1836ZM320.088 97.334H322.061C322.848 97.334 323.548 97.4154 324.16 97.5781C324.772 97.7409 325.29 97.9785 325.713 98.291C326.136 98.6035 326.458 98.9909 326.68 99.4531C326.901 99.9089 327.012 100.433 327.012 101.025C327.012 101.689 326.878 102.282 326.611 102.803C326.351 103.317 325.98 103.753 325.498 104.111C325.016 104.469 324.447 104.74 323.789 104.922C323.138 105.104 322.422 105.195 321.641 105.195C321.009 105.195 320.384 105.117 319.766 104.961C319.154 104.798 318.597 104.551 318.096 104.219C317.601 103.88 317.204 103.451 316.904 102.93C316.605 102.409 316.455 101.784 316.455 101.055H318.916C318.916 101.458 319.03 101.829 319.258 102.168C319.492 102.5 319.811 102.767 320.215 102.969C320.625 103.164 321.1 103.262 321.641 103.262C322.259 103.262 322.783 103.164 323.213 102.969C323.649 102.773 323.981 102.507 324.209 102.168C324.443 101.829 324.561 101.449 324.561 101.025C324.561 100.622 324.499 100.273 324.375 99.9805C324.258 99.681 324.082 99.4401 323.848 99.2578C323.613 99.069 323.324 98.929 322.979 98.8379C322.633 98.7467 322.236 98.7012 321.787 98.7012H320.088V97.334ZM333.477 99.9512H331.445V98.7598H333.086C333.503 98.7598 333.835 98.7044 334.082 98.5938C334.336 98.4831 334.515 98.3301 334.619 98.1348C334.73 97.9329 334.785 97.6986 334.785 97.4316C334.785 97.1973 334.73 96.9759 334.619 96.7676C334.515 96.5527 334.336 96.377 334.082 96.2402C333.828 96.1035 333.483 96.0352 333.047 96.0352C332.689 96.0352 332.367 96.0938 332.08 96.2109C331.8 96.3281 331.579 96.4909 331.416 96.6992C331.253 96.9076 331.172 97.1484 331.172 97.4219H328.818C328.818 96.7643 329.004 96.1979 329.375 95.7227C329.753 95.2474 330.257 94.8828 330.889 94.6289C331.52 94.375 332.214 94.248 332.969 94.248C333.613 94.248 334.193 94.3164 334.707 94.4531C335.221 94.5833 335.658 94.7786 336.016 95.0391C336.38 95.293 336.657 95.612 336.846 95.9961C337.041 96.3737 337.139 96.8132 337.139 97.3145C337.139 97.6725 337.054 98.0111 336.885 98.3301C336.715 98.6491 336.471 98.9323 336.152 99.1797C335.833 99.4206 335.446 99.6094 334.99 99.7461C334.541 99.8828 334.036 99.9512 333.477 99.9512ZM331.445 99.2676H333.477C334.102 99.2676 334.655 99.3294 335.137 99.4531C335.618 99.5703 336.022 99.7461 336.348 99.9805C336.673 100.215 336.917 100.505 337.08 100.85C337.249 101.188 337.334 101.579 337.334 102.021C337.334 102.516 337.227 102.962 337.012 103.359C336.803 103.75 336.504 104.082 336.113 104.355C335.729 104.629 335.27 104.837 334.736 104.98C334.202 105.124 333.613 105.195 332.969 105.195C332.266 105.195 331.582 105.078 330.918 104.844C330.26 104.609 329.717 104.248 329.287 103.76C328.864 103.265 328.652 102.637 328.652 101.875H331.006C331.006 102.142 331.087 102.393 331.25 102.627C331.413 102.861 331.647 103.053 331.953 103.203C332.259 103.346 332.627 103.418 333.057 103.418C333.499 103.418 333.861 103.35 334.141 103.213C334.421 103.07 334.629 102.884 334.766 102.656C334.902 102.422 334.971 102.174 334.971 101.914C334.971 101.563 334.902 101.279 334.766 101.064C334.629 100.85 334.421 100.693 334.141 100.596C333.861 100.492 333.509 100.439 333.086 100.439H331.445V99.2676ZM356.934 101.006L363.242 90.7813H365.693V105H363.242V94.7656L356.934 105H354.492V90.7813H356.934V101.006ZM370.83 101.563L374.98 94.4336H377.334V105H374.98V97.8613L370.83 105H368.477V94.4336H370.83V101.563ZM397.422 101.006L403.73 90.7813H406.182V105H403.73V94.7656L397.422 105H394.98V90.7813H397.422V101.006ZM402.041 87.1387H403.789C403.789 87.679 403.659 88.1576 403.398 88.5742C403.145 88.9844 402.78 89.3066 402.305 89.541C401.836 89.7754 401.276 89.8926 400.625 89.8926C399.642 89.8926 398.864 89.6387 398.291 89.1309C397.725 88.6165 397.441 87.9525 397.441 87.1387H399.189C399.189 87.5033 399.297 87.8255 399.512 88.1055C399.733 88.3789 400.104 88.5156 400.625 88.5156C401.139 88.5156 401.504 88.3789 401.719 88.1055C401.934 87.8255 402.041 87.5033 402.041 87.1387ZM411.318 101.563L415.469 94.4336H417.822V105H415.469V97.8613L411.318 105H408.965V94.4336H411.318V101.563ZM414.844 90.3711H416.592C416.592 90.9115 416.462 91.39 416.201 91.8066C415.947 92.2168 415.583 92.5391 415.107 92.7734C414.639 93.0078 414.079 93.125 413.428 93.125C412.445 93.125 411.667 92.8711 411.094 92.3633C410.527 91.849 410.244 91.1849 410.244 90.3711H411.992C411.992 90.7357 412.1 91.0579 412.314 91.3379C412.536 91.6113 412.907 91.748 413.428 91.748C413.942 91.748 414.307 91.6113 414.521 91.3379C414.736 91.0579 414.844 90.7357 414.844 90.3711ZM437.979 90.7813V105H435.537V90.7813H437.979ZM446.533 90.7813L440.752 98.8867H437.285L436.953 96.7578H439.395L443.535 90.7813H446.533ZM444.033 105L439.434 98.5156L441.016 96.6309L446.973 105H444.033ZM450.527 94.4336V105H448.174V94.4336H450.527ZM457.422 94.4336L452.666 100.791H449.98L449.668 98.6621H451.631L454.482 94.4336H457.422ZM454.668 105L451.484 100.391L453.34 99.0527L457.764 105H454.668ZM478.564 90.7813V92.7344H471.748V90.7813H478.564ZM480.439 90.7813V105H477.988V90.7813H480.439ZM471.26 90.7813H473.691L473.35 97.8418C473.304 98.877 473.216 99.7884 473.086 100.576C472.956 101.364 472.78 102.038 472.559 102.598C472.337 103.158 472.057 103.617 471.719 103.975C471.38 104.326 470.973 104.587 470.498 104.756C470.029 104.919 469.479 105 468.848 105H468.223V103.057L468.604 103.027C468.949 103.001 469.245 102.92 469.492 102.783C469.746 102.64 469.961 102.432 470.137 102.158C470.312 101.878 470.459 101.517 470.576 101.074C470.693 100.632 470.785 100.091 470.85 99.4531C470.921 98.8151 470.973 98.0697 471.006 97.2168L471.26 90.7813ZM490.42 94.4336V96.3086H485.264V94.4336H490.42ZM492.266 94.4336V105H489.912V94.4336H492.266ZM484.688 94.4336H487.012L486.729 99.6582C486.689 100.433 486.611 101.117 486.494 101.709C486.383 102.295 486.234 102.799 486.045 103.223C485.856 103.639 485.625 103.978 485.352 104.238C485.078 104.499 484.759 104.691 484.395 104.814C484.03 104.938 483.62 105 483.164 105H482.432L482.422 103.066L482.793 103.037C483.034 103.018 483.242 102.956 483.418 102.852C483.594 102.741 483.743 102.585 483.867 102.383C483.997 102.181 484.102 101.921 484.18 101.602C484.264 101.283 484.329 100.905 484.375 100.469C484.427 100.033 484.466 99.5247 484.492 98.9453L484.688 94.4336ZM2.44141 120.781H4.62891L8.74023 131.748L12.8418 120.781H15.0293L9.59961 135H7.86133L2.44141 120.781ZM1.44531 120.781H3.52539L3.88672 130.273L3.88672 135H1.44531L1.44531 120.781ZM13.9453 120.781H16.0352V135H13.584L13.584 130.273L13.9453 120.781ZM24.9902 132.148L28.1348 124.434H30.1758L25.791 135H24.1895L19.8145 124.434H21.8555L24.9902 132.148ZM21.25 124.434V135H18.8965V124.434H21.25ZM28.7305 135V124.434H31.0937V135H28.7305ZM63.2812 126.719V128.662H55.7324V126.719H63.2812ZM56.3379 120.781V135H53.8867V120.781H56.3379ZM65.166 120.781L65.166 135H62.7246V120.781H65.166ZM75.0684 128.848V130.703H69.5996V128.848H75.0684ZM70.2832 124.434L70.2832 135H67.9297L67.9297 124.434H70.2832ZM76.7676 124.434L76.7676 135H74.4141L74.4141 124.434H76.7676ZM105.791 127.5V128.281C105.791 129.355 105.651 130.319 105.371 131.172C105.091 132.025 104.691 132.751 104.17 133.35C103.656 133.949 103.037 134.408 102.314 134.727C101.592 135.039 100.791 135.195 99.9121 135.195C99.0397 135.195 98.2422 135.039 97.5195 134.727C96.8034 134.408 96.1816 133.949 95.6543 133.35C95.127 132.751 94.7168 132.025 94.4238 131.172C94.1374 130.319 93.9941 129.355 93.9941 128.281V127.5C93.9941 126.426 94.1374 125.465 94.4238 124.619C94.7103 123.766 95.1139 123.04 95.6348 122.441C96.1621 121.836 96.7839 121.377 97.5 121.064C98.2227 120.745 99.0202 120.586 99.8926 120.586C100.771 120.586 101.572 120.745 102.295 121.064C103.018 121.377 103.639 121.836 104.16 122.441C104.681 123.04 105.081 123.766 105.361 124.619C105.648 125.465 105.791 126.426 105.791 127.5ZM103.34 128.281V127.48C103.34 126.686 103.262 125.986 103.105 125.381C102.956 124.769 102.731 124.258 102.432 123.848C102.139 123.431 101.777 123.118 101.348 122.91C100.918 122.695 100.433 122.588 99.8926 122.588C99.3522 122.588 98.8704 122.695 98.4473 122.91C98.0241 123.118 97.6628 123.431 97.3633 123.848C97.0703 124.258 96.8457 124.769 96.6895 125.381C96.5332 125.986 96.4551 126.686 96.4551 127.48V128.281C96.4551 129.076 96.5332 129.779 96.6895 130.391C96.8457 131.003 97.0736 131.52 97.373 131.943C97.679 132.36 98.0436 132.676 98.4668 132.891C98.89 133.099 99.3717 133.203 99.9121 133.203C100.459 133.203 100.944 133.099 101.367 132.891C101.79 132.676 102.148 132.36 102.441 131.943C102.734 131.52 102.956 131.003 103.105 130.391C103.262 129.779 103.34 129.076 103.34 128.281ZM107.559 129.834V129.609C107.559 128.848 107.669 128.141 107.891 127.49C108.112 126.833 108.431 126.263 108.848 125.781C109.271 125.293 109.785 124.915 110.391 124.648C111.003 124.375 111.693 124.238 112.461 124.238C113.236 124.238 113.926 124.375 114.531 124.648C115.143 124.915 115.661 125.293 116.084 125.781C116.507 126.263 116.829 126.833 117.051 127.49C117.272 128.141 117.383 128.848 117.383 129.609V129.834C117.383 130.596 117.272 131.302 117.051 131.953C116.829 132.604 116.507 133.174 116.084 133.662C115.661 134.144 115.146 134.521 114.541 134.795C113.936 135.062 113.249 135.195 112.48 135.195C111.706 135.195 111.012 135.062 110.4 134.795C109.795 134.521 109.281 134.144 108.857 133.662C108.434 133.174 108.112 132.604 107.891 131.953C107.669 131.302 107.559 130.596 107.559 129.834ZM109.912 129.609V129.834C109.912 130.309 109.961 130.758 110.059 131.182C110.156 131.605 110.309 131.976 110.518 132.295C110.726 132.614 110.993 132.865 111.318 133.047C111.644 133.229 112.031 133.32 112.48 133.32C112.917 133.32 113.294 133.229 113.613 133.047C113.939 132.865 114.206 132.614 114.414 132.295C114.622 131.976 114.775 131.605 114.873 131.182C114.977 130.758 115.029 130.309 115.029 129.834V129.609C115.029 129.141 114.977 128.698 114.873 128.281C114.775 127.858 114.619 127.484 114.404 127.158C114.196 126.833 113.929 126.579 113.604 126.396C113.285 126.208 112.904 126.113 112.461 126.113C112.018 126.113 111.634 126.208 111.309 126.396C110.99 126.579 110.726 126.833 110.518 127.158C110.309 127.484 110.156 127.858 110.059 128.281C109.961 128.698 109.912 129.141 109.912 129.609ZM145.781 120.781V135H143.34V122.734H137.021V135H134.58V120.781H145.781ZM155.586 124.434V126.309H150.371V124.434H155.586ZM150.928 124.434V135H148.574V124.434H150.928ZM157.432 124.434V135H155.068V124.434H157.432ZM180.498 129.697H176.797V127.754H180.498C181.143 127.754 181.663 127.65 182.061 127.441C182.458 127.233 182.747 126.947 182.93 126.582C183.118 126.211 183.213 125.788 183.213 125.313C183.213 124.863 183.118 124.443 182.93 124.053C182.747 123.656 182.458 123.337 182.061 123.096C181.663 122.855 181.143 122.734 180.498 122.734H177.549V135H175.098V120.781H180.498C181.598 120.781 182.533 120.977 183.301 121.367C184.076 121.751 184.665 122.285 185.068 122.969C185.472 123.646 185.674 124.421 185.674 125.293C185.674 126.211 185.472 126.999 185.068 127.656C184.665 128.314 184.076 128.818 183.301 129.17C182.533 129.521 181.598 129.697 180.498 129.697ZM190 126.465V139.063H187.646V124.434H189.814L190 126.465ZM196.885 129.619V129.824C196.885 130.592 196.794 131.305 196.611 131.963C196.436 132.614 196.172 133.184 195.82 133.672C195.475 134.154 195.049 134.528 194.541 134.795C194.033 135.062 193.447 135.195 192.783 135.195C192.126 135.195 191.549 135.075 191.055 134.834C190.566 134.587 190.153 134.238 189.814 133.789C189.476 133.34 189.202 132.813 188.994 132.207C188.792 131.595 188.649 130.924 188.564 130.195V129.404C188.649 128.63 188.792 127.926 188.994 127.295C189.202 126.663 189.476 126.12 189.814 125.664C190.153 125.208 190.566 124.857 191.055 124.609C191.543 124.362 192.113 124.238 192.764 124.238C193.428 124.238 194.017 124.368 194.531 124.629C195.046 124.883 195.479 125.247 195.83 125.723C196.182 126.191 196.445 126.758 196.621 127.422C196.797 128.079 196.885 128.812 196.885 129.619ZM194.531 129.824V129.619C194.531 129.131 194.486 128.678 194.395 128.262C194.303 127.839 194.16 127.467 193.965 127.148C193.77 126.829 193.519 126.582 193.213 126.406C192.913 126.224 192.552 126.133 192.129 126.133C191.712 126.133 191.354 126.204 191.055 126.348C190.755 126.484 190.505 126.676 190.303 126.924C190.101 127.171 189.945 127.461 189.834 127.793C189.723 128.118 189.645 128.473 189.6 128.857V130.752C189.678 131.221 189.811 131.65 190 132.041C190.189 132.432 190.456 132.744 190.801 132.979C191.152 133.206 191.602 133.32 192.148 133.32C192.572 133.32 192.933 133.229 193.232 133.047C193.532 132.865 193.776 132.614 193.965 132.295C194.16 131.969 194.303 131.595 194.395 131.172C194.486 130.749 194.531 130.299 194.531 129.824ZM222.461 130.371H224.902C224.824 131.302 224.564 132.132 224.121 132.861C223.678 133.584 223.057 134.154 222.256 134.57C221.455 134.987 220.482 135.195 219.336 135.195C218.457 135.195 217.666 135.039 216.963 134.727C216.26 134.408 215.658 133.958 215.156 133.379C214.655 132.793 214.271 132.087 214.004 131.26C213.743 130.433 213.613 129.508 213.613 128.486V127.305C213.613 126.283 213.747 125.358 214.014 124.531C214.287 123.704 214.678 122.998 215.186 122.412C215.693 121.82 216.302 121.367 217.012 121.055C217.728 120.742 218.532 120.586 219.424 120.586C220.557 120.586 221.514 120.794 222.295 121.211C223.076 121.628 223.682 122.204 224.111 122.939C224.548 123.675 224.814 124.518 224.912 125.469H222.471C222.406 124.857 222.262 124.333 222.041 123.896C221.826 123.46 221.507 123.128 221.084 122.9C220.661 122.666 220.107 122.549 219.424 122.549C218.864 122.549 218.376 122.653 217.959 122.861C217.542 123.07 217.194 123.376 216.914 123.779C216.634 124.183 216.423 124.681 216.279 125.273C216.143 125.859 216.074 126.53 216.074 127.285V128.486C216.074 129.202 216.136 129.854 216.26 130.439C216.39 131.019 216.585 131.517 216.846 131.934C217.113 132.35 217.451 132.673 217.861 132.9C218.271 133.128 218.763 133.242 219.336 133.242C220.033 133.242 220.596 133.132 221.025 132.91C221.462 132.689 221.79 132.367 222.012 131.943C222.24 131.514 222.389 130.99 222.461 130.371ZM231.211 133.32C231.595 133.32 231.94 133.245 232.246 133.096C232.559 132.939 232.809 132.725 232.998 132.451C233.193 132.178 233.301 131.862 233.32 131.504H235.537C235.524 132.188 235.322 132.809 234.932 133.369C234.541 133.929 234.023 134.375 233.379 134.707C232.734 135.033 232.021 135.195 231.24 135.195C230.433 135.195 229.73 135.059 229.131 134.785C228.532 134.505 228.034 134.121 227.637 133.633C227.24 133.145 226.94 132.581 226.738 131.943C226.543 131.305 226.445 130.622 226.445 129.893V129.551C226.445 128.822 226.543 128.138 226.738 127.5C226.94 126.855 227.24 126.289 227.637 125.801C228.034 125.313 228.532 124.932 229.131 124.658C229.73 124.378 230.43 124.238 231.23 124.238C232.077 124.238 232.819 124.408 233.457 124.746C234.095 125.078 234.596 125.544 234.961 126.143C235.332 126.735 235.524 127.425 235.537 128.213H233.32C233.301 127.822 233.203 127.471 233.027 127.158C232.858 126.839 232.617 126.585 232.305 126.396C231.999 126.208 231.631 126.113 231.201 126.113C230.726 126.113 230.332 126.211 230.02 126.406C229.707 126.595 229.463 126.855 229.287 127.188C229.111 127.513 228.984 127.881 228.906 128.291C228.835 128.695 228.799 129.115 228.799 129.551V129.893C228.799 130.329 228.835 130.752 228.906 131.162C228.978 131.572 229.102 131.94 229.277 132.266C229.46 132.585 229.707 132.842 230.02 133.037C230.332 133.226 230.729 133.32 231.211 133.32ZM257.9 120.781V135H255.469V120.781H257.9ZM262.363 120.781V122.734H251.045V120.781H262.363ZM268.145 124.434V135H265.781V124.434H268.145ZM271.611 124.434V126.289H262.373V124.434H271.611ZM292.793 130.049L296.406 120.781H299.111L294.17 132.422C294.014 132.78 293.835 133.128 293.633 133.467C293.438 133.799 293.2 134.095 292.92 134.355C292.64 134.616 292.301 134.824 291.904 134.98C291.507 135.13 291.025 135.205 290.459 135.205C290.309 135.205 290.127 135.199 289.912 135.186C289.704 135.173 289.551 135.16 289.453 135.146L289.473 133.223C289.551 133.236 289.681 133.245 289.863 133.252C290.052 133.258 290.189 133.262 290.273 133.262C290.651 133.262 290.951 133.2 291.172 133.076C291.393 132.946 291.569 132.773 291.699 132.559C291.836 132.337 291.956 132.096 292.061 131.836L292.793 130.049ZM290.078 120.781L293.652 128.652L294.355 131.211L292.451 131.279L287.402 120.781H290.078ZM303.809 133.848L306.68 124.434H309.199L304.961 136.611C304.863 136.872 304.736 137.155 304.58 137.461C304.424 137.767 304.219 138.057 303.965 138.33C303.717 138.61 303.408 138.835 303.037 139.004C302.666 139.18 302.217 139.268 301.689 139.268C301.481 139.268 301.279 139.248 301.084 139.209C300.895 139.176 300.716 139.141 300.547 139.102L300.537 137.305C300.602 137.311 300.68 137.318 300.771 137.324C300.869 137.331 300.947 137.334 301.006 137.334C301.396 137.334 301.722 137.285 301.982 137.188C302.243 137.096 302.454 136.947 302.617 136.738C302.786 136.53 302.93 136.25 303.047 135.898L303.809 133.848ZM302.188 124.434L304.697 132.344L305.117 134.824L303.486 135.244L299.648 124.434H302.188ZM335.859 122.119H338.652C339.492 122.119 340.264 122.259 340.967 122.539C341.676 122.819 342.295 123.216 342.822 123.73C343.35 124.238 343.76 124.85 344.053 125.566C344.346 126.276 344.492 127.067 344.492 127.939C344.492 128.799 344.346 129.583 344.053 130.293C343.76 131.003 343.35 131.615 342.822 132.129C342.295 132.637 341.676 133.027 340.967 133.301C340.264 133.574 339.492 133.711 338.652 133.711H335.859C335.026 133.711 334.255 133.574 333.545 133.301C332.835 133.027 332.214 132.637 331.68 132.129C331.152 131.621 330.742 131.016 330.449 130.313C330.163 129.603 330.02 128.818 330.02 127.959C330.02 127.087 330.163 126.296 330.449 125.586C330.742 124.87 331.152 124.255 331.68 123.74C332.214 123.219 332.835 122.819 333.545 122.539C334.255 122.259 335.026 122.119 335.859 122.119ZM335.859 124.072C335.13 124.072 334.502 124.229 333.975 124.541C333.447 124.847 333.04 125.29 332.754 125.869C332.474 126.449 332.334 127.145 332.334 127.959C332.334 128.558 332.415 129.092 332.578 129.561C332.741 130.029 332.975 130.426 333.281 130.752C333.587 131.077 333.958 131.328 334.395 131.504C334.831 131.68 335.319 131.768 335.859 131.768H338.672C339.395 131.768 340.016 131.615 340.537 131.309C341.058 130.996 341.458 130.553 341.738 129.98C342.025 129.408 342.168 128.727 342.168 127.939C342.168 127.334 342.087 126.794 341.924 126.318C341.768 125.837 341.536 125.43 341.23 125.098C340.931 124.766 340.566 124.512 340.137 124.336C339.707 124.16 339.219 124.072 338.672 124.072H335.859ZM338.438 120.195V135.586H336.084V120.195H338.438ZM358.955 129.844V130.049C358.955 130.798 358.87 131.488 358.701 132.119C358.538 132.744 358.294 133.288 357.969 133.75C357.643 134.212 357.24 134.57 356.758 134.824C356.283 135.078 355.729 135.205 355.098 135.205C354.544 135.205 354.062 135.111 353.652 134.922C353.242 134.733 352.897 134.469 352.617 134.131C352.337 133.786 352.113 133.382 351.943 132.92C351.774 132.451 351.65 131.937 351.572 131.377V128.32C351.65 127.721 351.771 127.174 351.934 126.68C352.103 126.178 352.327 125.745 352.607 125.381C352.894 125.016 353.239 124.736 353.643 124.541C354.046 124.339 354.525 124.238 355.078 124.238C355.586 124.238 356.045 124.329 356.455 124.512C356.865 124.688 357.227 124.941 357.539 125.273C357.852 125.599 358.112 125.993 358.32 126.455C358.529 126.911 358.685 127.425 358.789 127.998C358.9 128.571 358.955 129.186 358.955 129.844ZM356.602 130.049V129.844C356.602 129.434 356.576 129.043 356.523 128.672C356.471 128.301 356.39 127.962 356.279 127.656C356.175 127.344 356.038 127.074 355.869 126.846C355.7 126.611 355.495 126.432 355.254 126.309C355.02 126.178 354.746 126.113 354.434 126.113C354.01 126.113 353.659 126.185 353.379 126.328C353.105 126.465 352.897 126.66 352.754 126.914C352.617 127.161 352.529 127.448 352.49 127.773V131.934C352.536 132.207 352.63 132.448 352.773 132.656C352.923 132.865 353.135 133.031 353.408 133.154C353.682 133.271 354.03 133.33 354.453 133.33C354.844 133.33 355.173 133.249 355.439 133.086C355.713 132.917 355.934 132.682 356.104 132.383C356.279 132.083 356.406 131.735 356.484 131.338C356.562 130.941 356.602 130.511 356.602 130.049ZM346.006 130.049V129.844C346.006 129.186 346.058 128.571 346.162 127.998C346.266 127.425 346.423 126.911 346.631 126.455C346.846 125.993 347.109 125.599 347.422 125.273C347.734 124.941 348.096 124.688 348.506 124.512C348.916 124.329 349.375 124.238 349.883 124.238C350.43 124.238 350.902 124.339 351.299 124.541C351.696 124.736 352.031 125.016 352.305 125.381C352.585 125.745 352.806 126.178 352.969 126.68C353.138 127.174 353.262 127.721 353.34 128.32V131.26C353.268 131.833 353.148 132.36 352.979 132.842C352.809 133.324 352.588 133.74 352.314 134.092C352.041 134.443 351.702 134.717 351.299 134.912C350.895 135.107 350.417 135.205 349.863 135.205C349.238 135.205 348.685 135.078 348.203 134.824C347.721 134.57 347.318 134.212 346.992 133.75C346.667 133.288 346.419 132.744 346.25 132.119C346.087 131.488 346.006 130.798 346.006 130.049ZM348.359 129.844V130.049C348.359 130.511 348.395 130.941 348.467 131.338C348.545 131.735 348.665 132.083 348.828 132.383C348.991 132.676 349.206 132.907 349.473 133.076C349.74 133.245 350.068 133.33 350.459 133.33C350.889 133.33 351.24 133.265 351.514 133.135C351.787 133.005 351.995 132.826 352.139 132.598C352.288 132.37 352.386 132.109 352.432 131.816V127.773C352.393 127.448 352.301 127.161 352.158 126.914C352.015 126.66 351.807 126.465 351.533 126.328C351.26 126.185 350.908 126.113 350.479 126.113C350.088 126.113 349.756 126.211 349.482 126.406C349.215 126.602 348.997 126.872 348.828 127.217C348.665 127.555 348.545 127.952 348.467 128.408C348.395 128.857 348.359 129.336 348.359 129.844ZM351.25 139.063V120H353.613V139.063H351.25ZM378.018 120.781L381.035 125.967L384.053 120.781H386.875L382.578 127.822L386.982 135H384.131L381.035 129.717L377.939 135H375.078L379.492 127.822L375.186 120.781H378.018ZM390.352 124.434L392.363 127.939L394.414 124.434H397.002L393.799 129.619L397.129 135H394.541L392.393 131.348L390.244 135H387.646L390.967 129.619L387.773 124.434H390.352ZM426.689 133.037L426.504 138.428H424.248V135H422.979V133.037H426.689ZM413.73 135V120.781H416.191V133.057H422.49V120.781H424.951V135H413.73ZM428.555 135V124.434H430.908V133.125H435.049V124.434H437.412V135H428.555ZM438.848 133.135L438.662 138.135H436.504V135H435.234V133.135H438.848ZM455.654 120.781H458.105V125.186C458.105 125.856 458.206 126.383 458.408 126.768C458.61 127.145 458.916 127.412 459.326 127.568C459.743 127.725 460.26 127.803 460.879 127.803C461.178 127.803 461.494 127.79 461.826 127.764C462.158 127.738 462.49 127.702 462.822 127.656C463.161 127.604 463.486 127.546 463.799 127.48C464.111 127.409 464.398 127.331 464.658 127.246V129.189C464.404 129.268 464.124 129.342 463.818 129.414C463.519 129.486 463.206 129.548 462.881 129.6C462.555 129.645 462.223 129.681 461.885 129.707C461.546 129.733 461.211 129.746 460.879 129.746C459.805 129.746 458.877 129.593 458.096 129.287C457.314 128.975 456.712 128.483 456.289 127.813C455.866 127.142 455.654 126.266 455.654 125.186V120.781ZM464.102 120.781H466.553V135H464.102V120.781ZM477.471 124.434V135H475.117V124.434H477.471ZM476.475 129.111V130.977C476.188 131.1 475.866 131.214 475.508 131.318C475.156 131.416 474.785 131.497 474.395 131.563C474.004 131.621 473.61 131.65 473.213 131.65C472.282 131.65 471.478 131.507 470.801 131.221C470.13 130.934 469.613 130.495 469.248 129.902C468.89 129.303 468.711 128.545 468.711 127.627V124.424H471.055V127.627C471.055 128.154 471.133 128.574 471.289 128.887C471.452 129.199 471.693 129.424 472.012 129.561C472.331 129.697 472.731 129.766 473.213 129.766C473.617 129.766 473.997 129.74 474.355 129.688C474.714 129.629 475.068 129.551 475.42 129.453C475.771 129.355 476.123 129.242 476.475 129.111ZM1.45508 150.781H3.91602L3.91602 163.057H8.31055L8.31055 150.781H10.752L10.752 163.057H15.1074L15.1074 150.781H17.5488L17.5488 165H1.45508L1.45508 150.781ZM20.293 154.434H22.6465L22.6465 163.125H25.9961L25.9961 154.434H28.3691L28.3691 163.125H31.709L31.709 154.434H34.0625V165H20.293L20.293 154.434ZM69.5605 163.135L69.375 168.428H67.2168V165H65.9473V163.135H69.5605ZM51.7871 150.781H54.248V163.057H58.6426V150.781H61.084V163.057H65.4395V150.781H67.8809V165H51.7871V150.781ZM87.0996 163.135L86.9141 168.135H84.7559V165H83.4863V163.135H87.0996ZM71.4941 154.434H73.8477V163.125H77.207V154.434H79.5703V163.125H82.9199V154.434H85.2734V165H71.4941V154.434ZM102.783 152.656V150.781H107.588V152.656H102.783ZM108.447 156.24H112.021C113.102 156.24 114.023 156.423 114.785 156.787C115.553 157.145 116.143 157.65 116.553 158.301C116.963 158.952 117.168 159.71 117.168 160.576C117.168 161.227 117.051 161.823 116.816 162.363C116.582 162.904 116.243 163.372 115.801 163.77C115.358 164.16 114.818 164.463 114.18 164.678C113.548 164.893 112.829 165 112.021 165H106.758V150.781H109.209V163.057H112.021C112.64 163.057 113.148 162.943 113.545 162.715C113.942 162.48 114.235 162.174 114.424 161.797C114.619 161.419 114.717 161.006 114.717 160.557C114.717 160.12 114.619 159.723 114.424 159.365C114.235 159.007 113.942 158.721 113.545 158.506C113.148 158.291 112.64 158.184 112.021 158.184H108.447V156.24ZM123.32 154.434V156.309H118.223V154.434H123.32ZM122.871 157.793H125.977C126.895 157.793 127.669 157.946 128.301 158.252C128.939 158.558 129.424 158.984 129.756 159.531C130.094 160.072 130.264 160.69 130.264 161.387C130.264 161.901 130.169 162.38 129.98 162.822C129.792 163.258 129.515 163.639 129.15 163.965C128.786 164.29 128.337 164.544 127.803 164.727C127.269 164.909 126.66 165 125.977 165H121.299V154.434H123.662V163.135H125.977C126.445 163.135 126.82 163.053 127.1 162.891C127.38 162.728 127.581 162.516 127.705 162.256C127.835 161.995 127.9 161.719 127.9 161.426C127.9 161.126 127.835 160.843 127.705 160.576C127.581 160.309 127.38 160.091 127.1 159.922C126.82 159.753 126.445 159.668 125.977 159.668H122.871V157.793ZM153.848 156.24H157.432C158.512 156.24 159.434 156.423 160.195 156.787C160.964 157.145 161.549 157.65 161.953 158.301C162.363 158.952 162.568 159.71 162.568 160.576C162.568 161.227 162.451 161.823 162.217 162.363C161.989 162.904 161.654 163.372 161.211 163.77C160.768 164.16 160.228 164.463 159.59 164.678C158.958 164.893 158.239 165 157.432 165H152.158V150.781H154.609V163.057H157.432C158.05 163.057 158.558 162.943 158.955 162.715C159.352 162.48 159.645 162.174 159.834 161.797C160.029 161.419 160.127 161.006 160.127 160.557C160.127 160.12 160.029 159.723 159.834 159.365C159.645 159.007 159.352 158.721 158.955 158.506C158.558 158.291 158.05 158.184 157.432 158.184H153.848V156.24ZM166.484 150.781V165H164.033V150.781H166.484ZM170.967 157.793H174.082C174.993 157.793 175.768 157.946 176.406 158.252C177.044 158.558 177.529 158.984 177.861 159.531C178.2 160.072 178.369 160.69 178.369 161.387C178.369 161.901 178.275 162.38 178.086 162.822C177.897 163.258 177.617 163.639 177.246 163.965C176.882 164.29 176.432 164.544 175.898 164.727C175.371 164.909 174.766 165 174.082 165H169.404V154.434H171.768V163.135H174.082C174.551 163.135 174.925 163.053 175.205 162.891C175.485 162.728 175.687 162.516 175.811 162.256C175.941 161.995 176.006 161.719 176.006 161.426C176.006 161.126 175.941 160.843 175.811 160.576C175.687 160.309 175.485 160.091 175.205 159.922C174.925 159.753 174.551 159.668 174.082 159.668H170.967V157.793ZM182.529 154.434V165H180.176V154.434H182.529ZM202.148 156.24H205.723C206.803 156.24 207.728 156.423 208.496 156.787C209.264 157.145 209.85 157.65 210.254 158.301C210.658 158.952 210.859 159.71 210.859 160.576C210.859 161.227 210.745 161.823 210.518 162.363C210.29 162.904 209.954 163.372 209.512 163.77C209.069 164.16 208.529 164.463 207.891 164.678C207.259 164.893 206.536 165 205.723 165H200.449V150.781H202.91V163.057H205.723C206.341 163.057 206.849 162.943 207.246 162.715C207.643 162.48 207.936 162.174 208.125 161.797C208.32 161.419 208.418 161.006 208.418 160.557C208.418 160.12 208.32 159.723 208.125 159.365C207.936 159.007 207.643 158.721 207.246 158.506C206.849 158.291 206.341 158.184 205.723 158.184H202.148V156.24ZM214.365 157.793H217.48C218.392 157.793 219.167 157.946 219.805 158.252C220.443 158.558 220.928 158.984 221.26 159.531C221.598 160.072 221.768 160.69 221.768 161.387C221.768 161.901 221.673 162.38 221.484 162.822C221.296 163.258 221.016 163.639 220.645 163.965C220.28 164.29 219.831 164.544 219.297 164.727C218.77 164.909 218.164 165 217.48 165H212.803V154.434H215.166V163.135H217.48C217.949 163.135 218.324 163.053 218.604 162.891C218.883 162.728 219.085 162.516 219.209 162.256C219.339 161.995 219.404 161.719 219.404 161.426C219.404 161.126 219.339 160.843 219.209 160.576C219.085 160.309 218.883 160.091 218.604 159.922C218.324 159.753 217.949 159.668 217.48 159.668H214.365V157.793ZM248.164 156.924V158.877H242.217V156.924H248.164ZM238.359 160.371H240.801C240.872 160.996 241.019 161.523 241.24 161.953C241.468 162.383 241.797 162.708 242.227 162.93C242.663 163.151 243.232 163.262 243.936 163.262C244.502 163.262 244.99 163.148 245.4 162.92C245.817 162.692 246.159 162.37 246.426 161.953C246.693 161.53 246.891 161.029 247.021 160.449C247.152 159.863 247.217 159.209 247.217 158.486V157.295C247.217 156.689 247.171 156.139 247.08 155.645C246.989 155.143 246.849 154.701 246.66 154.316C246.478 153.932 246.25 153.61 245.977 153.35C245.71 153.083 245.397 152.881 245.039 152.744C244.681 152.607 244.281 152.539 243.838 152.539C243.154 152.539 242.601 152.656 242.178 152.891C241.755 153.118 241.436 153.454 241.221 153.896C241.006 154.333 240.863 154.86 240.791 155.479H238.35C238.447 154.521 238.714 153.675 239.15 152.939C239.587 152.204 240.192 151.628 240.967 151.211C241.748 150.794 242.705 150.586 243.838 150.586C244.73 150.586 245.531 150.745 246.24 151.064C246.956 151.377 247.568 151.829 248.076 152.422C248.584 153.008 248.971 153.714 249.238 154.541C249.512 155.368 249.648 156.292 249.648 157.314V158.486C249.648 159.508 249.515 160.433 249.248 161.26C248.988 162.087 248.607 162.793 248.105 163.379C247.604 163.965 247.002 164.414 246.299 164.727C245.596 165.039 244.808 165.195 243.936 165.195C242.783 165.195 241.807 164.99 241.006 164.58C240.212 164.163 239.593 163.59 239.15 162.861C238.708 162.132 238.444 161.302 238.359 160.371ZM255.586 156.113C255.221 156.113 254.886 156.191 254.58 156.348C254.281 156.497 254.04 156.709 253.857 156.982C253.682 157.249 253.594 157.565 253.594 157.93H251.367C251.367 157.24 251.559 156.618 251.943 156.064C252.334 155.505 252.848 155.062 253.486 154.736C254.124 154.404 254.824 154.238 255.586 154.238C256.361 154.238 257.044 154.378 257.637 154.658C258.229 154.932 258.727 155.313 259.131 155.801C259.535 156.289 259.837 156.855 260.039 157.5C260.247 158.138 260.352 158.822 260.352 159.551V159.893C260.352 160.622 260.247 161.305 260.039 161.943C259.831 162.581 259.525 163.148 259.121 163.643C258.717 164.131 258.219 164.515 257.627 164.795C257.041 165.068 256.364 165.205 255.596 165.205C254.775 165.205 254.046 165.036 253.408 164.697C252.77 164.359 252.269 163.893 251.904 163.301C251.546 162.702 251.367 162.008 251.367 161.221H253.594C253.594 161.618 253.678 161.976 253.848 162.295C254.017 162.614 254.251 162.868 254.551 163.057C254.85 163.239 255.199 163.33 255.596 163.33C256.032 163.33 256.403 163.232 256.709 163.037C257.015 162.842 257.262 162.581 257.451 162.256C257.64 161.93 257.777 161.563 257.861 161.152C257.946 160.736 257.988 160.316 257.988 159.893V159.551C257.988 159.115 257.946 158.691 257.861 158.281C257.777 157.871 257.64 157.503 257.451 157.178C257.269 156.852 257.021 156.595 256.709 156.406C256.403 156.211 256.029 156.113 255.586 156.113ZM258.887 158.848V160.439H254.6V158.848H258.887ZM280.117 150.781V165H277.666V150.781H280.117ZM283.086 157.178V159.053H279.434V157.178H283.086ZM293.711 157.5V158.281C293.711 159.355 293.571 160.319 293.291 161.172C293.011 162.025 292.611 162.751 292.09 163.35C291.569 163.949 290.947 164.408 290.225 164.727C289.508 165.039 288.708 165.195 287.822 165.195C286.956 165.195 286.162 165.039 285.439 164.727C284.717 164.408 284.092 163.949 283.564 163.35C283.037 162.751 282.63 162.025 282.344 161.172C282.057 160.319 281.914 159.355 281.914 158.281V157.5C281.914 156.426 282.057 155.465 282.344 154.619C282.63 153.766 283.034 153.04 283.555 152.441C284.076 151.836 284.697 151.377 285.42 151.064C286.143 150.745 286.937 150.586 287.803 150.586C288.688 150.586 289.492 150.745 290.215 151.064C290.938 151.377 291.559 151.836 292.08 152.441C292.601 153.04 293.001 153.766 293.281 154.619C293.568 155.465 293.711 156.426 293.711 157.5ZM291.26 158.281V157.48C291.26 156.686 291.182 155.986 291.025 155.381C290.869 154.769 290.645 154.258 290.352 153.848C290.059 153.431 289.697 153.118 289.268 152.91C288.838 152.695 288.35 152.588 287.803 152.588C287.269 152.588 286.79 152.695 286.367 152.91C285.944 153.118 285.583 153.431 285.283 153.848C284.99 154.258 284.766 154.769 284.609 155.381C284.453 155.986 284.375 156.686 284.375 157.48V158.281C284.375 159.076 284.453 159.779 284.609 160.391C284.766 161.003 284.993 161.52 285.293 161.943C285.599 162.36 285.964 162.676 286.387 162.891C286.81 163.099 287.288 163.203 287.822 163.203C288.376 163.203 288.864 163.099 289.287 162.891C289.71 162.676 290.068 162.36 290.361 161.943C290.654 161.52 290.876 161.003 291.025 160.391C291.182 159.779 291.26 159.076 291.26 158.281ZM301.982 158.701V160.576H296.318V158.701H301.982ZM298.33 154.434V165H295.977V154.434H298.33ZM300.244 159.834V159.609C300.244 158.848 300.355 158.141 300.576 157.49C300.798 156.833 301.12 156.263 301.543 155.781C301.966 155.293 302.48 154.915 303.086 154.648C303.691 154.375 304.378 154.238 305.146 154.238C305.928 154.238 306.621 154.375 307.227 154.648C307.839 154.915 308.356 155.293 308.779 155.781C309.202 156.263 309.525 156.833 309.746 157.49C309.967 158.141 310.078 158.848 310.078 159.609V159.834C310.078 160.596 309.967 161.302 309.746 161.953C309.525 162.604 309.202 163.174 308.779 163.662C308.363 164.144 307.848 164.521 307.236 164.795C306.631 165.062 305.941 165.195 305.166 165.195C304.391 165.195 303.701 165.062 303.096 164.795C302.49 164.521 301.973 164.144 301.543 163.662C301.12 163.174 300.798 162.604 300.576 161.953C300.355 161.302 300.244 160.596 300.244 159.834ZM302.607 159.609V159.834C302.607 160.309 302.656 160.758 302.754 161.182C302.852 161.605 303.005 161.976 303.213 162.295C303.421 162.614 303.688 162.865 304.014 163.047C304.339 163.229 304.723 163.32 305.166 163.32C305.609 163.32 305.99 163.229 306.309 163.047C306.634 162.865 306.901 162.614 307.109 162.295C307.318 161.976 307.471 161.605 307.568 161.182C307.673 160.758 307.725 160.309 307.725 159.834V159.609C307.725 159.141 307.673 158.698 307.568 158.281C307.471 157.858 307.318 157.484 307.109 157.158C306.901 156.833 306.634 156.579 306.309 156.396C305.983 156.208 305.596 156.113 305.146 156.113C304.71 156.113 304.329 156.208 304.004 156.396C303.685 156.579 303.421 156.833 303.213 157.158C303.005 157.484 302.852 157.858 302.754 158.281C302.656 158.698 302.607 159.141 302.607 159.609ZM334.912 159.668H330.996L330.029 159.268C328.955 158.929 328.132 158.415 327.559 157.725C326.986 157.035 326.699 156.165 326.699 155.117C326.699 154.18 326.908 153.389 327.324 152.744C327.741 152.1 328.333 151.611 329.102 151.279C329.876 150.947 330.791 150.781 331.846 150.781H336.621V165H334.16V152.734H331.846C330.934 152.734 330.257 152.956 329.814 153.398C329.372 153.841 329.15 154.453 329.15 155.234C329.15 155.768 329.248 156.227 329.443 156.611C329.645 156.989 329.941 157.282 330.332 157.49C330.729 157.692 331.221 157.793 331.807 157.793H334.912V159.668ZM331.924 158.574L328.623 165H325.986L329.326 158.574H331.924ZM341.465 159.834H343.906L340.908 165H338.477L341.465 159.834ZM343.184 154.434H347.715V165H345.371V156.289H343.184C342.741 156.289 342.376 156.367 342.09 156.523C341.803 156.673 341.592 156.872 341.455 157.119C341.318 157.36 341.25 157.607 341.25 157.861C341.25 158.115 341.312 158.359 341.436 158.594C341.566 158.828 341.764 159.02 342.031 159.17C342.305 159.32 342.646 159.395 343.057 159.395H346.162V161.113H343.057C342.406 161.113 341.823 161.032 341.309 160.869C340.794 160.7 340.358 160.469 340 160.176C339.642 159.876 339.368 159.528 339.18 159.131C338.991 158.727 338.896 158.288 338.896 157.813C338.896 157.324 338.994 156.875 339.189 156.465C339.385 156.055 339.665 155.697 340.029 155.391C340.4 155.085 340.85 154.85 341.377 154.688C341.911 154.518 342.513 154.434 343.184 154.434Z" fill="white"/>
<path d="M7.5 200.732L7.5 215H5.14648L5.14648 203.525L1.66016 204.707L1.66016 202.764L7.2168 200.732H7.5ZM26.9531 213.125V215H17.4219V213.389L22.0508 208.34C22.5586 207.767 22.959 207.272 23.252 206.855C23.5449 206.439 23.75 206.064 23.8672 205.732C23.9909 205.394 24.0527 205.065 24.0527 204.746C24.0527 204.297 23.9681 203.903 23.7988 203.564C23.6361 203.219 23.3952 202.949 23.0762 202.754C22.7572 202.552 22.3698 202.451 21.9141 202.451C21.3867 202.451 20.944 202.565 20.5859 202.793C20.2279 203.021 19.9577 203.337 19.7754 203.74C19.5931 204.137 19.502 204.593 19.502 205.107H17.1484C17.1484 204.281 17.3372 203.525 17.7148 202.842C18.0924 202.152 18.6393 201.605 19.3555 201.201C20.0716 200.791 20.9342 200.586 21.9434 200.586C22.8939 200.586 23.7012 200.745 24.3652 201.064C25.0293 201.383 25.5339 201.836 25.8789 202.422C26.2305 203.008 26.4062 203.701 26.4062 204.502C26.4062 204.945 26.3346 205.384 26.1914 205.82C26.0482 206.257 25.8431 206.693 25.5762 207.129C25.3158 207.559 25.0065 207.992 24.6484 208.428C24.2904 208.857 23.8965 209.294 23.4668 209.736L20.3906 213.125H26.9531ZM36.5332 206.826H37.9395C38.4863 206.826 38.9388 206.732 39.2969 206.543C39.6615 206.354 39.9316 206.094 40.1074 205.762C40.2832 205.43 40.3711 205.049 40.3711 204.619C40.3711 204.17 40.2897 203.786 40.127 203.467C39.9707 203.141 39.7298 202.891 39.4043 202.715C39.0853 202.539 38.6784 202.451 38.1836 202.451C37.7669 202.451 37.3893 202.536 37.0508 202.705C36.7188 202.868 36.4551 203.102 36.2598 203.408C36.0645 203.708 35.9668 204.066 35.9668 204.482H33.6035C33.6035 203.727 33.8021 203.057 34.1992 202.471C34.5964 201.885 35.1367 201.426 35.8203 201.094C36.5104 200.755 37.2852 200.586 38.1445 200.586C39.0625 200.586 39.8633 200.739 40.5469 201.045C41.237 201.344 41.7741 201.794 42.1582 202.393C42.5423 202.992 42.7344 203.734 42.7344 204.619C42.7344 205.023 42.64 205.433 42.4512 205.85C42.2624 206.266 41.9824 206.647 41.6113 206.992C41.2402 207.331 40.778 207.607 40.2246 207.822C39.6712 208.031 39.0299 208.135 38.3008 208.135H36.5332V206.826ZM36.5332 208.662V207.373H38.3008C39.1341 207.373 39.8438 207.471 40.4297 207.666C41.0221 207.861 41.5039 208.132 41.875 208.477C42.2461 208.815 42.5163 209.202 42.6855 209.639C42.8613 210.075 42.9492 210.537 42.9492 211.025C42.9492 211.689 42.8288 212.282 42.5879 212.803C42.3535 213.317 42.0182 213.753 41.582 214.111C41.1458 214.469 40.6348 214.74 40.0488 214.922C39.4694 215.104 38.8379 215.195 38.1543 215.195C37.5423 215.195 36.9564 215.111 36.3965 214.941C35.8366 214.772 35.3353 214.521 34.8926 214.189C34.4499 213.851 34.0983 213.431 33.8379 212.93C33.584 212.422 33.457 211.836 33.457 211.172H35.8105C35.8105 211.595 35.9082 211.969 36.1035 212.295C36.3053 212.614 36.5853 212.865 36.9434 213.047C37.3079 213.229 37.7246 213.32 38.1934 213.32C38.6882 213.32 39.1146 213.232 39.4727 213.057C39.8307 212.881 40.1042 212.62 40.293 212.275C40.4883 211.93 40.5859 211.514 40.5859 211.025C40.5859 210.472 40.4785 210.023 40.2637 209.678C40.0488 209.333 39.7428 209.079 39.3457 208.916C38.9486 208.747 38.4798 208.662 37.9395 208.662H36.5332ZM59.9121 209.932V211.807H49.6582L49.5801 210.391L55.7129 200.781H57.5977L55.5566 204.277L52.0312 209.932H59.9121ZM58.1348 200.781V215H55.7812V200.781H58.1348ZM68.9355 208.389L67.0605 207.93L67.832 200.781H75.498V202.773H69.7852L69.3945 206.26C69.6159 206.13 69.9219 206.003 70.3125 205.879C70.7031 205.749 71.1491 205.684 71.6504 205.684C72.321 205.684 72.9199 205.794 73.4473 206.016C73.9811 206.23 74.4336 206.546 74.8047 206.963C75.1758 207.373 75.459 207.874 75.6543 208.467C75.8496 209.053 75.9473 209.714 75.9473 210.449C75.9473 211.107 75.8496 211.722 75.6543 212.295C75.4655 212.868 75.179 213.372 74.7949 213.809C74.4108 214.245 73.9258 214.587 73.3398 214.834C72.7604 215.075 72.0736 215.195 71.2793 215.195C70.6868 215.195 70.1172 215.111 69.5703 214.941C69.0299 214.766 68.5449 214.508 68.1152 214.17C67.6855 213.825 67.3405 213.402 67.0801 212.9C66.8197 212.393 66.6699 211.81 66.6309 211.152H68.9355C68.9941 211.615 69.1211 212.008 69.3164 212.334C69.5182 212.653 69.7852 212.897 70.1172 213.066C70.4492 213.236 70.8333 213.32 71.2695 213.32C71.6667 213.32 72.0085 213.252 72.2949 213.115C72.5814 212.972 72.819 212.77 73.0078 212.51C73.2031 212.243 73.3464 211.93 73.4375 211.572C73.5352 211.214 73.584 210.817 73.584 210.381C73.584 209.964 73.5286 209.583 73.418 209.238C73.3138 208.893 73.1543 208.594 72.9395 208.34C72.7311 208.086 72.4674 207.891 72.1484 207.754C71.8294 207.611 71.4616 207.539 71.0449 207.539C70.485 207.539 70.0553 207.62 69.7559 207.783C69.4629 207.946 69.1895 208.148 68.9355 208.389ZM89.9219 200.693H90.2148V202.617H90.0488C89.209 202.617 88.4831 202.747 87.8711 203.008C87.2656 203.268 86.7676 203.626 86.377 204.082C85.9863 204.538 85.6934 205.072 85.498 205.684C85.3092 206.289 85.2148 206.934 85.2148 207.617V209.854C85.2148 210.42 85.2767 210.921 85.4004 211.357C85.5241 211.787 85.6966 212.148 85.918 212.441C86.1458 212.728 86.4062 212.946 86.6992 213.096C86.9922 213.245 87.3079 213.32 87.6465 213.32C87.998 213.32 88.3171 213.249 88.6035 213.105C88.89 212.956 89.1341 212.751 89.3359 212.49C89.5378 212.23 89.6908 211.921 89.7949 211.562C89.8991 211.204 89.9512 210.814 89.9512 210.391C89.9512 209.987 89.8991 209.609 89.7949 209.258C89.6973 208.9 89.5508 208.587 89.3555 208.32C89.1602 208.047 88.916 207.835 88.623 207.686C88.3366 207.529 88.0046 207.451 87.627 207.451C87.1582 207.451 86.7318 207.562 86.3477 207.783C85.9701 208.005 85.6641 208.294 85.4297 208.652C85.2018 209.004 85.0781 209.378 85.0586 209.775L84.1602 209.482C84.2122 208.877 84.3457 208.333 84.5605 207.852C84.7819 207.37 85.0716 206.96 85.4297 206.621C85.7878 206.283 86.2012 206.025 86.6699 205.85C87.1452 205.667 87.666 205.576 88.2324 205.576C88.9225 205.576 89.5215 205.706 90.0293 205.967C90.5371 206.227 90.957 206.582 91.2891 207.031C91.6276 207.474 91.8783 207.982 92.041 208.555C92.2103 209.121 92.2949 209.714 92.2949 210.332C92.2949 211.016 92.1908 211.654 91.9824 212.246C91.7741 212.832 91.4681 213.346 91.0645 213.789C90.6673 214.232 90.1823 214.577 89.6094 214.824C89.043 215.072 88.3984 215.195 87.6758 215.195C86.9141 215.195 86.2337 215.049 85.6348 214.756C85.0423 214.463 84.5378 214.059 84.1211 213.545C83.7109 213.031 83.3984 212.438 83.1836 211.768C82.9688 211.097 82.8613 210.387 82.8613 209.639V208.662C82.8613 207.581 82.998 206.562 83.2715 205.605C83.5449 204.642 83.9648 203.792 84.5312 203.057C85.1042 202.321 85.8366 201.745 86.7285 201.328C87.6204 200.905 88.6849 200.693 89.9219 200.693ZM108.604 200.781V202.07L102.92 215H100.439L106.113 202.656H98.75V200.781H108.604ZM124.805 211.123C124.805 212.008 124.6 212.754 124.189 213.359C123.779 213.965 123.219 214.424 122.51 214.736C121.807 215.042 121.012 215.195 120.127 215.195C119.242 215.195 118.444 215.042 117.734 214.736C117.025 214.424 116.465 213.965 116.055 213.359C115.645 212.754 115.439 212.008 115.439 211.123C115.439 210.537 115.553 210.007 115.781 209.531C116.009 209.049 116.331 208.636 116.748 208.291C117.171 207.939 117.666 207.669 118.232 207.48C118.805 207.292 119.43 207.197 120.107 207.197C121.006 207.197 121.81 207.363 122.52 207.695C123.229 208.027 123.786 208.486 124.189 209.072C124.6 209.658 124.805 210.342 124.805 211.123ZM122.441 211.006C122.441 210.531 122.344 210.114 122.148 209.756C121.953 209.398 121.68 209.121 121.328 208.926C120.977 208.73 120.57 208.633 120.107 208.633C119.639 208.633 119.232 208.73 118.887 208.926C118.542 209.121 118.271 209.398 118.076 209.756C117.887 210.114 117.793 210.531 117.793 211.006C117.793 211.488 117.887 211.904 118.076 212.256C118.265 212.601 118.535 212.865 118.887 213.047C119.238 213.229 119.652 213.32 120.127 213.32C120.602 213.32 121.012 213.229 121.357 213.047C121.702 212.865 121.969 212.601 122.158 212.256C122.347 211.904 122.441 211.488 122.441 211.006ZM124.482 204.521C124.482 205.231 124.294 205.863 123.916 206.416C123.545 206.969 123.031 207.406 122.373 207.725C121.715 208.037 120.967 208.193 120.127 208.193C119.281 208.193 118.525 208.037 117.861 207.725C117.204 207.406 116.686 206.969 116.309 206.416C115.938 205.863 115.752 205.231 115.752 204.521C115.752 203.675 115.938 202.962 116.309 202.383C116.686 201.797 117.204 201.351 117.861 201.045C118.519 200.739 119.271 200.586 120.117 200.586C120.964 200.586 121.715 200.739 122.373 201.045C123.031 201.351 123.545 201.797 123.916 202.383C124.294 202.962 124.482 203.675 124.482 204.521ZM122.129 204.6C122.129 204.176 122.044 203.805 121.875 203.486C121.712 203.161 121.481 202.907 121.182 202.725C120.882 202.542 120.527 202.451 120.117 202.451C119.707 202.451 119.352 202.539 119.053 202.715C118.753 202.891 118.522 203.138 118.359 203.457C118.197 203.776 118.115 204.157 118.115 204.6C118.115 205.036 118.197 205.417 118.359 205.742C118.522 206.061 118.753 206.312 119.053 206.494C119.359 206.676 119.717 206.768 120.127 206.768C120.537 206.768 120.892 206.676 121.191 206.494C121.491 206.312 121.722 206.061 121.885 205.742C122.048 205.417 122.129 205.036 122.129 204.6ZM133.75 213.145H133.945C134.844 213.145 135.592 213.027 136.191 212.793C136.797 212.552 137.279 212.22 137.637 211.797C137.995 211.374 138.252 210.876 138.408 210.303C138.564 209.73 138.643 209.108 138.643 208.438V205.986C138.643 205.407 138.581 204.899 138.457 204.463C138.34 204.02 138.171 203.652 137.949 203.359C137.734 203.06 137.484 202.835 137.197 202.686C136.917 202.536 136.615 202.461 136.289 202.461C135.931 202.461 135.609 202.542 135.322 202.705C135.042 202.861 134.805 203.079 134.609 203.359C134.421 203.633 134.274 203.955 134.17 204.326C134.072 204.691 134.023 205.081 134.023 205.498C134.023 205.889 134.069 206.266 134.16 206.631C134.258 206.989 134.401 207.308 134.59 207.588C134.779 207.868 135.016 208.089 135.303 208.252C135.589 208.415 135.924 208.496 136.309 208.496C136.673 208.496 137.008 208.428 137.314 208.291C137.62 208.148 137.887 207.956 138.115 207.715C138.343 207.474 138.522 207.204 138.652 206.904C138.783 206.605 138.854 206.299 138.867 205.986L139.766 206.26C139.766 206.755 139.661 207.243 139.453 207.725C139.251 208.2 138.968 208.636 138.604 209.033C138.245 209.424 137.826 209.736 137.344 209.971C136.868 210.205 136.351 210.322 135.791 210.322C135.114 210.322 134.515 210.195 133.994 209.941C133.48 209.681 133.05 209.329 132.705 208.887C132.367 208.444 132.113 207.936 131.943 207.363C131.774 206.79 131.689 206.188 131.689 205.557C131.689 204.873 131.794 204.232 132.002 203.633C132.21 203.034 132.513 202.507 132.91 202.051C133.307 201.589 133.789 201.23 134.355 200.977C134.928 200.716 135.576 200.586 136.299 200.586C137.067 200.586 137.741 200.736 138.32 201.035C138.9 201.335 139.388 201.748 139.785 202.275C140.182 202.803 140.482 203.415 140.684 204.111C140.885 204.808 140.986 205.557 140.986 206.357V207.188C140.986 208.027 140.911 208.838 140.762 209.619C140.612 210.394 140.368 211.113 140.029 211.777C139.697 212.435 139.258 213.014 138.711 213.516C138.171 214.01 137.507 214.398 136.719 214.678C135.938 214.951 135.02 215.088 133.965 215.088H133.75V213.145ZM157.471 206.699V209.023C157.471 210.137 157.36 211.087 157.139 211.875C156.924 212.656 156.611 213.291 156.201 213.779C155.791 214.268 155.299 214.626 154.727 214.854C154.16 215.081 153.525 215.195 152.822 215.195C152.262 215.195 151.742 215.124 151.26 214.98C150.785 214.837 150.355 214.613 149.971 214.307C149.587 214.001 149.258 213.607 148.984 213.125C148.717 212.637 148.509 212.054 148.359 211.377C148.216 210.7 148.145 209.915 148.145 209.023V206.699C148.145 205.579 148.255 204.635 148.477 203.867C148.698 203.092 149.014 202.464 149.424 201.982C149.834 201.494 150.322 201.139 150.889 200.918C151.462 200.697 152.1 200.586 152.803 200.586C153.369 200.586 153.89 200.658 154.365 200.801C154.847 200.938 155.277 201.156 155.654 201.455C156.038 201.755 156.364 202.145 156.631 202.627C156.904 203.102 157.113 203.678 157.256 204.355C157.399 205.026 157.471 205.807 157.471 206.699ZM155.117 209.355V206.348C155.117 205.781 155.085 205.283 155.02 204.854C154.954 204.417 154.857 204.049 154.727 203.75C154.603 203.444 154.447 203.197 154.258 203.008C154.069 202.813 153.854 202.673 153.613 202.588C153.372 202.497 153.102 202.451 152.803 202.451C152.438 202.451 152.113 202.523 151.826 202.666C151.54 202.803 151.299 203.024 151.104 203.33C150.908 203.636 150.758 204.04 150.654 204.541C150.557 205.036 150.508 205.638 150.508 206.348V209.355C150.508 209.928 150.54 210.433 150.605 210.869C150.671 211.305 150.768 211.68 150.898 211.992C151.029 212.298 151.185 212.552 151.367 212.754C151.556 212.949 151.771 213.092 152.012 213.184C152.259 213.275 152.529 213.32 152.822 213.32C153.193 213.32 153.522 213.249 153.809 213.105C154.095 212.962 154.336 212.734 154.531 212.422C154.727 212.103 154.873 211.689 154.971 211.182C155.068 210.674 155.117 210.065 155.117 209.355Z" fill="white"/>
</svg>
