<svg width="502" height="218" viewBox="0 0 502 218" fill="none" xmlns="http://www.w3.org/2000/svg">
<path d="M3.04687 5.875L15.7734 5.875C18.3828 5.875 20.625 6.26563 22.5 7.04688C24.3906 7.82813 25.8438 8.98438 26.8594 10.5156C27.875 12.0469 28.3828 13.9297 28.3828 16.1641C28.3828 17.9922 28.0703 19.5625 27.4453 20.875C26.8359 22.1719 25.9687 23.2578 24.8437 24.1328C23.7344 24.9922 22.4297 25.6797 20.9297 26.1953L18.7031 27.3672L7.64062 27.3672L7.59375 21.8828L15.8203 21.8828C17.0547 21.8828 18.0781 21.6641 18.8906 21.2266C19.7031 20.7891 20.3125 20.1797 20.7187 19.3984C21.1406 18.6172 21.3516 17.7109 21.3516 16.6797C21.3516 15.5859 21.1484 14.6406 20.7422 13.8438C20.3359 13.0469 19.7187 12.4375 18.8906 12.0156C18.0625 11.5938 17.0234 11.3828 15.7734 11.3828H10.0781L10.0781 40H3.04687L3.04687 5.875ZM22.125 40L14.3437 24.7891L21.7734 24.7422L29.6484 39.6719V40H22.125ZM61.8281 22.1406V23.7578C61.8281 26.3516 61.4766 28.6797 60.7734 30.7422C60.0703 32.8047 59.0781 34.5625 57.7969 36.0156C56.5156 37.4531 54.9844 38.5547 53.2031 39.3203C51.4375 40.0859 49.4766 40.4688 47.3203 40.4688C45.1797 40.4688 43.2187 40.0859 41.4375 39.3203C39.6719 38.5547 38.1406 37.4531 36.8437 36.0156C35.5469 34.5625 34.5391 32.8047 33.8203 30.7422C33.1172 28.6797 32.7656 26.3516 32.7656 23.7578V22.1406C32.7656 19.5313 33.1172 17.2031 33.8203 15.1563C34.5234 13.0938 35.5156 11.3359 36.7969 9.88281C38.0938 8.42969 39.625 7.32031 41.3906 6.55469C43.1719 5.78906 45.1328 5.40625 47.2734 5.40625C49.4297 5.40625 51.3906 5.78906 53.1562 6.55469C54.9375 7.32031 56.4688 8.42969 57.75 9.88281C59.0469 11.3359 60.0469 13.0938 60.75 15.1563C61.4688 17.2031 61.8281 19.5313 61.8281 22.1406ZM54.7266 23.7578V22.0938C54.7266 20.2813 54.5625 18.6875 54.2344 17.3125C53.9062 15.9375 53.4219 14.7813 52.7812 13.8438C52.1406 12.9063 51.3594 12.2031 50.4375 11.7344C49.5156 11.25 48.4609 11.0078 47.2734 11.0078C46.0859 11.0078 45.0312 11.25 44.1094 11.7344C43.2031 12.2031 42.4297 12.9063 41.7891 13.8438C41.1641 14.7813 40.6875 15.9375 40.3594 17.3125C40.0312 18.6875 39.8672 20.2813 39.8672 22.0938V23.7578C39.8672 25.5547 40.0312 27.1484 40.3594 28.5391C40.6875 29.9141 41.1719 31.0781 41.8125 32.0313C42.4531 32.9688 43.2344 33.6797 44.1562 34.1641C45.0781 34.6484 46.1328 34.8906 47.3203 34.8906C48.5078 34.8906 49.5625 34.6484 50.4844 34.1641C51.4062 33.6797 52.1797 32.9688 52.8047 32.0313C53.4297 31.0781 53.9062 29.9141 54.2344 28.5391C54.5625 27.1484 54.7266 25.5547 54.7266 23.7578ZM80.25 25.0234L71.4844 25.0234L71.4375 20.1953L78.7969 20.1953C80.0938 20.1953 81.1562 20.0313 81.9844 19.7031C82.8125 19.3594 83.4297 18.8672 83.8359 18.2266C84.2578 17.5703 84.4688 16.7734 84.4688 15.8359C84.4688 14.7734 84.2656 13.9141 83.8594 13.2578C83.4688 12.6016 82.8516 12.125 82.0078 11.8281C81.1797 11.5313 80.1094 11.3828 78.7969 11.3828H73.9219V40H66.8906V5.875L78.7969 5.875C80.7812 5.875 82.5547 6.0625 84.1172 6.4375C85.6953 6.8125 87.0312 7.38281 88.125 8.14844C89.2188 8.91406 90.0547 9.88281 90.6328 11.0547C91.2109 12.2109 91.5 13.5859 91.5 15.1797C91.5 16.5859 91.1797 17.8828 90.5391 19.0703C89.9141 20.2578 88.9219 21.2266 87.5625 21.9766C86.2188 22.7266 84.4609 23.1406 82.2891 23.2188L80.25 25.0234ZM79.9453 40H69.5625L72.3047 34.5156H79.9453C81.1797 34.5156 82.1875 34.3203 82.9688 33.9297C83.75 33.5234 84.3281 32.9766 84.7031 32.2891C85.0781 31.6016 85.2656 30.8125 85.2656 29.9219C85.2656 28.9219 85.0938 28.0547 84.75 27.3203C84.4219 26.5859 83.8906 26.0234 83.1562 25.6328C82.4219 25.2266 81.4531 25.0234 80.25 25.0234L73.4766 25.0234L73.5234 20.1953L81.9609 20.1953L83.5781 22.0938C85.6562 22.0625 87.3281 22.4297 88.5938 23.1953C89.875 23.9453 90.8047 24.9219 91.3828 26.125C91.9766 27.3281 92.2734 28.6172 92.2734 29.9922C92.2734 32.1797 91.7969 34.0234 90.8438 35.5234C89.8906 37.0078 88.4922 38.125 86.6484 38.875C84.8203 39.625 82.5859 40 79.9453 40ZM125.578 22.1406V23.7578C125.578 26.3516 125.227 28.6797 124.523 30.7422C123.82 32.8047 122.828 34.5625 121.547 36.0156C120.266 37.4531 118.734 38.5547 116.953 39.3203C115.188 40.0859 113.227 40.4688 111.07 40.4688C108.93 40.4688 106.969 40.0859 105.188 39.3203C103.422 38.5547 101.891 37.4531 100.594 36.0156C99.2969 34.5625 98.2891 32.8047 97.5703 30.7422C96.8672 28.6797 96.5156 26.3516 96.5156 23.7578V22.1406C96.5156 19.5313 96.8672 17.2031 97.5703 15.1563C98.2734 13.0938 99.2656 11.3359 100.547 9.88281C101.844 8.42969 103.375 7.32031 105.141 6.55469C106.922 5.78906 108.883 5.40625 111.023 5.40625C113.18 5.40625 115.141 5.78906 116.906 6.55469C118.688 7.32031 120.219 8.42969 121.5 9.88281C122.797 11.3359 123.797 13.0938 124.5 15.1563C125.219 17.2031 125.578 19.5313 125.578 22.1406ZM118.477 23.7578V22.0938C118.477 20.2813 118.312 18.6875 117.984 17.3125C117.656 15.9375 117.172 14.7813 116.531 13.8438C115.891 12.9063 115.109 12.2031 114.188 11.7344C113.266 11.25 112.211 11.0078 111.023 11.0078C109.836 11.0078 108.781 11.25 107.859 11.7344C106.953 12.2031 106.18 12.9063 105.539 13.8438C104.914 14.7813 104.438 15.9375 104.109 17.3125C103.781 18.6875 103.617 20.2813 103.617 22.0938V23.7578C103.617 25.5547 103.781 27.1484 104.109 28.5391C104.438 29.9141 104.922 31.0781 105.562 32.0313C106.203 32.9688 106.984 33.6797 107.906 34.1641C108.828 34.6484 109.883 34.8906 111.07 34.8906C112.258 34.8906 113.312 34.6484 114.234 34.1641C115.156 33.6797 115.93 32.9688 116.555 32.0313C117.18 31.0781 117.656 29.9141 117.984 28.5391C118.312 27.1484 118.477 25.5547 118.477 23.7578ZM144.305 5.875V40H137.297V5.875L144.305 5.875ZM154.805 5.875V11.3828L126.961 11.3828V5.875L154.805 5.875ZM186.188 22.1406V23.7578C186.188 26.3516 185.836 28.6797 185.133 30.7422C184.43 32.8047 183.438 34.5625 182.156 36.0156C180.875 37.4531 179.344 38.5547 177.562 39.3203C175.797 40.0859 173.836 40.4688 171.68 40.4688C169.539 40.4688 167.578 40.0859 165.797 39.3203C164.031 38.5547 162.5 37.4531 161.203 36.0156C159.906 34.5625 158.898 32.8047 158.18 30.7422C157.477 28.6797 157.125 26.3516 157.125 23.7578V22.1406C157.125 19.5313 157.477 17.2031 158.18 15.1563C158.883 13.0938 159.875 11.3359 161.156 9.88281C162.453 8.42969 163.984 7.32031 165.75 6.55469C167.531 5.78906 169.492 5.40625 171.633 5.40625C173.789 5.40625 175.75 5.78906 177.516 6.55469C179.297 7.32031 180.828 8.42969 182.109 9.88281C183.406 11.3359 184.406 13.0938 185.109 15.1563C185.828 17.2031 186.188 19.5313 186.188 22.1406ZM179.086 23.7578V22.0938C179.086 20.2813 178.922 18.6875 178.594 17.3125C178.266 15.9375 177.781 14.7813 177.141 13.8438C176.5 12.9063 175.719 12.2031 174.797 11.7344C173.875 11.25 172.82 11.0078 171.633 11.0078C170.445 11.0078 169.391 11.25 168.469 11.7344C167.562 12.2031 166.789 12.9063 166.148 13.8438C165.523 14.7813 165.047 15.9375 164.719 17.3125C164.391 18.6875 164.227 20.2813 164.227 22.0938V23.7578C164.227 25.5547 164.391 27.1484 164.719 28.5391C165.047 29.9141 165.531 31.0781 166.172 32.0313C166.812 32.9688 167.594 33.6797 168.516 34.1641C169.438 34.6484 170.492 34.8906 171.68 34.8906C172.867 34.8906 173.922 34.6484 174.844 34.1641C175.766 33.6797 176.539 32.9688 177.164 32.0313C177.789 31.0781 178.266 29.9141 178.594 28.5391C178.922 27.1484 179.086 25.5547 179.086 23.7578ZM216.562 25.0234L207.797 25.0234L207.75 20.1953L215.109 20.1953C216.406 20.1953 217.469 20.0313 218.297 19.7031C219.125 19.3594 219.742 18.8672 220.148 18.2266C220.57 17.5703 220.781 16.7734 220.781 15.8359C220.781 14.7734 220.578 13.9141 220.172 13.2578C219.781 12.6016 219.164 12.125 218.32 11.8281C217.492 11.5313 216.422 11.3828 215.109 11.3828H210.234V40H203.203V5.875L215.109 5.875C217.094 5.875 218.867 6.0625 220.43 6.4375C222.008 6.8125 223.344 7.38281 224.438 8.14844C225.531 8.91406 226.367 9.88281 226.945 11.0547C227.523 12.2109 227.812 13.5859 227.812 15.1797C227.812 16.5859 227.492 17.8828 226.852 19.0703C226.227 20.2578 225.234 21.2266 223.875 21.9766C222.531 22.7266 220.773 23.1406 218.602 23.2188L216.562 25.0234ZM216.258 40H205.875L208.617 34.5156H216.258C217.492 34.5156 218.5 34.3203 219.281 33.9297C220.062 33.5234 220.641 32.9766 221.016 32.2891C221.391 31.6016 221.578 30.8125 221.578 29.9219C221.578 28.9219 221.406 28.0547 221.062 27.3203C220.734 26.5859 220.203 26.0234 219.469 25.6328C218.734 25.2266 217.766 25.0234 216.562 25.0234L209.789 25.0234L209.836 20.1953L218.273 20.1953L219.891 22.0938C221.969 22.0625 223.641 22.4297 224.906 23.1953C226.188 23.9453 227.117 24.9219 227.695 26.125C228.289 27.3281 228.586 28.6172 228.586 29.9922C228.586 32.1797 228.109 34.0234 227.156 35.5234C226.203 37.0078 224.805 38.125 222.961 38.875C221.133 39.625 218.898 40 216.258 40ZM261.891 22.1406V23.7578C261.891 26.3516 261.539 28.6797 260.836 30.7422C260.133 32.8047 259.141 34.5625 257.859 36.0156C256.578 37.4531 255.047 38.5547 253.266 39.3203C251.5 40.0859 249.539 40.4688 247.383 40.4688C245.242 40.4688 243.281 40.0859 241.5 39.3203C239.734 38.5547 238.203 37.4531 236.906 36.0156C235.609 34.5625 234.602 32.8047 233.883 30.7422C233.18 28.6797 232.828 26.3516 232.828 23.7578V22.1406C232.828 19.5313 233.18 17.2031 233.883 15.1563C234.586 13.0938 235.578 11.3359 236.859 9.88281C238.156 8.42969 239.688 7.32031 241.453 6.55469C243.234 5.78906 245.195 5.40625 247.336 5.40625C249.492 5.40625 251.453 5.78906 253.219 6.55469C255 7.32031 256.531 8.42969 257.812 9.88281C259.109 11.3359 260.109 13.0938 260.812 15.1563C261.531 17.2031 261.891 19.5313 261.891 22.1406ZM254.789 23.7578V22.0938C254.789 20.2813 254.625 18.6875 254.297 17.3125C253.969 15.9375 253.484 14.7813 252.844 13.8438C252.203 12.9063 251.422 12.2031 250.5 11.7344C249.578 11.25 248.523 11.0078 247.336 11.0078C246.148 11.0078 245.094 11.25 244.172 11.7344C243.266 12.2031 242.492 12.9063 241.852 13.8438C241.227 14.7813 240.75 15.9375 240.422 17.3125C240.094 18.6875 239.93 20.2813 239.93 22.0938V23.7578C239.93 25.5547 240.094 27.1484 240.422 28.5391C240.75 29.9141 241.234 31.0781 241.875 32.0313C242.516 32.9688 243.297 33.6797 244.219 34.1641C245.141 34.6484 246.195 34.8906 247.383 34.8906C248.57 34.8906 249.625 34.6484 250.547 34.1641C251.469 33.6797 252.242 32.9688 252.867 32.0313C253.492 31.0781 253.969 29.9141 254.297 28.5391C254.625 27.1484 254.789 25.5547 254.789 23.7578ZM288.891 34.5156V40L271.711 40V34.5156L288.891 34.5156ZM273.984 5.875V40H266.953V5.875L273.984 5.875ZM303.398 40H295.969L296.016 34.5156H303.398C305.242 34.5156 306.797 34.1016 308.062 33.2734C309.328 32.4297 310.281 31.2031 310.922 29.5938C311.578 27.9844 311.906 26.0391 311.906 23.7578V22.0938C311.906 20.3438 311.719 18.8047 311.344 17.4766C310.984 16.1484 310.445 15.0313 309.727 14.125C309.008 13.2188 308.125 12.5391 307.078 12.0859C306.031 11.6172 304.828 11.3828 303.469 11.3828H295.828V5.875L303.469 5.875C305.75 5.875 307.836 6.26563 309.727 7.04688C311.633 7.8125 313.281 8.91406 314.672 10.3516C316.062 11.7891 317.133 13.5078 317.883 15.5078C318.648 17.4922 319.031 19.7031 319.031 22.1406V23.7578C319.031 26.1797 318.648 28.3906 317.883 30.3906C317.133 32.3906 316.062 34.1094 314.672 35.5469C313.297 36.9688 311.648 38.0703 309.727 38.8516C307.82 39.6172 305.711 40 303.398 40ZM299.953 5.875V40H292.922V5.875L299.953 5.875Z" fill="white"/>
<path d="M7.05078 93.2129L3.18359 105H0.0683594L5.35156 90.7812H7.33398L7.05078 93.2129ZM10.2637 105L6.38672 93.2129L6.07422 90.7812H8.07617L13.3887 105H10.2637ZM10.0879 99.707V102.002H2.57812L2.57812 99.707H10.0879ZM20.2344 102.617V97.9102C20.2344 97.5716 20.179 97.2819 20.0684 97.041C19.9577 96.7936 19.7852 96.6016 19.5508 96.4648C19.3229 96.3281 19.0267 96.2598 18.6621 96.2598C18.3496 96.2598 18.0794 96.3151 17.8516 96.4258C17.6237 96.5299 17.4479 96.6829 17.3242 96.8848C17.2005 97.0801 17.1387 97.3112 17.1387 97.5781H14.3262C14.3262 97.1289 14.4303 96.7025 14.6387 96.2988C14.847 95.8952 15.1497 95.5404 15.5469 95.2344C15.944 94.9219 16.416 94.6777 16.9629 94.502C17.5163 94.3262 18.1348 94.2383 18.8184 94.2383C19.6387 94.2383 20.3678 94.375 21.0059 94.6484C21.6439 94.9219 22.1452 95.332 22.5098 95.8789C22.8809 96.4258 23.0664 97.1094 23.0664 97.9297V102.451C23.0664 103.031 23.1022 103.506 23.1738 103.877C23.2454 104.242 23.3496 104.561 23.4863 104.834V105H20.6445C20.5078 104.714 20.4036 104.355 20.332 103.926C20.2669 103.49 20.2344 103.053 20.2344 102.617ZM20.6055 98.5645L20.625 100.156H19.0527C18.6816 100.156 18.3594 100.199 18.0859 100.283C17.8125 100.368 17.5879 100.488 17.4121 100.645C17.2363 100.794 17.1061 100.97 17.0215 101.172C16.9434 101.374 16.9043 101.595 16.9043 101.836C16.9043 102.077 16.9596 102.295 17.0703 102.49C17.181 102.679 17.3405 102.829 17.5488 102.939C17.7572 103.044 18.0013 103.096 18.2812 103.096C18.7044 103.096 19.0723 103.011 19.3848 102.842C19.6973 102.673 19.9382 102.464 20.1074 102.217C20.2832 101.969 20.3743 101.735 20.3809 101.514L21.123 102.705C21.0189 102.972 20.8757 103.249 20.6934 103.535C20.5176 103.822 20.293 104.092 20.0195 104.346C19.7461 104.593 19.4173 104.798 19.0332 104.961C18.6491 105.117 18.1934 105.195 17.666 105.195C16.9954 105.195 16.3867 105.062 15.8398 104.795C15.2995 104.521 14.8698 104.147 14.5508 103.672C14.2383 103.19 14.082 102.643 14.082 102.031C14.082 101.478 14.1862 100.986 14.3945 100.557C14.6029 100.127 14.9089 99.7656 15.3125 99.4727C15.7227 99.1732 16.2337 98.9486 16.8457 98.7988C17.4577 98.6426 18.1673 98.5645 18.9746 98.5645H20.6055ZM49.6484 90.7813V93.0762H43.252V105H40.332V90.7812L49.6484 90.7813ZM42.2461 95.9668H45.5664C46.6862 95.9668 47.6497 96.1523 48.457 96.5234C49.2643 96.8945 49.8861 97.4154 50.3223 98.0859C50.7585 98.7565 50.9766 99.5378 50.9766 100.43C50.9766 101.107 50.8529 101.725 50.6055 102.285C50.3581 102.839 49.9967 103.32 49.5215 103.73C49.0527 104.134 48.4863 104.447 47.8223 104.668C47.1582 104.889 46.4062 105 45.5664 105H40.332V90.7812H43.2715V102.715H45.5664C46.1263 102.715 46.5885 102.611 46.9531 102.402C47.3177 102.194 47.5911 101.917 47.7734 101.572C47.9622 101.221 48.0566 100.833 48.0566 100.41C48.0566 100.007 47.9622 99.6419 47.7734 99.3164C47.5911 98.9844 47.3177 98.724 46.9531 98.5352C46.5885 98.3464 46.1263 98.252 45.5664 98.252H42.2461V95.9668ZM59.1895 89.7852H61.4648C61.4648 90.3125 61.3997 90.765 61.2695 91.1426C61.1393 91.5137 60.931 91.8327 60.6445 92.0996C60.3581 92.36 59.974 92.5814 59.4922 92.7637C59.0104 92.946 58.4147 93.1022 57.7051 93.2324C57.1582 93.3431 56.6829 93.5254 56.2793 93.7793C55.8822 94.0332 55.5534 94.3815 55.293 94.8242C55.0391 95.2604 54.8568 95.8138 54.7461 96.4844C54.6354 97.1484 54.5964 97.9492 54.6289 98.8867V99.3555L52.4414 99.6582V99.1895C52.4479 97.9134 52.5618 96.8034 52.7832 95.8594C53.0111 94.9154 53.3333 94.1211 53.75 93.4766C54.1667 92.8255 54.668 92.3079 55.2539 91.9238C55.8398 91.5332 56.4909 91.2598 57.207 91.1035C57.6888 90.9993 58.0729 90.8984 58.3594 90.8008C58.6523 90.6966 58.8639 90.5664 58.9941 90.4102C59.1243 90.2539 59.1895 90.0456 59.1895 89.7852ZM57.959 95.0293C58.6751 95.0293 59.3099 95.153 59.8633 95.4004C60.4167 95.6413 60.8822 95.9831 61.2598 96.4258C61.6374 96.8685 61.9238 97.3893 62.1191 97.9883C62.3145 98.5872 62.4121 99.2415 62.4121 99.9512V100.156C62.4121 100.879 62.3014 101.549 62.0801 102.168C61.8652 102.78 61.5462 103.314 61.123 103.77C60.6999 104.225 60.179 104.58 59.5605 104.834C58.9421 105.081 58.2357 105.205 57.4414 105.205C56.6406 105.205 55.9277 105.072 55.3027 104.805C54.6842 104.531 54.1602 104.15 53.7305 103.662C53.3073 103.167 52.985 102.591 52.7637 101.934C52.5488 101.27 52.4414 100.547 52.4414 99.7656V99.5508C52.4414 99.4401 52.4902 99.3327 52.5879 99.2285C52.6921 99.1178 52.8125 98.9941 52.9492 98.8574C53.0924 98.7207 53.2194 98.5482 53.3301 98.3398C53.7207 97.6172 54.1471 97.0117 54.6094 96.5234C55.0716 96.0286 55.5762 95.6576 56.123 95.4102C56.6764 95.1563 57.2884 95.0293 57.959 95.0293ZM57.4219 97.2266C56.8945 97.2266 56.4714 97.3535 56.1523 97.6074C55.8333 97.8548 55.6022 98.1868 55.459 98.6035C55.3223 99.0137 55.2539 99.4629 55.2539 99.9512V100.156C55.2539 100.553 55.293 100.924 55.3711 101.27C55.4492 101.608 55.5729 101.911 55.7422 102.178C55.9115 102.438 56.1361 102.643 56.416 102.793C56.696 102.936 57.0378 103.008 57.4414 103.008C57.832 103.008 58.1641 102.936 58.4375 102.793C58.7174 102.643 58.9421 102.438 59.1113 102.178C59.2806 101.911 59.4043 101.608 59.4824 101.27C59.5605 100.924 59.5996 100.553 59.5996 100.156V99.9512C59.5996 99.5801 59.5605 99.2318 59.4824 98.9063C59.4043 98.5742 59.2806 98.2845 59.1113 98.0371C58.9421 97.7832 58.7174 97.5846 58.4375 97.4414C58.1576 97.2982 57.819 97.2266 57.4219 97.2266ZM84.8047 98.7598H81.1523L81.1328 96.748H84.1992C84.7396 96.748 85.1823 96.6797 85.5273 96.543C85.8724 96.3997 86.1296 96.1947 86.2988 95.9277C86.4746 95.6543 86.5625 95.3223 86.5625 94.9316C86.5625 94.4889 86.4779 94.1309 86.3086 93.8574C86.1458 93.584 85.8887 93.3854 85.5371 93.2617C85.1921 93.138 84.7461 93.0762 84.1992 93.0762H82.168V105H79.2383V90.7813H84.1992C85.026 90.7813 85.765 90.8594 86.416 91.0156C87.0736 91.1719 87.6302 91.4095 88.0859 91.7285C88.5417 92.0475 88.89 92.4512 89.1309 92.9395C89.3717 93.4212 89.4922 93.9941 89.4922 94.6582C89.4922 95.2441 89.3587 95.7845 89.0918 96.2793C88.8314 96.7741 88.418 97.1777 87.8516 97.4902C87.2917 97.8027 86.5592 97.9753 85.6543 98.0078L84.8047 98.7598ZM84.6777 105H80.3516L81.4941 102.715H84.6777C85.1921 102.715 85.612 102.633 85.9375 102.471C86.263 102.301 86.5039 102.074 86.6602 101.787C86.8164 101.501 86.8945 101.172 86.8945 100.801C86.8945 100.384 86.8229 100.023 86.6797 99.7168C86.543 99.4108 86.3216 99.1764 86.0156 99.0137C85.7096 98.8444 85.306 98.7598 84.8047 98.7598H81.9824L82.002 96.748H85.5176L86.1914 97.5391C87.0573 97.526 87.7539 97.679 88.2812 97.998C88.8151 98.3105 89.2025 98.7174 89.4434 99.2188C89.6908 99.7201 89.8145 100.257 89.8145 100.83C89.8145 101.742 89.6159 102.51 89.2188 103.135C88.8216 103.753 88.2389 104.219 87.4707 104.531C86.709 104.844 85.778 105 84.6777 105ZM97.0996 100.586H93.7891L93.7695 98.7402H96.5039C96.8685 98.7402 97.1647 98.7044 97.3926 98.6328C97.6204 98.5547 97.7865 98.4408 97.8906 98.291C98.0013 98.1348 98.0566 97.946 98.0566 97.7246C98.0566 97.5293 98.0208 97.3633 97.9492 97.2266C97.8841 97.0833 97.7832 96.9661 97.6465 96.875C97.5098 96.7839 97.3372 96.7188 97.1289 96.6797C96.9271 96.6341 96.6895 96.6113 96.416 96.6113H94.834V105H92.0215V94.4336H96.416C97.1061 94.4336 97.7246 94.4954 98.2715 94.6191C98.8184 94.7363 99.2839 94.9154 99.668 95.1563C100.059 95.3971 100.355 95.7031 100.557 96.0742C100.765 96.4388 100.869 96.8717 100.869 97.373C100.869 97.6986 100.794 98.0046 100.645 98.291C100.501 98.5775 100.286 98.8314 100 99.0527C99.7135 99.2741 99.3587 99.4564 98.9355 99.5996C98.5189 99.7363 98.0371 99.821 97.4902 99.8535L97.0996 100.586ZM97.0996 105H93.0957L94.0625 102.822H97.0996C97.4447 102.822 97.7279 102.78 97.9492 102.695C98.1706 102.611 98.3333 102.487 98.4375 102.324C98.5482 102.155 98.6035 101.953 98.6035 101.719C98.6035 101.491 98.5547 101.292 98.457 101.123C98.3594 100.954 98.1999 100.824 97.9785 100.732C97.7637 100.635 97.4707 100.586 97.0996 100.586H94.4727L94.4922 98.7402H97.4805L98.1641 99.4824C98.9062 99.528 99.5182 99.668 100 99.9023C100.482 100.137 100.837 100.436 101.064 100.801C101.299 101.159 101.416 101.553 101.416 101.982C101.416 102.484 101.322 102.923 101.133 103.301C100.944 103.678 100.664 103.994 100.293 104.248C99.9284 104.495 99.4792 104.684 98.9453 104.814C98.4115 104.938 97.7962 105 97.0996 105ZM127.598 90.7813V93.0762L121.191 93.0762V105H118.271V90.7813H127.598ZM134.648 94.4336V96.6406H130.254V105H127.441V94.4336H134.648ZM162.256 102.715V105H152.012V102.715H162.256ZM152.881 102.715V108.486H150.127L149.971 102.715H152.881ZM164.365 102.715L164.111 108.496H161.426V102.715H164.365ZM160.645 90.7813V93.0762H153.799V90.7813H160.645ZM162.734 90.7813V105H159.814V90.7813H162.734ZM153.438 90.7813H156.367L155.986 96.5723C155.928 97.5293 155.824 98.3757 155.674 99.1113C155.531 99.8405 155.355 100.482 155.146 101.035C154.945 101.589 154.72 102.074 154.473 102.49C154.225 102.9 153.965 103.258 153.691 103.564C153.418 103.864 153.141 104.131 152.861 104.365C152.581 104.593 152.308 104.805 152.041 105H150.361V102.715H151.016C151.204 102.559 151.403 102.344 151.611 102.07C151.826 101.797 152.028 101.429 152.217 100.967C152.412 100.498 152.581 99.9056 152.725 99.1895C152.874 98.4733 152.985 97.6009 153.057 96.5723L153.438 90.7813ZM167.803 94.4336H170.615L170.527 97.9688C170.501 99.1016 170.371 100.075 170.137 100.889C169.902 101.702 169.59 102.386 169.199 102.939C168.809 103.493 168.363 103.936 167.861 104.268C167.367 104.593 166.846 104.837 166.299 105H165.771L165.742 102.832L166.035 102.803C166.367 102.458 166.641 102.122 166.855 101.797C167.07 101.465 167.236 101.117 167.354 100.752C167.471 100.387 167.555 99.9805 167.607 99.5313C167.666 99.082 167.702 98.5612 167.715 97.9688L167.803 94.4336ZM168.564 94.4336H175.566V105H172.764V96.6895H168.564V94.4336ZM165.127 102.803H177.08V108.174H174.268V105H168.008V108.174H165.127V102.803ZM203.174 102.715V105H195.605V102.715H203.174ZM196.562 90.7813V105H193.633V90.7813H196.562ZM202.188 96.5723V98.7988H195.605V96.5723H202.188ZM203.164 90.7813V93.0762H195.605V90.7813H203.164ZM209.375 105.195C208.555 105.195 207.819 105.065 207.168 104.805C206.517 104.538 205.964 104.17 205.508 103.701C205.059 103.232 204.714 102.689 204.473 102.07C204.232 101.445 204.111 100.781 204.111 100.078V99.6875C204.111 98.8867 204.225 98.1543 204.453 97.4902C204.681 96.8262 205.007 96.25 205.43 95.7617C205.859 95.2734 206.38 94.8991 206.992 94.6387C207.604 94.3717 208.294 94.2383 209.062 94.2383C209.811 94.2383 210.475 94.362 211.055 94.6094C211.634 94.8568 212.119 95.2083 212.51 95.6641C212.907 96.1198 213.206 96.6667 213.408 97.3047C213.61 97.9362 213.711 98.6393 213.711 99.4141V100.586H205.312V98.7109H210.947V98.4961C210.947 98.1055 210.876 97.7572 210.732 97.4512C210.596 97.1387 210.387 96.8913 210.107 96.709C209.827 96.5267 209.469 96.4355 209.033 96.4355C208.662 96.4355 208.343 96.5169 208.076 96.6797C207.809 96.8424 207.591 97.0703 207.422 97.3633C207.259 97.6563 207.135 98.0013 207.051 98.3984C206.973 98.7891 206.934 99.2188 206.934 99.6875V100.078C206.934 100.501 206.992 100.892 207.109 101.25C207.233 101.608 207.406 101.917 207.627 102.178C207.855 102.438 208.128 102.64 208.447 102.783C208.773 102.926 209.141 102.998 209.551 102.998C210.059 102.998 210.531 102.9 210.967 102.705C211.41 102.503 211.79 102.201 212.109 101.797L213.477 103.281C213.255 103.6 212.952 103.906 212.568 104.199C212.191 104.492 211.735 104.733 211.201 104.922C210.667 105.104 210.059 105.195 209.375 105.195ZM239.971 102.715V105H232.402V102.715H239.971ZM233.359 90.7813V105L230.43 105V90.7813H233.359ZM238.984 96.5723V98.7988H232.402V96.5723H238.984ZM239.961 90.7813V93.0762H232.402V90.7813H239.961ZM231.621 88.584C231.621 88.2454 231.748 87.959 232.002 87.7246C232.262 87.4837 232.581 87.3633 232.959 87.3633C233.35 87.3633 233.672 87.4837 233.926 87.7246C234.18 87.959 234.307 88.2454 234.307 88.584C234.307 88.9225 234.18 89.209 233.926 89.4434C233.672 89.6777 233.35 89.7949 232.959 89.7949C232.581 89.7949 232.262 89.6777 232.002 89.4434C231.748 89.209 231.621 88.9225 231.621 88.584ZM236.416 88.5938C236.416 88.2487 236.543 87.959 236.797 87.7246C237.051 87.4902 237.37 87.373 237.754 87.373C238.138 87.373 238.457 87.4902 238.711 87.7246C238.971 87.959 239.102 88.2487 239.102 88.5938C239.102 88.9323 238.971 89.2188 238.711 89.4531C238.457 89.681 238.138 89.7949 237.754 89.7949C237.37 89.7949 237.051 89.681 236.797 89.4531C236.543 89.2188 236.416 88.9323 236.416 88.5938ZM246.172 105.195C245.352 105.195 244.616 105.065 243.965 104.805C243.314 104.538 242.76 104.17 242.305 103.701C241.855 103.232 241.51 102.689 241.27 102.07C241.029 101.445 240.908 100.781 240.908 100.078V99.6875C240.908 98.8867 241.022 98.1543 241.25 97.4902C241.478 96.8262 241.803 96.25 242.227 95.7617C242.656 95.2734 243.177 94.8991 243.789 94.6387C244.401 94.3717 245.091 94.2383 245.859 94.2383C246.608 94.2383 247.272 94.362 247.852 94.6094C248.431 94.8568 248.916 95.2083 249.307 95.6641C249.704 96.1198 250.003 96.6667 250.205 97.3047C250.407 97.9362 250.508 98.6393 250.508 99.4141V100.586H242.109V98.7109H247.744V98.4961C247.744 98.1055 247.673 97.7572 247.529 97.4512C247.393 97.1387 247.184 96.8913 246.904 96.709C246.624 96.5267 246.266 96.4355 245.83 96.4355C245.459 96.4355 245.14 96.5169 244.873 96.6797C244.606 96.8424 244.388 97.0703 244.219 97.3633C244.056 97.6563 243.932 98.0013 243.848 98.3984C243.77 98.7891 243.73 99.2188 243.73 99.6875V100.078C243.73 100.501 243.789 100.892 243.906 101.25C244.03 101.608 244.202 101.917 244.424 102.178C244.652 102.438 244.925 102.64 245.244 102.783C245.57 102.926 245.938 102.998 246.348 102.998C246.855 102.998 247.327 102.9 247.764 102.705C248.206 102.503 248.587 102.201 248.906 101.797L250.273 103.281C250.052 103.6 249.749 103.906 249.365 104.199C248.988 104.492 248.532 104.733 247.998 104.922C247.464 105.104 246.855 105.195 246.172 105.195ZM241.777 91.6406C241.777 91.3021 241.904 91.0156 242.158 90.7813C242.419 90.5404 242.738 90.4199 243.115 90.4199C243.506 90.4199 243.828 90.5404 244.082 90.7813C244.336 91.0156 244.463 91.3021 244.463 91.6406C244.463 91.9792 244.336 92.2656 244.082 92.5C243.828 92.7344 243.506 92.8516 243.115 92.8516C242.738 92.8516 242.419 92.7344 242.158 92.5C241.904 92.2656 241.777 91.9792 241.777 91.6406ZM246.572 91.6504C246.572 91.3053 246.699 91.0156 246.953 90.7813C247.207 90.5469 247.526 90.4297 247.91 90.4297C248.294 90.4297 248.613 90.5469 248.867 90.7813C249.128 91.0156 249.258 91.3053 249.258 91.6504C249.258 91.9889 249.128 92.2754 248.867 92.5098C248.613 92.7376 248.294 92.8516 247.91 92.8516C247.526 92.8516 247.207 92.7376 246.953 92.5098C246.699 92.2754 246.572 91.9889 246.572 91.6504ZM276.729 99.1406L271.309 90.7813H274.951L278.135 96.543H280.605L280.225 99.1406H276.729ZM278.115 98.6914L274.746 105H271.094L275.752 96.9922L278.115 98.6914ZM282.52 90.7813V105H279.609V90.7813H282.52ZM290.703 90.7813L285.361 99.1406H281.885L281.504 96.543H283.955L287.061 90.7813H290.703ZM287.266 105L283.975 98.6914L286.348 96.9922L290.918 105H287.266ZM295.762 101.016L291.367 94.4336H294.854L297.1 98.418H299.121L298.779 101.016L295.762 101.016ZM297.139 100.537L294.727 105H291.338L294.844 99.1797L297.139 100.537ZM300.947 94.4336V105L298.135 105V94.4336H300.947ZM307.744 94.4336L303.35 101.016H300.332L299.99 98.418H302.012L304.248 94.4336H307.744ZM304.375 105L301.963 100.537L304.346 99.1797L307.832 105H304.375ZM324.648 98.1836H322.441V96.6309H324.199C324.714 96.6309 325.13 96.5527 325.449 96.3965C325.768 96.2337 326.003 96.0059 326.152 95.7129C326.302 95.4199 326.377 95.0749 326.377 94.6777C326.377 94.3522 326.292 94.0527 326.123 93.7793C325.96 93.5059 325.706 93.2878 325.361 93.125C325.016 92.9557 324.577 92.8711 324.043 92.8711C323.639 92.8711 323.271 92.9427 322.939 93.0859C322.607 93.2292 322.344 93.431 322.148 93.6914C321.953 93.9453 321.855 94.2546 321.855 94.6191H318.936C318.936 93.9941 319.069 93.4342 319.336 92.9395C319.609 92.4382 319.98 92.015 320.449 91.6699C320.924 91.3184 321.471 91.0514 322.09 90.8691C322.708 90.6868 323.359 90.5957 324.043 90.5957C324.844 90.5957 325.566 90.6836 326.211 90.8594C326.855 91.0286 327.409 91.2826 327.871 91.6211C328.333 91.9596 328.688 92.3796 328.936 92.8809C329.183 93.3822 329.307 93.9648 329.307 94.6289C329.307 95.1172 329.196 95.5762 328.975 96.0059C328.753 96.4355 328.438 96.8132 328.027 97.1387C327.617 97.4642 327.126 97.7214 326.553 97.9102C325.98 98.0924 325.345 98.1836 324.648 98.1836ZM322.441 97.334H324.648C325.423 97.334 326.11 97.4154 326.709 97.5781C327.314 97.7409 327.826 97.9785 328.242 98.291C328.665 98.6035 328.984 98.9909 329.199 99.4531C329.421 99.9089 329.531 100.433 329.531 101.025C329.531 101.689 329.395 102.279 329.121 102.793C328.854 103.307 328.473 103.743 327.979 104.102C327.49 104.46 326.911 104.73 326.24 104.912C325.576 105.094 324.844 105.186 324.043 105.186C323.405 105.186 322.77 105.107 322.139 104.951C321.507 104.788 320.934 104.541 320.42 104.209C319.906 103.877 319.495 103.451 319.189 102.93C318.883 102.409 318.73 101.784 318.73 101.055H321.67C321.67 101.4 321.771 101.715 321.973 102.002C322.174 102.282 322.454 102.507 322.812 102.676C323.171 102.839 323.581 102.92 324.043 102.92C324.583 102.92 325.042 102.835 325.42 102.666C325.804 102.497 326.094 102.266 326.289 101.973C326.491 101.673 326.592 101.344 326.592 100.986C326.592 100.602 326.54 100.277 326.436 100.01C326.331 99.7428 326.178 99.5247 325.977 99.3555C325.775 99.1797 325.524 99.0527 325.225 98.9746C324.932 98.8965 324.59 98.8574 324.199 98.8574H322.441V97.334ZM336.23 99.9609H334.141V98.7012H335.635C335.986 98.7012 336.266 98.6523 336.475 98.5547C336.689 98.457 336.842 98.3203 336.934 98.1445C337.031 97.9622 337.08 97.7572 337.08 97.5293C337.08 97.3275 337.038 97.1354 336.953 96.9531C336.875 96.7643 336.732 96.6113 336.523 96.4941C336.322 96.3704 336.035 96.3086 335.664 96.3086C335.358 96.3086 335.085 96.3542 334.844 96.4453C334.609 96.5365 334.424 96.6699 334.287 96.8457C334.157 97.015 334.092 97.2201 334.092 97.4609H331.27C331.27 96.7904 331.462 96.2174 331.846 95.7422C332.23 95.2604 332.744 94.8926 333.389 94.6387C334.033 94.3783 334.74 94.248 335.508 94.248C336.178 94.248 336.784 94.3164 337.324 94.4531C337.865 94.5833 338.327 94.7786 338.711 95.0391C339.095 95.2995 339.388 95.6217 339.59 96.0059C339.798 96.3835 339.902 96.8229 339.902 97.3242C339.902 97.6823 339.818 98.0208 339.648 98.3398C339.479 98.6589 339.235 98.9421 338.916 99.1895C338.597 99.4303 338.21 99.6191 337.754 99.7559C337.305 99.8926 336.797 99.9609 336.23 99.9609ZM334.141 99.2578H336.23C336.862 99.2578 337.415 99.3197 337.891 99.4434C338.372 99.5605 338.776 99.7363 339.102 99.9707C339.427 100.205 339.671 100.495 339.834 100.84C340.003 101.178 340.088 101.569 340.088 102.012C340.088 102.513 339.977 102.962 339.756 103.359C339.535 103.75 339.219 104.082 338.809 104.355C338.398 104.629 337.913 104.837 337.354 104.98C336.794 105.124 336.178 105.195 335.508 105.195C334.792 105.195 334.095 105.078 333.418 104.844C332.741 104.609 332.184 104.248 331.748 103.76C331.318 103.271 331.104 102.643 331.104 101.875H333.926C333.926 102.096 333.991 102.305 334.121 102.5C334.251 102.695 334.447 102.852 334.707 102.969C334.967 103.079 335.29 103.135 335.674 103.135C336.058 103.135 336.367 103.073 336.602 102.949C336.836 102.826 337.005 102.663 337.109 102.461C337.22 102.253 337.275 102.038 337.275 101.816C337.275 101.504 337.214 101.25 337.09 101.055C336.973 100.859 336.79 100.716 336.543 100.625C336.302 100.534 335.999 100.488 335.635 100.488H334.141V99.2578ZM359.756 100.391L365.469 90.7813H368.398V105H365.469V95.3906L359.756 105H356.826V90.7813H359.756V100.391ZM373.564 101.074L377.109 94.4336H379.922V105H377.109V98.3496L373.564 105H370.752V94.4336H373.564V101.074ZM400.029 100.391L405.742 90.7813H408.672V105H405.742V95.3906L400.029 105H397.1V90.7813H400.029V100.391ZM404.307 87.0508H406.309C406.309 87.6107 406.169 88.1087 405.889 88.5449C405.615 88.9746 405.225 89.3132 404.717 89.5605C404.209 89.8014 403.61 89.9219 402.92 89.9219C401.872 89.9219 401.042 89.6549 400.43 89.1211C399.824 88.5872 399.521 87.8971 399.521 87.0508L401.514 87.0508C401.514 87.3893 401.618 87.6921 401.826 87.959C402.041 88.2259 402.406 88.3594 402.92 88.3594C403.428 88.3594 403.786 88.2259 403.994 87.959C404.202 87.6921 404.307 87.3893 404.307 87.0508ZM413.838 101.074L417.383 94.4336H420.195V105H417.383V98.3496L413.838 105H411.025V94.4336H413.838V101.074ZM417.061 90.1855H419.062C419.062 90.7454 418.923 91.2435 418.643 91.6797C418.369 92.1094 417.979 92.4479 417.471 92.6953C416.963 92.9362 416.364 93.0566 415.674 93.0566C414.626 93.0566 413.796 92.7897 413.184 92.2559C412.578 91.722 412.275 91.0319 412.275 90.1855H414.268C414.268 90.5241 414.372 90.8268 414.58 91.0938C414.795 91.3607 415.16 91.4941 415.674 91.4941C416.182 91.4941 416.54 91.3607 416.748 91.0938C416.956 90.8268 417.061 90.5241 417.061 90.1855ZM440.42 90.7813V105H437.49V90.7813H440.42ZM448.799 90.7813L443.35 99.1309H439.766L439.395 96.5234H441.787L445.244 90.7813H448.799ZM445.781 105L441.797 98.6426L443.828 96.5527L449.258 105H445.781ZM453.154 94.4336V105H450.342V94.4336H453.154ZM460.02 94.4336L455.469 101.045H452.656L452.314 98.4473H454.18L456.455 94.4336H460.02ZM456.582 105L453.984 100.537L456.436 99.1797L460.352 105H456.582ZM481.025 90.7813V93.0762L473.955 93.0762V90.7813H481.025ZM483.115 90.7813V105H480.186V90.7813H483.115ZM473.584 90.7813H476.504L476.143 97.9199C476.09 98.9876 475.99 99.9154 475.84 100.703C475.697 101.491 475.501 102.161 475.254 102.715C475.007 103.262 474.701 103.704 474.336 104.043C473.978 104.375 473.555 104.619 473.066 104.775C472.578 104.925 472.021 105 471.396 105H470.674V102.715L471.045 102.686C471.364 102.653 471.644 102.568 471.885 102.432C472.126 102.295 472.331 102.09 472.5 101.816C472.676 101.543 472.819 101.195 472.93 100.771C473.047 100.342 473.138 99.8177 473.203 99.1992C473.275 98.5807 473.324 97.8581 473.35 97.0313L473.584 90.7813ZM492.773 94.4336V96.6406H487.578V94.4336H492.773ZM494.834 94.4336V105H492.021V94.4336H494.834ZM486.875 94.4336H489.639L489.355 99.7656C489.316 100.527 489.235 101.198 489.111 101.777C488.988 102.357 488.822 102.852 488.613 103.262C488.411 103.672 488.167 104.007 487.881 104.268C487.601 104.521 487.272 104.707 486.895 104.824C486.523 104.941 486.113 105 485.664 105H484.805L484.775 102.783L485.137 102.744C485.345 102.725 485.527 102.666 485.684 102.568C485.846 102.464 485.983 102.318 486.094 102.129C486.211 101.934 486.309 101.689 486.387 101.396C486.465 101.097 486.527 100.745 486.572 100.342C486.624 99.9382 486.66 99.4727 486.68 98.9453L486.875 94.4336ZM2.60742 120.781H5.08789L8.74023 131.221L12.3926 120.781H14.873L9.73633 135H7.74414L2.60742 120.781ZM1.26953 120.781H3.74023L4.18945 130.957V135H1.26953L1.26953 120.781ZM13.7402 120.781H16.2207V135H13.291L13.291 130.957L13.7402 120.781ZM25.0391 131.768L27.8125 124.434H30.1074L25.9863 135H24.0918L19.9902 124.434H22.2852L25.0391 131.768ZM21.6113 124.434V135H18.7988V124.434H21.6113ZM28.5352 135V124.434H31.3477V135H28.5352ZM63.3887 126.572V128.857H55.9668V126.572H63.3887ZM56.8359 120.781V135H53.9062V120.781H56.8359ZM65.4785 120.781L65.4785 135H62.5586V120.781H65.4785ZM75.0879 128.701V130.889H69.7168V128.701H75.0879ZM70.6543 124.434L70.6543 135H67.8418L67.8418 124.434H70.6543ZM76.9922 124.434L76.9922 135H74.1699L74.1699 124.434H76.9922ZM105.977 127.559V128.232C105.977 129.313 105.83 130.283 105.537 131.143C105.244 132.002 104.831 132.734 104.297 133.34C103.763 133.939 103.125 134.398 102.383 134.717C101.647 135.036 100.83 135.195 99.9316 135.195C99.0397 135.195 98.2227 135.036 97.4805 134.717C96.7448 134.398 96.1068 133.939 95.5664 133.34C95.026 132.734 94.6061 132.002 94.3066 131.143C94.0137 130.283 93.8672 129.313 93.8672 128.232V127.559C93.8672 126.471 94.0137 125.501 94.3066 124.648C94.5996 123.789 95.013 123.057 95.5469 122.451C96.0872 121.846 96.7253 121.383 97.4609 121.064C98.2031 120.745 99.0202 120.586 99.9121 120.586C100.811 120.586 101.628 120.745 102.363 121.064C103.105 121.383 103.743 121.846 104.277 122.451C104.818 123.057 105.234 123.789 105.527 124.648C105.827 125.501 105.977 126.471 105.977 127.559ZM103.018 128.232V127.539C103.018 126.784 102.949 126.12 102.812 125.547C102.676 124.974 102.474 124.492 102.207 124.102C101.94 123.711 101.615 123.418 101.23 123.223C100.846 123.021 100.407 122.92 99.9121 122.92C99.4173 122.92 98.9779 123.021 98.5938 123.223C98.2161 123.418 97.8939 123.711 97.627 124.102C97.3665 124.492 97.168 124.974 97.0312 125.547C96.8945 126.12 96.8262 126.784 96.8262 127.539V128.232C96.8262 128.981 96.8945 129.645 97.0312 130.225C97.168 130.798 97.3698 131.283 97.6367 131.68C97.9036 132.07 98.2292 132.367 98.6133 132.568C98.9974 132.77 99.4368 132.871 99.9316 132.871C100.426 132.871 100.866 132.77 101.25 132.568C101.634 132.367 101.956 132.07 102.217 131.68C102.477 131.283 102.676 130.798 102.812 130.225C102.949 129.645 103.018 128.981 103.018 128.232ZM107.461 129.824V129.619C107.461 128.844 107.572 128.132 107.793 127.48C108.014 126.823 108.337 126.253 108.76 125.771C109.183 125.29 109.704 124.915 110.322 124.648C110.941 124.375 111.65 124.238 112.451 124.238C113.252 124.238 113.965 124.375 114.59 124.648C115.215 124.915 115.739 125.29 116.162 125.771C116.592 126.253 116.917 126.823 117.139 127.48C117.36 128.132 117.471 128.844 117.471 129.619V129.824C117.471 130.592 117.36 131.305 117.139 131.963C116.917 132.614 116.592 133.184 116.162 133.672C115.739 134.154 115.218 134.528 114.6 134.795C113.981 135.062 113.271 135.195 112.471 135.195C111.67 135.195 110.957 135.062 110.332 134.795C109.714 134.528 109.189 134.154 108.76 133.672C108.337 133.184 108.014 132.614 107.793 131.963C107.572 131.305 107.461 130.592 107.461 129.824ZM110.273 129.619V129.824C110.273 130.267 110.312 130.68 110.391 131.064C110.469 131.449 110.592 131.787 110.762 132.08C110.937 132.367 111.165 132.591 111.445 132.754C111.725 132.917 112.067 132.998 112.471 132.998C112.861 132.998 113.197 132.917 113.477 132.754C113.757 132.591 113.981 132.367 114.15 132.08C114.32 131.787 114.443 131.449 114.521 131.064C114.606 130.68 114.648 130.267 114.648 129.824V129.619C114.648 129.189 114.606 128.786 114.521 128.408C114.443 128.024 114.316 127.686 114.141 127.393C113.971 127.093 113.747 126.859 113.467 126.689C113.187 126.52 112.848 126.436 112.451 126.436C112.054 126.436 111.715 126.52 111.436 126.689C111.162 126.859 110.938 127.093 110.762 127.393C110.592 127.686 110.469 128.024 110.391 128.408C110.312 128.786 110.273 129.189 110.273 129.619ZM145.898 120.781V135H142.969V123.076H137.256V135H134.326V120.781H145.898ZM155.391 124.434V126.641H150.273V124.434H155.391ZM151.084 124.434V135H148.271V124.434H151.084ZM157.441 124.434V135H154.619V124.434H157.441ZM180.264 129.932H176.641V127.646H180.264C180.824 127.646 181.279 127.555 181.631 127.373C181.982 127.184 182.24 126.924 182.402 126.592C182.565 126.26 182.646 125.885 182.646 125.469C182.646 125.046 182.565 124.652 182.402 124.287C182.24 123.923 181.982 123.63 181.631 123.408C181.279 123.187 180.824 123.076 180.264 123.076H177.656V135H174.727V120.781H180.264C181.377 120.781 182.331 120.983 183.125 121.387C183.926 121.784 184.538 122.334 184.961 123.037C185.384 123.74 185.596 124.544 185.596 125.449C185.596 126.367 185.384 127.161 184.961 127.832C184.538 128.503 183.926 129.02 183.125 129.385C182.331 129.749 181.377 129.932 180.264 129.932ZM190.254 126.465V139.063H187.441V124.434H190.049L190.254 126.465ZM196.943 129.6V129.805C196.943 130.573 196.852 131.286 196.67 131.943C196.494 132.601 196.234 133.174 195.889 133.662C195.544 134.144 195.114 134.521 194.6 134.795C194.092 135.062 193.506 135.195 192.842 135.195C192.197 135.195 191.637 135.065 191.162 134.805C190.687 134.544 190.286 134.18 189.961 133.711C189.642 133.236 189.385 132.686 189.189 132.061C188.994 131.436 188.844 130.765 188.74 130.049V129.512C188.844 128.743 188.994 128.04 189.189 127.402C189.385 126.758 189.642 126.201 189.961 125.732C190.286 125.257 190.684 124.889 191.152 124.629C191.628 124.368 192.184 124.238 192.822 124.238C193.493 124.238 194.082 124.365 194.59 124.619C195.104 124.873 195.534 125.238 195.879 125.713C196.23 126.188 196.494 126.755 196.67 127.412C196.852 128.07 196.943 128.799 196.943 129.6ZM194.121 129.805V129.6C194.121 129.15 194.082 128.737 194.004 128.359C193.932 127.975 193.815 127.64 193.652 127.354C193.496 127.067 193.288 126.846 193.027 126.689C192.773 126.527 192.464 126.445 192.1 126.445C191.715 126.445 191.387 126.507 191.113 126.631C190.846 126.755 190.628 126.934 190.459 127.168C190.29 127.402 190.163 127.682 190.078 128.008C189.993 128.333 189.941 128.701 189.922 129.111V130.469C189.954 130.951 190.046 131.383 190.195 131.768C190.345 132.145 190.576 132.445 190.889 132.666C191.201 132.887 191.611 132.998 192.119 132.998C192.49 132.998 192.803 132.917 193.057 132.754C193.311 132.585 193.516 132.354 193.672 132.061C193.835 131.768 193.949 131.429 194.014 131.045C194.085 130.661 194.121 130.247 194.121 129.805ZM222.051 130.283H224.971C224.912 131.24 224.648 132.09 224.18 132.832C223.717 133.574 223.07 134.154 222.236 134.57C221.41 134.987 220.413 135.195 219.248 135.195C218.337 135.195 217.52 135.039 216.797 134.727C216.074 134.408 215.456 133.952 214.941 133.359C214.434 132.767 214.046 132.051 213.779 131.211C213.512 130.371 213.379 129.43 213.379 128.389V127.402C213.379 126.361 213.516 125.42 213.789 124.58C214.069 123.734 214.466 123.014 214.98 122.422C215.501 121.829 216.123 121.374 216.846 121.055C217.568 120.736 218.376 120.576 219.268 120.576C220.452 120.576 221.452 120.791 222.266 121.221C223.086 121.65 223.721 122.243 224.17 122.998C224.626 123.753 224.899 124.613 224.99 125.576H222.061C222.028 125.003 221.914 124.518 221.719 124.121C221.523 123.717 221.227 123.415 220.83 123.213C220.439 123.005 219.919 122.9 219.268 122.9C218.779 122.9 218.353 122.992 217.988 123.174C217.624 123.356 217.318 123.633 217.07 124.004C216.823 124.375 216.637 124.844 216.514 125.41C216.396 125.97 216.338 126.628 216.338 127.383V128.389C216.338 129.124 216.393 129.772 216.504 130.332C216.615 130.885 216.784 131.354 217.012 131.738C217.246 132.116 217.546 132.402 217.91 132.598C218.281 132.786 218.727 132.881 219.248 132.881C219.86 132.881 220.365 132.783 220.762 132.588C221.159 132.393 221.462 132.103 221.67 131.719C221.885 131.335 222.012 130.856 222.051 130.283ZM231.084 132.998C231.429 132.998 231.735 132.933 232.002 132.803C232.269 132.666 232.477 132.477 232.627 132.236C232.783 131.989 232.865 131.699 232.871 131.367H235.518C235.511 132.109 235.312 132.77 234.922 133.35C234.531 133.923 234.007 134.375 233.35 134.707C232.692 135.033 231.956 135.195 231.143 135.195C230.322 135.195 229.606 135.059 228.994 134.785C228.389 134.512 227.884 134.134 227.48 133.652C227.077 133.164 226.774 132.598 226.572 131.953C226.37 131.302 226.27 130.605 226.27 129.863V129.58C226.27 128.831 226.37 128.135 226.572 127.49C226.774 126.839 227.077 126.273 227.48 125.791C227.884 125.303 228.389 124.922 228.994 124.648C229.6 124.375 230.309 124.238 231.123 124.238C231.989 124.238 232.747 124.404 233.398 124.736C234.056 125.068 234.57 125.544 234.941 126.162C235.319 126.774 235.511 127.5 235.518 128.34H232.871C232.865 127.988 232.79 127.669 232.646 127.383C232.51 127.096 232.308 126.868 232.041 126.699C231.781 126.523 231.458 126.436 231.074 126.436C230.664 126.436 230.329 126.523 230.068 126.699C229.808 126.868 229.606 127.103 229.463 127.402C229.32 127.695 229.219 128.031 229.16 128.408C229.108 128.779 229.082 129.17 229.082 129.58V129.863C229.082 130.273 229.108 130.667 229.16 131.045C229.212 131.423 229.31 131.758 229.453 132.051C229.603 132.344 229.808 132.575 230.068 132.744C230.329 132.913 230.667 132.998 231.084 132.998ZM258.096 120.781V135H255.176V120.781H258.096ZM262.471 120.781V123.076H250.869V120.781H262.471ZM268.584 124.434V135H265.762V124.434H268.584ZM271.982 124.434V126.611H262.412V124.434H271.982ZM292.998 129.844L296.494 120.781H299.648L294.775 132.246C294.606 132.637 294.411 133.011 294.189 133.369C293.975 133.721 293.717 134.036 293.418 134.316C293.118 134.59 292.76 134.808 292.344 134.971C291.927 135.127 291.429 135.205 290.85 135.205C290.706 135.205 290.531 135.202 290.322 135.195C290.114 135.189 289.948 135.179 289.824 135.166L289.805 132.881C289.883 132.9 290.007 132.913 290.176 132.92C290.345 132.92 290.469 132.92 290.547 132.92C290.931 132.92 291.234 132.865 291.455 132.754C291.676 132.643 291.852 132.487 291.982 132.285C292.119 132.077 292.24 131.833 292.344 131.553L292.998 129.844ZM290.684 120.781L293.926 127.822L294.834 131.055L292.656 131.094L287.539 120.781H290.684ZM304.131 133.809L306.934 124.434H309.951L305.703 136.592C305.612 136.859 305.488 137.145 305.332 137.451C305.182 137.757 304.977 138.047 304.717 138.32C304.463 138.6 304.141 138.828 303.75 139.004C303.366 139.18 302.894 139.268 302.334 139.268C302.067 139.268 301.849 139.251 301.68 139.219C301.51 139.186 301.309 139.141 301.074 139.082V137.021C301.146 137.021 301.221 137.021 301.299 137.021C301.377 137.028 301.452 137.031 301.523 137.031C301.895 137.031 302.197 136.989 302.432 136.904C302.666 136.82 302.855 136.689 302.998 136.514C303.141 136.344 303.255 136.123 303.34 135.85L304.131 133.809ZM302.959 124.434L305.254 132.09L305.654 135.068L303.74 135.273L299.941 124.434H302.959ZM336.523 122.061H339.688C340.534 122.061 341.315 122.201 342.031 122.48C342.747 122.754 343.369 123.151 343.896 123.672C344.43 124.186 344.844 124.808 345.137 125.537C345.43 126.26 345.576 127.067 345.576 127.959C345.576 128.831 345.43 129.626 345.137 130.342C344.844 131.051 344.43 131.66 343.896 132.168C343.369 132.676 342.747 133.066 342.031 133.34C341.315 133.613 340.534 133.75 339.688 133.75H336.523C335.671 133.75 334.886 133.613 334.17 133.34C333.454 133.066 332.829 132.679 332.295 132.178C331.761 131.67 331.344 131.061 331.045 130.352C330.752 129.642 330.605 128.851 330.605 127.979C330.605 127.087 330.752 126.279 331.045 125.557C331.344 124.827 331.761 124.202 332.295 123.682C332.829 123.161 333.454 122.76 334.17 122.48C334.886 122.201 335.671 122.061 336.523 122.061ZM336.523 124.404C335.898 124.404 335.348 124.541 334.873 124.814C334.398 125.088 334.03 125.492 333.77 126.025C333.509 126.553 333.379 127.204 333.379 127.979C333.379 128.538 333.454 129.033 333.604 129.463C333.76 129.886 333.978 130.241 334.258 130.527C334.538 130.814 334.87 131.032 335.254 131.182C335.638 131.331 336.061 131.406 336.523 131.406H339.707C340.326 131.406 340.866 131.273 341.328 131.006C341.797 130.739 342.161 130.348 342.422 129.834C342.682 129.32 342.812 128.695 342.812 127.959C342.812 127.38 342.738 126.868 342.588 126.426C342.438 125.983 342.227 125.612 341.953 125.313C341.68 125.013 341.351 124.788 340.967 124.639C340.589 124.482 340.169 124.404 339.707 124.404H336.523ZM339.512 120.195V135.586H336.699V120.195H339.512ZM360.186 129.785V129.99C360.186 130.752 360.101 131.452 359.932 132.09C359.769 132.721 359.521 133.271 359.189 133.74C358.857 134.202 358.451 134.561 357.969 134.814C357.487 135.068 356.93 135.195 356.299 135.195C355.713 135.195 355.205 135.085 354.775 134.863C354.352 134.635 353.994 134.32 353.701 133.916C353.415 133.506 353.18 133.031 352.998 132.49C352.822 131.943 352.692 131.354 352.607 130.723V129.033C352.692 128.356 352.822 127.728 352.998 127.148C353.174 126.563 353.405 126.051 353.691 125.615C353.984 125.179 354.342 124.84 354.766 124.6C355.189 124.359 355.693 124.238 356.279 124.238C356.787 124.238 357.246 124.326 357.656 124.502C358.073 124.678 358.438 124.928 358.75 125.254C359.069 125.579 359.333 125.973 359.541 126.436C359.756 126.891 359.915 127.402 360.02 127.969C360.13 128.535 360.186 129.141 360.186 129.785ZM357.363 129.99V129.785C357.363 129.421 357.34 129.072 357.295 128.74C357.256 128.402 357.191 128.092 357.1 127.813C357.015 127.533 356.901 127.292 356.758 127.09C356.615 126.882 356.442 126.722 356.24 126.611C356.038 126.494 355.807 126.436 355.547 126.436C355.091 126.436 354.717 126.527 354.424 126.709C354.137 126.885 353.923 127.139 353.779 127.471C353.643 127.796 353.564 128.18 353.545 128.623V131.143C353.571 131.52 353.652 131.849 353.789 132.129C353.932 132.402 354.147 132.617 354.434 132.773C354.727 132.923 355.104 132.998 355.566 132.998C355.898 132.998 356.178 132.923 356.406 132.773C356.641 132.624 356.826 132.412 356.963 132.139C357.106 131.865 357.207 131.549 357.266 131.191C357.331 130.827 357.363 130.426 357.363 129.99ZM346.895 129.99V129.785C346.895 129.141 346.95 128.535 347.061 127.969C347.171 127.402 347.331 126.891 347.539 126.436C347.754 125.973 348.018 125.579 348.33 125.254C348.643 124.928 349.004 124.678 349.414 124.502C349.831 124.326 350.293 124.238 350.801 124.238C351.38 124.238 351.882 124.359 352.305 124.6C352.728 124.84 353.083 125.179 353.369 125.615C353.656 126.051 353.887 126.563 354.062 127.148C354.238 127.728 354.372 128.356 354.463 129.033V130.645C354.372 131.296 354.238 131.898 354.062 132.451C353.887 132.998 353.652 133.48 353.359 133.896C353.073 134.307 352.718 134.626 352.295 134.854C351.872 135.081 351.367 135.195 350.781 135.195C350.156 135.195 349.6 135.068 349.111 134.814C348.63 134.561 348.223 134.202 347.891 133.74C347.565 133.271 347.318 132.721 347.148 132.09C346.979 131.452 346.895 130.752 346.895 129.99ZM349.707 129.785V129.99C349.707 130.426 349.736 130.827 349.795 131.191C349.86 131.549 349.961 131.865 350.098 132.139C350.241 132.406 350.426 132.614 350.654 132.764C350.882 132.913 351.162 132.988 351.494 132.988C351.963 132.988 352.34 132.91 352.627 132.754C352.92 132.598 353.138 132.376 353.281 132.09C353.424 131.803 353.503 131.462 353.516 131.064V128.623C353.503 128.18 353.424 127.796 353.281 127.471C353.145 127.139 352.933 126.885 352.646 126.709C352.36 126.527 351.982 126.436 351.514 126.436C351.182 126.436 350.898 126.523 350.664 126.699C350.436 126.875 350.251 127.116 350.107 127.422C349.971 127.728 349.87 128.086 349.805 128.496C349.74 128.9 349.707 129.329 349.707 129.785ZM352.109 139.063V120H354.932V139.063H352.109ZM379.482 120.781L382.158 125.742L384.834 120.781H388.184L384.053 127.832L388.291 135H384.912L382.158 129.941L379.404 135H376.006L380.254 127.832L376.113 120.781H379.482ZM391.855 124.434L393.604 127.646L395.4 124.434H398.398L395.41 129.6L398.535 135H395.527L393.623 131.602L391.719 135H388.711L391.836 129.6L388.848 124.434H391.855ZM428.262 132.725L428.076 138.428H425.342V135H424.18V132.725H428.262ZM414.736 135V120.781H417.656V132.715H423.379V120.781H426.318V135H414.736ZM429.873 135V124.434H432.686V132.803H436.221V124.434H439.043V135H429.873ZM440.625 132.813L440.439 138.135H437.822V135H436.641V132.813H440.625ZM457.256 120.781H460.195V125.146C460.195 125.771 460.29 126.26 460.479 126.611C460.674 126.963 460.967 127.21 461.357 127.354C461.755 127.49 462.246 127.559 462.832 127.559C463.053 127.559 463.314 127.549 463.613 127.529C463.919 127.51 464.232 127.48 464.551 127.441C464.87 127.396 465.176 127.347 465.469 127.295C465.762 127.236 466.006 127.171 466.201 127.1V129.385C466.006 129.45 465.762 129.512 465.469 129.57C465.176 129.629 464.87 129.681 464.551 129.727C464.232 129.766 463.919 129.795 463.613 129.814C463.314 129.834 463.053 129.844 462.832 129.844C461.699 129.844 460.716 129.681 459.883 129.355C459.049 129.03 458.402 128.522 457.939 127.832C457.484 127.135 457.256 126.24 457.256 125.146V120.781ZM465.586 120.781H468.516V135H465.586V120.781ZM479.512 124.434V135H476.689V124.434H479.512ZM478.184 128.955V131.152C477.969 131.263 477.692 131.367 477.354 131.465C477.015 131.563 476.657 131.641 476.279 131.699C475.908 131.751 475.563 131.777 475.244 131.777C474.229 131.777 473.356 131.637 472.627 131.357C471.904 131.077 471.348 130.638 470.957 130.039C470.566 129.44 470.371 128.672 470.371 127.734V124.424H473.184V127.734C473.184 128.21 473.255 128.584 473.398 128.857C473.542 129.124 473.763 129.313 474.062 129.424C474.368 129.528 474.762 129.58 475.244 129.58C475.583 129.58 475.911 129.554 476.23 129.502C476.549 129.45 476.868 129.378 477.188 129.287C477.507 129.196 477.839 129.085 478.184 128.955ZM1.24023 150.781H4.17969L4.17969 162.715H8.14453L8.14453 150.781H11.0742L11.0742 162.715H15L15 150.781H17.9199L17.9199 165H1.24023L1.24023 150.781ZM20.2441 154.434H23.0566L23.0566 162.803H25.9766L25.9766 154.434H28.8086L28.8086 162.803H31.7187L31.7187 154.434H34.5312V165H20.2441L20.2441 154.434ZM70.4492 162.803L70.2637 168.418H67.6465V164.99H66.4551V162.803H70.4492ZM51.8848 150.781H54.8242V162.715H58.7891V150.781H61.7187V162.715H65.6445V150.781H68.5645V165H51.8848V150.781ZM88.5449 162.812L88.3496 168.135H85.7324V165H84.5508V162.812H88.5449ZM72.1289 154.434H74.9414V162.803H77.8711V154.434H80.6934V162.803H83.6133V154.434H86.4258V165H72.1289V154.434ZM104.297 152.979V150.781H109.404V152.979H104.297ZM110.156 155.967H113.477C114.59 155.967 115.55 156.152 116.357 156.523C117.171 156.895 117.796 157.415 118.232 158.086C118.669 158.757 118.887 159.538 118.887 160.43C118.887 161.107 118.76 161.725 118.506 162.285C118.258 162.839 117.9 163.32 117.432 163.73C116.963 164.134 116.396 164.447 115.732 164.668C115.068 164.889 114.316 165 113.477 165H108.242V150.781H111.182V162.715H113.477C114.03 162.715 114.489 162.611 114.854 162.402C115.225 162.194 115.501 161.917 115.684 161.572C115.866 161.221 115.957 160.833 115.957 160.41C115.957 160.007 115.866 159.642 115.684 159.316C115.501 158.984 115.225 158.724 114.854 158.535C114.489 158.346 114.03 158.252 113.477 158.252H110.156V155.967ZM125.322 154.434V156.641H119.844V154.434H125.322ZM124.639 157.568H127.695C128.659 157.568 129.482 157.728 130.166 158.047C130.85 158.359 131.37 158.796 131.729 159.355C132.093 159.915 132.275 160.563 132.275 161.299C132.275 161.833 132.171 162.327 131.963 162.783C131.761 163.232 131.462 163.623 131.064 163.955C130.674 164.287 130.195 164.544 129.629 164.727C129.062 164.909 128.418 165 127.695 165H122.871V154.434H125.693V162.812H127.695C128.118 162.812 128.457 162.744 128.711 162.607C128.971 162.464 129.16 162.279 129.277 162.051C129.401 161.823 129.463 161.576 129.463 161.309C129.463 161.029 129.401 160.775 129.277 160.547C129.16 160.312 128.971 160.124 128.711 159.98C128.457 159.837 128.118 159.766 127.695 159.766H124.639V157.568ZM155.801 155.967H159.121C160.234 155.967 161.195 156.152 162.002 156.523C162.816 156.895 163.438 157.415 163.867 158.086C164.303 158.757 164.521 159.538 164.521 160.43C164.521 161.107 164.398 161.725 164.15 162.285C163.903 162.839 163.545 163.32 163.076 163.73C162.607 164.134 162.041 164.447 161.377 164.668C160.713 164.889 159.961 165 159.121 165H153.887V150.781H156.826V162.715H159.121C159.674 162.715 160.133 162.611 160.498 162.402C160.869 162.194 161.146 161.917 161.328 161.572C161.51 161.221 161.602 160.833 161.602 160.41C161.602 160.007 161.51 159.642 161.328 159.316C161.146 158.984 160.869 158.724 160.498 158.535C160.133 158.346 159.674 158.252 159.121 158.252H155.801V155.967ZM168.701 150.781V165H165.781V150.781H168.701ZM173.018 157.568H176.084C177.048 157.568 177.868 157.728 178.545 158.047C179.229 158.359 179.749 158.796 180.107 159.355C180.472 159.915 180.654 160.563 180.654 161.299C180.654 161.833 180.55 162.327 180.342 162.783C180.14 163.232 179.844 163.623 179.453 163.955C179.062 164.287 178.584 164.544 178.018 164.727C177.451 164.909 176.807 165 176.084 165H171.26V154.434H174.082V162.813H176.084C176.507 162.813 176.846 162.744 177.1 162.607C177.36 162.464 177.549 162.279 177.666 162.051C177.79 161.823 177.852 161.576 177.852 161.309C177.852 161.029 177.79 160.775 177.666 160.547C177.549 160.313 177.36 160.124 177.1 159.98C176.846 159.837 176.507 159.766 176.084 159.766H173.018V157.568ZM185.166 154.434V165H182.354V154.434H185.166ZM204.648 155.967H207.969C209.089 155.967 210.052 156.152 210.859 156.523C211.667 156.895 212.288 157.415 212.725 158.086C213.161 158.757 213.379 159.538 213.379 160.43C213.379 161.107 213.255 161.725 213.008 162.285C212.76 162.839 212.399 163.32 211.924 163.73C211.455 164.134 210.889 164.447 210.225 164.668C209.561 164.889 208.809 165 207.969 165H202.734V150.781H205.674V162.715H207.969C208.529 162.715 208.991 162.611 209.355 162.402C209.72 162.194 209.993 161.917 210.176 161.572C210.365 161.221 210.459 160.833 210.459 160.41C210.459 160.007 210.365 159.642 210.176 159.316C209.993 158.984 209.72 158.724 209.355 158.535C208.991 158.346 208.529 158.252 207.969 158.252H204.648V155.967ZM216.729 157.568H219.795C220.758 157.568 221.579 157.728 222.256 158.047C222.939 158.359 223.46 158.796 223.818 159.355C224.183 159.915 224.365 160.563 224.365 161.299C224.365 161.833 224.261 162.327 224.053 162.783C223.851 163.232 223.555 163.623 223.164 163.955C222.773 164.287 222.295 164.544 221.729 164.727C221.162 164.909 220.518 165 219.795 165H214.971V154.434H217.793V162.813H219.795C220.218 162.813 220.557 162.744 220.811 162.607C221.071 162.464 221.26 162.279 221.377 162.051C221.501 161.823 221.562 161.576 221.562 161.309C221.562 161.029 221.501 160.775 221.377 160.547C221.26 160.313 221.071 160.124 220.811 159.98C220.557 159.837 220.218 159.766 219.795 159.766H216.729V157.568ZM250.615 156.748V159.043H244.57V156.748H250.615ZM240.381 160.283H243.301C243.346 160.863 243.473 161.348 243.682 161.738C243.896 162.129 244.202 162.425 244.6 162.627C244.997 162.829 245.501 162.93 246.113 162.93C246.634 162.93 247.08 162.832 247.451 162.637C247.822 162.435 248.125 162.145 248.359 161.768C248.6 161.383 248.776 160.908 248.887 160.342C249.004 159.775 249.062 159.124 249.062 158.389V157.402C249.062 156.797 249.02 156.253 248.936 155.771C248.857 155.283 248.737 154.86 248.574 154.502C248.418 154.137 248.219 153.838 247.979 153.604C247.738 153.363 247.458 153.184 247.139 153.066C246.826 152.943 246.475 152.881 246.084 152.881C245.439 152.881 244.919 152.988 244.521 153.203C244.131 153.411 243.838 153.717 243.643 154.121C243.454 154.525 243.337 155.013 243.291 155.586H240.371C240.462 154.616 240.732 153.757 241.182 153.008C241.637 152.253 242.272 151.66 243.086 151.23C243.9 150.801 244.899 150.586 246.084 150.586C246.982 150.586 247.793 150.745 248.516 151.064C249.245 151.377 249.867 151.833 250.381 152.432C250.895 153.031 251.289 153.75 251.562 154.59C251.836 155.43 251.973 156.374 251.973 157.422V158.389C251.973 159.437 251.839 160.381 251.572 161.221C251.305 162.061 250.918 162.777 250.41 163.369C249.902 163.955 249.287 164.408 248.564 164.727C247.842 165.046 247.025 165.205 246.113 165.205C244.954 165.205 243.958 164.997 243.125 164.58C242.298 164.157 241.65 163.577 241.182 162.842C240.719 162.1 240.452 161.247 240.381 160.283ZM257.695 156.436C257.363 156.436 257.07 156.504 256.816 156.641C256.569 156.771 256.377 156.956 256.24 157.197C256.104 157.438 256.035 157.725 256.035 158.057H253.389C253.389 157.321 253.581 156.667 253.965 156.094C254.349 155.514 254.867 155.062 255.518 154.736C256.175 154.404 256.901 154.238 257.695 154.238C258.503 154.238 259.209 154.375 259.814 154.648C260.426 154.922 260.938 155.303 261.348 155.791C261.764 156.273 262.077 156.839 262.285 157.49C262.493 158.135 262.598 158.831 262.598 159.58V159.863C262.598 160.605 262.493 161.302 262.285 161.953C262.077 162.598 261.764 163.164 261.348 163.652C260.938 164.134 260.43 164.512 259.824 164.785C259.219 165.059 258.519 165.195 257.725 165.195C256.872 165.195 256.117 165.029 255.459 164.697C254.808 164.365 254.3 163.893 253.936 163.281C253.571 162.663 253.389 161.934 253.389 161.094H256.035C256.035 161.452 256.1 161.774 256.23 162.061C256.367 162.347 256.559 162.575 256.807 162.744C257.054 162.913 257.36 162.998 257.725 162.998C258.115 162.998 258.441 162.913 258.701 162.744C258.968 162.568 259.18 162.334 259.336 162.041C259.492 161.748 259.603 161.413 259.668 161.035C259.74 160.658 259.775 160.267 259.775 159.863V159.58C259.775 159.163 259.74 158.77 259.668 158.398C259.603 158.021 259.492 157.686 259.336 157.393C259.18 157.093 258.968 156.859 258.701 156.689C258.441 156.52 258.105 156.436 257.695 156.436ZM260.684 158.828V160.518H256.885V158.828H260.684ZM282.422 150.781V165H279.492V150.781H282.422ZM285.137 157.08V159.277H281.26V157.08H285.137ZM296.133 157.559V158.232C296.133 159.313 295.986 160.283 295.693 161.143C295.4 162.002 294.987 162.734 294.453 163.34C293.919 163.939 293.281 164.398 292.539 164.717C291.803 165.036 290.986 165.195 290.088 165.195C289.196 165.195 288.379 165.036 287.637 164.717C286.901 164.398 286.26 163.939 285.713 163.34C285.173 162.734 284.756 162.002 284.463 161.143C284.17 160.283 284.023 159.313 284.023 158.232V157.559C284.023 156.471 284.17 155.501 284.463 154.648C284.756 153.789 285.169 153.057 285.703 152.451C286.243 151.846 286.882 151.383 287.617 151.064C288.359 150.745 289.176 150.586 290.068 150.586C290.967 150.586 291.784 150.745 292.52 151.064C293.262 151.383 293.9 151.846 294.434 152.451C294.974 153.057 295.391 153.789 295.684 154.648C295.983 155.501 296.133 156.471 296.133 157.559ZM293.174 158.232V157.539C293.174 156.784 293.105 156.12 292.969 155.547C292.832 154.974 292.63 154.492 292.363 154.102C292.096 153.711 291.771 153.418 291.387 153.223C291.003 153.021 290.563 152.92 290.068 152.92C289.574 152.92 289.134 153.021 288.75 153.223C288.372 153.418 288.05 153.711 287.783 154.102C287.523 154.492 287.324 154.974 287.188 155.547C287.051 156.12 286.982 156.784 286.982 157.539V158.232C286.982 158.981 287.051 159.645 287.188 160.225C287.324 160.798 287.526 161.283 287.793 161.68C288.06 162.07 288.385 162.367 288.77 162.568C289.154 162.77 289.593 162.871 290.088 162.871C290.583 162.871 291.019 162.77 291.396 162.568C291.781 162.367 292.103 162.07 292.363 161.68C292.63 161.283 292.832 160.798 292.969 160.225C293.105 159.645 293.174 158.981 293.174 158.232ZM304.521 158.525V160.732H298.818V158.525H304.521ZM301.191 154.434V165H298.369V154.434H301.191ZM302.617 159.824V159.619C302.617 158.844 302.728 158.132 302.949 157.48C303.171 156.823 303.493 156.253 303.916 155.771C304.346 155.29 304.87 154.915 305.488 154.648C306.107 154.375 306.813 154.238 307.607 154.238C308.415 154.238 309.128 154.375 309.746 154.648C310.371 154.915 310.898 155.29 311.328 155.771C311.758 156.253 312.08 156.823 312.295 157.48C312.516 158.132 312.627 158.844 312.627 159.619V159.824C312.627 160.592 312.516 161.305 312.295 161.963C312.08 162.614 311.758 163.184 311.328 163.672C310.905 164.154 310.381 164.528 309.756 164.795C309.137 165.062 308.428 165.195 307.627 165.195C306.826 165.195 306.117 165.062 305.498 164.795C304.88 164.528 304.355 164.154 303.926 163.672C303.496 163.184 303.171 162.614 302.949 161.963C302.728 161.305 302.617 160.592 302.617 159.824ZM305.43 159.619V159.824C305.43 160.267 305.469 160.68 305.547 161.064C305.632 161.449 305.758 161.787 305.928 162.08C306.104 162.367 306.331 162.591 306.611 162.754C306.891 162.917 307.23 162.998 307.627 162.998C308.024 162.998 308.359 162.917 308.633 162.754C308.913 162.591 309.137 162.367 309.307 162.08C309.482 161.787 309.609 161.449 309.688 161.064C309.772 160.68 309.814 160.267 309.814 159.824V159.619C309.814 159.189 309.772 158.786 309.688 158.408C309.609 158.024 309.482 157.686 309.307 157.393C309.137 157.093 308.913 156.859 308.633 156.689C308.353 156.52 308.011 156.436 307.607 156.436C307.217 156.436 306.882 156.52 306.602 156.689C306.328 156.859 306.104 157.093 305.928 157.393C305.758 157.686 305.632 158.024 305.547 158.408C305.469 158.786 305.43 159.189 305.43 159.619ZM337.051 159.834H333.184L332.197 159.424C331.084 159.072 330.231 158.545 329.639 157.842C329.053 157.139 328.76 156.243 328.76 155.156C328.76 154.199 328.971 153.398 329.395 152.754C329.824 152.103 330.43 151.611 331.211 151.279C331.999 150.947 332.933 150.781 334.014 150.781H338.975V165H336.035V153.076H334.014C333.213 153.076 332.624 153.275 332.246 153.672C331.868 154.069 331.68 154.632 331.68 155.361C331.68 155.895 331.768 156.335 331.943 156.68C332.119 157.018 332.376 157.272 332.715 157.441C333.053 157.604 333.48 157.686 333.994 157.686H337.041L337.051 159.834ZM334.229 158.652L331.074 165H327.9L331.064 158.652H334.229ZM343.467 159.727H346.318L343.379 165H340.537L343.467 159.727ZM345.361 154.434H350V165H347.188V156.611H345.361C344.977 156.611 344.658 156.683 344.404 156.826C344.15 156.963 343.962 157.142 343.838 157.363C343.721 157.578 343.662 157.799 343.662 158.027C343.662 158.249 343.721 158.464 343.838 158.672C343.955 158.88 344.137 159.053 344.385 159.189C344.632 159.326 344.941 159.395 345.312 159.395H348.232V161.309H345.312C344.616 161.309 343.991 161.224 343.438 161.055C342.891 160.885 342.422 160.651 342.031 160.352C341.647 160.046 341.351 159.691 341.143 159.287C340.941 158.877 340.84 158.428 340.84 157.939C340.84 157.432 340.944 156.966 341.152 156.543C341.361 156.12 341.66 155.749 342.051 155.43C342.441 155.111 342.913 154.867 343.467 154.697C344.027 154.521 344.658 154.434 345.361 154.434Z" fill="white"/>
<path d="M7.83203 200.752L7.83203 215H5.01953L5.01953 203.994L1.64062 205.068L1.64062 202.852L7.5293 200.752H7.83203ZM27.168 212.803V215H17.4414V213.125L22.041 208.193C22.5033 207.679 22.8678 207.227 23.1348 206.836C23.4017 206.439 23.5938 206.084 23.7109 205.771C23.8346 205.452 23.8965 205.15 23.8965 204.863C23.8965 204.434 23.8249 204.066 23.6816 203.76C23.5384 203.447 23.3268 203.206 23.0469 203.037C22.7734 202.868 22.4349 202.783 22.0312 202.783C21.6016 202.783 21.2305 202.887 20.918 203.096C20.612 203.304 20.3776 203.594 20.2148 203.965C20.0586 204.336 19.9805 204.756 19.9805 205.225H17.1582C17.1582 204.378 17.36 203.604 17.7637 202.9C18.1673 202.191 18.737 201.628 19.4727 201.211C20.2083 200.788 21.0807 200.576 22.0898 200.576C23.0859 200.576 23.9258 200.739 24.6094 201.064C25.2995 201.383 25.8203 201.846 26.1719 202.451C26.5299 203.05 26.709 203.766 26.709 204.6C26.709 205.068 26.6341 205.527 26.4844 205.977C26.3346 206.419 26.1198 206.862 25.8398 207.305C25.5664 207.741 25.2344 208.184 24.8438 208.633C24.4531 209.082 24.0202 209.548 23.5449 210.029L21.0742 212.803H27.168ZM36.7871 206.67H38.291C38.7728 206.67 39.1699 206.589 39.4824 206.426C39.7949 206.257 40.026 206.022 40.1758 205.723C40.332 205.417 40.4102 205.062 40.4102 204.658C40.4102 204.294 40.3385 203.971 40.1953 203.691C40.0586 203.405 39.847 203.184 39.5605 203.027C39.2741 202.865 38.9128 202.783 38.4766 202.783C38.1315 202.783 37.8125 202.852 37.5195 202.988C37.2266 203.125 36.9922 203.317 36.8164 203.564C36.6406 203.812 36.5527 204.111 36.5527 204.463H33.7305C33.7305 203.682 33.9388 203.001 34.3555 202.422C34.7786 201.842 35.3451 201.39 36.0547 201.064C36.7643 200.739 37.5456 200.576 38.3984 200.576C39.362 200.576 40.2051 200.732 40.9277 201.045C41.6504 201.351 42.2135 201.803 42.6172 202.402C43.0208 203.001 43.2227 203.743 43.2227 204.629C43.2227 205.078 43.1185 205.514 42.9102 205.938C42.7018 206.354 42.4023 206.732 42.0117 207.07C41.6276 207.402 41.1589 207.669 40.6055 207.871C40.0521 208.066 39.4303 208.164 38.7402 208.164H36.7871V206.67ZM36.7871 208.809V207.354H38.7402C39.515 207.354 40.1953 207.441 40.7812 207.617C41.3672 207.793 41.8587 208.047 42.2559 208.379C42.653 208.704 42.9525 209.092 43.1543 209.541C43.3561 209.984 43.457 210.475 43.457 211.016C43.457 211.68 43.3301 212.272 43.0762 212.793C42.8223 213.307 42.4642 213.743 42.002 214.102C41.5462 214.46 41.0124 214.733 40.4004 214.922C39.7884 215.104 39.1211 215.195 38.3984 215.195C37.7995 215.195 37.2103 215.114 36.6309 214.951C36.0579 214.782 35.5371 214.531 35.0684 214.199C34.6061 213.861 34.235 213.438 33.9551 212.93C33.6816 212.415 33.5449 211.807 33.5449 211.104H36.3672C36.3672 211.468 36.4583 211.794 36.6406 212.08C36.8229 212.367 37.0736 212.591 37.3926 212.754C37.7181 212.917 38.0794 212.998 38.4766 212.998C38.9258 212.998 39.3099 212.917 39.6289 212.754C39.9544 212.585 40.2018 212.35 40.3711 212.051C40.5469 211.745 40.6348 211.39 40.6348 210.986C40.6348 210.465 40.5404 210.049 40.3516 209.736C40.1628 209.417 39.8926 209.183 39.541 209.033C39.1895 208.883 38.7728 208.809 38.291 208.809H36.7871ZM60.332 209.688V211.895H50.0879L49.9512 210.186L55.8789 200.781H58.1152L55.6934 204.834L52.7441 209.688H60.332ZM58.7207 200.781V215H55.9082V200.781H58.7207ZM69.4824 208.525L67.2363 207.988L68.0469 200.781H76.0352V203.057H70.3613L70.0098 206.211C70.1986 206.1 70.485 205.983 70.8691 205.859C71.2533 205.729 71.6829 205.664 72.1582 205.664C72.8483 205.664 73.4603 205.771 73.9941 205.986C74.528 206.201 74.9805 206.514 75.3516 206.924C75.7292 207.334 76.0156 207.835 76.2109 208.428C76.4062 209.02 76.5039 209.691 76.5039 210.439C76.5039 211.071 76.4062 211.673 76.2109 212.246C76.0156 212.812 75.7194 213.32 75.3223 213.77C74.9251 214.212 74.4271 214.561 73.8281 214.814C73.2292 215.068 72.5195 215.195 71.6992 215.195C71.0872 215.195 70.4948 215.104 69.9219 214.922C69.3555 214.74 68.8444 214.469 68.3887 214.111C67.9395 213.753 67.5781 213.32 67.3047 212.812C67.0378 212.298 66.8978 211.712 66.8848 211.055H69.6777C69.7168 211.458 69.821 211.807 69.9902 212.1C70.166 212.386 70.3971 212.607 70.6836 212.764C70.9701 212.92 71.3053 212.998 71.6895 212.998C72.0475 212.998 72.3535 212.93 72.6074 212.793C72.8613 212.656 73.0664 212.467 73.2227 212.227C73.3789 211.979 73.4928 211.693 73.5645 211.367C73.6426 211.035 73.6816 210.677 73.6816 210.293C73.6816 209.909 73.6361 209.561 73.5449 209.248C73.4538 208.936 73.3138 208.665 73.125 208.438C72.9362 208.21 72.6953 208.034 72.4023 207.91C72.1159 207.786 71.7806 207.725 71.3965 207.725C70.8757 207.725 70.472 207.806 70.1855 207.969C69.9056 208.132 69.6712 208.317 69.4824 208.525ZM90.5566 200.635H90.9668V202.881H90.8008C90.0586 202.881 89.3978 202.992 88.8184 203.213C88.2389 203.434 87.7474 203.75 87.3438 204.16C86.9466 204.564 86.6406 205.052 86.4258 205.625C86.2174 206.198 86.1133 206.839 86.1133 207.549V209.912C86.1133 210.42 86.1621 210.869 86.2598 211.26C86.3639 211.644 86.5104 211.966 86.6992 212.227C86.8945 212.48 87.1224 212.673 87.3828 212.803C87.6432 212.926 87.9362 212.988 88.2617 212.988C88.5677 212.988 88.8444 212.923 89.0918 212.793C89.3457 212.663 89.5605 212.48 89.7363 212.246C89.9186 212.005 90.0553 211.725 90.1465 211.406C90.2441 211.081 90.293 210.726 90.293 210.342C90.293 209.958 90.2441 209.603 90.1465 209.277C90.0553 208.952 89.9186 208.672 89.7363 208.438C89.554 208.197 89.3327 208.011 89.0723 207.881C88.8118 207.751 88.5189 207.686 88.1934 207.686C87.7507 207.686 87.36 207.79 87.0215 207.998C86.6895 208.2 86.429 208.46 86.2402 208.779C86.0514 209.098 85.9505 209.434 85.9375 209.785L85.0879 209.238C85.1074 208.737 85.2116 208.262 85.4004 207.812C85.5957 207.363 85.8626 206.966 86.2012 206.621C86.5462 206.27 86.9596 205.996 87.4414 205.801C87.9232 205.599 88.4668 205.498 89.0723 205.498C89.7363 205.498 90.319 205.625 90.8203 205.879C91.3281 206.133 91.7513 206.481 92.0898 206.924C92.4284 207.367 92.6823 207.878 92.8516 208.457C93.0208 209.036 93.1055 209.655 93.1055 210.312C93.1055 211.003 92.9915 211.644 92.7637 212.236C92.5423 212.829 92.2201 213.346 91.7969 213.789C91.3802 214.232 90.8789 214.577 90.293 214.824C89.707 215.072 89.0495 215.195 88.3203 215.195C87.5651 215.195 86.8783 215.059 86.2598 214.785C85.6478 214.505 85.1204 214.115 84.6777 213.613C84.235 213.112 83.8932 212.516 83.6523 211.826C83.418 211.136 83.3008 210.381 83.3008 209.561V208.467C83.3008 207.321 83.4668 206.273 83.7988 205.322C84.1374 204.365 84.6224 203.538 85.2539 202.842C85.8854 202.139 86.6471 201.595 87.5391 201.211C88.431 200.827 89.4368 200.635 90.5566 200.635ZM109.424 200.781V202.295L103.926 215H100.957L106.455 202.979H99.375V200.781H109.424ZM125.811 211.104C125.811 211.995 125.602 212.747 125.186 213.359C124.769 213.965 124.196 214.424 123.467 214.736C122.744 215.042 121.924 215.195 121.006 215.195C120.088 215.195 119.264 215.042 118.535 214.736C117.806 214.424 117.23 213.965 116.807 213.359C116.383 212.747 116.172 211.995 116.172 211.104C116.172 210.505 116.292 209.964 116.533 209.482C116.774 208.994 117.109 208.577 117.539 208.232C117.975 207.881 118.486 207.614 119.072 207.432C119.658 207.243 120.296 207.148 120.986 207.148C121.911 207.148 122.738 207.311 123.467 207.637C124.196 207.962 124.769 208.421 125.186 209.014C125.602 209.606 125.811 210.303 125.811 211.104ZM122.979 210.918C122.979 210.482 122.894 210.107 122.725 209.795C122.562 209.476 122.331 209.232 122.031 209.063C121.732 208.893 121.383 208.809 120.986 208.809C120.589 208.809 120.241 208.893 119.941 209.063C119.642 209.232 119.408 209.476 119.238 209.795C119.076 210.107 118.994 210.482 118.994 210.918C118.994 211.348 119.076 211.719 119.238 212.031C119.408 212.344 119.642 212.585 119.941 212.754C120.247 212.917 120.602 212.998 121.006 212.998C121.41 212.998 121.758 212.917 122.051 212.754C122.35 212.585 122.578 212.344 122.734 212.031C122.897 211.719 122.979 211.348 122.979 210.918ZM125.508 204.551C125.508 205.273 125.316 205.915 124.932 206.475C124.548 207.028 124.014 207.461 123.33 207.773C122.653 208.086 121.878 208.242 121.006 208.242C120.127 208.242 119.346 208.086 118.662 207.773C117.979 207.461 117.445 207.028 117.061 206.475C116.676 205.915 116.484 205.273 116.484 204.551C116.484 203.691 116.676 202.969 117.061 202.383C117.451 201.79 117.985 201.341 118.662 201.035C119.346 200.729 120.12 200.576 120.986 200.576C121.865 200.576 122.643 200.729 123.32 201.035C124.004 201.341 124.538 201.79 124.922 202.383C125.312 202.969 125.508 203.691 125.508 204.551ZM122.695 204.678C122.695 204.294 122.627 203.962 122.49 203.682C122.354 203.395 122.158 203.174 121.904 203.018C121.657 202.861 121.351 202.783 120.986 202.783C120.635 202.783 120.332 202.858 120.078 203.008C119.831 203.158 119.639 203.376 119.502 203.662C119.372 203.942 119.307 204.281 119.307 204.678C119.307 205.062 119.372 205.4 119.502 205.693C119.639 205.98 119.834 206.204 120.088 206.367C120.342 206.53 120.648 206.611 121.006 206.611C121.364 206.611 121.667 206.53 121.914 206.367C122.168 206.204 122.36 205.98 122.49 205.693C122.627 205.4 122.695 205.062 122.695 204.678ZM134.688 212.861H134.873C135.654 212.861 136.325 212.767 136.885 212.578C137.451 212.383 137.917 212.103 138.281 211.738C138.646 211.374 138.916 210.928 139.092 210.4C139.268 209.867 139.355 209.261 139.355 208.584V205.889C139.355 205.374 139.303 204.922 139.199 204.531C139.102 204.141 138.958 203.818 138.77 203.564C138.587 203.304 138.372 203.109 138.125 202.979C137.884 202.848 137.617 202.783 137.324 202.783C137.012 202.783 136.735 202.861 136.494 203.018C136.253 203.167 136.048 203.372 135.879 203.633C135.716 203.893 135.589 204.193 135.498 204.531C135.413 204.863 135.371 205.212 135.371 205.576C135.371 205.941 135.413 206.289 135.498 206.621C135.583 206.947 135.71 207.236 135.879 207.49C136.048 207.738 136.26 207.936 136.514 208.086C136.768 208.229 137.067 208.301 137.412 208.301C137.744 208.301 138.04 208.239 138.301 208.115C138.568 207.985 138.792 207.816 138.975 207.607C139.163 207.399 139.307 207.168 139.404 206.914C139.508 206.66 139.561 206.403 139.561 206.143L140.488 206.65C140.488 207.106 140.391 207.555 140.195 207.998C140 208.441 139.727 208.844 139.375 209.209C139.03 209.567 138.63 209.854 138.174 210.068C137.718 210.283 137.23 210.391 136.709 210.391C136.045 210.391 135.456 210.27 134.941 210.029C134.427 209.782 133.991 209.443 133.633 209.014C133.281 208.577 133.014 208.07 132.832 207.49C132.65 206.911 132.559 206.283 132.559 205.605C132.559 204.915 132.669 204.268 132.891 203.662C133.118 203.057 133.441 202.523 133.857 202.061C134.281 201.598 134.785 201.237 135.371 200.977C135.964 200.71 136.621 200.576 137.344 200.576C138.066 200.576 138.724 200.716 139.316 200.996C139.909 201.276 140.417 201.673 140.84 202.188C141.263 202.695 141.589 203.304 141.816 204.014C142.051 204.723 142.168 205.511 142.168 206.377V207.354C142.168 208.278 142.067 209.137 141.865 209.932C141.67 210.726 141.374 211.445 140.977 212.09C140.586 212.728 140.098 213.275 139.512 213.73C138.932 214.186 138.258 214.535 137.49 214.775C136.722 215.016 135.863 215.137 134.912 215.137H134.688V212.861ZM158.73 206.641V209.102C158.73 210.169 158.617 211.09 158.389 211.865C158.161 212.633 157.832 213.265 157.402 213.76C156.979 214.248 156.475 214.609 155.889 214.844C155.303 215.078 154.652 215.195 153.936 215.195C153.363 215.195 152.829 215.124 152.334 214.98C151.839 214.831 151.393 214.6 150.996 214.287C150.605 213.975 150.267 213.581 149.98 213.105C149.701 212.624 149.486 212.051 149.336 211.387C149.186 210.723 149.111 209.961 149.111 209.102V206.641C149.111 205.573 149.225 204.658 149.453 203.896C149.688 203.128 150.016 202.5 150.439 202.012C150.869 201.523 151.377 201.165 151.963 200.938C152.549 200.703 153.2 200.586 153.916 200.586C154.489 200.586 155.02 200.661 155.508 200.811C156.003 200.954 156.449 201.178 156.846 201.484C157.243 201.79 157.581 202.184 157.861 202.666C158.141 203.141 158.356 203.711 158.506 204.375C158.656 205.033 158.73 205.788 158.73 206.641ZM155.908 209.473V206.26C155.908 205.745 155.879 205.296 155.82 204.912C155.768 204.528 155.687 204.202 155.576 203.936C155.465 203.662 155.329 203.441 155.166 203.271C155.003 203.102 154.818 202.979 154.609 202.9C154.401 202.822 154.17 202.783 153.916 202.783C153.597 202.783 153.314 202.845 153.066 202.969C152.826 203.092 152.62 203.291 152.451 203.564C152.282 203.831 152.152 204.189 152.061 204.639C151.976 205.081 151.934 205.622 151.934 206.26V209.473C151.934 209.987 151.96 210.439 152.012 210.83C152.07 211.221 152.155 211.556 152.266 211.836C152.383 212.109 152.52 212.334 152.676 212.51C152.839 212.679 153.024 212.803 153.232 212.881C153.447 212.959 153.682 212.998 153.936 212.998C154.248 212.998 154.525 212.936 154.766 212.813C155.013 212.682 155.221 212.48 155.391 212.207C155.566 211.927 155.697 211.563 155.781 211.113C155.866 210.664 155.908 210.117 155.908 209.473Z" fill="white"/>
</svg>
