<svg width="502" height="218" viewBox="0 0 502 218" fill="none" xmlns="http://www.w3.org/2000/svg">
<path d="M3.96094 5.875L15.2578 5.875C17.8203 5.875 19.9844 6.26563 21.75 7.04688C23.5312 7.82813 24.8828 8.98438 25.8047 10.5156C26.7422 12.0313 27.2109 13.8984 27.2109 16.1172C27.2109 17.6797 26.8906 19.1094 26.25 20.4063C25.625 21.6875 24.7187 22.7813 23.5312 23.6875C22.3594 24.5781 20.9531 25.2422 19.3125 25.6797L18.0469 26.1719L7.42969 26.1719L7.38281 22.4922L15.3984 22.4922C17.0234 22.4922 18.375 22.2109 19.4531 21.6484C20.5312 21.0703 21.3437 20.2969 21.8906 19.3281C22.4375 18.3594 22.7109 17.2891 22.7109 16.1172C22.7109 14.8047 22.4531 13.6563 21.9375 12.6719C21.4219 11.6875 20.6094 10.9297 19.5 10.3984C18.4062 9.85156 16.9922 9.57813 15.2578 9.57813H8.48437L8.48437 40H3.96094L3.96094 5.875ZM23.9062 40L15.6094 24.5313L20.3203 24.5078L28.7344 39.7188V40H23.9062ZM59.8125 21.8594L59.8125 24.0156C59.8125 26.5781 59.4922 28.875 58.8516 30.9063C58.2109 32.9375 57.2891 34.6641 56.0859 36.0859C54.8828 37.5078 53.4375 38.5938 51.75 39.3438C50.0781 40.0938 48.2031 40.4688 46.125 40.4688C44.1094 40.4688 42.2578 40.0938 40.5703 39.3438C38.8984 38.5938 37.4453 37.5078 36.2109 36.0859C34.9922 34.6641 34.0469 32.9375 33.375 30.9063C32.7031 28.875 32.3672 26.5781 32.3672 24.0156L32.3672 21.8594C32.3672 19.2969 32.6953 17.0078 33.3516 14.9922C34.0234 12.9609 34.9688 11.2344 36.1875 9.8125C37.4062 8.375 38.8516 7.28125 40.5234 6.53125C42.2109 5.78125 44.0625 5.40625 46.0781 5.40625C48.1562 5.40625 50.0312 5.78125 51.7031 6.53125C53.3906 7.28125 54.8359 8.375 56.0391 9.8125C57.2578 11.2344 58.1875 12.9609 58.8281 14.9922C59.4844 17.0078 59.8125 19.2969 59.8125 21.8594ZM55.3359 24.0156L55.3359 21.8125C55.3359 19.7813 55.125 17.9844 54.7031 16.4219C54.2969 14.8594 53.6953 13.5469 52.8984 12.4844C52.1016 11.4219 51.125 10.6172 49.9688 10.0703C48.8281 9.52344 47.5312 9.25 46.0781 9.25C44.6719 9.25 43.3984 9.52344 42.2578 10.0703C41.1328 10.6172 40.1641 11.4219 39.3516 12.4844C38.5547 13.5469 37.9375 14.8594 37.5 16.4219C37.0625 17.9844 36.8438 19.7813 36.8438 21.8125L36.8437 24.0156C36.8437 26.0625 37.0625 27.875 37.5 29.4531C37.9375 31.0156 38.5625 32.3359 39.375 33.4141C40.2031 34.4766 41.1797 35.2813 42.3047 35.8281C43.4453 36.375 44.7187 36.6484 46.125 36.6484C47.5937 36.6484 48.8984 36.375 50.0391 35.8281C51.1797 35.2813 52.1406 34.4766 52.9219 33.4141C53.7187 32.3359 54.3203 31.0156 54.7266 29.4531C55.1328 27.875 55.3359 26.0625 55.3359 24.0156ZM78.75 24.0391L70.1016 24.0391L70.0547 20.4063L77.9062 20.4063C79.2031 20.4063 80.3359 20.1875 81.3047 19.75C82.2734 19.3125 83.0234 18.6875 83.5547 17.875C84.1016 17.0469 84.375 16.0625 84.375 14.9219C84.375 13.6719 84.1328 12.6563 83.6484 11.875C83.1797 11.0781 82.4531 10.5 81.4688 10.1406C80.5 9.76563 79.2656 9.57813 77.7656 9.57813L71.1094 9.57813V40H66.5859V5.875L77.7656 5.875C79.5156 5.875 81.0781 6.05469 82.4531 6.41406C83.8281 6.75781 84.9922 7.30469 85.9453 8.05469C86.9141 8.78906 87.6484 9.72656 88.1484 10.8672C88.6484 12.0078 88.8984 13.375 88.8984 14.9688C88.8984 16.375 88.5391 17.6484 87.8203 18.7891C87.1016 19.9141 86.1016 20.8359 84.8203 21.5547C83.5547 22.2734 82.0703 22.7344 80.3672 22.9375L78.75 24.0391ZM78.5391 40H68.3203L70.875 36.3203H78.5391C79.9766 36.3203 81.1953 36.0703 82.1953 35.5703C83.2109 35.0703 83.9844 34.3672 84.5156 33.4609C85.0469 32.5391 85.3125 31.4531 85.3125 30.2031C85.3125 28.9375 85.0859 27.8438 84.6328 26.9219C84.1797 26 83.4688 25.2891 82.5 24.7891C81.5312 24.2891 80.2812 24.0391 78.75 24.0391L72.3047 24.0391L72.3516 20.4063L81.1641 20.4063L82.125 21.7188C83.7656 21.8594 85.1562 22.3281 86.2969 23.125C87.4375 23.9063 88.3047 24.9063 88.8984 26.125C89.5078 27.3438 89.8125 28.6875 89.8125 30.1563C89.8125 32.2813 89.3438 34.0781 88.4062 35.5469C87.4844 37 86.1797 38.1094 84.4922 38.875C82.8047 39.625 80.8203 40 78.5391 40ZM122.766 21.8594V24.0156C122.766 26.5781 122.445 28.875 121.805 30.9063C121.164 32.9375 120.242 34.6641 119.039 36.0859C117.836 37.5078 116.391 38.5938 114.703 39.3438C113.031 40.0938 111.156 40.4688 109.078 40.4688C107.062 40.4688 105.211 40.0938 103.523 39.3438C101.852 38.5938 100.398 37.5078 99.1641 36.0859C97.9453 34.6641 97 32.9375 96.3281 30.9063C95.6562 28.875 95.3203 26.5781 95.3203 24.0156V21.8594C95.3203 19.2969 95.6484 17.0078 96.3047 14.9922C96.9766 12.9609 97.9219 11.2344 99.1406 9.8125C100.359 8.375 101.805 7.28125 103.477 6.53125C105.164 5.78125 107.016 5.40625 109.031 5.40625C111.109 5.40625 112.984 5.78125 114.656 6.53125C116.344 7.28125 117.789 8.375 118.992 9.8125C120.211 11.2344 121.141 12.9609 121.781 14.9922C122.438 17.0078 122.766 19.2969 122.766 21.8594ZM118.289 24.0156V21.8125C118.289 19.7813 118.078 17.9844 117.656 16.4219C117.25 14.8594 116.648 13.5469 115.852 12.4844C115.055 11.4219 114.078 10.6172 112.922 10.0703C111.781 9.52344 110.484 9.25 109.031 9.25C107.625 9.25 106.352 9.52344 105.211 10.0703C104.086 10.6172 103.117 11.4219 102.305 12.4844C101.508 13.5469 100.891 14.8594 100.453 16.4219C100.016 17.9844 99.7969 19.7813 99.7969 21.8125V24.0156C99.7969 26.0625 100.016 27.875 100.453 29.4531C100.891 31.0156 101.516 32.3359 102.328 33.4141C103.156 34.4766 104.133 35.2813 105.258 35.8281C106.398 36.375 107.672 36.6484 109.078 36.6484C110.547 36.6484 111.852 36.375 112.992 35.8281C114.133 35.2813 115.094 34.4766 115.875 33.4141C116.672 32.3359 117.273 31.0156 117.68 29.4531C118.086 27.875 118.289 26.0625 118.289 24.0156ZM141.492 5.875V40H137.039V5.875L141.492 5.875ZM152.461 5.875V9.57813L126.094 9.57813V5.875L152.461 5.875ZM183.141 21.8594V24.0156C183.141 26.5781 182.82 28.875 182.18 30.9063C181.539 32.9375 180.617 34.6641 179.414 36.0859C178.211 37.5078 176.766 38.5938 175.078 39.3438C173.406 40.0938 171.531 40.4688 169.453 40.4688C167.438 40.4688 165.586 40.0938 163.898 39.3438C162.227 38.5938 160.773 37.5078 159.539 36.0859C158.32 34.6641 157.375 32.9375 156.703 30.9063C156.031 28.875 155.695 26.5781 155.695 24.0156V21.8594C155.695 19.2969 156.023 17.0078 156.68 14.9922C157.352 12.9609 158.297 11.2344 159.516 9.8125C160.734 8.375 162.18 7.28125 163.852 6.53125C165.539 5.78125 167.391 5.40625 169.406 5.40625C171.484 5.40625 173.359 5.78125 175.031 6.53125C176.719 7.28125 178.164 8.375 179.367 9.8125C180.586 11.2344 181.516 12.9609 182.156 14.9922C182.812 17.0078 183.141 19.2969 183.141 21.8594ZM178.664 24.0156V21.8125C178.664 19.7813 178.453 17.9844 178.031 16.4219C177.625 14.8594 177.023 13.5469 176.227 12.4844C175.43 11.4219 174.453 10.6172 173.297 10.0703C172.156 9.52344 170.859 9.25 169.406 9.25C168 9.25 166.727 9.52344 165.586 10.0703C164.461 10.6172 163.492 11.4219 162.68 12.4844C161.883 13.5469 161.266 14.8594 160.828 16.4219C160.391 17.9844 160.172 19.7813 160.172 21.8125V24.0156C160.172 26.0625 160.391 27.875 160.828 29.4531C161.266 31.0156 161.891 32.3359 162.703 33.4141C163.531 34.4766 164.508 35.2813 165.633 35.8281C166.773 36.375 168.047 36.6484 169.453 36.6484C170.922 36.6484 172.227 36.375 173.367 35.8281C174.508 35.2813 175.469 34.4766 176.25 33.4141C177.047 32.3359 177.648 31.0156 178.055 29.4531C178.461 27.875 178.664 26.0625 178.664 24.0156ZM201.82 5.875L213.117 5.875C215.68 5.875 217.844 6.26563 219.609 7.04688C221.391 7.82813 222.742 8.98438 223.664 10.5156C224.602 12.0313 225.07 13.8984 225.07 16.1172C225.07 17.6797 224.75 19.1094 224.109 20.4063C223.484 21.6875 222.578 22.7813 221.391 23.6875C220.219 24.5781 218.812 25.2422 217.172 25.6797L215.906 26.1719L205.289 26.1719L205.242 22.4922L213.258 22.4922C214.883 22.4922 216.234 22.2109 217.312 21.6484C218.391 21.0703 219.203 20.2969 219.75 19.3281C220.297 18.3594 220.57 17.2891 220.57 16.1172C220.57 14.8047 220.312 13.6563 219.797 12.6719C219.281 11.6875 218.469 10.9297 217.359 10.3984C216.266 9.85156 214.852 9.57813 213.117 9.57813H206.344V40H201.82V5.875ZM221.766 40L213.469 24.5313L218.18 24.5078L226.594 39.7188V40H221.766ZM253.078 36.3203V40L235.008 40V36.3203L253.078 36.3203ZM235.922 5.875V40H231.398V5.875L235.922 5.875ZM250.688 20.5469V24.2266H235.008V20.5469H250.688ZM252.844 5.875V9.57813L235.008 9.57813V5.875L252.844 5.875ZM283.898 23.0078V35.5C283.477 36.125 282.805 36.8281 281.883 37.6094C280.961 38.375 279.688 39.0469 278.062 39.625C276.453 40.1875 274.375 40.4688 271.828 40.4688C269.75 40.4688 267.836 40.1094 266.086 39.3906C264.352 38.6563 262.844 37.5938 261.562 36.2031C260.297 34.7969 259.312 33.0938 258.609 31.0938C257.922 29.0781 257.578 26.7969 257.578 24.25V21.6016C257.578 19.0547 257.875 16.7813 258.469 14.7813C259.078 12.7813 259.969 11.0859 261.141 9.69531C262.312 8.28906 263.75 7.22656 265.453 6.50781C267.156 5.77344 269.109 5.40625 271.312 5.40625C273.922 5.40625 276.102 5.85938 277.852 6.76563C279.617 7.65625 280.992 8.89063 281.977 10.4688C282.977 12.0469 283.617 13.8438 283.898 15.8594L279.375 15.8594C279.172 14.625 278.766 13.5 278.156 12.4844C277.562 11.4688 276.711 10.6563 275.602 10.0469C274.492 9.42188 273.062 9.10938 271.312 9.10938C269.734 9.10938 268.367 9.39844 267.211 9.97656C266.055 10.5547 265.102 11.3828 264.352 12.4609C263.602 13.5391 263.039 14.8438 262.664 16.375C262.305 17.9063 262.125 19.6328 262.125 21.5547V24.25C262.125 26.2188 262.352 27.9766 262.805 29.5234C263.273 31.0703 263.938 32.3906 264.797 33.4844C265.656 34.5625 266.68 35.3828 267.867 35.9453C269.07 36.5078 270.398 36.7891 271.852 36.7891C273.461 36.7891 274.766 36.6563 275.766 36.3906C276.766 36.1094 277.547 35.7813 278.109 35.4063C278.672 35.0156 279.102 34.6484 279.398 34.3047V26.6641L271.5 26.6641V23.0078L283.898 23.0078ZM310.922 5.875L315.422 5.875V28.9609C315.422 31.5234 314.852 33.6563 313.711 35.3594C312.57 37.0625 311.055 38.3438 309.164 39.2031C307.289 40.0469 305.25 40.4688 303.047 40.4688C300.734 40.4688 298.641 40.0469 296.766 39.2031C294.906 38.3438 293.43 37.0625 292.336 35.3594C291.258 33.6563 290.719 31.5234 290.719 28.9609V5.875H295.195V28.9609C295.195 30.7422 295.523 32.2109 296.18 33.3672C296.836 34.5234 297.75 35.3828 298.922 35.9453C300.109 36.5078 301.484 36.7891 303.047 36.7891C304.625 36.7891 306 36.5078 307.172 35.9453C308.359 35.3828 309.281 34.5234 309.938 33.3672C310.594 32.2109 310.922 30.7422 310.922 28.9609V5.875ZM343.219 36.3203V40L326.156 40V36.3203L343.219 36.3203ZM327.047 5.875V40H322.523V5.875L327.047 5.875ZM361.5 8.89844L350.203 40H345.586L358.594 5.875H361.57L361.5 8.89844ZM370.969 40L359.648 8.89844L359.578 5.875L362.555 5.875L375.609 40L370.969 40ZM370.383 27.3672V31.0703L351.211 31.0703V27.3672L370.383 27.3672ZM380.18 5.875L391.477 5.875C394.039 5.875 396.203 6.26563 397.969 7.04688C399.75 7.82813 401.102 8.98438 402.023 10.5156C402.961 12.0313 403.43 13.8984 403.43 16.1172C403.43 17.6797 403.109 19.1094 402.469 20.4063C401.844 21.6875 400.938 22.7813 399.75 23.6875C398.578 24.5781 397.172 25.2422 395.531 25.6797L394.266 26.1719L383.648 26.1719L383.602 22.4922L391.617 22.4922C393.242 22.4922 394.594 22.2109 395.672 21.6484C396.75 21.0703 397.562 20.2969 398.109 19.3281C398.656 18.3594 398.93 17.2891 398.93 16.1172C398.93 14.8047 398.672 13.6563 398.156 12.6719C397.641 11.6875 396.828 10.9297 395.719 10.3984C394.625 9.85156 393.211 9.57813 391.477 9.57813H384.703V40H380.18V5.875ZM400.125 40L391.828 24.5313L396.539 24.5078L404.953 39.7188V40H400.125Z" fill="white"/>
<path d="M6.91406 92.041L2.20703 105H0.283203L5.70312 90.7812H6.94336L6.91406 92.041ZM10.8594 105L6.14258 92.041L6.11328 90.7812H7.35352L12.793 105H10.8594ZM10.6152 99.7363V101.279H2.62695L2.62695 99.7363H10.6152ZM20.6543 103.193V97.7539C20.6543 97.3372 20.5697 96.9759 20.4004 96.6699C20.2376 96.3574 19.9902 96.1165 19.6582 95.9473C19.3262 95.778 18.916 95.6934 18.4277 95.6934C17.972 95.6934 17.5716 95.7715 17.2266 95.9277C16.888 96.084 16.6211 96.2891 16.4258 96.543C16.237 96.7969 16.1426 97.0703 16.1426 97.3633H14.3359C14.3359 96.9857 14.4336 96.6113 14.6289 96.2402C14.8242 95.8691 15.1042 95.5339 15.4687 95.2344C15.8398 94.9284 16.2826 94.6875 16.7969 94.5117C17.3177 94.3294 17.8971 94.2383 18.5352 94.2383C19.3034 94.2383 19.9805 94.3685 20.5664 94.6289C21.1589 94.8893 21.6211 95.2832 21.9531 95.8105C22.2917 96.3314 22.4609 96.9857 22.4609 97.7734V102.695C22.4609 103.047 22.4902 103.421 22.5488 103.818C22.6139 104.215 22.7083 104.557 22.832 104.844V105H20.9473C20.8561 104.792 20.7845 104.515 20.7324 104.17C20.6803 103.818 20.6543 103.493 20.6543 103.193ZM20.9668 98.5938L20.9863 99.8633H19.1602C18.6458 99.8633 18.1868 99.9056 17.7832 99.9902C17.3796 100.068 17.041 100.189 16.7676 100.352C16.4941 100.514 16.2858 100.719 16.1426 100.967C15.9993 101.208 15.9277 101.491 15.9277 101.816C15.9277 102.148 16.0026 102.451 16.1523 102.725C16.3021 102.998 16.5267 103.216 16.8262 103.379C17.1322 103.535 17.5065 103.613 17.9492 103.613C18.5026 103.613 18.9909 103.496 19.4141 103.262C19.8372 103.027 20.1725 102.741 20.4199 102.402C20.6738 102.064 20.8105 101.735 20.8301 101.416L21.6016 102.285C21.556 102.559 21.4323 102.861 21.2305 103.193C21.0286 103.525 20.7585 103.844 20.4199 104.15C20.0879 104.45 19.6908 104.701 19.2285 104.902C18.7728 105.098 18.2585 105.195 17.6855 105.195C16.9694 105.195 16.3411 105.055 15.8008 104.775C15.2669 104.495 14.8503 104.121 14.5508 103.652C14.2578 103.177 14.1113 102.646 14.1113 102.061C14.1113 101.494 14.222 100.996 14.4434 100.566C14.6647 100.13 14.9837 99.7689 15.4004 99.4824C15.8171 99.1895 16.3184 98.9681 16.9043 98.8184C17.4902 98.6686 18.1445 98.5938 18.8672 98.5938H20.9668ZM49.1309 90.7813V92.3242H42.2754V105H40.4004V90.7812L49.1309 90.7813ZM41.8359 96.5723H45.7129C46.7546 96.5723 47.6335 96.748 48.3496 97.0996C49.0658 97.4447 49.6094 97.9297 49.9805 98.5547C50.3516 99.1797 50.5371 99.9121 50.5371 100.752C50.5371 101.377 50.4329 101.95 50.2246 102.471C50.0163 102.985 49.707 103.434 49.2969 103.818C48.8867 104.196 48.3822 104.489 47.7832 104.697C47.1842 104.899 46.4941 105 45.7129 105H40.4004V90.7812H42.2852V103.467H45.7129C46.4095 103.467 46.9727 103.34 47.4023 103.086C47.8385 102.826 48.1576 102.487 48.3594 102.07C48.5612 101.654 48.6621 101.208 48.6621 100.732C48.6621 100.257 48.5612 99.821 48.3594 99.4238C48.1576 99.0267 47.8385 98.7109 47.4023 98.4766C46.9727 98.2357 46.4095 98.1152 45.7129 98.1152H41.8359V96.5723ZM59.5801 89.834H61.0645C61.0645 90.472 60.9668 90.9798 60.7715 91.3574C60.5762 91.7285 60.3092 92.015 59.9707 92.2168C59.6387 92.4186 59.2611 92.5716 58.8379 92.6758C58.4212 92.7799 57.9883 92.8809 57.5391 92.9785C56.9792 93.0957 56.4583 93.2813 55.9766 93.5352C55.5013 93.7826 55.0911 94.1341 54.7461 94.5898C54.4076 95.0456 54.1569 95.638 53.9941 96.3672C53.8379 97.0964 53.7956 97.998 53.8672 99.0723V99.9707H52.3828V99.0723C52.3828 97.8678 52.4967 96.8164 52.7246 95.918C52.959 95.0195 53.2878 94.2611 53.7109 93.6426C54.1341 93.0241 54.6354 92.5326 55.2148 92.168C55.8008 91.8034 56.4453 91.5527 57.1484 91.416C57.6562 91.3184 58.0924 91.2142 58.457 91.1035C58.8216 90.9863 59.0983 90.8301 59.2871 90.6348C59.4824 90.4395 59.5801 90.1725 59.5801 89.834ZM57.4414 95.0391C58.1315 95.0391 58.7467 95.1595 59.2871 95.4004C59.8275 95.6413 60.2865 95.9766 60.6641 96.4063C61.0417 96.8359 61.3281 97.3438 61.5234 97.9297C61.7253 98.5091 61.8262 99.1406 61.8262 99.8242V100.039C61.8262 100.775 61.7188 101.458 61.5039 102.09C61.2956 102.715 60.9863 103.262 60.5762 103.73C60.1725 104.193 59.6777 104.554 59.0918 104.814C58.5124 105.075 57.8516 105.205 57.1094 105.205C56.3672 105.205 55.7031 105.075 55.1172 104.814C54.5378 104.554 54.043 104.193 53.6328 103.73C53.2227 103.262 52.9102 102.715 52.6953 102.09C52.487 101.458 52.3828 100.775 52.3828 100.039V99.8242C52.3828 99.6615 52.4121 99.502 52.4707 99.3457C52.5293 99.1895 52.6009 99.0299 52.6855 98.8672C52.7767 98.7044 52.8581 98.5319 52.9297 98.3496C53.1706 97.7637 53.4993 97.2201 53.916 96.7188C54.3392 96.2174 54.8438 95.8138 55.4297 95.5078C56.0221 95.1953 56.6927 95.0391 57.4414 95.0391ZM57.0898 96.5137C56.4258 96.5137 55.8789 96.6667 55.4492 96.9727C55.026 97.2786 54.7103 97.6855 54.502 98.1934C54.2936 98.6947 54.1895 99.2383 54.1895 99.8242V100.039C54.1895 100.534 54.248 101.003 54.3652 101.445C54.4824 101.888 54.6582 102.282 54.8926 102.627C55.1335 102.965 55.4362 103.232 55.8008 103.428C56.1719 103.623 56.6081 103.721 57.1094 103.721C57.6107 103.721 58.0436 103.623 58.4082 103.428C58.7728 103.232 59.0723 102.965 59.3066 102.627C59.541 102.282 59.7168 101.888 59.834 101.445C59.9512 101.003 60.0098 100.534 60.0098 100.039V99.8242C60.0098 99.3815 59.9512 98.9616 59.834 98.5645C59.7168 98.1673 59.5378 97.8158 59.2969 97.5098C59.0625 97.2038 58.7598 96.9629 58.3887 96.7871C58.0241 96.6048 57.5911 96.5137 57.0898 96.5137ZM84.1016 98.3496H80.498L80.4785 96.8359H83.75C84.2904 96.8359 84.7624 96.7448 85.166 96.5625C85.5697 96.3802 85.8822 96.1198 86.1035 95.7813C86.3314 95.4362 86.4453 95.026 86.4453 94.5508C86.4453 94.0299 86.3444 93.6068 86.1426 93.2813C85.9473 92.9492 85.6445 92.7083 85.2344 92.5586C84.8307 92.4023 84.3164 92.3242 83.6914 92.3242H80.918V105H79.0332V90.7813H83.6914C84.4206 90.7813 85.0716 90.8561 85.6445 91.0059C86.2174 91.1491 86.7025 91.377 87.0996 91.6895C87.5033 91.9954 87.8092 92.3861 88.0176 92.8613C88.2259 93.3366 88.3301 93.9063 88.3301 94.5703C88.3301 95.1563 88.1803 95.6868 87.8809 96.1621C87.5814 96.6309 87.1647 97.015 86.6309 97.3145C86.1035 97.6139 85.485 97.806 84.7754 97.8906L84.1016 98.3496ZM84.0137 105H79.7559L80.8203 103.467H84.0137C84.6126 103.467 85.1204 103.363 85.5371 103.154C85.9603 102.946 86.2826 102.653 86.5039 102.275C86.7253 101.891 86.8359 101.439 86.8359 100.918C86.8359 100.391 86.7415 99.9349 86.5527 99.5508C86.3639 99.1667 86.0677 98.8704 85.6641 98.6621C85.2604 98.4538 84.7396 98.3496 84.1016 98.3496H81.416L81.4355 96.8359H85.1074L85.5078 97.3828C86.1914 97.4414 86.7708 97.6367 87.2461 97.9688C87.7214 98.2943 88.0827 98.7109 88.3301 99.2188C88.584 99.7266 88.7109 100.286 88.7109 100.898C88.7109 101.784 88.5156 102.533 88.125 103.145C87.7409 103.75 87.1973 104.212 86.4941 104.531C85.791 104.844 84.9642 105 84.0137 105ZM96.1816 100.352H92.7148L92.6953 98.9063H95.5273C96.0872 98.9063 96.5527 98.8509 96.9238 98.7402C97.3014 98.6296 97.5846 98.4635 97.7734 98.2422C97.9622 98.0208 98.0566 97.7474 98.0566 97.4219C98.0566 97.168 98.0013 96.9466 97.8906 96.7578C97.7865 96.5625 97.627 96.403 97.4121 96.2793C97.1973 96.1491 96.9303 96.0547 96.6113 95.9961C96.2988 95.931 95.931 95.8984 95.5078 95.8984H93.1934V105H91.3867V94.4336H95.5078C96.1784 94.4336 96.7806 94.4922 97.3145 94.6094C97.8548 94.7266 98.3138 94.9056 98.6914 95.1465C99.0755 95.3809 99.3685 95.6803 99.5703 96.0449C99.7721 96.4095 99.873 96.8392 99.873 97.334C99.873 97.653 99.8079 97.9557 99.6777 98.2422C99.5475 98.5286 99.3555 98.7826 99.1016 99.0039C98.8477 99.2253 98.5352 99.4076 98.1641 99.5508C97.793 99.6875 97.3665 99.7754 96.8848 99.8145L96.1816 100.352ZM96.1816 105H92.0605L92.959 103.535H96.1816C96.6829 103.535 97.0996 103.473 97.4316 103.35C97.7637 103.219 98.0111 103.037 98.1738 102.803C98.3431 102.562 98.4277 102.275 98.4277 101.943C98.4277 101.611 98.3431 101.328 98.1738 101.094C98.0111 100.853 97.7637 100.671 97.4316 100.547C97.0996 100.417 96.6829 100.352 96.1816 100.352H93.4375L93.457 98.9063H96.8848L97.5391 99.4531C98.1185 99.4987 98.61 99.6419 99.0137 99.8828C99.4173 100.124 99.7233 100.43 99.9316 100.801C100.14 101.165 100.244 101.563 100.244 101.992C100.244 102.487 100.15 102.923 99.9609 103.301C99.7786 103.678 99.5117 103.994 99.1602 104.248C98.8086 104.495 98.3822 104.684 97.8809 104.814C97.3796 104.938 96.8132 105 96.1816 105ZM126.641 90.7813V92.3242H119.785V105H117.91V90.7813H126.641ZM133.496 94.4336V95.9277H128.613V105H126.807V94.4336L133.496 94.4336ZM161.406 103.467V105H150.645V103.467H161.406ZM150.947 103.467V108.496H149.082L149.072 103.467H150.947ZM163.047 103.467L163.027 108.486H161.162V103.467H163.047ZM159.561 90.7813V92.3242H153.33V90.7813H159.561ZM161.182 90.7813V105H159.307V90.7813H161.182ZM152.686 90.7813H154.57L154.277 96.5039C154.238 97.3633 154.157 98.1576 154.033 98.8867C153.91 99.6094 153.757 100.27 153.574 100.869C153.392 101.468 153.184 102.005 152.949 102.48C152.715 102.949 152.464 103.356 152.197 103.701C151.93 104.04 151.65 104.32 151.357 104.541C151.071 104.756 150.781 104.909 150.488 105H149.629V103.467H150.234C150.404 103.285 150.596 103.021 150.811 102.676C151.032 102.331 151.25 101.885 151.465 101.338C151.686 100.785 151.878 100.111 152.041 99.3164C152.21 98.5221 152.324 97.5846 152.383 96.5039L152.686 90.7813ZM167.09 94.4336H168.896L168.74 98.3887C168.701 99.3913 168.587 100.257 168.398 100.986C168.21 101.715 167.969 102.337 167.676 102.852C167.383 103.359 167.054 103.786 166.689 104.131C166.331 104.476 165.96 104.766 165.576 105H164.678L164.727 103.525L165.098 103.516C165.312 103.262 165.521 103.001 165.723 102.734C165.924 102.461 166.11 102.139 166.279 101.768C166.449 101.39 166.589 100.931 166.699 100.391C166.816 99.8438 166.891 99.1764 166.924 98.3887L167.09 94.4336ZM167.539 94.4336H173.896V105H172.09V96.1035H167.539V94.4336ZM164.268 103.516H175.254V108.115H173.447V105H166.074V108.115H164.258L164.268 103.516ZM201.445 103.467V105H193.916V103.467H201.445ZM194.297 90.7813V105H192.412V90.7813H194.297ZM200.449 96.8945V98.4277H193.916V96.8945H200.449ZM201.348 90.7813V92.3242H193.916V90.7813H201.348ZM207.695 105.195C206.96 105.195 206.292 105.072 205.693 104.824C205.101 104.57 204.59 104.215 204.16 103.76C203.737 103.304 203.411 102.764 203.184 102.139C202.956 101.514 202.842 100.83 202.842 100.088V99.6777C202.842 98.8184 202.969 98.0534 203.223 97.3828C203.477 96.7057 203.822 96.1328 204.258 95.6641C204.694 95.1953 205.189 94.8405 205.742 94.5996C206.296 94.3587 206.868 94.2383 207.461 94.2383C208.216 94.2383 208.867 94.3685 209.414 94.6289C209.967 94.8893 210.42 95.2539 210.771 95.7227C211.123 96.1849 211.383 96.7318 211.553 97.3633C211.722 97.9883 211.807 98.6719 211.807 99.4141V100.225H203.916V98.75H210V98.6133C209.974 98.1445 209.876 97.6888 209.707 97.2461C209.544 96.8034 209.284 96.4388 208.926 96.1523C208.568 95.8659 208.079 95.7227 207.461 95.7227C207.051 95.7227 206.673 95.8105 206.328 95.9863C205.983 96.1556 205.687 96.4095 205.439 96.748C205.192 97.0866 205 97.5 204.863 97.9883C204.727 98.4766 204.658 99.0397 204.658 99.6777V100.088C204.658 100.589 204.727 101.061 204.863 101.504C205.007 101.94 205.212 102.324 205.479 102.656C205.752 102.988 206.081 103.249 206.465 103.438C206.855 103.626 207.298 103.721 207.793 103.721C208.431 103.721 208.971 103.59 209.414 103.33C209.857 103.07 210.244 102.721 210.576 102.285L211.67 103.154C211.442 103.499 211.152 103.828 210.801 104.141C210.449 104.453 210.016 104.707 209.502 104.902C208.994 105.098 208.392 105.195 207.695 105.195ZM238.105 103.467V105L230.576 105V103.467L238.105 103.467ZM230.957 90.7813V105H229.072V90.7813H230.957ZM237.109 96.8945V98.4277H230.576V96.8945H237.109ZM238.008 90.7813V92.3242H230.576V90.7813H238.008ZM230.322 88.4668C230.322 88.1738 230.413 87.9264 230.596 87.7246C230.778 87.5228 231.042 87.4219 231.387 87.4219C231.738 87.4219 232.005 87.5228 232.188 87.7246C232.37 87.9264 232.461 88.1738 232.461 88.4668C232.461 88.7467 232.37 88.9876 232.188 89.1895C232.005 89.3848 231.738 89.4824 231.387 89.4824C231.042 89.4824 230.778 89.3848 230.596 89.1895C230.413 88.9876 230.322 88.7467 230.322 88.4668ZM234.531 88.4863C234.531 88.1934 234.619 87.946 234.795 87.7441C234.977 87.5423 235.244 87.4414 235.596 87.4414C235.941 87.4414 236.204 87.5423 236.387 87.7441C236.576 87.946 236.67 88.1934 236.67 88.4863C236.67 88.7663 236.576 89.0072 236.387 89.209C236.204 89.4043 235.941 89.502 235.596 89.502C235.244 89.502 234.977 89.4043 234.795 89.209C234.619 89.0072 234.531 88.7663 234.531 88.4863ZM244.355 105.195C243.62 105.195 242.952 105.072 242.354 104.824C241.761 104.57 241.25 104.215 240.82 103.76C240.397 103.304 240.072 102.764 239.844 102.139C239.616 101.514 239.502 100.83 239.502 100.088V99.6777C239.502 98.8184 239.629 98.0534 239.883 97.3828C240.137 96.7057 240.482 96.1328 240.918 95.6641C241.354 95.1953 241.849 94.8405 242.402 94.5996C242.956 94.3587 243.529 94.2383 244.121 94.2383C244.876 94.2383 245.527 94.3685 246.074 94.6289C246.628 94.8893 247.08 95.2539 247.432 95.7227C247.783 96.1849 248.044 96.7318 248.213 97.3633C248.382 97.9883 248.467 98.6719 248.467 99.4141V100.225H240.576V98.75H246.66V98.6133C246.634 98.1445 246.536 97.6888 246.367 97.2461C246.204 96.8034 245.944 96.4388 245.586 96.1523C245.228 95.8659 244.74 95.7227 244.121 95.7227C243.711 95.7227 243.333 95.8105 242.988 95.9863C242.643 96.1556 242.347 96.4095 242.1 96.748C241.852 97.0866 241.66 97.5 241.523 97.9883C241.387 98.4766 241.318 99.0397 241.318 99.6777V100.088C241.318 100.589 241.387 101.061 241.523 101.504C241.667 101.94 241.872 102.324 242.139 102.656C242.412 102.988 242.741 103.249 243.125 103.438C243.516 103.626 243.958 103.721 244.453 103.721C245.091 103.721 245.632 103.59 246.074 103.33C246.517 103.07 246.904 102.721 247.236 102.285L248.33 103.154C248.102 103.499 247.812 103.828 247.461 104.141C247.109 104.453 246.676 104.707 246.162 104.902C245.654 105.098 245.052 105.195 244.355 105.195ZM240.967 91.6113C240.967 91.3184 241.058 91.071 241.24 90.8691C241.423 90.6673 241.686 90.5664 242.031 90.5664C242.383 90.5664 242.65 90.6673 242.832 90.8691C243.014 91.071 243.105 91.3184 243.105 91.6113C243.105 91.8913 243.014 92.1322 242.832 92.334C242.65 92.5293 242.383 92.627 242.031 92.627C241.686 92.627 241.423 92.5293 241.24 92.334C241.058 92.1322 240.967 91.8913 240.967 91.6113ZM245.176 91.6309C245.176 91.3379 245.264 91.0905 245.439 90.8887C245.622 90.6868 245.889 90.5859 246.24 90.5859C246.585 90.5859 246.849 90.6868 247.031 90.8887C247.22 91.0905 247.314 91.3379 247.314 91.6309C247.314 91.9108 247.22 92.1517 247.031 92.3535C246.849 92.5488 246.585 92.6465 246.24 92.6465C245.889 92.6465 245.622 92.5488 245.439 92.3535C245.264 92.1517 245.176 91.9108 245.176 91.6309ZM274.766 98.5059L269.688 90.7813H271.895L275.674 96.9434H278.35L278.047 98.5059H274.766ZM275.781 98.3594L271.65 105H269.307L274.59 96.7383L275.781 98.3594ZM279.16 90.7813V105H277.295V90.7813H279.16ZM286.699 90.7813L281.602 98.5059H278.418L278.125 96.9434H280.703L284.482 90.7813H286.699ZM284.727 105L280.605 98.3594L281.807 96.7383L287.07 105H284.727ZM291.787 100.4L287.783 94.4336H289.961L292.695 98.8086H294.805L294.541 100.4H291.787ZM292.773 100.215L289.707 105H287.422L291.631 98.9063L292.773 100.215ZM295.732 94.4336V105H293.926V94.4336H295.732ZM301.895 94.4336L297.891 100.4H295.137L294.854 98.8086H296.973L299.707 94.4336H301.895ZM299.961 105L296.885 100.215L298.047 98.9063L302.246 105H299.961ZM318.467 98.1738H316.777V96.9727H318.398C319.115 96.9727 319.694 96.8717 320.137 96.6699C320.579 96.4681 320.902 96.1882 321.104 95.8301C321.305 95.472 321.406 95.0586 321.406 94.5898C321.406 94.1406 321.296 93.7305 321.074 93.3594C320.853 92.9818 320.511 92.6823 320.049 92.4609C319.587 92.2331 318.991 92.1191 318.262 92.1191C317.715 92.1191 317.22 92.2233 316.777 92.4316C316.335 92.6335 315.983 92.9167 315.723 93.2813C315.462 93.6393 315.332 94.0527 315.332 94.5215H313.447C313.447 93.916 313.574 93.3724 313.828 92.8906C314.082 92.4023 314.43 91.9889 314.873 91.6504C315.316 91.3053 315.827 91.0417 316.406 90.8594C316.992 90.6771 317.611 90.5859 318.262 90.5859C319.023 90.5859 319.714 90.6738 320.332 90.8496C320.951 91.0189 321.481 91.2728 321.924 91.6113C322.367 91.9499 322.705 92.3698 322.939 92.8711C323.174 93.3724 323.291 93.9551 323.291 94.6191C323.291 95.1074 323.177 95.5664 322.949 95.9961C322.721 96.4258 322.396 96.8034 321.973 97.1289C321.549 97.4544 321.042 97.7116 320.449 97.9004C319.857 98.0827 319.196 98.1738 318.467 98.1738ZM316.777 97.3438H318.467C319.268 97.3438 319.98 97.4251 320.605 97.5879C321.23 97.7507 321.758 97.9883 322.188 98.3008C322.617 98.6133 322.943 99.0007 323.164 99.4629C323.392 99.9186 323.506 100.443 323.506 101.035C323.506 101.699 323.376 102.288 323.115 102.803C322.861 103.317 322.5 103.753 322.031 104.111C321.562 104.469 321.006 104.74 320.361 104.922C319.723 105.104 319.023 105.195 318.262 105.195C317.65 105.195 317.044 105.117 316.445 104.961C315.853 104.798 315.316 104.551 314.834 104.219C314.352 103.88 313.965 103.451 313.672 102.93C313.385 102.409 313.242 101.784 313.242 101.055H315.127C315.127 101.53 315.257 101.966 315.518 102.363C315.785 102.76 316.152 103.079 316.621 103.32C317.09 103.555 317.637 103.672 318.262 103.672C318.978 103.672 319.583 103.561 320.078 103.34C320.579 103.112 320.96 102.803 321.221 102.412C321.488 102.015 321.621 101.569 321.621 101.074C321.621 100.638 321.549 100.26 321.406 99.9414C321.27 99.6159 321.064 99.349 320.791 99.1406C320.524 98.9323 320.189 98.7793 319.785 98.6816C319.388 98.5775 318.926 98.5254 318.398 98.5254H316.777V97.3438ZM329.658 99.9512H327.715V98.8379H329.512C330.013 98.8379 330.41 98.776 330.703 98.6523C330.996 98.5221 331.204 98.3431 331.328 98.1152C331.452 97.8874 331.514 97.6204 331.514 97.3145C331.514 97.041 331.442 96.7839 331.299 96.543C331.162 96.2956 330.941 96.097 330.635 95.9473C330.329 95.791 329.919 95.7129 329.404 95.7129C328.988 95.7129 328.61 95.7878 328.271 95.9375C327.933 96.0807 327.663 96.2793 327.461 96.5332C327.266 96.7806 327.168 97.0605 327.168 97.373H325.361C325.361 96.7285 325.544 96.1751 325.908 95.7129C326.279 95.2441 326.771 94.8828 327.383 94.6289C328.001 94.375 328.675 94.248 329.404 94.248C330.016 94.248 330.563 94.3164 331.045 94.4531C331.533 94.5833 331.947 94.7786 332.285 95.0391C332.624 95.293 332.881 95.612 333.057 95.9961C333.239 96.3737 333.33 96.8132 333.33 97.3145C333.33 97.6725 333.245 98.0111 333.076 98.3301C332.907 98.6491 332.663 98.9323 332.344 99.1797C332.025 99.4206 331.637 99.6094 331.182 99.7461C330.732 99.8828 330.225 99.9512 329.658 99.9512ZM327.715 99.2676H329.658C330.29 99.2676 330.846 99.3294 331.328 99.4531C331.81 99.5703 332.214 99.7461 332.539 99.9805C332.865 100.215 333.109 100.505 333.271 100.85C333.441 101.188 333.525 101.579 333.525 102.021C333.525 102.516 333.424 102.962 333.223 103.359C333.027 103.75 332.747 104.082 332.383 104.355C332.018 104.629 331.582 104.837 331.074 104.98C330.573 105.124 330.016 105.195 329.404 105.195C328.721 105.195 328.057 105.078 327.412 104.844C326.768 104.609 326.237 104.248 325.82 103.76C325.404 103.265 325.195 102.637 325.195 101.875H327.002C327.002 102.194 327.103 102.497 327.305 102.783C327.507 103.07 327.786 103.301 328.145 103.477C328.509 103.652 328.929 103.74 329.404 103.74C329.912 103.74 330.335 103.662 330.674 103.506C331.012 103.35 331.266 103.141 331.436 102.881C331.611 102.62 331.699 102.337 331.699 102.031C331.699 101.634 331.621 101.315 331.465 101.074C331.309 100.833 331.068 100.658 330.742 100.547C330.423 100.43 330.013 100.371 329.512 100.371H327.715V99.2676ZM352.988 101.738L359.99 90.7813H361.875V105H359.99V94.0332L352.988 105H351.113V90.7813H352.988V101.738ZM366.982 102.139L371.855 94.4336H373.672V105H371.855V97.2949L366.982 105H365.186V94.4336H366.982V102.139ZM393.691 101.738L400.693 90.7813H402.578V105H400.693V94.0332L393.691 105H391.816V90.7813H393.691V101.738ZM398.691 87.2559H400.156C400.156 87.7637 400.039 88.2161 399.805 88.6133C399.57 89.0039 399.235 89.3099 398.799 89.5313C398.363 89.7526 397.845 89.8633 397.246 89.8633C396.341 89.8633 395.625 89.6224 395.098 89.1406C394.577 88.6523 394.316 88.0241 394.316 87.2559H395.781C395.781 87.64 395.892 87.9785 396.113 88.2715C396.335 88.5645 396.712 88.7109 397.246 88.7109C397.767 88.7109 398.138 88.5645 398.359 88.2715C398.581 87.9785 398.691 87.64 398.691 87.2559ZM407.686 102.139L412.559 94.4336H414.375V105H412.559V97.2949L407.686 105H405.889V94.4336H407.686V102.139ZM411.572 90.6055H413.037C413.037 91.1133 412.92 91.5658 412.686 91.9629C412.451 92.3535 412.116 92.6595 411.68 92.8809C411.243 93.1022 410.726 93.2129 410.127 93.2129C409.222 93.2129 408.506 92.972 407.979 92.4902C407.458 92.002 407.197 91.3737 407.197 90.6055H408.662C408.662 90.9896 408.773 91.3281 408.994 91.6211C409.215 91.9141 409.593 92.0605 410.127 92.0605C410.648 92.0605 411.019 91.9141 411.24 91.6211C411.462 91.3281 411.572 90.9896 411.572 90.6055ZM434.404 90.7813V105H432.52V90.7813H434.404ZM443.164 90.7813L436.992 98.6035H433.652L433.359 97.041H435.869L440.83 90.7813H443.164ZM441.27 105L435.928 98.3594L436.982 96.709L443.574 105H441.27ZM446.738 94.4336V105H444.932V94.4336H446.738ZM453.672 94.4336L448.662 100.488H446.133L445.859 98.9063H447.93L451.475 94.4336H453.672ZM451.729 105L447.842 100.215L449.004 98.9063L454.023 105H451.729ZM474.932 90.7813V92.3242H468.428V90.7813H474.932ZM476.553 90.7813V105L474.668 105V90.7813H476.553ZM467.783 90.7813H469.658L469.336 97.7441C469.29 98.7467 469.212 99.6419 469.102 100.43C468.997 101.211 468.848 101.891 468.652 102.471C468.457 103.044 468.203 103.519 467.891 103.896C467.578 104.268 467.194 104.544 466.738 104.727C466.289 104.909 465.749 105 465.117 105H464.609V103.467L465 103.438C465.365 103.411 465.677 103.33 465.938 103.193C466.204 103.05 466.429 102.835 466.611 102.549C466.8 102.262 466.953 101.891 467.07 101.436C467.188 100.98 467.279 100.423 467.344 99.7656C467.415 99.1016 467.471 98.3268 467.51 97.4414L467.783 90.7813ZM486.914 94.4336V95.9277H481.807V94.4336H486.914ZM488.506 94.4336V105H486.699V94.4336H488.506ZM481.367 94.4336H483.184L482.91 99.5313C482.865 100.319 482.79 101.016 482.686 101.621C482.588 102.22 482.451 102.734 482.275 103.164C482.106 103.594 481.891 103.945 481.631 104.219C481.377 104.486 481.071 104.684 480.713 104.814C480.355 104.938 479.941 105 479.473 105H478.906V103.408L479.297 103.379C479.577 103.359 479.814 103.294 480.01 103.184C480.212 103.073 480.381 102.91 480.518 102.695C480.654 102.474 480.765 102.191 480.85 101.846C480.941 101.501 481.009 101.09 481.055 100.615C481.107 100.14 481.146 99.5866 481.172 98.9551L481.367 94.4336ZM2.24609 120.781H4.07227L8.73047 132.373L13.3789 120.781H15.2148L9.43359 135H8.00781L2.24609 120.781ZM1.65039 120.781H3.26172L3.52539 129.453L3.52539 135H1.65039L1.65039 120.781ZM14.1895 120.781H15.8008L15.8008 135H13.9258L13.9258 129.453L14.1895 120.781ZM24.9121 132.598L28.5059 124.434H30.2441L25.5371 135H24.2871L19.5996 124.434H21.3379L24.9121 132.598ZM20.8105 124.434V135H19.0039V124.434H20.8105ZM28.9551 135V124.434H30.7715V135H28.9551ZM63.0859 126.895V128.428H55.3906V126.895H63.0859ZM55.6836 120.781V135H53.7988V120.781H55.6836ZM64.7266 120.781L64.7266 135H62.8516V120.781H64.7266ZM74.9707 129.014V130.479H69.3848V129.014H74.9707ZM69.7656 124.434L69.7656 135H67.959L67.959 124.434H69.7656ZM76.4355 124.434L76.4355 135H74.6191L74.6191 124.434H76.4355ZM105.449 127.441V128.34C105.449 129.408 105.316 130.365 105.049 131.211C104.782 132.057 104.398 132.777 103.896 133.369C103.395 133.962 102.793 134.414 102.09 134.727C101.393 135.039 100.612 135.195 99.7461 135.195C98.9062 135.195 98.1348 135.039 97.4316 134.727C96.735 134.414 96.1296 133.962 95.6152 133.369C95.1074 132.777 94.7135 132.057 94.4336 131.211C94.1536 130.365 94.0137 129.408 94.0137 128.34V127.441C94.0137 126.374 94.1504 125.42 94.4238 124.58C94.7038 123.734 95.0977 123.014 95.6055 122.422C96.1133 121.823 96.7155 121.367 97.4121 121.055C98.1152 120.742 98.8867 120.586 99.7266 120.586C100.592 120.586 101.374 120.742 102.07 121.055C102.773 121.367 103.376 121.823 103.877 122.422C104.385 123.014 104.772 123.734 105.039 124.58C105.312 125.42 105.449 126.374 105.449 127.441ZM103.584 128.34V127.422C103.584 126.576 103.496 125.827 103.32 125.176C103.151 124.525 102.9 123.978 102.568 123.535C102.236 123.092 101.829 122.757 101.348 122.529C100.872 122.301 100.332 122.188 99.7266 122.188C99.1406 122.188 98.61 122.301 98.1348 122.529C97.666 122.757 97.2624 123.092 96.9238 123.535C96.5918 123.978 96.3346 124.525 96.1523 125.176C95.9701 125.827 95.8789 126.576 95.8789 127.422V128.34C95.8789 129.193 95.9701 129.948 96.1523 130.605C96.3346 131.257 96.5951 131.807 96.9336 132.256C97.2786 132.699 97.6855 133.034 98.1543 133.262C98.6296 133.49 99.1602 133.604 99.7461 133.604C100.358 133.604 100.902 133.49 101.377 133.262C101.852 133.034 102.253 132.699 102.578 132.256C102.91 131.807 103.161 131.257 103.33 130.605C103.499 129.948 103.584 129.193 103.584 128.34ZM107.52 129.834V129.609C107.52 128.848 107.63 128.141 107.852 127.49C108.073 126.833 108.392 126.263 108.809 125.781C109.225 125.293 109.73 124.915 110.322 124.648C110.915 124.375 111.579 124.238 112.314 124.238C113.057 124.238 113.724 124.375 114.316 124.648C114.915 124.915 115.423 125.293 115.84 125.781C116.263 126.263 116.585 126.833 116.807 127.49C117.028 128.141 117.139 128.848 117.139 129.609V129.834C117.139 130.596 117.028 131.302 116.807 131.953C116.585 132.604 116.263 133.174 115.84 133.662C115.423 134.144 114.919 134.521 114.326 134.795C113.74 135.062 113.076 135.195 112.334 135.195C111.592 135.195 110.924 135.062 110.332 134.795C109.74 134.521 109.232 134.144 108.809 133.662C108.392 133.174 108.073 132.604 107.852 131.953C107.63 131.302 107.52 130.596 107.52 129.834ZM109.326 129.609V129.834C109.326 130.361 109.388 130.859 109.512 131.328C109.635 131.79 109.821 132.201 110.068 132.559C110.322 132.917 110.638 133.2 111.016 133.408C111.393 133.61 111.833 133.711 112.334 133.711C112.829 133.711 113.262 133.61 113.633 133.408C114.01 133.2 114.323 132.917 114.57 132.559C114.818 132.201 115.003 131.79 115.127 131.328C115.257 130.859 115.322 130.361 115.322 129.834V129.609C115.322 129.089 115.257 128.597 115.127 128.135C115.003 127.666 114.814 127.253 114.561 126.895C114.313 126.53 114.001 126.243 113.623 126.035C113.252 125.827 112.816 125.723 112.314 125.723C111.82 125.723 111.383 125.827 111.006 126.035C110.635 126.243 110.322 126.53 110.068 126.895C109.821 127.253 109.635 127.666 109.512 128.135C109.388 128.597 109.326 129.089 109.326 129.609ZM145.42 120.781V135H143.545V122.324H136.533V135H134.648V120.781H145.42ZM155.605 124.434V125.928H150.264V124.434H155.605ZM150.527 124.434V135H148.721V124.434H150.527ZM157.207 124.434V135H155.391V124.434H157.207ZM180.508 129.424H176.709V127.891H180.508C181.243 127.891 181.839 127.773 182.295 127.539C182.751 127.305 183.083 126.979 183.291 126.563C183.506 126.146 183.613 125.671 183.613 125.137C183.613 124.648 183.506 124.189 183.291 123.76C183.083 123.33 182.751 122.985 182.295 122.725C181.839 122.458 181.243 122.324 180.508 122.324H177.148V135H175.264V120.781H180.508C181.582 120.781 182.49 120.967 183.232 121.338C183.975 121.709 184.538 122.223 184.922 122.881C185.306 123.532 185.498 124.277 185.498 125.117C185.498 126.029 185.306 126.807 184.922 127.451C184.538 128.096 183.975 128.587 183.232 128.926C182.49 129.258 181.582 129.424 180.508 129.424ZM189.414 126.465V139.063H187.598V124.434H189.258L189.414 126.465ZM196.533 129.629V129.834C196.533 130.602 196.442 131.315 196.26 131.973C196.077 132.624 195.811 133.19 195.459 133.672C195.114 134.154 194.688 134.528 194.18 134.795C193.672 135.062 193.089 135.195 192.432 135.195C191.761 135.195 191.169 135.085 190.654 134.863C190.14 134.642 189.704 134.32 189.346 133.896C188.988 133.473 188.701 132.965 188.486 132.373C188.278 131.781 188.135 131.113 188.057 130.371V129.277C188.135 128.496 188.281 127.796 188.496 127.178C188.711 126.559 188.994 126.032 189.346 125.596C189.704 125.153 190.137 124.818 190.645 124.59C191.152 124.355 191.738 124.238 192.402 124.238C193.066 124.238 193.656 124.368 194.17 124.629C194.684 124.883 195.117 125.247 195.469 125.723C195.82 126.198 196.084 126.768 196.26 127.432C196.442 128.089 196.533 128.822 196.533 129.629ZM194.717 129.834V129.629C194.717 129.102 194.661 128.607 194.551 128.145C194.44 127.676 194.268 127.266 194.033 126.914C193.805 126.556 193.512 126.276 193.154 126.074C192.796 125.866 192.37 125.762 191.875 125.762C191.419 125.762 191.022 125.84 190.684 125.996C190.352 126.152 190.068 126.364 189.834 126.631C189.6 126.891 189.408 127.191 189.258 127.529C189.115 127.861 189.007 128.206 188.936 128.564V131.094C189.066 131.549 189.248 131.979 189.482 132.383C189.717 132.78 190.029 133.102 190.42 133.35C190.811 133.59 191.302 133.711 191.895 133.711C192.383 133.711 192.803 133.61 193.154 133.408C193.512 133.2 193.805 132.917 194.033 132.559C194.268 132.201 194.44 131.79 194.551 131.328C194.661 130.859 194.717 130.361 194.717 129.834ZM222.578 130.479H224.453C224.355 131.377 224.098 132.181 223.682 132.891C223.265 133.6 222.676 134.163 221.914 134.58C221.152 134.99 220.202 135.195 219.062 135.195C218.229 135.195 217.471 135.039 216.787 134.727C216.11 134.414 215.527 133.971 215.039 133.398C214.551 132.819 214.173 132.126 213.906 131.318C213.646 130.505 213.516 129.6 213.516 128.604V127.188C213.516 126.191 213.646 125.29 213.906 124.482C214.173 123.669 214.554 122.972 215.049 122.393C215.55 121.813 216.152 121.367 216.855 121.055C217.559 120.742 218.35 120.586 219.229 120.586C220.303 120.586 221.211 120.788 221.953 121.191C222.695 121.595 223.271 122.155 223.682 122.871C224.098 123.581 224.355 124.404 224.453 125.342H222.578C222.487 124.678 222.318 124.108 222.07 123.633C221.823 123.151 221.471 122.78 221.016 122.52C220.56 122.259 219.964 122.129 219.229 122.129C218.597 122.129 218.04 122.249 217.559 122.49C217.083 122.731 216.683 123.073 216.357 123.516C216.038 123.958 215.798 124.489 215.635 125.107C215.472 125.726 215.391 126.413 215.391 127.168V128.604C215.391 129.3 215.462 129.954 215.605 130.566C215.755 131.178 215.98 131.715 216.279 132.178C216.579 132.64 216.96 133.005 217.422 133.271C217.884 133.532 218.431 133.662 219.062 133.662C219.863 133.662 220.501 133.535 220.977 133.281C221.452 133.027 221.81 132.663 222.051 132.188C222.298 131.712 222.474 131.143 222.578 130.479ZM230.977 133.711C231.406 133.711 231.803 133.623 232.168 133.447C232.533 133.271 232.832 133.031 233.066 132.725C233.301 132.412 233.434 132.057 233.467 131.66H235.186C235.153 132.285 234.941 132.868 234.551 133.408C234.167 133.942 233.662 134.375 233.037 134.707C232.412 135.033 231.725 135.195 230.977 135.195C230.182 135.195 229.489 135.055 228.896 134.775C228.311 134.495 227.822 134.111 227.432 133.623C227.048 133.135 226.758 132.575 226.562 131.943C226.374 131.305 226.279 130.632 226.279 129.922V129.512C226.279 128.802 226.374 128.132 226.562 127.5C226.758 126.862 227.048 126.299 227.432 125.811C227.822 125.322 228.311 124.938 228.896 124.658C229.489 124.378 230.182 124.238 230.977 124.238C231.803 124.238 232.526 124.408 233.145 124.746C233.763 125.078 234.248 125.534 234.6 126.113C234.958 126.686 235.153 127.337 235.186 128.066H233.467C233.434 127.63 233.311 127.236 233.096 126.885C232.887 126.533 232.601 126.253 232.236 126.045C231.878 125.83 231.458 125.723 230.977 125.723C230.423 125.723 229.958 125.833 229.58 126.055C229.209 126.27 228.913 126.563 228.691 126.934C228.477 127.298 228.32 127.705 228.223 128.154C228.132 128.597 228.086 129.049 228.086 129.512V129.922C228.086 130.384 228.132 130.84 228.223 131.289C228.314 131.738 228.467 132.145 228.682 132.51C228.903 132.874 229.199 133.167 229.57 133.389C229.948 133.604 230.417 133.711 230.977 133.711ZM257.236 120.781V135H255.381V120.781H257.236ZM261.807 120.781V122.324H250.82V120.781H261.807ZM267.188 124.434V135H265.371V124.434H267.188ZM270.732 124.434V125.898H261.895V124.434H270.732ZM292.07 130.283L295.83 120.781H297.998L292.969 132.627C292.826 132.959 292.666 133.281 292.49 133.594C292.314 133.9 292.1 134.173 291.846 134.414C291.592 134.655 291.276 134.847 290.898 134.99C290.527 135.133 290.065 135.205 289.512 135.205C289.355 135.205 289.17 135.195 288.955 135.176C288.74 135.163 288.6 135.146 288.535 135.127L288.594 133.623C288.665 133.636 288.805 133.649 289.014 133.662C289.222 133.669 289.375 133.672 289.473 133.672C289.844 133.672 290.137 133.597 290.352 133.447C290.566 133.298 290.739 133.109 290.869 132.881C291.006 132.646 291.13 132.409 291.24 132.168L292.07 130.283ZM288.877 120.781L292.832 129.639L293.301 131.387L291.719 131.504L286.768 120.781L288.877 120.781ZM302.939 133.906L305.879 124.434H307.812L303.574 136.631C303.477 136.891 303.346 137.171 303.184 137.471C303.027 137.777 302.826 138.066 302.578 138.34C302.331 138.613 302.031 138.835 301.68 139.004C301.335 139.18 300.921 139.268 300.439 139.268C300.296 139.268 300.114 139.248 299.893 139.209C299.671 139.17 299.515 139.137 299.424 139.111L299.414 137.646C299.466 137.653 299.548 137.66 299.658 137.666C299.775 137.679 299.857 137.686 299.902 137.686C300.312 137.686 300.661 137.63 300.947 137.52C301.234 137.415 301.475 137.236 301.67 136.982C301.872 136.735 302.044 136.393 302.188 135.957L302.939 133.906ZM300.781 124.434L303.525 132.637L303.994 134.541L302.695 135.205L298.809 124.434H300.781ZM334.492 122.197H336.846C337.666 122.197 338.424 122.337 339.121 122.617C339.824 122.891 340.436 123.281 340.957 123.789C341.484 124.297 341.895 124.902 342.188 125.605C342.48 126.302 342.627 127.074 342.627 127.92C342.627 128.766 342.48 129.541 342.188 130.244C341.895 130.947 341.484 131.556 340.957 132.07C340.436 132.578 339.824 132.972 339.121 133.252C338.424 133.525 337.666 133.662 336.846 133.662H334.492C333.672 133.662 332.913 133.525 332.217 133.252C331.52 132.972 330.908 132.578 330.381 132.07C329.86 131.563 329.453 130.96 329.16 130.264C328.874 129.561 328.73 128.786 328.73 127.939C328.73 127.093 328.874 126.322 329.16 125.625C329.453 124.922 329.86 124.316 330.381 123.809C330.908 123.294 331.52 122.897 332.217 122.617C332.913 122.337 333.672 122.197 334.492 122.197ZM334.492 123.682C333.639 123.682 332.917 123.861 332.324 124.219C331.732 124.57 331.283 125.065 330.977 125.703C330.671 126.341 330.518 127.087 330.518 127.939C330.518 128.584 330.602 129.167 330.771 129.688C330.947 130.208 331.204 130.654 331.543 131.025C331.882 131.396 332.298 131.683 332.793 131.885C333.288 132.087 333.854 132.188 334.492 132.188H336.865C337.712 132.188 338.428 132.012 339.014 131.66C339.606 131.302 340.055 130.804 340.361 130.166C340.674 129.521 340.83 128.773 340.83 127.92C340.83 127.282 340.742 126.702 340.566 126.182C340.391 125.661 340.133 125.215 339.795 124.844C339.463 124.473 339.049 124.186 338.555 123.984C338.066 123.783 337.503 123.682 336.865 123.682H334.492ZM336.582 120.195V135.586H334.775V120.195H336.582ZM356.885 129.902V130.107C356.885 130.85 356.803 131.533 356.641 132.158C356.478 132.777 356.234 133.314 355.908 133.77C355.589 134.225 355.192 134.58 354.717 134.834C354.242 135.081 353.691 135.205 353.066 135.205C352.552 135.205 352.1 135.137 351.709 135C351.318 134.857 350.986 134.652 350.713 134.385C350.446 134.118 350.231 133.799 350.068 133.428C349.912 133.05 349.805 132.627 349.746 132.158V127.471C349.805 126.969 349.912 126.52 350.068 126.123C350.231 125.726 350.446 125.387 350.713 125.107C350.986 124.827 351.315 124.613 351.699 124.463C352.083 124.313 352.533 124.238 353.047 124.238C353.555 124.238 354.01 124.329 354.414 124.512C354.824 124.688 355.182 124.941 355.488 125.273C355.801 125.605 356.058 126.006 356.26 126.475C356.468 126.937 356.624 127.458 356.729 128.037C356.833 128.617 356.885 129.238 356.885 129.902ZM355.078 130.107V129.902C355.078 129.447 355.046 129.014 354.98 128.604C354.922 128.187 354.827 127.806 354.697 127.461C354.574 127.109 354.411 126.803 354.209 126.543C354.007 126.283 353.763 126.081 353.477 125.938C353.197 125.794 352.874 125.723 352.51 125.723C352.119 125.723 351.794 125.771 351.533 125.869C351.279 125.967 351.081 126.097 350.938 126.26C350.794 126.416 350.69 126.582 350.625 126.758V132.881C350.703 133.024 350.817 133.161 350.967 133.291C351.117 133.415 351.318 133.519 351.572 133.604C351.826 133.682 352.145 133.721 352.529 133.721C352.985 133.721 353.372 133.63 353.691 133.447C354.017 133.258 354.281 132.998 354.482 132.666C354.691 132.334 354.84 131.95 354.932 131.514C355.029 131.077 355.078 130.609 355.078 130.107ZM344.336 130.107V129.902C344.336 129.238 344.388 128.617 344.492 128.037C344.596 127.458 344.753 126.937 344.961 126.475C345.169 126.006 345.426 125.605 345.732 125.273C346.045 124.941 346.403 124.688 346.807 124.512C347.217 124.329 347.676 124.238 348.184 124.238C348.685 124.238 349.121 124.313 349.492 124.463C349.87 124.613 350.189 124.827 350.449 125.107C350.71 125.387 350.918 125.726 351.074 126.123C351.23 126.52 351.341 126.969 351.406 127.471V131.973C351.348 132.467 351.24 132.913 351.084 133.311C350.928 133.708 350.719 134.049 350.459 134.336C350.199 134.616 349.876 134.831 349.492 134.98C349.115 135.13 348.672 135.205 348.164 135.205C347.539 135.205 346.989 135.081 346.514 134.834C346.038 134.58 345.638 134.225 345.312 133.77C344.993 133.314 344.749 132.777 344.58 132.158C344.417 131.533 344.336 130.85 344.336 130.107ZM346.152 129.902V130.107C346.152 130.609 346.195 131.077 346.279 131.514C346.37 131.95 346.51 132.334 346.699 132.666C346.895 132.998 347.148 133.258 347.461 133.447C347.773 133.63 348.158 133.721 348.613 133.721C349.004 133.721 349.326 133.672 349.58 133.574C349.834 133.477 350.036 133.35 350.186 133.193C350.335 133.037 350.449 132.874 350.527 132.705V126.758C350.462 126.582 350.355 126.416 350.205 126.26C350.062 126.097 349.863 125.967 349.609 125.869C349.355 125.771 349.03 125.723 348.633 125.723C348.177 125.723 347.79 125.833 347.471 126.055C347.152 126.276 346.895 126.579 346.699 126.963C346.51 127.347 346.37 127.793 346.279 128.301C346.195 128.802 346.152 129.336 346.152 129.902ZM349.629 139.063V120H351.445V139.063H349.629ZM375.625 120.781L379.043 126.23L382.461 120.781H384.658L380.166 127.822L384.766 135H382.549L379.043 129.443L375.537 135H373.32L377.92 127.822L373.428 120.781H375.625ZM387.891 124.434L390.205 128.281L392.549 124.434H394.668L391.211 129.648L394.775 135H392.686L390.244 131.035L387.803 135H385.703L389.258 129.648L385.811 124.434H387.891ZM424.082 133.418L423.906 138.428H422.217V135H420.82V133.418H424.082ZM411.807 135V120.781H413.701V133.467H420.703V120.781H422.588V135H411.807ZM426.26 135V124.434H428.066V133.516H432.93V124.434H434.746V135H426.26ZM435.996 133.516L435.82 138.135H434.209V135H432.832V133.516H435.996ZM452.939 120.781H454.824V125.225C454.824 125.96 454.932 126.536 455.146 126.953C455.361 127.37 455.687 127.663 456.123 127.832C456.559 128.001 457.103 128.086 457.754 128.086C458.145 128.086 458.522 128.07 458.887 128.037C459.258 128.005 459.619 127.959 459.971 127.9C460.322 127.842 460.667 127.77 461.006 127.686C461.351 127.601 461.689 127.51 462.021 127.412V128.955C461.702 129.053 461.383 129.144 461.064 129.229C460.752 129.313 460.426 129.385 460.088 129.443C459.756 129.502 459.398 129.548 459.014 129.58C458.636 129.613 458.216 129.629 457.754 129.629C456.751 129.629 455.889 129.486 455.166 129.199C454.45 128.906 453.9 128.438 453.516 127.793C453.132 127.148 452.939 126.292 452.939 125.225V120.781ZM461.543 120.781H463.428V135H461.543V120.781ZM474.229 124.434V135H472.422V124.434H474.229ZM473.613 129.287V130.771C473.249 130.908 472.878 131.032 472.5 131.143C472.129 131.247 471.735 131.331 471.318 131.396C470.908 131.455 470.462 131.484 469.98 131.484C469.147 131.484 468.424 131.341 467.812 131.055C467.201 130.762 466.729 130.322 466.396 129.736C466.064 129.144 465.898 128.398 465.898 127.5V124.414H467.705V127.5C467.705 128.086 467.793 128.561 467.969 128.926C468.145 129.29 468.402 129.561 468.74 129.736C469.079 129.906 469.492 129.99 469.98 129.99C470.449 129.99 470.889 129.961 471.299 129.902C471.715 129.837 472.113 129.753 472.49 129.648C472.874 129.544 473.249 129.424 473.613 129.287ZM1.71875 150.781H3.61328L3.61328 163.467H8.49609L8.49609 150.781H10.3711L10.3711 163.467H15.2246L15.2246 150.781H17.1094L17.1094 165H1.71875L1.71875 150.781ZM20.3613 154.434H22.168L22.168 163.516H26.0352L26.0352 154.434H27.8516L27.8516 163.516H31.709L31.709 154.434H33.5156V165H20.3613L20.3613 154.434ZM68.4473 163.516L68.2715 168.428H66.6504V165H65.2734V163.516H68.4473ZM51.6211 150.781H53.5156V163.467H58.3984V150.781H60.2734V163.467H65.127V150.781H67.0117V165H51.6211V150.781ZM85.3418 163.516L85.166 168.135H83.5547V165H82.1777V163.516H85.3418ZM70.7031 154.434H72.5098V163.516H76.377V154.434H78.1934V163.516H82.0508V154.434H83.8574V165H70.7031V154.434ZM100.889 152.266V150.781H105.352V152.266H100.889ZM106.328 156.572H110.195C111.237 156.572 112.116 156.748 112.832 157.1C113.548 157.445 114.092 157.93 114.463 158.555C114.84 159.18 115.029 159.912 115.029 160.752C115.029 161.377 114.922 161.95 114.707 162.471C114.499 162.985 114.189 163.434 113.779 163.818C113.369 164.196 112.865 164.489 112.266 164.697C111.667 164.899 110.977 165 110.195 165H104.893V150.781H106.768V163.467H110.195C110.892 163.467 111.455 163.34 111.885 163.086C112.321 162.826 112.64 162.487 112.842 162.07C113.044 161.654 113.145 161.208 113.145 160.732C113.145 160.257 113.044 159.821 112.842 159.424C112.64 159.027 112.321 158.711 111.885 158.477C111.455 158.236 110.892 158.115 110.195 158.115H106.328V156.572ZM120.83 154.434V155.918H116.191V154.434H120.83ZM120.654 158.066H123.828C124.681 158.066 125.4 158.216 125.986 158.516C126.572 158.809 127.015 159.215 127.314 159.736C127.62 160.251 127.773 160.837 127.773 161.494C127.773 161.982 127.689 162.441 127.52 162.871C127.35 163.294 127.096 163.665 126.758 163.984C126.426 164.303 126.012 164.554 125.518 164.736C125.029 164.912 124.466 165 123.828 165H119.326V154.434H121.143V163.516H123.828C124.349 163.516 124.762 163.421 125.068 163.232C125.381 163.044 125.605 162.799 125.742 162.5C125.879 162.201 125.947 161.888 125.947 161.562C125.947 161.243 125.879 160.931 125.742 160.625C125.605 160.319 125.381 160.065 125.068 159.863C124.762 159.655 124.349 159.551 123.828 159.551H120.654V158.066ZM151.338 156.572H155.215C156.257 156.572 157.135 156.748 157.852 157.1C158.568 157.445 159.111 157.93 159.482 158.555C159.854 159.18 160.039 159.912 160.039 160.752C160.039 161.377 159.935 161.95 159.727 162.471C159.518 162.985 159.209 163.434 158.799 163.818C158.389 164.196 157.884 164.489 157.285 164.697C156.686 164.899 155.996 165 155.215 165H149.902V150.781H151.787V163.467H155.215C155.911 163.467 156.475 163.34 156.904 163.086C157.34 162.826 157.66 162.487 157.861 162.07C158.063 161.654 158.164 161.208 158.164 160.732C158.164 160.257 158.063 159.821 157.861 159.424C157.66 159.027 157.34 158.711 156.904 158.477C156.475 158.236 155.911 158.115 155.215 158.115H151.338V156.572ZM163.643 150.781V165H161.758V150.781H163.643ZM168.33 158.066H171.504C172.357 158.066 173.076 158.216 173.662 158.516C174.248 158.809 174.691 159.215 174.99 159.736C175.296 160.251 175.449 160.837 175.449 161.494C175.449 161.982 175.365 162.441 175.195 162.871C175.026 163.294 174.772 163.665 174.434 163.984C174.102 164.303 173.688 164.554 173.193 164.736C172.705 164.912 172.142 165 171.504 165H167.012V154.434H168.818V163.516H171.504C172.025 163.516 172.441 163.421 172.754 163.232C173.066 163.044 173.291 162.799 173.428 162.5C173.564 162.201 173.633 161.888 173.633 161.563C173.633 161.243 173.564 160.931 173.428 160.625C173.291 160.319 173.066 160.065 172.754 159.863C172.441 159.655 172.025 159.551 171.504 159.551H168.33V158.066ZM179.209 154.434V165H177.402V154.434H179.209ZM198.906 156.572H202.783C203.825 156.572 204.704 156.748 205.42 157.1C206.136 157.445 206.68 157.93 207.051 158.555C207.422 159.18 207.607 159.912 207.607 160.752C207.607 161.377 207.503 161.95 207.295 162.471C207.087 162.985 206.777 163.434 206.367 163.818C205.957 164.196 205.452 164.489 204.854 164.697C204.255 164.899 203.564 165 202.783 165H197.471V150.781H199.355V163.467H202.783C203.48 163.467 204.043 163.34 204.473 163.086C204.909 162.826 205.228 162.487 205.43 162.07C205.632 161.654 205.732 161.208 205.732 160.732C205.732 160.257 205.632 159.821 205.43 159.424C205.228 159.027 204.909 158.711 204.473 158.477C204.043 158.236 203.48 158.115 202.783 158.115H198.906V156.572ZM211.299 158.066H214.473C215.326 158.066 216.045 158.216 216.631 158.516C217.217 158.809 217.66 159.215 217.959 159.736C218.265 160.251 218.418 160.837 218.418 161.494C218.418 161.982 218.333 162.441 218.164 162.871C217.995 163.294 217.741 163.665 217.402 163.984C217.07 164.303 216.657 164.554 216.162 164.736C215.674 164.912 215.111 165 214.473 165H209.98V154.434H211.787V163.516H214.473C214.993 163.516 215.41 163.421 215.723 163.232C216.035 163.044 216.26 162.799 216.396 162.5C216.533 162.201 216.602 161.888 216.602 161.563C216.602 161.243 216.533 160.931 216.396 160.625C216.26 160.319 216.035 160.065 215.723 159.863C215.41 159.655 214.993 159.551 214.473 159.551H211.299V158.066ZM244.922 157.139V158.682H239.092V157.139H244.922ZM235.625 160.479H237.5C237.604 161.149 237.777 161.722 238.018 162.197C238.265 162.673 238.626 163.037 239.102 163.291C239.577 163.538 240.215 163.662 241.016 163.662C241.647 163.662 242.194 163.532 242.656 163.271C243.118 163.005 243.499 162.64 243.799 162.178C244.098 161.715 244.32 161.178 244.463 160.566C244.613 159.954 244.688 159.3 244.688 158.604V157.178C244.688 156.572 244.635 156.012 244.531 155.498C244.427 154.977 244.271 154.512 244.062 154.102C243.854 153.685 243.594 153.33 243.281 153.037C242.975 152.744 242.617 152.52 242.207 152.363C241.803 152.207 241.351 152.129 240.85 152.129C240.12 152.129 239.525 152.259 239.062 152.52C238.607 152.78 238.255 153.151 238.008 153.633C237.767 154.108 237.598 154.678 237.5 155.342H235.625C235.723 154.404 235.98 153.581 236.396 152.871C236.813 152.155 237.389 151.595 238.125 151.191C238.867 150.788 239.775 150.586 240.85 150.586C241.729 150.586 242.52 150.742 243.223 151.055C243.926 151.367 244.525 151.813 245.02 152.393C245.521 152.972 245.902 153.669 246.162 154.482C246.429 155.296 246.562 156.201 246.562 157.197V158.604C246.562 159.6 246.429 160.505 246.162 161.318C245.902 162.126 245.527 162.819 245.039 163.398C244.551 163.971 243.965 164.414 243.281 164.727C242.604 165.039 241.849 165.195 241.016 165.195C239.876 165.195 238.926 164.99 238.164 164.58C237.402 164.163 236.813 163.6 236.396 162.891C235.986 162.181 235.729 161.377 235.625 160.479ZM252.754 155.723C252.357 155.723 251.976 155.811 251.611 155.986C251.253 156.162 250.957 156.406 250.723 156.719C250.495 157.025 250.381 157.38 250.381 157.783H248.652C248.652 157.152 248.848 156.569 249.238 156.035C249.629 155.495 250.137 155.062 250.762 154.736C251.387 154.404 252.051 154.238 252.754 154.238C253.496 154.238 254.154 154.378 254.727 154.658C255.299 154.938 255.781 155.322 256.172 155.811C256.569 156.299 256.868 156.862 257.07 157.5C257.272 158.132 257.373 158.802 257.373 159.512V159.922C257.373 160.632 257.269 161.305 257.061 161.943C256.859 162.575 256.559 163.138 256.162 163.633C255.771 164.121 255.29 164.505 254.717 164.785C254.15 165.065 253.499 165.205 252.764 165.205C251.976 165.205 251.27 165.036 250.645 164.697C250.026 164.359 249.538 163.903 249.18 163.33C248.828 162.751 248.652 162.1 248.652 161.377H250.381C250.381 161.813 250.485 162.21 250.693 162.568C250.908 162.92 251.195 163.2 251.553 163.408C251.911 163.617 252.314 163.721 252.764 163.721C253.252 163.721 253.672 163.61 254.023 163.389C254.382 163.167 254.674 162.874 254.902 162.51C255.13 162.145 255.296 161.738 255.4 161.289C255.511 160.833 255.566 160.378 255.566 159.922V159.512C255.566 159.049 255.511 158.594 255.4 158.145C255.296 157.695 255.13 157.288 254.902 156.924C254.681 156.559 254.391 156.27 254.033 156.055C253.682 155.833 253.255 155.723 252.754 155.723ZM256.445 158.877V160.352H251.572V158.877H256.445ZM276.992 150.781V165H275.107V150.781H276.992ZM280.254 157.295V158.779H276.875V157.295H280.254ZM290.459 157.441V158.34C290.459 159.408 290.326 160.365 290.059 161.211C289.792 162.057 289.408 162.777 288.906 163.369C288.405 163.962 287.803 164.414 287.1 164.727C286.403 165.039 285.622 165.195 284.756 165.195C283.916 165.195 283.145 165.039 282.441 164.727C281.745 164.414 281.139 163.962 280.625 163.369C280.117 162.777 279.723 162.057 279.443 161.211C279.163 160.365 279.023 159.408 279.023 158.34V157.441C279.023 156.374 279.16 155.42 279.434 154.58C279.714 153.734 280.107 153.014 280.615 152.422C281.123 151.823 281.725 151.367 282.422 151.055C283.125 150.742 283.896 150.586 284.736 150.586C285.602 150.586 286.383 150.742 287.08 151.055C287.783 151.367 288.385 151.823 288.887 152.422C289.395 153.014 289.782 153.734 290.049 154.58C290.322 155.42 290.459 156.374 290.459 157.441ZM288.594 158.34V157.422C288.594 156.576 288.506 155.827 288.33 155.176C288.161 154.525 287.91 153.978 287.578 153.535C287.246 153.092 286.839 152.757 286.357 152.529C285.882 152.301 285.342 152.188 284.736 152.188C284.15 152.188 283.62 152.301 283.145 152.529C282.676 152.757 282.272 153.092 281.934 153.535C281.602 153.978 281.344 154.525 281.162 155.176C280.98 155.827 280.889 156.576 280.889 157.422V158.34C280.889 159.193 280.98 159.948 281.162 160.605C281.344 161.257 281.605 161.807 281.943 162.256C282.288 162.699 282.695 163.034 283.164 163.262C283.639 163.49 284.17 163.604 284.756 163.604C285.368 163.604 285.911 163.49 286.387 163.262C286.862 163.034 287.262 162.699 287.588 162.256C287.92 161.807 288.171 161.257 288.34 160.605C288.509 159.948 288.594 159.193 288.594 158.34ZM298.604 158.916V160.391H292.988V158.916H298.604ZM294.561 154.434V165H292.754V154.434H294.561ZM297.061 159.834V159.609C297.061 158.848 297.171 158.141 297.393 157.49C297.614 156.833 297.933 156.263 298.35 155.781C298.773 155.293 299.277 154.915 299.863 154.648C300.456 154.375 301.12 154.238 301.855 154.238C302.604 154.238 303.275 154.375 303.867 154.648C304.46 154.915 304.964 155.293 305.381 155.781C305.804 156.263 306.126 156.833 306.348 157.49C306.569 158.141 306.68 158.848 306.68 159.609V159.834C306.68 160.596 306.569 161.302 306.348 161.953C306.126 162.604 305.807 163.174 305.391 163.662C304.974 164.144 304.469 164.521 303.877 164.795C303.285 165.062 302.617 165.195 301.875 165.195C301.133 165.195 300.465 165.062 299.873 164.795C299.281 164.521 298.773 164.144 298.35 163.662C297.933 163.174 297.614 162.604 297.393 161.953C297.171 161.302 297.061 160.596 297.061 159.834ZM298.877 159.609V159.834C298.877 160.361 298.939 160.859 299.062 161.328C299.186 161.79 299.372 162.201 299.619 162.559C299.873 162.917 300.186 163.2 300.557 163.408C300.934 163.61 301.374 163.711 301.875 163.711C302.376 163.711 302.812 163.61 303.184 163.408C303.561 163.2 303.874 162.917 304.121 162.559C304.368 162.201 304.554 161.79 304.678 161.328C304.808 160.859 304.873 160.361 304.873 159.834V159.609C304.873 159.089 304.808 158.597 304.678 158.135C304.554 157.666 304.365 157.253 304.111 156.895C303.864 156.53 303.551 156.243 303.174 156.035C302.796 155.827 302.357 155.723 301.855 155.723C301.361 155.723 300.928 155.827 300.557 156.035C300.186 156.243 299.873 156.53 299.619 156.895C299.372 157.253 299.186 157.666 299.062 158.135C298.939 158.597 298.877 159.089 298.877 159.609ZM331.963 159.463H327.969L327.041 159.082C326.012 158.757 325.221 158.258 324.668 157.588C324.115 156.911 323.838 156.071 323.838 155.068C323.838 154.15 324.04 153.372 324.443 152.734C324.854 152.096 325.433 151.611 326.182 151.279C326.937 150.947 327.829 150.781 328.857 150.781H333.408V165H331.523V152.324H328.857C327.816 152.324 327.031 152.572 326.504 153.066C325.983 153.561 325.723 154.229 325.723 155.068C325.723 155.615 325.837 156.104 326.064 156.533C326.299 156.963 326.644 157.301 327.1 157.549C327.555 157.796 328.122 157.92 328.799 157.92H331.973L331.963 159.463ZM328.76 158.486L325.303 165H323.301L326.855 158.486H328.76ZM338.672 159.961H340.625L337.568 165H335.615L338.672 159.961ZM340.186 154.434H344.6V165H342.793V155.898H340.186C339.671 155.898 339.251 155.986 338.926 156.162C338.6 156.331 338.363 156.553 338.213 156.826C338.063 157.1 337.988 157.383 337.988 157.676C337.988 157.962 338.057 158.239 338.193 158.506C338.33 158.766 338.545 158.981 338.838 159.15C339.131 159.32 339.508 159.404 339.971 159.404H343.281V160.889H339.971C339.365 160.889 338.828 160.807 338.359 160.645C337.891 160.482 337.493 160.257 337.168 159.971C336.842 159.678 336.595 159.336 336.426 158.945C336.257 158.548 336.172 158.118 336.172 157.656C336.172 157.194 336.26 156.768 336.436 156.377C336.618 155.986 336.878 155.645 337.217 155.352C337.562 155.059 337.982 154.834 338.477 154.678C338.978 154.515 339.548 154.434 340.186 154.434Z" fill="white"/>
<path d="M7.11914 200.703L7.11914 215H5.3125L5.3125 202.959L1.66992 204.287L1.66992 202.656L6.83594 200.703H7.11914ZM26.709 213.516V215H17.4023V213.701L22.0605 208.516C22.6335 207.878 23.0762 207.337 23.3887 206.895C23.7077 206.445 23.929 206.045 24.0527 205.693C24.1829 205.335 24.248 204.971 24.248 204.6C24.248 204.131 24.1504 203.708 23.9551 203.33C23.7663 202.946 23.4863 202.64 23.1152 202.412C22.7441 202.184 22.2949 202.07 21.7676 202.07C21.1361 202.07 20.6087 202.194 20.1855 202.441C19.7689 202.682 19.4564 203.021 19.248 203.457C19.0397 203.893 18.9355 204.395 18.9355 204.961H17.1289C17.1289 204.16 17.3047 203.428 17.6562 202.764C18.0078 202.1 18.5286 201.572 19.2188 201.182C19.9089 200.785 20.7585 200.586 21.7676 200.586C22.666 200.586 23.4342 200.745 24.0723 201.064C24.7103 201.377 25.1986 201.82 25.5371 202.393C25.8822 202.959 26.0547 203.623 26.0547 204.385C26.0547 204.801 25.9831 205.225 25.8398 205.654C25.7031 206.077 25.5111 206.501 25.2637 206.924C25.0228 207.347 24.7396 207.764 24.4141 208.174C24.0951 208.584 23.7533 208.988 23.3887 209.385L19.5801 213.516H26.709ZM36.2402 207.002H37.5293C38.1608 207.002 38.6816 206.898 39.0918 206.689C39.5085 206.475 39.8177 206.185 40.0195 205.82C40.2279 205.449 40.332 205.033 40.332 204.57C40.332 204.023 40.2409 203.564 40.0586 203.193C39.8763 202.822 39.6029 202.542 39.2383 202.354C38.8737 202.165 38.4115 202.07 37.8516 202.07C37.3438 202.07 36.8945 202.171 36.5039 202.373C36.1198 202.568 35.8171 202.848 35.5957 203.213C35.3809 203.577 35.2734 204.007 35.2734 204.502H33.4668C33.4668 203.779 33.6491 203.122 34.0137 202.529C34.3783 201.937 34.8893 201.465 35.5469 201.113C36.2109 200.762 36.9792 200.586 37.8516 200.586C38.7109 200.586 39.4629 200.739 40.1074 201.045C40.752 201.344 41.2533 201.794 41.6113 202.393C41.9694 202.985 42.1484 203.724 42.1484 204.609C42.1484 204.967 42.0638 205.352 41.8945 205.762C41.7318 206.165 41.4746 206.543 41.123 206.895C40.778 207.246 40.3288 207.536 39.7754 207.764C39.222 207.985 38.5579 208.096 37.7832 208.096H36.2402V207.002ZM36.2402 208.486V207.402H37.7832C38.6882 207.402 39.4368 207.51 40.0293 207.725C40.6217 207.939 41.0872 208.226 41.4258 208.584C41.7708 208.942 42.0117 209.336 42.1484 209.766C42.2917 210.189 42.3633 210.612 42.3633 211.035C42.3633 211.699 42.2493 212.288 42.0215 212.803C41.8001 213.317 41.4844 213.753 41.0742 214.111C40.6706 214.469 40.1953 214.74 39.6484 214.922C39.1016 215.104 38.5059 215.195 37.8613 215.195C37.2428 215.195 36.6602 215.107 36.1133 214.932C35.5729 214.756 35.0944 214.502 34.6777 214.17C34.2611 213.831 33.9355 213.418 33.7012 212.93C33.4668 212.435 33.3496 211.872 33.3496 211.24H35.1562C35.1562 211.735 35.2637 212.168 35.4785 212.539C35.6999 212.91 36.0124 213.2 36.416 213.408C36.8262 213.61 37.3079 213.711 37.8613 213.711C38.4147 213.711 38.89 213.617 39.2871 213.428C39.6908 213.232 40 212.939 40.2148 212.549C40.4362 212.158 40.5469 211.667 40.5469 211.074C40.5469 210.482 40.4232 209.997 40.1758 209.619C39.9284 209.235 39.5768 208.952 39.1211 208.77C38.6719 208.581 38.1413 208.486 37.5293 208.486H36.2402ZM59.4238 210.215V211.699H49.1504V210.635L55.5176 200.781H56.9922L55.4102 203.633L51.2012 210.215H59.4238ZM57.4414 200.781V215H55.6348V200.781H57.4414ZM68.3105 208.232L66.8652 207.861L67.5781 200.781H74.873V202.451H69.1113L68.6816 206.318C68.9421 206.169 69.2708 206.029 69.668 205.898C70.0716 205.768 70.5339 205.703 71.0547 205.703C71.7122 205.703 72.3014 205.817 72.8223 206.045C73.3431 206.266 73.7858 206.585 74.1504 207.002C74.5215 207.419 74.8047 207.92 75 208.506C75.1953 209.092 75.293 209.746 75.293 210.469C75.293 211.152 75.1986 211.781 75.0098 212.354C74.8275 212.926 74.5508 213.428 74.1797 213.857C73.8086 214.281 73.3398 214.609 72.7734 214.844C72.2135 215.078 71.5527 215.195 70.791 215.195C70.2181 215.195 69.6745 215.117 69.1602 214.961C68.6523 214.798 68.1966 214.554 67.793 214.229C67.3958 213.896 67.0703 213.486 66.8164 212.998C66.569 212.503 66.4128 211.924 66.3477 211.26H68.0664C68.1445 211.794 68.3008 212.243 68.5352 212.607C68.7695 212.972 69.0755 213.249 69.4531 213.438C69.8372 213.62 70.2832 213.711 70.791 213.711C71.2207 213.711 71.6016 213.636 71.9336 213.486C72.2656 213.337 72.5456 213.122 72.7734 212.842C73.0013 212.562 73.1738 212.223 73.291 211.826C73.4147 211.429 73.4766 210.983 73.4766 210.488C73.4766 210.039 73.4147 209.622 73.291 209.238C73.1673 208.854 72.9818 208.519 72.7344 208.232C72.4935 207.946 72.1973 207.725 71.8457 207.568C71.4941 207.406 71.0905 207.324 70.6348 207.324C70.0293 207.324 69.5703 207.406 69.2578 207.568C68.9518 207.731 68.6361 207.952 68.3105 208.232ZM89.1699 200.762H89.3262V202.295H89.1699C88.2129 202.295 87.4121 202.451 86.7676 202.764C86.123 203.07 85.612 203.483 85.2344 204.004C84.8568 204.518 84.5833 205.098 84.4141 205.742C84.2513 206.387 84.1699 207.041 84.1699 207.705V209.795C84.1699 210.426 84.2448 210.986 84.3945 211.475C84.5443 211.956 84.7493 212.363 85.0098 212.695C85.2702 213.027 85.5632 213.278 85.8887 213.447C86.2207 213.617 86.5658 213.701 86.9238 213.701C87.3405 213.701 87.7116 213.623 88.0371 213.467C88.3626 213.304 88.6361 213.079 88.8574 212.793C89.0853 212.5 89.2578 212.155 89.375 211.758C89.4922 211.361 89.5508 210.924 89.5508 210.449C89.5508 210.026 89.4987 209.619 89.3945 209.229C89.2904 208.831 89.1309 208.48 88.916 208.174C88.7012 207.861 88.431 207.617 88.1055 207.441C87.7865 207.259 87.4056 207.168 86.9629 207.168C86.4616 207.168 85.9928 207.292 85.5566 207.539C85.127 207.78 84.7721 208.099 84.4922 208.496C84.2188 208.887 84.0625 209.313 84.0234 209.775L83.0664 209.766C83.1576 209.036 83.3268 208.415 83.5742 207.9C83.8281 207.38 84.1406 206.956 84.5117 206.631C84.8893 206.299 85.3092 206.058 85.7715 205.908C86.2402 205.752 86.735 205.674 87.2559 205.674C87.9655 205.674 88.5775 205.807 89.0918 206.074C89.6061 206.341 90.0293 206.699 90.3613 207.148C90.6934 207.591 90.9375 208.092 91.0938 208.652C91.2565 209.206 91.3379 209.775 91.3379 210.361C91.3379 211.032 91.2435 211.66 91.0547 212.246C90.8659 212.832 90.5827 213.346 90.2051 213.789C89.834 214.232 89.375 214.577 88.8281 214.824C88.2812 215.072 87.6465 215.195 86.9238 215.195C86.1556 215.195 85.485 215.039 84.9121 214.727C84.3392 214.408 83.8639 213.984 83.4863 213.457C83.1087 212.93 82.8255 212.344 82.6367 211.699C82.4479 211.055 82.3535 210.4 82.3535 209.736V208.887C82.3535 207.884 82.4544 206.901 82.6562 205.938C82.8581 204.974 83.2064 204.102 83.7012 203.32C84.2025 202.539 84.8958 201.917 85.7812 201.455C86.6667 200.993 87.7962 200.762 89.1699 200.762ZM107.637 200.781V201.797L101.748 215H99.8438L105.723 202.266H98.0273V200.781H107.637ZM123.623 211.152C123.623 212.018 123.421 212.754 123.018 213.359C122.62 213.958 122.08 214.414 121.396 214.727C120.719 215.039 119.954 215.195 119.102 215.195C118.249 215.195 117.48 215.039 116.797 214.727C116.113 214.414 115.573 213.958 115.176 213.359C114.779 212.754 114.58 212.018 114.58 211.152C114.58 210.586 114.688 210.068 114.902 209.6C115.124 209.124 115.433 208.711 115.83 208.359C116.234 208.008 116.709 207.738 117.256 207.549C117.809 207.354 118.418 207.256 119.082 207.256C119.954 207.256 120.732 207.425 121.416 207.764C122.1 208.096 122.637 208.555 123.027 209.141C123.424 209.727 123.623 210.397 123.623 211.152ZM121.807 211.113C121.807 210.586 121.693 210.12 121.465 209.717C121.237 209.307 120.918 208.988 120.508 208.76C120.098 208.532 119.622 208.418 119.082 208.418C118.529 208.418 118.05 208.532 117.646 208.76C117.249 208.988 116.94 209.307 116.719 209.717C116.497 210.12 116.387 210.586 116.387 211.113C116.387 211.66 116.494 212.129 116.709 212.52C116.93 212.904 117.243 213.2 117.646 213.408C118.057 213.61 118.542 213.711 119.102 213.711C119.661 213.711 120.143 213.61 120.547 213.408C120.951 213.2 121.26 212.904 121.475 212.52C121.696 212.129 121.807 211.66 121.807 211.113ZM123.291 204.482C123.291 205.173 123.109 205.794 122.744 206.348C122.38 206.901 121.882 207.337 121.25 207.656C120.618 207.975 119.902 208.135 119.102 208.135C118.288 208.135 117.562 207.975 116.924 207.656C116.292 207.337 115.798 206.901 115.439 206.348C115.081 205.794 114.902 205.173 114.902 204.482C114.902 203.656 115.081 202.952 115.439 202.373C115.804 201.794 116.302 201.351 116.934 201.045C117.565 200.739 118.285 200.586 119.092 200.586C119.906 200.586 120.628 200.739 121.26 201.045C121.891 201.351 122.386 201.794 122.744 202.373C123.109 202.952 123.291 203.656 123.291 204.482ZM121.484 204.512C121.484 204.036 121.383 203.617 121.182 203.252C120.98 202.887 120.7 202.601 120.342 202.393C119.984 202.178 119.567 202.07 119.092 202.07C118.617 202.07 118.2 202.171 117.842 202.373C117.49 202.568 117.214 202.848 117.012 203.213C116.816 203.577 116.719 204.01 116.719 204.512C116.719 205 116.816 205.426 117.012 205.791C117.214 206.156 117.493 206.439 117.852 206.641C118.21 206.842 118.626 206.943 119.102 206.943C119.577 206.943 119.99 206.842 120.342 206.641C120.7 206.439 120.98 206.156 121.182 205.791C121.383 205.426 121.484 205 121.484 204.512ZM132.666 213.486H132.852C133.893 213.486 134.74 213.34 135.391 213.047C136.042 212.754 136.543 212.36 136.895 211.865C137.246 211.37 137.487 210.814 137.617 210.195C137.747 209.57 137.812 208.929 137.812 208.271V206.094C137.812 205.449 137.738 204.876 137.588 204.375C137.445 203.874 137.243 203.454 136.982 203.115C136.729 202.777 136.439 202.52 136.113 202.344C135.788 202.168 135.443 202.08 135.078 202.08C134.661 202.08 134.287 202.165 133.955 202.334C133.63 202.497 133.353 202.728 133.125 203.027C132.904 203.327 132.734 203.678 132.617 204.082C132.5 204.486 132.441 204.925 132.441 205.4C132.441 205.824 132.493 206.234 132.598 206.631C132.702 207.028 132.861 207.386 133.076 207.705C133.291 208.024 133.558 208.278 133.877 208.467C134.202 208.649 134.583 208.74 135.02 208.74C135.423 208.74 135.801 208.662 136.152 208.506C136.51 208.343 136.826 208.125 137.1 207.852C137.38 207.572 137.601 207.256 137.764 206.904C137.933 206.553 138.031 206.185 138.057 205.801H138.916C138.916 206.341 138.809 206.875 138.594 207.402C138.385 207.923 138.092 208.398 137.715 208.828C137.337 209.258 136.895 209.603 136.387 209.863C135.879 210.117 135.326 210.244 134.727 210.244C134.023 210.244 133.415 210.107 132.9 209.834C132.386 209.561 131.963 209.196 131.631 208.74C131.305 208.285 131.061 207.777 130.898 207.217C130.742 206.65 130.664 206.077 130.664 205.498C130.664 204.821 130.758 204.186 130.947 203.594C131.136 203.001 131.416 202.48 131.787 202.031C132.158 201.576 132.617 201.221 133.164 200.967C133.717 200.713 134.355 200.586 135.078 200.586C135.892 200.586 136.585 200.749 137.158 201.074C137.731 201.4 138.197 201.836 138.555 202.383C138.919 202.93 139.186 203.545 139.355 204.229C139.525 204.912 139.609 205.615 139.609 206.338V206.992C139.609 207.728 139.561 208.477 139.463 209.238C139.372 209.993 139.193 210.716 138.926 211.406C138.665 212.096 138.285 212.715 137.783 213.262C137.282 213.802 136.628 214.232 135.82 214.551C135.02 214.863 134.03 215.02 132.852 215.02H132.666V213.486ZM156.006 206.758V208.926C156.006 210.091 155.902 211.074 155.693 211.875C155.485 212.676 155.186 213.32 154.795 213.809C154.404 214.297 153.932 214.652 153.379 214.873C152.832 215.088 152.214 215.195 151.523 215.195C150.977 215.195 150.472 215.127 150.01 214.99C149.548 214.854 149.131 214.635 148.76 214.336C148.395 214.03 148.083 213.633 147.822 213.145C147.562 212.656 147.363 212.064 147.227 211.367C147.09 210.671 147.021 209.857 147.021 208.926V206.758C147.021 205.592 147.126 204.616 147.334 203.828C147.549 203.04 147.852 202.409 148.242 201.934C148.633 201.452 149.102 201.107 149.648 200.898C150.202 200.69 150.82 200.586 151.504 200.586C152.057 200.586 152.565 200.654 153.027 200.791C153.496 200.921 153.913 201.133 154.277 201.426C154.642 201.712 154.951 202.096 155.205 202.578C155.465 203.053 155.664 203.636 155.801 204.326C155.938 205.016 156.006 205.827 156.006 206.758ZM154.189 209.219V206.455C154.189 205.817 154.15 205.257 154.072 204.775C154.001 204.287 153.893 203.87 153.75 203.525C153.607 203.18 153.424 202.9 153.203 202.686C152.988 202.471 152.738 202.314 152.451 202.217C152.171 202.113 151.855 202.061 151.504 202.061C151.074 202.061 150.693 202.142 150.361 202.305C150.029 202.461 149.749 202.712 149.521 203.057C149.3 203.402 149.131 203.854 149.014 204.414C148.896 204.974 148.838 205.654 148.838 206.455V209.219C148.838 209.857 148.874 210.42 148.945 210.908C149.023 211.396 149.137 211.82 149.287 212.178C149.437 212.529 149.619 212.819 149.834 213.047C150.049 213.275 150.296 213.444 150.576 213.555C150.863 213.659 151.178 213.711 151.523 213.711C151.966 213.711 152.354 213.626 152.686 213.457C153.018 213.288 153.294 213.024 153.516 212.666C153.743 212.301 153.913 211.836 154.023 211.27C154.134 210.697 154.189 210.013 154.189 209.219Z" fill="white"/>
</svg>
