<svg width="502" height="218" viewBox="0 0 502 218" fill="none" xmlns="http://www.w3.org/2000/svg">
<path d="M12.672 38.48C10.688 38.48 9.008 38.304 7.632 37.952C6.256 37.568 4.832 37.008 3.36 36.272L2.88 28.4H3.648L6 33.488C7.152 34.448 8.272 35.152 9.36 35.6C10.448 36.016 11.552 36.224 12.672 36.224C14.56 36.224 16.032 35.728 17.088 34.736C18.176 33.744 18.72 32.4 18.72 30.704C18.72 29.296 18.4 28.192 17.76 27.392C17.152 26.592 16.256 25.888 15.072 25.28C13.92 24.64 12.544 23.92 10.944 23.12C9.44 22.352 8.16 21.6 7.104 20.864C6.048 20.128 5.248 19.28 4.704 18.32C4.16 17.328 3.888 16.096 3.888 14.624C3.888 13.536 4.144 12.48 4.656 11.456C5.2 10.4 5.92 9.456 6.816 8.624C7.744 7.76 8.768 7.088 9.888 6.608C11.04 6.096 12.224 5.84 13.44 5.84C14.912 5.84 16.272 6.016 17.52 6.368C18.768 6.72 20.048 7.216 21.36 7.856L21.84 15.536H21.072L18.864 10.496C17.744 9.664 16.768 9.072 15.936 8.72C15.104 8.336 14.144 8.144 13.056 8.144C11.648 8.144 10.48 8.624 9.552 9.584C8.656 10.544 8.208 11.728 8.208 13.136C8.208 14.768 8.704 16.048 9.696 16.976C10.688 17.872 12.24 18.832 14.352 19.856C16.304 20.816 17.904 21.712 19.152 22.544C20.4 23.344 21.328 24.272 21.936 25.328C22.544 26.384 22.848 27.728 22.848 29.36C22.848 30.864 22.528 32.192 21.888 33.344C21.248 34.464 20.416 35.408 19.392 36.176C18.4 36.944 17.296 37.52 16.08 37.904C14.896 38.288 13.76 38.48 12.672 38.48ZM28.62 38V37.232L32.46 35.312L32.46 9.008L28.62 7.088V6.32L41.1 6.32C44.876 6.32 47.9 7.008 50.172 8.384C52.476 9.76 53.628 11.936 53.628 14.912C53.628 16.672 53.02 18.24 51.804 19.616C50.62 20.96 48.988 22.032 46.908 22.832C44.86 23.632 42.54 24.032 39.948 24.032H36.78V35.312L41.1 37.232V38H28.62ZM36.78 8.96V21.392H40.86C43.388 21.392 45.372 20.832 46.812 19.712C48.252 18.56 48.972 17.088 48.972 15.296C48.972 13.056 48.236 11.44 46.764 10.448C45.324 9.456 43.244 8.96 40.524 8.96L36.78 8.96ZM59.2294 38V37.232L63.0694 35.312L63.0694 9.008L59.2294 7.088V6.32L82.7014 6.32V14.576H81.9334L78.9574 8.96L67.3894 8.96V20.336H75.5494L77.9494 16.352H78.7174V26.864H77.9494L75.5494 22.976H67.3894V35.36H80.3014L83.2774 29.264H84.0454V38L59.2294 38ZM106.622 38.48C103.358 38.48 100.542 37.808 98.1739 36.464C95.8059 35.12 93.9819 33.296 92.7019 30.992C91.4219 28.656 90.7819 26 90.7819 23.024C90.7819 20.752 91.2139 18.592 92.0779 16.544C92.9739 14.464 94.1739 12.624 95.6779 11.024C97.2139 9.424 98.9739 8.16 100.958 7.232C102.974 6.304 105.102 5.84 107.342 5.84C108.942 5.84 110.302 5.952 111.422 6.176C112.542 6.368 113.534 6.64 114.398 6.992C115.294 7.312 116.19 7.696 117.086 8.144L117.326 16.544H116.462L113.534 10.688C112.318 9.824 111.246 9.2 110.318 8.816C109.422 8.432 108.398 8.24 107.246 8.24C104.942 8.24 102.878 8.816 101.054 9.968C99.2619 11.12 97.8379 12.704 96.7819 14.72C95.7579 16.704 95.2459 18.992 95.2459 21.584C95.2459 24.624 95.7419 27.232 96.7339 29.408C97.7579 31.552 99.1179 33.2 100.814 34.352C102.542 35.472 104.446 36.032 106.526 36.032C108.286 36.032 109.758 35.792 110.942 35.312C112.158 34.8 113.23 34.24 114.158 33.632L117.038 28.496H117.854L117.326 36.128C116.398 36.608 115.438 37.024 114.446 37.376C113.486 37.728 112.382 38 111.134 38.192C109.886 38.384 108.382 38.48 106.622 38.48ZM130.529 38V37.232L135.329 35.312V8.96H127.505L124.241 16.016H123.473V6.32L151.505 6.32V16.016H150.737L147.473 8.96H139.649V35.312L144.449 37.232V38H130.529ZM156.776 38V37.232L160.616 35.312V9.008L156.776 7.088V6.32L169.16 6.32C172.52 6.32 175.16 7.024 177.08 8.432C179.032 9.808 180.008 11.712 180.008 14.144C180.008 15.936 179.4 17.552 178.184 18.992C176.968 20.4 175.352 21.472 173.336 22.208L182.456 35.504L185.624 37.232V38H178.712L169.4 23.456L164.936 23.456V35.264L168.536 37.232V38H156.776ZM168.056 8.96H164.936V20.816L168.344 20.816C170.36 20.816 172.024 20.256 173.336 19.136C174.68 17.984 175.352 16.528 175.352 14.768C175.352 12.976 174.696 11.568 173.384 10.544C172.072 9.488 170.296 8.96 168.056 8.96ZM186.975 38V37.232L190.047 35.648L202.335 6.08H204.495L216.591 35.504L219.807 37.232V38H207.903V37.232L212.127 35.6L208.527 26.72H196.863L193.311 35.6L197.343 37.232V38H186.975ZM197.967 24.08H207.471L202.719 12.272L197.967 24.08ZM224.511 38V37.232L228.351 35.312V9.008L224.511 7.088V6.32L236.991 6.32V7.088L232.671 9.008V35.36L244.335 35.36L247.599 27.344H248.367V38L224.511 38ZM266.839 38V37.232L270.679 35.312V9.008L266.839 7.088V6.32L279.223 6.32C282.583 6.32 285.223 7.024 287.143 8.432C289.095 9.808 290.071 11.712 290.071 14.144C290.071 15.936 289.463 17.552 288.247 18.992C287.031 20.4 285.415 21.472 283.399 22.208L292.519 35.504L295.687 37.232V38H288.775L279.463 23.456L274.999 23.456V35.264L278.599 37.232V38H266.839ZM278.119 8.96H274.999V20.816L278.407 20.816C280.423 20.816 282.087 20.256 283.399 19.136C284.743 17.984 285.415 16.528 285.415 14.768C285.415 12.976 284.759 11.568 283.447 10.544C282.135 9.488 280.359 8.96 278.119 8.96ZM298.573 38V37.232L302.413 35.312V9.008L298.573 7.088V6.32L322.045 6.32V14.576H321.277L318.301 8.96L306.733 8.96V20.336H314.893L317.293 16.352H318.061V26.864H317.293L314.893 22.976H306.733V35.36H319.645L322.621 29.264H323.389V38H298.573ZM346.11 38.48C343.038 38.48 340.286 37.808 337.854 36.464C335.454 35.12 333.566 33.296 332.19 30.992C330.814 28.656 330.126 26 330.126 23.024C330.126 20.56 330.558 18.288 331.422 16.208C332.318 14.128 333.55 12.32 335.118 10.784C336.718 9.216 338.542 8 340.59 7.136C342.638 6.272 344.846 5.84 347.214 5.84C348.878 5.84 350.302 5.936 351.486 6.128C352.67 6.32 353.726 6.592 354.654 6.944C355.582 7.296 356.51 7.696 357.438 8.144L357.678 16.064H356.91L353.79 10.688C352.446 9.76 351.294 9.12 350.334 8.768C349.406 8.416 348.334 8.24 347.118 8.24C344.654 8.24 342.462 8.784 340.542 9.872C338.622 10.928 337.118 12.4 336.03 14.288C334.942 16.144 334.398 18.256 334.398 20.624C334.398 23.824 334.974 26.544 336.126 28.784C337.31 31.024 338.894 32.736 340.878 33.92C342.862 35.104 345.07 35.696 347.502 35.696C348.558 35.696 349.566 35.632 350.526 35.504C351.518 35.376 352.542 35.104 353.598 34.688V26.768L349.326 24.848V24.08H361.23V24.848L357.918 26.912V34.448C356.446 35.664 354.622 36.64 352.446 37.376C350.302 38.112 348.19 38.48 346.11 38.48ZM382.581 38.48C380.181 38.48 378.037 38.032 376.149 37.136C374.293 36.24 372.821 34.864 371.733 33.008C370.645 31.12 370.101 28.688 370.101 25.712V9.008L366.261 7.088V6.32L378.261 6.32V7.088L374.421 9.008V24.992C374.421 27.648 374.837 29.76 375.669 31.328C376.501 32.896 377.621 34.016 379.029 34.688C380.469 35.36 382.069 35.696 383.829 35.696C385.237 35.696 386.533 35.392 387.717 34.784C388.933 34.176 389.893 33.216 390.597 31.904C391.333 30.592 391.701 28.848 391.701 26.672V8.912L386.901 7.088V6.32L398.853 6.32V7.088L395.061 8.96V25.712C395.061 28.688 394.517 31.12 393.429 33.008C392.341 34.864 390.853 36.24 388.965 37.136C387.109 38.032 384.981 38.48 382.581 38.48ZM405.073 38V37.232L408.913 35.312V9.008L405.073 7.088V6.32L417.553 6.32V7.088L413.233 9.008V35.36L424.897 35.36L428.161 27.344H428.929V38L405.073 38ZM432.928 38V37.232L436 35.648L448.288 6.08L450.448 6.08L462.544 35.504L465.76 37.232V38L453.856 38V37.232L458.08 35.6L454.48 26.72L442.816 26.72L439.264 35.6L443.296 37.232V38H432.928ZM443.92 24.08L453.424 24.08L448.672 12.272L443.92 24.08ZM470.464 38V37.232L474.304 35.312V9.008L470.464 7.088V6.32L482.848 6.32C486.208 6.32 488.848 7.024 490.768 8.432C492.72 9.808 493.696 11.712 493.696 14.144C493.696 15.936 493.088 17.552 491.872 18.992C490.656 20.4 489.04 21.472 487.024 22.208L496.144 35.504L499.312 37.232V38H492.4L483.088 23.456H478.624V35.264L482.224 37.232V38H470.464ZM481.744 8.96L478.624 8.96V20.816H482.032C484.048 20.816 485.712 20.256 487.024 19.136C488.368 17.984 489.04 16.528 489.04 14.768C489.04 12.976 488.384 11.568 487.072 10.544C485.76 9.488 483.984 8.96 481.744 8.96Z" fill="white"/>
<path d="M0.66 104V103.68L1.94 103.02L7.06 90.7H7.96L13 102.96L14.34 103.68V104H9.38V103.68L11.14 103L9.64 99.3H4.78L3.3 103L4.98 103.68V104H0.66ZM5.24 98.2H9.2L7.22 93.28L5.24 98.2ZM17.9247 104.2C17.298 104.2 16.778 104.02 16.3647 103.66C15.9514 103.287 15.7447 102.773 15.7447 102.12C15.7447 101.467 15.9847 100.9 16.4647 100.42C16.958 99.94 17.778 99.5667 18.9247 99.3L20.8247 98.86V97.4C20.8247 96.9467 20.638 96.56 20.2647 96.24C19.9047 95.9067 19.4914 95.74 19.0247 95.74C18.518 95.74 18.1647 95.88 17.9647 96.16C17.7647 96.4267 17.6647 96.7867 17.6647 97.24V97.8L17.5647 97.9H16.5247C16.3247 97.9 16.1847 97.8667 16.1047 97.8C16.038 97.7333 16.0047 97.58 16.0047 97.34C16.0047 97.0467 16.0914 96.7467 16.2647 96.44C16.438 96.1333 16.7047 95.8667 17.0647 95.64C17.438 95.4 17.8247 95.2 18.2247 95.04C18.638 94.88 19.078 94.8 19.5447 94.8C20.0114 94.8 20.4647 94.8667 20.9047 95C21.358 95.1333 21.7247 95.36 22.0047 95.68C22.2847 95.9867 22.4247 96.42 22.4247 96.98V102.66C22.518 102.753 22.6514 102.833 22.8247 102.9C22.998 102.967 23.238 103 23.5447 103H24.3047L24.3647 103.04V103.1C24.2047 103.393 23.9647 103.653 23.6447 103.88C23.338 104.093 22.958 104.2 22.5047 104.2C22.0914 104.2 21.7514 104.093 21.4847 103.88C21.2314 103.653 21.0514 103.36 20.9447 103H20.8247C20.478 103.347 20.0447 103.633 19.5247 103.86C19.018 104.087 18.4847 104.2 17.9247 104.2ZM17.3047 101.72C17.3047 102.547 17.8047 102.96 18.8047 102.96C19.1247 102.96 19.438 102.927 19.7447 102.86C20.0647 102.793 20.4247 102.673 20.8247 102.5V99.54C19.758 99.74 18.978 99.9533 18.4847 100.18C17.9914 100.393 17.6714 100.627 17.5247 100.88C17.378 101.133 17.3047 101.413 17.3047 101.72ZM46.4098 104H40.8898V103.68L42.4898 102.88V91.92L40.8898 91.12V90.8L50.7698 90.8V94.84H50.4498L49.0898 91.9H44.2898V96.24H46.4298C47.5498 96.24 48.5165 96.3933 49.3298 96.7C50.1565 97.0067 50.7898 97.44 51.2298 98C51.6832 98.56 51.9098 99.2133 51.9098 99.96C51.9098 100.733 51.6832 101.427 51.2298 102.04C50.7765 102.64 50.1365 103.12 49.3098 103.48C48.4965 103.827 47.5298 104 46.4098 104ZM46.2498 97.34H44.2898V102.9H46.3898C47.6032 102.9 48.5032 102.647 49.0898 102.14C49.6765 101.62 49.9698 100.947 49.9698 100.12C49.9698 99.1467 49.6698 98.44 49.0698 98C48.4832 97.56 47.5432 97.34 46.2498 97.34ZM62.4622 89.2H62.7822L62.8622 89.28V89.48C62.8622 90.0133 62.8022 90.46 62.6822 90.82C62.5622 91.18 62.3289 91.4667 61.9822 91.68C61.6355 91.88 61.1155 92.0067 60.4222 92.06C59.6622 92.1133 59.0689 92.1867 58.6422 92.28C58.2155 92.36 57.8889 92.4533 57.6622 92.56C57.4355 92.6667 57.2355 92.78 57.0622 92.9C56.5689 93.2467 56.2622 93.9467 56.1422 95C56.1155 95.2 56.0955 95.4133 56.0822 95.64C56.0689 95.8667 56.0555 96.1067 56.0422 96.36C56.3622 96.0267 56.7555 95.7533 57.2222 95.54C57.7022 95.3133 58.3022 95.2 59.0222 95.2C59.7555 95.2 60.4222 95.38 61.0222 95.74C61.6355 96.1 62.1222 96.6133 62.4822 97.28C62.8555 97.9467 63.0422 98.7533 63.0422 99.7C63.0422 100.647 62.8422 101.46 62.4422 102.14C62.0422 102.807 61.5089 103.32 60.8422 103.68C60.1755 104.027 59.4489 104.2 58.6622 104.2C57.6755 104.2 56.8555 103.98 56.2022 103.54C55.5489 103.087 55.0555 102.473 54.7222 101.7C54.4022 100.913 54.2422 100.033 54.2422 99.06C54.2422 98.0867 54.3222 97.1533 54.4822 96.26C54.6422 95.3667 54.9422 94.5467 55.3822 93.8C55.8355 93.04 56.4822 92.3733 57.3222 91.8C58.1755 91.2133 59.2955 90.7467 60.6822 90.4C61.1889 90.2667 61.5689 90.1533 61.8222 90.06C62.0889 89.9667 62.2622 89.86 62.3422 89.74C62.4222 89.6067 62.4622 89.4267 62.4622 89.2ZM56.0422 98.76C56.0422 100.307 56.3089 101.46 56.8422 102.22C57.3755 102.967 58.0689 103.34 58.9222 103.34C59.5489 103.34 60.0889 103.08 60.5422 102.56C61.0089 102.027 61.2422 101.187 61.2422 100.04C61.2422 99.3467 61.1555 98.7 60.9822 98.1C60.8089 97.4867 60.5155 96.9933 60.1022 96.62C59.6889 96.2333 59.1289 96.04 58.4222 96.04C57.4889 96.04 56.6955 96.4333 56.0422 97.22V98.76ZM80.343 104V103.68L81.943 102.88V91.92L80.343 91.12V90.8H85.403C86.283 90.8 87.0696 90.9133 87.763 91.14C88.4696 91.3533 89.023 91.68 89.423 92.12C89.823 92.5467 90.023 93.0933 90.023 93.76C90.023 94.44 89.7963 95.0667 89.343 95.64C88.8896 96.2 88.2363 96.6 87.383 96.84C88.5696 97 89.4963 97.3733 90.163 97.96C90.8296 98.5333 91.163 99.2667 91.163 100.16C91.163 100.893 90.9296 101.553 90.463 102.14C90.0096 102.713 89.383 103.167 88.583 103.5C87.783 103.833 86.8763 104 85.863 104H80.343ZM84.943 91.9H83.743V96.64H85.063C86.0096 96.64 86.7496 96.44 87.283 96.04C87.8163 95.6267 88.083 95.0533 88.083 94.32C88.083 92.7067 87.0363 91.9 84.943 91.9ZM85.703 97.74H83.743V102.9H85.843C86.8963 102.9 87.723 102.66 88.323 102.18C88.923 101.7 89.223 101.08 89.223 100.32C89.223 99.4133 88.9163 98.76 88.303 98.36C87.703 97.9467 86.8363 97.74 85.703 97.74ZM94.427 95.96L93.167 95.32V95H96.887C98.1004 95 99.0804 95.1467 99.827 95.44C100.587 95.7333 100.967 96.2667 100.967 97.04C100.967 97.52 100.807 97.9533 100.487 98.34C100.18 98.7267 99.6137 98.9933 98.787 99.14C99.507 99.22 100.067 99.3733 100.467 99.6C100.88 99.8267 101.174 100.093 101.347 100.4C101.52 100.693 101.607 100.993 101.607 101.3C101.607 102.193 101.207 102.867 100.407 103.32C99.607 103.773 98.3804 104 96.727 104H93.167V103.68L94.427 103.04V95.96ZM97.487 95.86H96.027V98.84H97.427C98.0804 98.84 98.547 98.7 98.827 98.42C99.1204 98.14 99.267 97.7933 99.267 97.38C99.267 96.9667 99.1337 96.6133 98.867 96.32C98.6004 96.0133 98.1404 95.86 97.487 95.86ZM97.407 99.6H96.027V103.14H97.327C98.1937 103.14 98.8204 103 99.207 102.72C99.607 102.427 99.807 102.013 99.807 101.48C99.807 100.893 99.6137 100.433 99.227 100.1C98.8537 99.7667 98.247 99.6 97.407 99.6ZM118.507 104V103.68L120.107 102.88V91.92L118.507 91.12V90.8H128.087V94.24H127.767L126.527 91.9H121.907V102.88L123.707 103.68V104L118.507 104ZM130.501 95.96L129.241 95.32V95H136.781V98.42H136.461L135.101 95.94H132.101V103.04L133.761 103.68V104H129.241V103.68L130.501 103.04V95.96ZM154.283 91.12V90.8H165.483V91.12L163.883 91.92V102.9H165.763V107.34H165.443L163.883 104H154.763L153.203 107.34H152.883V102.9H154.383C154.756 101.967 155.049 101.007 155.263 100.02C155.489 99.02 155.649 97.94 155.743 96.78C155.836 95.62 155.883 94.32 155.883 92.88V91.92L154.283 91.12ZM162.083 102.9V91.9H157.083V92.88C157.083 94.3333 157.036 95.64 156.943 96.8C156.863 97.96 156.716 99.0333 156.503 100.02C156.303 101.007 156.023 101.967 155.663 102.9H162.083ZM168.708 103.06C169.028 102.367 169.275 101.607 169.448 100.78C169.635 99.94 169.762 99.12 169.828 98.32C169.895 97.52 169.928 96.8267 169.928 96.24V95.96L168.668 95.32V95H176.848V95.32L175.588 95.96V103.06H177.008V106.48H176.688L175.328 104H169.328L167.968 106.48H167.648V103.06H168.708ZM173.988 103.06V95.94H170.928V96.24C170.928 96.84 170.895 97.5467 170.828 98.36C170.762 99.16 170.648 99.9733 170.488 100.8C170.328 101.627 170.102 102.38 169.808 103.06H173.988ZM194.21 104V103.68L195.81 102.88V91.92L194.21 91.12V90.8H203.99V94.24H203.67L202.43 91.9H197.61V96.64H201.01L202.01 94.98H202.33V99.36H202.01L201.01 97.74H197.61V102.9H202.99L204.23 100.36H204.55V104H194.21ZM211.137 104.2C209.844 104.2 208.824 103.807 208.077 103.02C207.33 102.233 206.957 101.193 206.957 99.9C206.957 98.9 207.15 98.02 207.537 97.26C207.937 96.4867 208.457 95.8867 209.097 95.46C209.75 95.02 210.457 94.8 211.217 94.8C212.27 94.8 213.097 95.1667 213.697 95.9C214.31 96.6333 214.617 97.6867 214.617 99.06L214.517 99.16H208.537C208.55 99.7733 208.67 100.353 208.897 100.9C209.124 101.433 209.484 101.867 209.977 102.2C210.484 102.533 211.157 102.7 211.997 102.7C212.73 102.7 213.59 102.433 214.577 101.9H214.637V102.1C214.33 102.673 213.87 103.167 213.257 103.58C212.657 103.993 211.95 104.2 211.137 104.2ZM210.897 95.68C210.257 95.68 209.73 95.9067 209.317 96.36C208.917 96.8 208.67 97.4267 208.577 98.24H213.097C212.95 97.3333 212.69 96.68 212.317 96.28C211.957 95.88 211.484 95.68 210.897 95.68ZM231.945 104V103.68L233.545 102.88V91.92L231.945 91.12V90.8H241.725V94.24H241.405L240.165 91.9H235.345V96.64H238.745L239.745 94.98H240.065V99.36H239.745L238.745 97.74H235.345V102.9H240.725L241.965 100.36H242.285V104L231.945 104ZM235.505 89.26C235.225 89.26 234.991 89.1667 234.805 88.98C234.618 88.7933 234.525 88.56 234.525 88.28C234.525 88 234.618 87.7667 234.805 87.58C234.991 87.3933 235.225 87.3 235.505 87.3C235.785 87.3 236.018 87.3933 236.205 87.58C236.391 87.7667 236.485 88 236.485 88.28C236.485 88.56 236.391 88.7933 236.205 88.98C236.018 89.1667 235.785 89.26 235.505 89.26ZM239.185 89.26C238.905 89.26 238.671 89.1667 238.485 88.98C238.298 88.7933 238.205 88.56 238.205 88.28C238.205 88 238.298 87.7667 238.485 87.58C238.671 87.3933 238.905 87.3 239.185 87.3C239.465 87.3 239.698 87.3933 239.885 87.58C240.071 87.7667 240.165 88 240.165 88.28C240.165 88.56 240.071 88.7933 239.885 88.98C239.698 89.1667 239.465 89.26 239.185 89.26ZM248.871 104.2C247.578 104.2 246.558 103.807 245.811 103.02C245.065 102.233 244.691 101.193 244.691 99.9C244.691 98.9 244.885 98.02 245.271 97.26C245.671 96.4867 246.191 95.8867 246.831 95.46C247.485 95.02 248.191 94.8 248.951 94.8C250.005 94.8 250.831 95.1667 251.431 95.9C252.045 96.6333 252.351 97.6867 252.351 99.06L252.251 99.16H246.271C246.285 99.7733 246.405 100.353 246.631 100.9C246.858 101.433 247.218 101.867 247.711 102.2C248.218 102.533 248.891 102.7 249.731 102.7C250.465 102.7 251.325 102.433 252.311 101.9H252.371V102.1C252.065 102.673 251.605 103.167 250.991 103.58C250.391 103.993 249.685 104.2 248.871 104.2ZM248.631 95.68C247.991 95.68 247.465 95.9067 247.051 96.36C246.651 96.8 246.405 97.4267 246.311 98.24H250.831C250.685 97.3333 250.425 96.68 250.051 96.28C249.691 95.88 249.218 95.68 248.631 95.68ZM247.051 92.64C246.771 92.64 246.538 92.5467 246.351 92.36C246.165 92.1733 246.071 91.94 246.071 91.66C246.071 91.38 246.165 91.1467 246.351 90.96C246.538 90.7733 246.771 90.68 247.051 90.68C247.331 90.68 247.565 90.7733 247.751 90.96C247.938 91.1467 248.031 91.38 248.031 91.66C248.031 91.94 247.938 92.1733 247.751 92.36C247.565 92.5467 247.331 92.64 247.051 92.64ZM250.731 92.64C250.451 92.64 250.218 92.5467 250.031 92.36C249.845 92.1733 249.751 91.94 249.751 91.66C249.751 91.38 249.845 91.1467 250.031 90.96C250.218 90.7733 250.451 90.68 250.731 90.68C251.011 90.68 251.245 90.7733 251.431 90.96C251.618 91.1467 251.711 91.38 251.711 91.66C251.711 91.94 251.618 92.1733 251.431 92.36C251.245 92.5467 251.011 92.64 250.731 92.64ZM285.859 104V103.68L287.459 102.88V91.92L285.859 91.12V90.8H290.859V91.12L289.259 91.92V102.88L290.859 103.68V104H285.859ZM289.279 97.24L294.619 91.8L293.199 91.12V90.8H297.599V91.12L296.139 91.64L291.079 96.78L297.039 103.16L298.239 103.68V104H295.359L289.279 97.24ZM287.439 97.24L281.359 104H278.679V103.68L279.879 103.16L285.639 96.9L280.459 91.64L278.999 91.12V90.8H283.519V91.12L282.099 91.8L287.439 97.24ZM301.38 104H298.74V103.68L300.16 103L303.82 98.94L300.26 96.02L298.86 95.32V95H302.48V95.32L301.9 96.04V96.16L305.32 99.1V95.96L304.06 95.32V95H308.18V95.32L306.92 95.96V99.1L310.34 96.16V96.04L309.76 95.32V95H313.28V95.32L311.88 96.02L308.44 98.84L312.22 103L313.5 103.68V104H310.86L310.1 102.96L306.92 99.4V103.04L308.18 103.68V104H304.06V103.68L305.32 103.04V99.4L302.14 102.96L301.38 104ZM330.366 90.6C331.18 90.6 331.92 90.72 332.586 90.96C333.266 91.1867 333.8 91.5333 334.186 92C334.586 92.4533 334.786 93.0067 334.786 93.66C334.786 94.3667 334.546 95.0267 334.066 95.64C333.586 96.2533 332.9 96.6867 332.006 96.94C333.126 97.1133 333.993 97.4933 334.606 98.08C335.233 98.6533 335.546 99.3667 335.546 100.22C335.546 100.953 335.326 101.627 334.886 102.24C334.46 102.84 333.853 103.32 333.066 103.68C332.293 104.027 331.386 104.2 330.346 104.2C329.293 104.2 328.433 104.107 327.766 103.92C327.113 103.733 326.5 103.5 325.926 103.22L325.706 100.04H326.046L327.266 102.2C327.613 102.427 328.006 102.633 328.446 102.82C328.9 103.007 329.526 103.1 330.326 103.1C331.433 103.1 332.253 102.84 332.786 102.32C333.333 101.8 333.606 101.153 333.606 100.38C333.606 98.62 332.446 97.74 330.126 97.74H328.326V96.64H329.746C330.733 96.64 331.493 96.42 332.026 95.98C332.573 95.54 332.846 94.9533 332.846 94.22C332.846 93.42 332.64 92.7867 332.226 92.32C331.826 91.84 331.18 91.6 330.286 91.6C329.78 91.6 329.326 91.6533 328.926 91.76C328.54 91.8667 328.153 92.08 327.766 92.4L326.466 95H326.106L326.206 91.5C326.753 91.2333 327.333 91.02 327.946 90.86C328.56 90.6867 329.366 90.6 330.366 90.6ZM341.015 103.48C341.628 103.48 342.121 103.313 342.495 102.98C342.868 102.647 343.055 102.153 343.055 101.5C343.055 100.967 342.881 100.527 342.535 100.18C342.188 99.8333 341.635 99.66 340.875 99.66H339.735V98.9H340.895C341.508 98.9 341.948 98.74 342.215 98.42C342.495 98.0867 342.635 97.6733 342.635 97.18C342.635 96.6867 342.495 96.3 342.215 96.02C341.935 95.7267 341.495 95.58 340.895 95.58C340.468 95.58 340.135 95.6667 339.895 95.84C339.655 96 339.428 96.2533 339.215 96.6L338.555 97.66H338.275V95.48C338.661 95.2933 339.088 95.1333 339.555 95C340.021 94.8667 340.575 94.8 341.215 94.8C341.748 94.8 342.248 94.8667 342.715 95C343.195 95.1333 343.581 95.36 343.875 95.68C344.181 95.9867 344.335 96.42 344.335 96.98C344.335 97.4733 344.181 97.9333 343.875 98.36C343.568 98.7733 343.001 99.0533 342.175 99.2C343.055 99.3067 343.721 99.56 344.175 99.96C344.628 100.347 344.855 100.84 344.855 101.44C344.855 102.333 344.495 103.02 343.775 103.5C343.068 103.967 342.161 104.2 341.055 104.2C340.348 104.2 339.781 104.14 339.355 104.02C338.941 103.9 338.521 103.733 338.095 103.52V101.28H338.375L339.015 102.38C339.228 102.74 339.481 103.013 339.775 103.2C340.068 103.387 340.481 103.48 341.015 103.48ZM362.081 104V103.68L363.681 102.88V91.92L362.081 91.12V90.8H367.081V91.12L365.481 91.92V100.82L372.481 92.76V91.92L370.881 91.12V90.8H375.881V91.12L374.281 91.92V102.88L375.881 103.68V104H370.881V103.68L372.481 102.88V94.16L365.481 102.22V102.88L367.081 103.68V104H362.081ZM379.408 95.96L378.148 95.32V95H382.268V95.32L381.008 95.96V101.12L385.408 96.66V95.96L384.148 95.32V95H388.268V95.32L387.008 95.96V103.04L388.268 103.68V104H384.148V103.68L385.408 103.04V97.88L381.008 102.34V103.04L382.268 103.68V104H378.148V103.68L379.408 103.04V95.96ZM405.519 104V103.68L407.119 102.88V91.92L405.519 91.12V90.8H410.519V91.12L408.919 91.92V100.82L415.919 92.76V91.92L414.319 91.12V90.8H419.319V91.12L417.719 91.92V102.88L419.319 103.68V104H414.319V103.68L415.919 102.88V94.16L408.919 102.22V102.88L410.519 103.68V104L405.519 104ZM412.519 89.8C411.399 89.8 410.552 89.5067 409.979 88.92C409.405 88.32 409.119 87.6 409.119 86.76H410.839C410.839 87.3867 410.965 87.9133 411.219 88.34C411.472 88.7667 411.905 88.98 412.519 88.98C413.132 88.98 413.565 88.7667 413.819 88.34C414.072 87.9133 414.199 87.3867 414.199 86.76H415.919C415.919 87.6 415.632 88.32 415.059 88.92C414.485 89.5067 413.639 89.8 412.519 89.8ZM422.845 95.96L421.585 95.32V95H425.705V95.32L424.445 95.96V101.12L428.845 96.66V95.96L427.585 95.32V95H431.705V95.32L430.445 95.96V103.04L431.705 103.68V104H427.585V103.68L428.845 103.04V97.88L424.445 102.34V103.04L425.705 103.68V104H421.585V103.68L422.845 103.04V95.96ZM423.285 89.86H425.005C425.005 90.62 425.132 91.24 425.385 91.72C425.652 92.1867 426.072 92.42 426.645 92.42C427.218 92.42 427.632 92.1867 427.885 91.72C428.152 91.24 428.285 90.62 428.285 89.86H430.005C430.005 90.8333 429.718 91.6333 429.145 92.26C428.572 92.8867 427.738 93.2 426.645 93.2C425.552 93.2 424.718 92.8867 424.145 92.26C423.572 91.6333 423.285 90.8333 423.285 89.86ZM448.956 104V103.68L450.556 102.88V91.92L448.956 91.12V90.8H453.956V91.12L452.356 91.92V102.88L453.956 103.68V104H448.956ZM452.376 97.24L457.916 91.8L456.496 91.12V90.8H460.696V91.12L459.456 91.6L454.196 96.76L460.516 103.16L461.736 103.68V104H458.856L452.376 97.24ZM469.991 104L469.231 102.96L465.851 99.4V103.04L467.111 103.68V104H462.991V103.68L464.251 103.04V95.96L462.991 95.32V95H467.111V95.32L465.851 95.96V99.1L469.471 96.16V96.04L468.891 95.32V95H472.411V95.32L471.011 96.02L467.391 98.84L471.351 103L472.631 103.68V104H469.991ZM8.1 134V133.68L9.7 132.88L9.7 121.9H4.9V122.88C4.9 125.093 4.81333 126.947 4.64 128.44C4.48 129.92 4.19333 131.167 3.78 132.18C3.43333 132.993 3.04667 133.533 2.62 133.8C2.19333 134.067 1.79333 134.2 1.42 134.2C1.11333 134.2 0.92 134.16 0.84 134.08C0.773333 134 0.74 133.847 0.74 133.62L0.74 132.52L0.82 132.44H1.02C1.72667 132.44 2.27333 132.053 2.66 131.28C3.06 130.507 3.33333 129.407 3.48 127.98C3.62667 126.54 3.7 124.84 3.7 122.88V121.92L2.1 121.12V120.8H13.1V121.12L11.5 121.92L11.5 132.88L13.1 133.68V134H8.1ZM18.3745 126.44C18.3745 128.013 18.2945 129.347 18.1345 130.44C17.9879 131.533 17.7412 132.393 17.3945 133.02C17.1812 133.407 16.9279 133.7 16.6345 133.9C16.3412 134.1 15.9945 134.2 15.5945 134.2C15.3145 134.2 15.1345 134.16 15.0545 134.08C14.9745 134 14.9345 133.847 14.9345 133.62L14.9345 132.62L15.0145 132.54H15.3145C15.9012 132.54 16.3412 132.3 16.6345 131.82C16.9279 131.34 17.1212 130.647 17.2145 129.74C17.3212 128.833 17.3745 127.733 17.3745 126.44V125.96L15.9945 125.32V125H24.1745V125.32L22.9145 125.96V133.04L24.1745 133.68V134H20.0545V133.68L21.3145 133.04V125.94H18.3745V126.44ZM36.3367 134V133.68L37.9167 132.88L38.3367 121.94L36.6167 121.12V120.8H40.3167L44.9367 131.44L49.5367 120.8H53.0567V121.12L51.3767 121.92L51.7167 132.88L53.1167 133.68V134H48.5167V133.68L49.9967 132.9L49.7967 123.04L45.0167 134.1H44.1167L39.4167 123.18L39.1567 132.9L40.7767 133.68V134H36.3367ZM56.6164 125.96L55.3564 125.32V125H58.5764L61.3964 131.36H61.5764L64.3364 125L67.2164 125V125.32L65.9564 125.96L66.3364 133.04L67.5964 133.68V134H63.5964V133.68L64.7364 133.04L64.4164 126.74L61.3164 134H60.8964L57.5964 126.74L57.4164 133.04L58.5564 133.68V134H55.1564V133.68L56.4164 133.04L56.6164 125.96ZM94.7375 134V133.68L96.3375 132.88L96.3375 121.92L94.7375 121.12V120.8H99.7375V121.12L98.1375 121.92V126.64H104.938V121.92L103.338 121.12V120.8H108.338V121.12L106.738 121.92L106.738 132.88L108.338 133.68V134H103.338V133.68L104.938 132.88V127.74H98.1375V132.88L99.7375 133.68V134H94.7375ZM111.849 125.96L110.589 125.32V125H114.709V125.32L113.449 125.96L113.449 128.92H117.649L117.649 125.96L116.389 125.32V125H120.509V125.32L119.249 125.96L119.249 133.04L120.509 133.68V134H116.389V133.68L117.649 133.04V129.86H113.449V133.04L114.709 133.68V134H110.589V133.68L111.849 133.04L111.849 125.96ZM144.525 134.2C143.565 134.2 142.678 134.033 141.865 133.7C141.065 133.353 140.365 132.88 139.765 132.28C139.165 131.667 138.698 130.947 138.365 130.12C138.032 129.293 137.865 128.387 137.865 127.4C137.865 126.413 138.032 125.507 138.365 124.68C138.698 123.853 139.165 123.14 139.765 122.54C140.365 121.927 141.065 121.453 141.865 121.12C142.678 120.773 143.565 120.6 144.525 120.6C145.485 120.6 146.372 120.773 147.185 121.12C147.998 121.453 148.705 121.927 149.305 122.54C149.905 123.14 150.372 123.853 150.705 124.68C151.038 125.507 151.205 126.413 151.205 127.4C151.205 128.387 151.038 129.293 150.705 130.12C150.372 130.947 149.905 131.667 149.305 132.28C148.705 132.88 147.998 133.353 147.185 133.7C146.372 134.033 145.485 134.2 144.525 134.2ZM144.945 133.2C145.798 133.2 146.545 132.987 147.185 132.56C147.838 132.133 148.345 131.533 148.705 130.76C149.078 129.987 149.265 129.073 149.265 128.02C149.265 126.727 149.038 125.6 148.585 124.64C148.132 123.667 147.518 122.913 146.745 122.38C145.985 121.847 145.132 121.58 144.185 121.58C143.332 121.58 142.572 121.793 141.905 122.22C141.252 122.633 140.738 123.227 140.365 124C139.992 124.773 139.805 125.687 139.805 126.74C139.805 128.033 140.032 129.167 140.485 130.14C140.952 131.113 141.572 131.867 142.345 132.4C143.118 132.933 143.985 133.2 144.945 133.2ZM157.998 134.2C157.118 134.2 156.344 133.993 155.678 133.58C155.024 133.167 154.511 132.607 154.138 131.9C153.778 131.193 153.598 130.393 153.598 129.5C153.598 128.607 153.778 127.807 154.138 127.1C154.511 126.393 155.024 125.833 155.678 125.42C156.344 125.007 157.118 124.8 157.998 124.8C158.878 124.8 159.644 125.007 160.298 125.42C160.964 125.833 161.478 126.393 161.838 127.1C162.211 127.807 162.398 128.607 162.398 129.5C162.398 130.393 162.211 131.193 161.838 131.9C161.478 132.607 160.964 133.167 160.298 133.58C159.644 133.993 158.878 134.2 157.998 134.2ZM158.278 133.34C158.811 133.34 159.251 133.173 159.598 132.84C159.944 132.507 160.198 132.08 160.358 131.56C160.518 131.027 160.598 130.473 160.598 129.9C160.598 129.193 160.498 128.513 160.298 127.86C160.111 127.207 159.804 126.673 159.378 126.26C158.964 125.847 158.424 125.64 157.758 125.64C157.211 125.64 156.764 125.807 156.418 126.14C156.071 126.473 155.811 126.9 155.638 127.42C155.478 127.94 155.398 128.493 155.398 129.08C155.398 129.787 155.498 130.467 155.698 131.12C155.898 131.773 156.211 132.307 156.638 132.72C157.064 133.133 157.611 133.34 158.278 133.34ZM179.698 134V133.68L181.298 132.88V121.92L179.698 121.12V120.8H192.698V121.12L191.098 121.92V132.88L192.698 133.68V134H187.698V133.68L189.298 132.88V121.9H183.098V132.88L184.698 133.68V134H179.698ZM196.224 125.96L194.964 125.32V125H204.684V125.32L203.424 125.96V133.04L204.684 133.68V134H200.564V133.68L201.824 133.04V125.94H197.824V133.04L199.084 133.68V134H194.964V133.68L196.224 133.04V125.96ZM221.945 134V133.68L223.545 132.88V121.92L221.945 121.12V120.8H227.145C228.718 120.8 229.978 121.087 230.925 121.66C231.885 122.233 232.365 123.14 232.365 124.38C232.365 125.113 232.111 125.767 231.605 126.34C231.111 126.9 230.431 127.347 229.565 127.68C228.711 128.013 227.745 128.18 226.665 128.18H225.345V132.88L227.145 133.68V134H221.945ZM225.345 121.9V127.08H227.045C228.098 127.08 228.925 126.847 229.525 126.38C230.125 125.9 230.425 125.287 230.425 124.54C230.425 123.607 230.118 122.933 229.505 122.52C228.905 122.107 228.038 121.9 226.905 121.9H225.345ZM234.163 138.6V138.28L235.423 137.64V127.08L234.223 126.04V125.9L236.703 124.8H236.823L236.983 126.02H237.123C237.63 125.593 238.116 125.287 238.583 125.1C239.05 124.9 239.556 124.8 240.103 124.8C240.783 124.8 241.383 124.973 241.903 125.32C242.423 125.667 242.83 126.16 243.123 126.8C243.43 127.427 243.583 128.18 243.583 129.06C243.583 130.153 243.376 131.087 242.963 131.86C242.563 132.62 242.016 133.2 241.323 133.6C240.63 134 239.87 134.2 239.043 134.2C238.296 134.2 237.623 134.133 237.023 134V137.64L238.443 138.28V138.6H234.163ZM239.003 126.18C238.683 126.18 238.35 126.233 238.003 126.34C237.67 126.433 237.343 126.58 237.023 126.78V132.4C237.423 132.72 237.83 132.94 238.243 133.06C238.656 133.18 239.116 133.24 239.623 133.24C240.263 133.24 240.816 132.973 241.283 132.44C241.75 131.893 241.983 130.987 241.983 129.72C241.983 128.893 241.85 128.22 241.583 127.7C241.316 127.18 240.956 126.8 240.503 126.56C240.05 126.307 239.55 126.18 239.003 126.18ZM267.551 134.2C266.191 134.2 265.017 133.92 264.031 133.36C263.044 132.8 262.284 132.04 261.751 131.08C261.217 130.107 260.951 129 260.951 127.76C260.951 126.813 261.131 125.913 261.491 125.06C261.864 124.193 262.364 123.427 262.991 122.76C263.631 122.093 264.364 121.567 265.191 121.18C266.031 120.793 266.917 120.6 267.851 120.6C268.517 120.6 269.084 120.647 269.551 120.74C270.017 120.82 270.431 120.933 270.791 121.08C271.164 121.213 271.537 121.373 271.911 121.56L272.011 125.06H271.651L270.431 122.62C269.924 122.26 269.477 122 269.091 121.84C268.717 121.68 268.291 121.6 267.811 121.6C266.851 121.6 265.991 121.84 265.231 122.32C264.484 122.8 263.891 123.46 263.451 124.3C263.024 125.127 262.811 126.08 262.811 127.16C262.811 128.427 263.017 129.513 263.431 130.42C263.857 131.313 264.424 132 265.131 132.48C265.851 132.947 266.644 133.18 267.511 133.18C268.244 133.18 268.857 133.08 269.351 132.88C269.857 132.667 270.304 132.433 270.691 132.18L271.891 130.04H272.231L272.011 133.22C271.624 133.42 271.224 133.593 270.811 133.74C270.411 133.887 269.951 134 269.431 134.08C268.911 134.16 268.284 134.2 267.551 134.2ZM279.243 134.2C277.949 134.2 276.929 133.807 276.183 133.02C275.436 132.233 275.063 131.193 275.063 129.9C275.063 128.9 275.263 128.02 275.663 127.26C276.076 126.487 276.629 125.887 277.323 125.46C278.016 125.02 278.796 124.8 279.663 124.8C280.196 124.8 280.716 124.893 281.223 125.08C281.729 125.253 282.116 125.487 282.383 125.78C282.596 126.033 282.703 126.233 282.703 126.38C282.703 126.567 282.616 126.727 282.443 126.86L281.683 127.5H281.543L280.863 126.58C280.663 126.313 280.409 126.1 280.103 125.94C279.809 125.767 279.443 125.68 279.003 125.68C278.269 125.68 277.689 125.973 277.263 126.56C276.849 127.133 276.643 127.94 276.643 128.98C276.643 129.62 276.749 130.227 276.963 130.8C277.176 131.36 277.529 131.82 278.023 132.18C278.529 132.527 279.223 132.7 280.103 132.7C280.836 132.7 281.696 132.433 282.683 131.9H282.743V132.1C282.436 132.673 281.976 133.167 281.363 133.58C280.763 133.993 280.056 134.2 279.243 134.2ZM302.473 134V133.68L304.473 132.88V121.9H301.213L299.853 124.84H299.533V120.8H311.213V124.84H310.893L309.533 121.9H306.273V132.88L308.273 133.68V134H302.473ZM312.104 128.42V125H320.744V128.42H320.424L319.064 125.94H317.224V133.04L318.764 133.68V134H314.084V133.68L315.624 133.04V125.94H313.784L312.424 128.42H312.104ZM342.828 133.14C342.414 133.62 342.021 133.913 341.648 134.02C341.288 134.14 340.954 134.2 340.648 134.2C340.341 134.2 340.148 134.16 340.068 134.08C340.001 134 339.968 133.847 339.968 133.62V132.52L340.048 132.44H340.248C340.968 132.44 341.534 132.313 341.948 132.06C342.361 131.793 342.714 131.393 343.008 130.86L338.468 121.86L337.048 121.12V120.8H342.048V121.12L340.328 121.86V121.96L343.768 128.82H344.108L347.488 121.88V121.8L345.848 121.12V120.8H350.048V121.12L348.848 121.76L344.788 129.96C344.428 130.693 344.094 131.313 343.788 131.82C343.481 132.313 343.161 132.753 342.828 133.14ZM351.211 138.82C350.904 138.82 350.711 138.773 350.631 138.68C350.564 138.6 350.531 138.453 350.531 138.24V137.24L350.611 137.16H351.531C351.864 137.16 352.117 137.127 352.291 137.06C352.464 137.007 352.624 136.853 352.771 136.6C352.917 136.36 353.124 135.96 353.391 135.4L354.091 133.84L350.431 125.94L349.091 125.32V125H353.871V125.32L352.231 125.94V126.04L354.891 131.84H354.951L357.191 126.16V126.04L355.691 125.32V125H359.611V125.32L358.111 126L354.171 135.58C354.051 135.887 353.944 136.14 353.851 136.34C353.771 136.553 353.677 136.753 353.571 136.94C353.464 137.14 353.311 137.38 353.111 137.66C352.844 138.047 352.544 138.333 352.211 138.52C351.877 138.72 351.544 138.82 351.211 138.82ZM390.08 134.4V134.08L391.68 133.28V132.4C390.227 132.36 388.98 132.14 387.94 131.74C386.913 131.327 386.127 130.767 385.58 130.06C385.033 129.353 384.76 128.533 384.76 127.6C384.76 126.667 385.033 125.813 385.58 125.04C386.127 124.267 386.913 123.647 387.94 123.18C388.98 122.7 390.227 122.44 391.68 122.4V121.52L390.08 120.72V120.4H395.08V120.72L393.48 121.52V122.4C395.747 122.453 397.453 122.92 398.6 123.8C399.76 124.667 400.34 125.8 400.34 127.2C400.34 128.133 400.08 128.987 399.56 129.76C399.053 130.52 398.293 131.14 397.28 131.62C396.267 132.087 395 132.347 393.48 132.4V133.28L395.08 134.08V134.4H390.08ZM391.68 123.38C390.013 123.38 388.767 123.72 387.94 124.4C387.113 125.067 386.7 125.913 386.7 126.94C386.7 128.247 387.133 129.287 388 130.06C388.88 130.833 390.107 131.273 391.68 131.38V123.38ZM398.4 127.82C398.4 126.513 397.993 125.48 397.18 124.72C396.367 123.947 395.133 123.507 393.48 123.4V131.4C394.68 131.4 395.64 131.247 396.36 130.94C397.08 130.62 397.6 130.193 397.92 129.66C398.24 129.127 398.4 128.513 398.4 127.82ZM405.638 138.6V138.28L406.898 137.64V134.2C405.911 134.16 405.044 133.933 404.298 133.52C403.551 133.107 402.971 132.553 402.558 131.86C402.144 131.153 401.938 130.367 401.938 129.5C401.938 128.633 402.144 127.853 402.558 127.16C402.971 126.453 403.551 125.893 404.298 125.48C405.044 125.067 405.911 124.84 406.898 124.8V121.28L405.698 120.24V120.1L408.378 119H408.498V124.8C409.484 124.84 410.344 125.073 411.078 125.5C411.811 125.913 412.384 126.467 412.798 127.16C413.211 127.853 413.418 128.633 413.418 129.5C413.418 130.367 413.211 131.147 412.798 131.84C412.384 132.533 411.811 133.093 411.078 133.52C410.344 133.933 409.484 134.16 408.498 134.2V137.64L409.758 138.28V138.6H405.638ZM403.738 129.08C403.738 129.733 403.844 130.367 404.058 130.98C404.284 131.593 404.631 132.113 405.098 132.54C405.564 132.967 406.164 133.22 406.898 133.3V125.64C406.164 125.64 405.564 125.807 405.098 126.14C404.631 126.473 404.284 126.907 404.058 127.44C403.844 127.96 403.738 128.507 403.738 129.08ZM411.618 129.9C411.618 129.247 411.511 128.613 411.298 128C411.084 127.387 410.744 126.867 410.278 126.44C409.824 126.013 409.231 125.76 408.498 125.68V133.34C409.218 133.34 409.804 133.173 410.258 132.84C410.724 132.507 411.064 132.08 411.278 131.56C411.504 131.027 411.618 130.473 411.618 129.9ZM430.114 134V133.68L431.574 132.94L435.814 127.42L431.674 121.82L430.414 121.12V120.8H435.414V121.12L433.814 121.86V121.96L437.014 126.18L440.334 121.94V121.86L438.814 121.12V120.8H443.014V121.12L441.754 121.86L437.694 127.08L442.114 132.9L443.514 133.68V134H438.414V133.68L439.874 132.96V132.88L436.474 128.3L432.994 132.88V132.96L434.614 133.68V134H430.114ZM444.739 134V133.68L445.819 132.98L448.439 129.54L445.779 125.94L444.839 125.32V125H448.979V125.32L447.619 125.92V126.04L449.479 128.56L451.099 126.16V126.04L449.959 125.32V125H453.279V125.32L452.219 126.02L449.879 129.1L452.799 133.06L453.619 133.68V134H449.739V133.68L450.959 133.08V132.96L448.839 130.1L446.999 132.84V132.96L448.239 133.68V134H444.739ZM481.841 134H470.441V133.68L472.041 132.88V121.92L470.441 121.12V120.8H475.441V121.12L473.841 121.92V132.9H480.041V121.92L478.441 121.12V120.8H483.441V121.12L481.841 121.92V132.9H483.721V137.34H483.401L481.841 134ZM487.044 133.04V125.96L485.784 125.32V125H489.904V125.32L488.644 125.96V133.06H492.644V125.96L491.384 125.32V125H495.504V125.32L494.244 125.96V133.06H495.664V136.48H495.344L493.984 134H485.784V133.68L487.044 133.04ZM8.06 164V163.68L9.9 162.88V157.94C9.44667 158.087 8.94667 158.213 8.4 158.32C7.86667 158.427 7.24667 158.48 6.54 158.48C5.63333 158.48 4.83333 158.353 4.14 158.1C3.46 157.847 2.92667 157.4 2.54 156.76C2.16667 156.107 1.98 155.187 1.98 154L1.98 151.96L0.34 151.12L0.34 150.8H5.38V151.12L3.78 151.96L3.78 154.12C3.78 154.947 3.88667 155.6 4.1 156.08C4.32667 156.547 4.68667 156.88 5.18 157.08C5.67333 157.28 6.32667 157.38 7.14 157.38C7.60667 157.38 8.07333 157.353 8.54 157.3C9.02 157.233 9.47333 157.107 9.9 156.92L9.9 151.96L8.3 151.12V150.8H13.3V151.12L11.7 151.96L11.7 162.88L13.3 163.68V164H8.06ZM16.1894 157.42V155.96L15.0294 155.32V155H18.9894V155.32L17.7894 155.96V157.4C17.7894 158.187 17.9494 158.733 18.2694 159.04C18.5894 159.347 19.0894 159.5 19.7694 159.5C20.156 159.5 20.496 159.48 20.7894 159.44C21.0827 159.4 21.3694 159.333 21.6494 159.24V155.96L20.4494 155.32V155H24.5094V155.32L23.2494 155.96L23.2494 163.04L24.5094 163.68V164H20.2294V163.68L21.6494 163.04L21.6494 159.98C21.276 160.1 20.916 160.187 20.5694 160.24C20.2227 160.293 19.8827 160.32 19.5494 160.32C18.376 160.32 17.5227 160.1 16.9894 159.66C16.456 159.22 16.1894 158.473 16.1894 157.42ZM46.7688 150.8V151.12L45.1688 151.92V162.9H50.1688V151.92L48.5688 151.12V150.8H53.5688V151.12L51.9688 151.92V162.88L51.9088 162.9H56.9688V151.92L55.3688 151.12V150.8H60.3688V151.12L58.7688 151.92V162.88L60.3688 163.68V164H41.7688V163.68L43.3688 162.88V151.92L41.7688 151.12V150.8H46.7688ZM63.8802 163.04V155.96L62.6202 155.32V155H66.7402V155.32L65.4802 155.96V163.06H69.0802V155.96L67.8202 155.32V155H71.9402V155.32L70.6802 155.96V163.06H74.2802V155.96L73.0202 155.32V155H77.1402V155.32L75.8802 155.96V163.04L77.1402 163.68V164H62.6202V163.68L63.8802 163.04ZM98.9953 150.8V151.12L97.3953 151.92V162.9H102.395V151.92L100.795 151.12V150.8H105.795V151.12L104.195 151.92V162.88L104.135 162.9H109.195V151.92L107.595 151.12V150.8H112.595V151.12L110.995 151.92V162.9H112.875V167.34H112.555L110.995 164H93.9953V163.68L95.5953 162.88V151.92L93.9953 151.12V150.8H98.9953ZM116.204 163.04V155.96L114.944 155.32V155H119.064V155.32L117.804 155.96V163.06H121.404V155.96L120.144 155.32V155H124.264V155.32L123.004 155.96V163.06H126.604V155.96L125.344 155.32V155H129.464V155.32L128.204 155.96V163.06H129.624V166.48H129.304L127.944 164H114.944V163.68L116.204 163.04ZM153.947 164H148.427V163.68L150.027 162.88V151.9H147.707L146.347 154.84H146.027V150.8H153.827V151.12L151.827 151.92V156.24H153.967C155.087 156.24 156.054 156.393 156.867 156.7C157.694 157.007 158.327 157.44 158.767 158C159.221 158.56 159.447 159.213 159.447 159.96C159.447 160.733 159.221 161.427 158.767 162.04C158.314 162.64 157.674 163.12 156.847 163.48C156.034 163.827 155.067 164 153.947 164ZM153.787 157.34H151.827V162.9H153.927C155.141 162.9 156.041 162.647 156.627 162.14C157.214 161.62 157.507 160.947 157.507 160.12C157.507 159.147 157.207 158.44 156.607 158C156.021 157.56 155.081 157.34 153.787 157.34ZM166.809 158.46C168.062 158.46 169.029 158.6 169.709 158.88C170.389 159.147 170.862 159.487 171.129 159.9C171.395 160.313 171.529 160.727 171.529 161.14C171.529 162.073 171.129 162.787 170.329 163.28C169.542 163.76 168.315 164 166.649 164H163.089V163.68L164.349 163.04V155.94H162.749L161.389 158.42H161.069V155H167.609V155.32L165.949 155.96V158.46H166.809ZM167.329 159.42H165.949V163.06H167.249C168.115 163.06 168.742 162.907 169.129 162.6C169.529 162.28 169.729 161.853 169.729 161.32C169.729 160.707 169.535 160.24 169.149 159.92C168.775 159.587 168.169 159.42 167.329 159.42ZM203.949 164H198.429V163.68L200.029 162.88V151.92L198.429 151.12V150.8H203.829V151.12L201.829 151.92V156.24H203.969C205.089 156.24 206.056 156.393 206.869 156.7C207.696 157.007 208.329 157.44 208.769 158C209.222 158.56 209.449 159.213 209.449 159.96C209.449 160.733 209.222 161.427 208.769 162.04C208.316 162.64 207.676 163.12 206.849 163.48C206.036 163.827 205.069 164 203.949 164ZM203.789 157.34H201.829V162.9H203.929C205.142 162.9 206.042 162.647 206.629 162.14C207.216 161.62 207.509 160.947 207.509 160.12C207.509 159.147 207.209 158.44 206.609 158C206.022 157.56 205.082 157.34 203.789 157.34ZM211.489 164V163.68L213.089 162.88V151.92L211.489 151.12V150.8H216.489V151.12L214.889 151.92V162.88L216.489 163.68V164H211.489ZM230.411 155.96V163.04L231.671 163.68V164H227.551V163.68L228.811 163.04V155.96L227.551 155.32V155H231.671V155.32L230.411 155.96ZM222.571 158.46C223.824 158.46 224.791 158.6 225.471 158.88C226.151 159.147 226.624 159.487 226.891 159.9C227.157 160.313 227.291 160.727 227.291 161.14C227.291 162.073 226.891 162.787 226.091 163.28C225.291 163.76 224.064 164 222.411 164L218.851 164V163.68L220.111 163.04V155.96L218.851 155.32V155L223.371 155V155.32L221.711 155.96V158.46H222.571ZM223.091 159.42H221.711V163.06H223.011C223.877 163.06 224.504 162.907 224.891 162.6C225.291 162.28 225.491 161.853 225.491 161.32C225.491 160.707 225.297 160.24 224.911 159.92C224.537 159.587 223.931 159.42 223.091 159.42ZM254.457 164H248.937V163.68L250.537 162.88V151.92L248.937 151.12V150.8H254.337V151.12L252.337 151.92V156.24H254.477C255.597 156.24 256.563 156.393 257.377 156.7C258.203 157.007 258.837 157.44 259.277 158C259.73 158.56 259.957 159.213 259.957 159.96C259.957 160.733 259.73 161.427 259.277 162.04C258.823 162.64 258.183 163.12 257.357 163.48C256.543 163.827 255.577 164 254.457 164ZM254.297 157.34H252.337V162.9H254.437C255.65 162.9 256.55 162.647 257.137 162.14C257.723 161.62 258.017 160.947 258.017 160.12C258.017 159.147 257.717 158.44 257.117 158C256.53 157.56 255.59 157.34 254.297 157.34ZM265.285 158.46C266.539 158.46 267.505 158.6 268.185 158.88C268.865 159.147 269.339 159.487 269.605 159.9C269.872 160.313 270.005 160.727 270.005 161.14C270.005 162.073 269.605 162.787 268.805 163.28C268.005 163.76 266.779 164 265.125 164H261.565V163.68L262.825 163.04V155.96L261.565 155.32V155H266.085V155.32L264.425 155.96V158.46H265.285ZM265.805 159.42H264.425V163.06H265.725C266.592 163.06 267.219 162.907 267.605 162.6C268.005 162.28 268.205 161.853 268.205 161.32C268.205 160.707 268.012 160.24 267.625 159.92C267.252 159.587 266.645 159.42 265.805 159.42ZM292.465 163.16C293.319 163.16 294.085 162.953 294.765 162.54C295.445 162.113 295.985 161.52 296.385 160.76C296.785 159.987 296.985 159.073 296.985 158.02C296.985 157.927 296.985 157.833 296.985 157.74H291.925L290.925 159.36H290.605V154.98H290.925L291.925 156.64H296.885C296.725 155.6 296.412 154.707 295.945 153.96C295.479 153.2 294.892 152.62 294.185 152.22C293.492 151.807 292.732 151.6 291.905 151.6C291.399 151.6 290.945 151.653 290.545 151.76C290.159 151.867 289.772 152.08 289.385 152.4L288.085 155H287.725L287.825 151.5C288.372 151.233 288.992 151.02 289.685 150.86C290.392 150.687 291.245 150.6 292.245 150.6C293.205 150.6 294.092 150.773 294.905 151.12C295.719 151.453 296.425 151.927 297.025 152.54C297.625 153.14 298.092 153.853 298.425 154.68C298.759 155.507 298.925 156.413 298.925 157.4C298.925 158.707 298.645 159.873 298.085 160.9C297.539 161.927 296.765 162.733 295.765 163.32C294.765 163.907 293.592 164.2 292.245 164.2C291.152 164.2 290.252 164.113 289.545 163.94C288.852 163.753 288.212 163.513 287.625 163.22L287.405 160.04H287.745L288.945 162.16C289.345 162.427 289.812 162.66 290.345 162.86C290.892 163.06 291.599 163.16 292.465 163.16ZM303.632 159.84V158.9H307.592C307.499 158.313 307.332 157.767 307.092 157.26C306.865 156.753 306.552 156.347 306.152 156.04C305.765 155.733 305.285 155.58 304.712 155.58C304.272 155.58 303.905 155.66 303.612 155.82C303.319 155.98 303.065 156.24 302.852 156.6L302.192 157.66H301.912V155.48C302.325 155.267 302.779 155.1 303.272 154.98C303.765 154.86 304.359 154.8 305.052 154.8C305.932 154.8 306.699 155.007 307.352 155.42C308.019 155.833 308.532 156.393 308.892 157.1C309.265 157.807 309.452 158.607 309.452 159.5C309.452 160.393 309.265 161.193 308.892 161.9C308.532 162.607 308.019 163.167 307.352 163.58C306.699 163.993 305.932 164.2 305.052 164.2C304.265 164.2 303.632 164.147 303.152 164.04C302.672 163.933 302.199 163.76 301.732 163.52V161.28H302.012L302.652 162.38C302.865 162.753 303.145 163.033 303.492 163.22C303.852 163.393 304.359 163.48 305.012 163.48C305.545 163.48 306.012 163.3 306.412 162.94C306.812 162.58 307.119 162.127 307.332 161.58C307.545 161.033 307.652 160.473 307.652 159.9V159.84H303.632ZM326.749 164V163.68L328.349 162.88V151.92L326.749 151.12V150.8H331.749V151.12L330.149 151.92V156.64H332.489C332.596 155.467 332.936 154.427 333.509 153.52C334.096 152.613 334.856 151.9 335.789 151.38C336.723 150.86 337.763 150.6 338.909 150.6C339.843 150.6 340.703 150.773 341.489 151.12C342.276 151.453 342.963 151.927 343.549 152.54C344.136 153.14 344.589 153.853 344.909 154.68C345.229 155.507 345.389 156.413 345.389 157.4C345.389 158.387 345.229 159.293 344.909 160.12C344.589 160.947 344.136 161.667 343.549 162.28C342.963 162.88 342.276 163.353 341.489 163.7C340.703 164.033 339.843 164.2 338.909 164.2C337.709 164.2 336.629 163.927 335.669 163.38C334.723 162.82 333.963 162.053 333.389 161.08C332.816 160.107 332.503 158.993 332.449 157.74H330.149V162.88L331.749 163.68V164H326.749ZM339.329 163.2C340.143 163.2 340.856 162.987 341.469 162.56C342.096 162.133 342.583 161.533 342.929 160.76C343.276 159.987 343.449 159.073 343.449 158.02C343.449 156.727 343.229 155.6 342.789 154.64C342.363 153.667 341.776 152.913 341.029 152.38C340.296 151.847 339.476 151.58 338.569 151.58C337.756 151.58 337.036 151.793 336.409 152.22C335.783 152.633 335.289 153.227 334.929 154C334.569 154.773 334.389 155.687 334.389 156.74C334.389 158.033 334.609 159.167 335.049 160.14C335.489 161.113 336.083 161.867 336.829 162.4C337.589 162.933 338.423 163.2 339.329 163.2ZM349.017 155.96L347.757 155.32V155H351.877V155.32L350.617 155.96V158.92H352.337C352.417 158.12 352.637 157.413 352.997 156.8C353.37 156.173 353.857 155.687 354.457 155.34C355.057 154.98 355.744 154.8 356.517 154.8C357.344 154.8 358.07 155.007 358.697 155.42C359.337 155.833 359.83 156.393 360.177 157.1C360.537 157.807 360.717 158.607 360.717 159.5C360.717 160.393 360.537 161.193 360.177 161.9C359.83 162.607 359.337 163.167 358.697 163.58C358.07 163.993 357.344 164.2 356.517 164.2C355.717 164.2 355.01 164.013 354.397 163.64C353.797 163.267 353.31 162.753 352.937 162.1C352.577 161.433 352.377 160.687 352.337 159.86H350.617V163.04L351.877 163.68V164H347.757V163.68L349.017 163.04V155.96ZM356.797 163.34C357.29 163.34 357.69 163.173 357.997 162.84C358.317 162.507 358.55 162.08 358.697 161.56C358.844 161.027 358.917 160.473 358.917 159.9C358.917 159.193 358.824 158.513 358.637 157.86C358.464 157.207 358.184 156.673 357.797 156.26C357.41 155.847 356.904 155.64 356.277 155.64C355.77 155.64 355.357 155.807 355.037 156.14C354.73 156.473 354.497 156.9 354.337 157.42C354.19 157.94 354.117 158.493 354.117 159.08C354.117 159.787 354.21 160.467 354.397 161.12C354.584 161.773 354.87 162.307 355.257 162.72C355.657 163.133 356.17 163.34 356.797 163.34ZM380.159 164H377.419V163.68L378.739 162.96L382.359 158C381.292 157.747 380.472 157.3 379.899 156.66C379.339 156.007 379.059 155.313 379.059 154.58C379.059 153.353 379.505 152.42 380.399 151.78C381.305 151.127 382.732 150.8 384.679 150.8H389.339V151.12L387.739 151.92V162.88L389.339 163.68V164H384.339V163.68L385.939 162.86V158.34H384.039L380.159 164ZM384.519 157.24H385.939V151.9H384.659C383.405 151.9 382.479 152.133 381.879 152.6C381.292 153.067 380.999 153.707 380.999 154.52C380.999 155.307 381.299 155.96 381.899 156.48C382.499 156.987 383.372 157.24 384.519 157.24ZM396.545 164V163.68L397.525 163.04V160.04H396.345L394.285 162.96L393.765 164H391.245V163.68L392.445 163L394.805 159.78C394.058 159.66 393.485 159.413 393.085 159.04C392.685 158.653 392.485 158.18 392.485 157.62C392.485 156.967 392.645 156.453 392.965 156.08C393.298 155.693 393.738 155.42 394.285 155.26C394.845 155.087 395.471 155 396.165 155H400.385V155.32L399.125 155.96V163.04L400.385 163.68V164H396.545ZM395.985 159.3H397.525V155.84H396.185C395.491 155.84 394.971 156.007 394.625 156.34C394.278 156.66 394.105 157.067 394.105 157.56C394.105 158.027 394.258 158.433 394.565 158.78C394.885 159.127 395.358 159.3 395.985 159.3Z" fill="white"/>
<path d="M3.06 214V213.68L4.86 212.88L4.86 202.74L1.36 204.5L1.36 203.8L6.16 200.8H6.56L6.56 212.88L8.16 213.68V214H3.06ZM16.04 214V213.5C17.2 212.167 18.1533 211.053 18.9 210.16C19.6467 209.267 20.2267 208.527 20.64 207.94C21.0667 207.34 21.3733 206.833 21.56 206.42C21.76 206.007 21.88 205.633 21.92 205.3C21.9733 204.953 22 204.58 22 204.18C22 203.367 21.7867 202.727 21.36 202.26C20.9333 201.78 20.4133 201.54 19.8 201.54C19.1067 201.54 18.5733 201.727 18.2 202.1C17.8267 202.46 17.64 203.007 17.64 203.74V204.64L17.54 204.78H16.62C16.3533 204.78 16.1533 204.733 16.02 204.64C15.8867 204.547 15.82 204.313 15.82 203.94C15.82 203.593 15.92 203.24 16.12 202.88C16.3333 202.507 16.6533 202.173 17.08 201.88C17.4267 201.64 17.7533 201.427 18.06 201.24C18.38 201.04 18.72 200.887 19.08 200.78C19.4533 200.66 19.9 200.6 20.42 200.6C21.1 200.6 21.7 200.76 22.22 201.08C22.7533 201.4 23.1733 201.827 23.48 202.36C23.7867 202.893 23.94 203.487 23.94 204.14C23.94 204.58 23.8867 204.987 23.78 205.36C23.6733 205.72 23.4933 206.093 23.24 206.48C23 206.867 22.66 207.32 22.22 207.84C21.7933 208.347 21.2467 208.967 20.58 209.7C19.9267 210.42 19.14 211.307 18.22 212.36H22.92L23.92 210.42H24.24L24.04 214H16.04ZM34.88 214.2C33.6133 214.2 32.58 213.893 31.78 213.28C31.0333 212.72 30.66 212.16 30.66 211.6C30.66 211.32 30.72 211.147 30.84 211.08C30.96 211 31.14 210.96 31.38 210.96H32.3L32.44 211.1V211.76C32.44 212.187 32.64 212.553 33.04 212.86C33.44 213.153 34.0667 213.3 34.92 213.3C35.76 213.3 36.4133 213.047 36.88 212.54C37.3467 212.033 37.58 211.373 37.58 210.56C37.58 209.653 37.34 208.94 36.86 208.42C36.38 207.887 35.5133 207.62 34.26 207.62H33.08V206.74H33.62C34.5667 206.74 35.3467 206.493 35.96 206C36.5867 205.493 36.9 204.793 36.9 203.9C36.9 203.06 36.7133 202.453 36.34 202.08C35.98 201.693 35.4667 201.5 34.8 201.5C34.2133 201.5 33.74 201.667 33.38 202C33.02 202.32 32.84 202.747 32.84 203.28V204L32.68 204.16H31.84C31.5733 204.16 31.3733 204.12 31.24 204.04C31.12 203.96 31.06 203.767 31.06 203.46C31.06 203.127 31.1733 202.78 31.4 202.42C31.64 202.06 32.0067 201.733 32.5 201.44C32.9533 201.16 33.38 200.953 33.78 200.82C34.1933 200.673 34.68 200.6 35.24 200.6C35.9333 200.6 36.5467 200.74 37.08 201.02C37.6267 201.3 38.0533 201.68 38.36 202.16C38.68 202.64 38.84 203.173 38.84 203.76C38.84 204.44 38.58 205.067 38.06 205.64C37.54 206.2 36.8333 206.6 35.94 206.84C37.14 207.027 38.04 207.447 38.64 208.1C39.24 208.753 39.54 209.553 39.54 210.5C39.54 211.153 39.3267 211.76 38.9 212.32C38.4733 212.88 37.9067 213.333 37.2 213.68C36.5067 214.027 35.7333 214.2 34.88 214.2ZM48.86 214V213.68L50.66 212.88V210.14H45.16V209.74L51.96 200.8H52.36V208.8H54.74V210.14H52.36V212.88L53.96 213.68V214H48.86ZM47.06 208.8H50.66V203.9L47.06 208.8ZM63.88 214.2C62.56 214.2 61.6867 213.893 61.26 213.28C61.1533 213.133 61.1 213 61.1 212.88C61.1 212.693 61.22 212.513 61.46 212.34L62.16 211.8H62.36L62.56 212.14C62.7467 212.447 63.0133 212.707 63.36 212.92C63.72 213.12 64.1667 213.22 64.7 213.22C65.5133 213.22 66.2 212.94 66.76 212.38C67.3333 211.82 67.62 211.06 67.62 210.1C67.62 209.567 67.5 209.06 67.26 208.58C67.0333 208.087 66.6333 207.687 66.06 207.38C65.4867 207.073 64.6867 206.92 63.66 206.92C63.1133 206.92 62.4667 206.98 61.72 207.1V200.8H68.1V202.34H62.68V205.4C63.1067 205.36 63.5 205.34 63.86 205.34C65.1667 205.34 66.2 205.54 66.96 205.94C67.72 206.34 68.26 206.847 68.58 207.46C68.9133 208.06 69.08 208.687 69.08 209.34C69.08 210.34 68.8533 211.207 68.4 211.94C67.96 212.66 67.3467 213.22 66.56 213.62C65.7867 214.007 64.8933 214.2 63.88 214.2ZM80.1 214.2C79.2333 214.2 78.4667 213.987 77.8 213.56C77.1467 213.133 76.64 212.553 76.28 211.82C75.92 211.087 75.74 210.253 75.74 209.32C75.74 207.92 76.0467 206.647 76.66 205.5C77.2867 204.34 78.1733 203.347 79.32 202.52C80.4667 201.68 81.8267 201.04 83.4 200.6V201.18C81.7733 201.7 80.4667 202.547 79.48 203.72C78.5067 204.893 77.92 206.28 77.72 207.88C78.08 207.387 78.5267 206.993 79.06 206.7C79.5933 206.393 80.2067 206.24 80.9 206.24C81.6067 206.24 82.2267 206.407 82.76 206.74C83.2933 207.073 83.7 207.533 83.98 208.12C84.2733 208.693 84.42 209.347 84.42 210.08C84.42 210.76 84.26 211.42 83.94 212.06C83.62 212.687 83.14 213.2 82.5 213.6C81.8733 214 81.0733 214.2 80.1 214.2ZM77.64 209.14C77.64 210.14 77.7533 210.947 77.98 211.56C78.22 212.16 78.5267 212.6 78.9 212.88C79.2867 213.147 79.7 213.28 80.14 213.28C80.6867 213.28 81.14 213.147 81.5 212.88C81.86 212.613 82.1267 212.273 82.3 211.86C82.4867 211.433 82.58 210.987 82.58 210.52C82.58 208.56 81.76 207.58 80.12 207.58C79.6 207.58 79.12 207.7 78.68 207.94C78.2533 208.18 77.9067 208.507 77.64 208.92C77.64 208.987 77.64 209.06 77.64 209.14ZM91.66 214C91.94 213.333 92.2 212.727 92.44 212.18C92.6933 211.633 92.96 211.073 93.24 210.5C93.52 209.927 93.8533 209.28 94.24 208.56C94.6267 207.827 95.0933 206.96 95.64 205.96C96.2 204.96 96.8867 203.753 97.7 202.34L91.04 202.34V200.8H99.24V201.2C98.7733 202.12 98.2733 203.107 97.74 204.16C97.2067 205.213 96.6867 206.3 96.18 207.42C95.6733 208.54 95.2133 209.66 94.8 210.78C94.4 211.887 94.1 212.96 93.9 214H91.66ZM110.04 214.2C109.293 214.2 108.6 214.073 107.96 213.82C107.32 213.567 106.8 213.207 106.4 212.74C106.013 212.273 105.82 211.727 105.82 211.1C105.82 210.673 105.893 210.267 106.04 209.88C106.2 209.48 106.473 209.08 106.86 208.68C107.26 208.267 107.82 207.84 108.54 207.4C107.66 206.867 107.04 206.353 106.68 205.86C106.333 205.367 106.16 204.753 106.16 204.02C106.16 203.407 106.347 202.84 106.72 202.32C107.093 201.8 107.573 201.387 108.16 201.08C108.76 200.76 109.387 200.6 110.04 200.6C110.733 200.6 111.367 200.747 111.94 201.04C112.527 201.333 112.993 201.733 113.34 202.24C113.687 202.747 113.86 203.32 113.86 203.96C113.86 204.507 113.627 205.02 113.16 205.5C112.693 205.967 112.06 206.413 111.26 206.84C112.247 207.413 112.98 207.973 113.46 208.52C113.94 209.067 114.18 209.753 114.18 210.58C114.18 211.18 114.053 211.707 113.8 212.16C113.547 212.613 113.213 212.993 112.8 213.3C112.387 213.593 111.933 213.82 111.44 213.98C110.96 214.127 110.493 214.2 110.04 214.2ZM107.92 203.4C107.92 203.773 107.987 204.113 108.12 204.42C108.253 204.727 108.507 205.04 108.88 205.36C109.253 205.667 109.793 206.02 110.5 206.42C111.007 206.113 111.4 205.78 111.68 205.42C111.973 205.047 112.12 204.607 112.12 204.1C112.12 203.233 111.913 202.587 111.5 202.16C111.1 201.733 110.553 201.52 109.86 201.52C109.313 201.52 108.853 201.687 108.48 202.02C108.107 202.353 107.92 202.813 107.92 203.4ZM107.64 210.64C107.64 211.493 107.867 212.16 108.32 212.64C108.773 213.107 109.373 213.34 110.12 213.34C110.867 213.34 111.453 213.147 111.88 212.76C112.307 212.373 112.52 211.833 112.52 211.14C112.52 210.62 112.38 210.18 112.1 209.82C111.833 209.46 111.447 209.127 110.94 208.82C110.447 208.513 109.867 208.173 109.2 207.8C108.747 208.133 108.407 208.447 108.18 208.74C107.967 209.02 107.82 209.313 107.74 209.62C107.673 209.913 107.64 210.253 107.64 210.64ZM121.62 214.2V213.62C123.247 213.1 124.547 212.253 125.52 211.08C126.507 209.907 127.1 208.52 127.3 206.92C126.94 207.413 126.493 207.813 125.96 208.12C125.427 208.413 124.813 208.56 124.12 208.56C123.4 208.56 122.773 208.393 122.24 208.06C121.72 207.727 121.313 207.273 121.02 206.7C120.74 206.113 120.6 205.453 120.6 204.72C120.6 204.04 120.76 203.387 121.08 202.76C121.4 202.12 121.88 201.6 122.52 201.2C123.16 200.8 123.96 200.6 124.92 200.6C125.8 200.6 126.567 200.813 127.22 201.24C127.873 201.667 128.38 202.247 128.74 202.98C129.1 203.713 129.28 204.547 129.28 205.48C129.28 206.88 128.967 208.16 128.34 209.32C127.727 210.467 126.847 211.46 125.7 212.3C124.553 213.127 123.193 213.76 121.62 214.2ZM122.44 204.28C122.44 206.24 123.26 207.22 124.9 207.22C125.42 207.22 125.893 207.1 126.32 206.86C126.76 206.62 127.113 206.293 127.38 205.88C127.38 205.813 127.38 205.74 127.38 205.66C127.38 204.66 127.26 203.86 127.02 203.26C126.793 202.647 126.493 202.207 126.12 201.94C125.747 201.66 125.333 201.52 124.88 201.52C124.347 201.52 123.893 201.653 123.52 201.92C123.16 202.187 122.887 202.533 122.7 202.96C122.527 203.373 122.44 203.813 122.44 204.28ZM140 214.2C138.613 214.2 137.54 213.593 136.78 212.38C136.033 211.167 135.66 209.507 135.66 207.4C135.66 206.093 135.84 204.933 136.2 203.92C136.573 202.893 137.087 202.087 137.74 201.5C138.393 200.9 139.147 200.6 140 200.6C141.387 200.6 142.453 201.207 143.2 202.42C143.96 203.633 144.34 205.293 144.34 207.4C144.34 208.707 144.153 209.873 143.78 210.9C143.407 211.913 142.893 212.72 142.24 213.32C141.6 213.907 140.853 214.2 140 214.2ZM140.42 213.26C140.86 213.26 141.233 213.033 141.54 212.58C141.847 212.127 142.08 211.507 142.24 210.72C142.413 209.92 142.5 209.02 142.5 208.02C142.5 206.007 142.26 204.42 141.78 203.26C141.313 202.1 140.607 201.52 139.66 201.52C139.207 201.52 138.82 201.747 138.5 202.2C138.18 202.653 137.933 203.273 137.76 204.06C137.587 204.847 137.5 205.74 137.5 206.74C137.5 208.753 137.74 210.347 138.22 211.52C138.713 212.68 139.447 213.26 140.42 213.26Z" fill="white"/>
</svg>
