<svg width="536" height="218" viewBox="0 0 536 218" fill="none" xmlns="http://www.w3.org/2000/svg">
<path d="M12.864 38.48C10.816 38.48 9.024 38.288 7.488 37.904C5.984 37.488 4.48 36.896 2.976 36.128L2.496 28.112H3.36L6.288 33.632C8.272 35.264 10.352 36.08 12.528 36.08C14.32 36.08 15.76 35.648 16.848 34.784C17.936 33.888 18.48 32.624 18.48 30.992C18.48 29.776 18.192 28.8 17.616 28.064C17.072 27.296 16.224 26.608 15.072 26C13.92 25.36 12.416 24.624 10.56 23.792C8.32 22.704 6.592 21.536 5.376 20.288C4.16 19.008 3.552 17.296 3.552 15.152C3.552 13.936 3.856 12.768 4.464 11.648C5.072 10.528 5.872 9.536 6.864 8.672C7.888 7.808 9.024 7.12 10.272 6.608C11.552 6.096 12.864 5.84 14.208 5.84C15.808 5.84 17.296 6.032 18.672 6.416C20.08 6.768 21.424 7.28 22.704 7.952L23.184 15.632H22.368L19.44 10.352C18.512 9.648 17.648 9.12 16.848 8.768C16.048 8.416 15.136 8.24 14.112 8.24C12.768 8.24 11.648 8.688 10.752 9.584C9.888 10.48 9.456 11.616 9.456 12.992C9.456 14.432 9.936 15.6 10.896 16.496C11.856 17.36 13.456 18.32 15.696 19.376C17.648 20.272 19.248 21.152 20.496 22.016C21.744 22.88 22.672 23.856 23.28 24.944C23.888 26.032 24.192 27.376 24.192 28.976C24.192 30.512 23.856 31.872 23.184 33.056C22.544 34.208 21.664 35.2 20.544 36.032C19.456 36.832 18.24 37.44 16.896 37.856C15.552 38.272 14.208 38.48 12.864 38.48ZM29.121 38V37.232L33.153 35.264L33.153 9.056L29.121 7.088V6.32L44.049 6.32C47.825 6.32 50.849 7.008 53.121 8.384C55.425 9.728 56.577 11.888 56.577 14.864C56.577 16.656 55.969 18.24 54.753 19.616C53.569 20.96 51.937 22.016 49.857 22.784C47.809 23.552 45.489 23.936 42.897 23.936H39.153V35.264L43.857 37.232V38H29.121ZM39.153 8.96V21.488H42.225C44.753 21.488 46.737 20.912 48.177 19.76C49.617 18.576 50.337 17.088 50.337 15.296C50.337 13.056 49.601 11.44 48.129 10.448C46.689 9.456 44.609 8.96 41.889 8.96H39.153ZM61.0429 38V37.232L65.0749 35.264V9.056L61.0429 7.088V6.32L86.1469 6.32V14.624H85.3789L82.0669 8.96L71.0749 8.96V20.336L78.8029 20.336L81.3949 16.256H82.1629V26.96H81.3949L78.8029 22.976L71.0749 22.976V35.36H83.2669L86.7229 28.64H87.4909V38L61.0429 38ZM109.808 38.48C106.48 38.48 103.584 37.808 101.12 36.464C98.6883 35.12 96.8003 33.28 95.4563 30.944C94.1123 28.576 93.4403 25.904 93.4403 22.928C93.4403 20.592 93.9043 18.4 94.8323 16.352C95.7603 14.272 97.0243 12.448 98.6243 10.88C100.224 9.312 102.048 8.08 104.096 7.184C106.144 6.288 108.304 5.84 110.576 5.84C112.208 5.84 113.584 5.952 114.704 6.176C115.856 6.368 116.864 6.64 117.728 6.992C118.624 7.312 119.52 7.696 120.416 8.144L120.848 16.88H119.984L116.144 10.16C115.152 9.488 114.256 9.008 113.456 8.72C112.656 8.4 111.728 8.24 110.672 8.24C108.592 8.24 106.72 8.816 105.056 9.968C103.392 11.12 102.08 12.736 101.12 14.816C100.16 16.896 99.6803 19.296 99.6803 22.016C99.6803 24.928 100.144 27.424 101.072 29.504C102 31.584 103.248 33.184 104.816 34.304C106.416 35.424 108.192 35.984 110.144 35.984C111.584 35.984 112.816 35.792 113.84 35.408C114.896 35.024 115.872 34.56 116.768 34.016L120.464 28.112H121.28L120.656 36.032C119.312 36.768 117.776 37.36 116.048 37.808C114.352 38.256 112.272 38.48 109.808 38.48ZM132.997 38V37.232L137.989 35.264V8.96H130.741L127.141 16.496H126.373V6.32L155.653 6.32V16.496H154.885L151.285 8.96L144.037 8.96V35.264L148.981 37.232V38H132.997ZM160.09 38V37.232L164.122 35.264V9.056L160.09 7.088V6.32L174.874 6.32C178.234 6.32 180.874 7.024 182.794 8.432C184.746 9.808 185.722 11.712 185.722 14.144C185.722 15.936 185.114 17.504 183.898 18.848C182.714 20.16 181.146 21.184 179.194 21.92L188.17 35.408L191.53 37.232V38H182.554L173.482 23.36H170.122V35.216L173.722 37.232V38H160.09ZM172.57 8.96L170.122 8.96V20.912H172.858C174.842 20.912 176.442 20.352 177.658 19.232C178.906 18.112 179.53 16.656 179.53 14.864C179.53 13.008 178.922 11.568 177.706 10.544C176.49 9.488 174.778 8.96 172.57 8.96ZM191.747 38V37.232L194.723 35.6L207.155 6.08H210.515L222.803 35.504L226.067 37.232V38H212.243V37.232L216.419 35.552L213.011 27.2L201.491 27.2L198.131 35.552L202.115 37.232V38L191.747 38ZM202.595 24.56L211.907 24.56L207.251 13.088L202.595 24.56ZM229.699 38V37.232L233.731 35.264V9.056L229.699 7.088V6.32L244.243 6.32V7.088L239.731 9.056V35.36L250.771 35.36L254.419 26.72H255.187V38L229.699 38ZM282.864 38.48C280.816 38.48 279.024 38.288 277.488 37.904C275.984 37.488 274.48 36.896 272.976 36.128L272.496 28.112H273.36L276.288 33.632C278.272 35.264 280.352 36.08 282.528 36.08C284.32 36.08 285.76 35.648 286.848 34.784C287.936 33.888 288.48 32.624 288.48 30.992C288.48 29.776 288.192 28.8 287.616 28.064C287.072 27.296 286.224 26.608 285.072 26C283.92 25.36 282.416 24.624 280.56 23.792C278.32 22.704 276.592 21.536 275.376 20.288C274.16 19.008 273.552 17.296 273.552 15.152C273.552 13.936 273.856 12.768 274.464 11.648C275.072 10.528 275.872 9.536 276.864 8.672C277.888 7.808 279.024 7.12 280.272 6.608C281.552 6.096 282.864 5.84 284.208 5.84C285.808 5.84 287.296 6.032 288.672 6.416C290.08 6.768 291.424 7.28 292.704 7.952L293.184 15.632L292.368 15.632L289.44 10.352C288.512 9.648 287.648 9.12 286.848 8.768C286.048 8.416 285.136 8.24 284.112 8.24C282.768 8.24 281.648 8.688 280.752 9.584C279.888 10.48 279.456 11.616 279.456 12.992C279.456 14.432 279.936 15.6 280.896 16.496C281.856 17.36 283.456 18.32 285.696 19.376C287.648 20.272 289.248 21.152 290.496 22.016C291.744 22.88 292.672 23.856 293.28 24.944C293.888 26.032 294.192 27.376 294.192 28.976C294.192 30.512 293.856 31.872 293.184 33.056C292.544 34.208 291.664 35.2 290.544 36.032C289.456 36.832 288.24 37.44 286.896 37.856C285.552 38.272 284.208 38.48 282.864 38.48ZM299.121 38V37.232L303.153 35.264V9.056L299.121 7.088V6.32L324.225 6.32V14.624H323.457L320.145 8.96L309.153 8.96V20.336H316.881L319.473 16.256H320.241V26.96H319.473L316.881 22.976H309.153V35.36H321.345L324.801 28.64H325.569V38H299.121ZM331.086 38V37.232L335.07 35.264L336.078 9.056L331.902 7.088V6.32L342.558 6.32L352.782 30.032L362.958 6.32L373.182 6.32V7.088L369.102 8.72L369.918 35.264L373.422 37.232V38H360.318V37.232L364.062 35.312L363.582 12.176L352.446 38.24H349.95L338.814 12.416L338.19 35.312L342.27 37.232V38L331.086 38ZM378.485 38V37.232L382.469 35.264V9.056L378.485 7.088V6.32L392.501 6.32V7.088L388.517 9.056V35.264L392.501 37.232V38H378.485ZM397.699 38V37.232L401.731 35.264V9.056L397.699 7.088V6.32L411.763 6.32C413.971 6.32 415.955 6.592 417.715 7.136C419.475 7.648 420.851 8.432 421.843 9.488C422.867 10.512 423.379 11.824 423.379 13.424C423.379 15.056 422.787 16.56 421.603 17.936C420.451 19.28 418.787 20.24 416.611 20.816C419.587 21.232 421.923 22.128 423.619 23.504C425.347 24.88 426.211 26.64 426.211 28.784C426.211 30.544 425.635 32.128 424.483 33.536C423.331 34.912 421.747 36 419.731 36.8C417.715 37.6 415.427 38 412.867 38H397.699ZM409.891 8.96H407.731V20.432L410.179 20.432C412.355 20.432 414.051 19.936 415.267 18.944C416.515 17.952 417.139 16.576 417.139 14.816C417.139 10.912 414.723 8.96 409.891 8.96ZM411.667 22.88L407.731 22.88V35.36H412.003C414.403 35.36 416.291 34.784 417.667 33.632C419.075 32.448 419.779 30.928 419.779 29.072C419.779 26.96 419.075 25.408 417.667 24.416C416.259 23.392 414.259 22.88 411.667 22.88ZM447.729 38.48C445.393 38.48 443.233 38.08 441.249 37.28C439.265 36.448 437.537 35.312 436.065 33.872C434.593 32.4 433.441 30.672 432.609 28.688C431.809 26.704 431.409 24.528 431.409 22.16C431.409 19.792 431.809 17.616 432.609 15.632C433.441 13.648 434.593 11.936 436.065 10.496C437.537 9.024 439.265 7.888 441.249 7.088C443.233 6.256 445.393 5.84 447.729 5.84C450.097 5.84 452.273 6.256 454.257 7.088C456.241 7.888 457.969 9.024 459.441 10.496C460.913 11.936 462.049 13.648 462.849 15.632C463.681 17.616 464.097 19.792 464.097 22.16C464.097 24.528 463.681 26.704 462.849 28.688C462.049 30.672 460.913 32.4 459.441 33.872C457.969 35.312 456.241 36.448 454.257 37.28C452.273 38.08 450.097 38.48 447.729 38.48ZM448.593 36.032C450.385 36.032 451.953 35.52 453.297 34.496C454.673 33.472 455.745 32.032 456.513 30.176C457.281 28.32 457.665 26.128 457.665 23.6C457.665 20.496 457.185 17.792 456.225 15.488C455.297 13.184 454.017 11.408 452.385 10.16C450.785 8.88 448.993 8.24 447.009 8.24C445.249 8.24 443.665 8.752 442.257 9.776C440.881 10.768 439.793 12.192 438.993 14.048C438.193 15.904 437.793 18.096 437.793 20.624C437.793 23.728 438.273 26.432 439.233 28.736C440.193 31.04 441.489 32.832 443.121 34.112C444.785 35.392 446.609 36.032 448.593 36.032ZM469.324 38V37.232L473.356 35.264V9.056L469.324 7.088V6.32L483.868 6.32V7.088L479.356 9.056V35.36H490.396L494.044 26.72H494.812V38H469.324ZM499.84 38V37.232L503.872 35.264V9.056L499.84 7.088V6.32L515.296 6.32C518.976 6.32 522.096 6.944 524.656 8.192C527.248 9.44 529.216 11.152 530.56 13.328C531.936 15.504 532.624 17.968 532.624 20.72C532.624 23.216 532.176 25.52 531.28 27.632C530.416 29.744 529.184 31.568 527.584 33.104C526.016 34.64 524.144 35.84 521.968 36.704C519.824 37.568 517.488 38 514.96 38L499.84 38ZM513.664 8.96L509.872 8.96V35.36H514.384C516.912 35.36 519.056 34.832 520.816 33.776C522.608 32.688 523.968 31.168 524.896 29.216C525.856 27.232 526.336 24.896 526.336 22.208C526.336 18.176 525.248 14.96 523.072 12.56C520.928 10.16 517.792 8.96 513.664 8.96Z" fill="white"/>
<path d="M0.5 104V103.68L1.74 103L6.92 90.7H8.32L13.44 102.96L14.8 103.68V104H9.04V103.68L10.78 102.98L9.36 99.5H4.56L3.16 102.98L4.82 103.68V104H0.5ZM5.02 98.4H8.9L6.96 93.62L5.02 98.4ZM18.2163 104.2C17.5763 104.2 17.0296 104.007 16.5763 103.62C16.1363 103.233 15.9229 102.687 15.9363 101.98C15.9496 101.287 16.1829 100.72 16.6363 100.28C17.0896 99.8267 17.9296 99.4533 19.1563 99.16L21.0362 98.7V97.38C21.0362 96.8867 20.8696 96.4867 20.5363 96.18C20.2029 95.86 19.8029 95.7 19.3363 95.7C18.8696 95.7 18.5429 95.8133 18.3563 96.04C18.1696 96.2533 18.0763 96.5667 18.0763 96.98V97.76L17.9763 97.84H16.7763C16.5762 97.84 16.4363 97.8 16.3563 97.72C16.2763 97.64 16.2363 97.48 16.2363 97.24C16.2363 96.6133 16.6363 96.06 17.4363 95.58C17.8629 95.3133 18.2829 95.1067 18.6963 94.96C19.1229 94.8 19.5696 94.72 20.0363 94.72C20.6229 94.72 21.1696 94.8 21.6763 94.96C22.1829 95.12 22.5896 95.3733 22.8963 95.72C23.2029 96.0667 23.3563 96.5333 23.3563 97.12V102.58C23.5429 102.793 23.8829 102.9 24.3763 102.9H25.0363L25.0963 102.96V103.16C24.9363 103.427 24.6896 103.667 24.3563 103.88C24.0229 104.093 23.5963 104.2 23.0763 104.2C22.5696 104.2 22.1563 104.087 21.8363 103.86C21.5296 103.62 21.3096 103.3 21.1763 102.9H21.0362C20.6896 103.273 20.2763 103.587 19.7963 103.84C19.3163 104.08 18.7896 104.2 18.2163 104.2ZM18.1363 101.48C18.1363 101.907 18.2563 102.227 18.4963 102.44C18.7496 102.64 19.0963 102.74 19.5363 102.74C19.7896 102.74 20.0296 102.713 20.2563 102.66C20.4963 102.607 20.7563 102.52 21.0362 102.4V99.46C20.2096 99.62 19.5896 99.8 19.1763 100C18.7629 100.187 18.4829 100.4 18.3363 100.64C18.2029 100.88 18.1363 101.16 18.1363 101.48ZM47.4544 104H41.2744V103.68L42.9544 102.86V91.94L41.2744 91.12V90.8L51.8544 90.8V94.64H51.5344L50.0744 91.9L45.4544 91.9V96.32H47.4744C48.5944 96.32 49.581 96.4667 50.4344 96.76C51.2877 97.04 51.9477 97.4533 52.4144 98C52.8944 98.5467 53.1344 99.2067 53.1344 99.98C53.1344 100.78 52.8944 101.487 52.4144 102.1C51.9477 102.7 51.2877 103.167 50.4344 103.5C49.581 103.833 48.5877 104 47.4544 104ZM47.0144 97.34H45.4544V102.9H47.1544C48.261 102.9 49.0944 102.64 49.6544 102.12C50.2277 101.6 50.5144 100.927 50.5144 100.1C50.5144 99.14 50.2277 98.44 49.6544 98C49.081 97.56 48.201 97.34 47.0144 97.34ZM63.5373 89.1H63.9573L64.0373 89.18V89.68C64.0373 90.5067 63.844 91.1467 63.4573 91.6C63.084 92.0533 62.384 92.3067 61.3573 92.36C60.664 92.4 60.124 92.44 59.7373 92.48C59.3507 92.52 59.044 92.5733 58.8173 92.64C58.604 92.6933 58.4173 92.7533 58.2573 92.82C57.8173 93.0467 57.5573 93.5733 57.4773 94.4C57.4507 94.6133 57.444 94.8533 57.4573 95.12C57.484 95.3867 57.504 95.7067 57.5173 96.08C57.8107 95.8 58.1707 95.5733 58.5973 95.4C59.0373 95.2133 59.564 95.12 60.1773 95.12C60.9373 95.12 61.6307 95.3 62.2573 95.66C62.8973 96.02 63.404 96.5333 63.7773 97.2C64.1507 97.8667 64.3373 98.66 64.3373 99.58C64.3373 100.527 64.124 101.347 63.6973 102.04C63.284 102.733 62.7307 103.267 62.0373 103.64C61.344 104.013 60.5773 104.2 59.7373 104.2C58.7107 104.2 57.8507 103.967 57.1573 103.5C56.464 103.033 55.944 102.4 55.5973 101.6C55.264 100.8 55.0973 99.9067 55.0973 98.92C55.0973 97.9467 55.1973 97.02 55.3973 96.14C55.6107 95.2467 55.964 94.42 56.4573 93.66C56.964 92.9 57.6507 92.2333 58.5173 91.66C59.3973 91.0733 60.5107 90.6 61.8573 90.24C62.324 90.1067 62.6773 89.9933 62.9173 89.9C63.1707 89.8067 63.3373 89.7 63.4173 89.58C63.4973 89.46 63.5373 89.3 63.5373 89.1ZM57.5373 98.9C57.5373 100.38 57.7573 101.48 58.1973 102.2C58.6507 102.907 59.2373 103.26 59.9573 103.26C60.4907 103.26 60.944 103.013 61.3173 102.52C61.704 102.027 61.8973 101.193 61.8973 100.02C61.8973 99.2867 61.824 98.62 61.6773 98.02C61.5307 97.4067 61.2773 96.9267 60.9173 96.58C60.5707 96.22 60.104 96.04 59.5173 96.04C59.1173 96.04 58.7507 96.1333 58.4173 96.32C58.084 96.4933 57.7907 96.7333 57.5373 97.04V98.9ZM81.1963 104V103.68L82.8763 102.86V91.94L81.1963 91.12V90.8H87.0563C87.9763 90.8 88.8029 90.9133 89.5363 91.14C90.2696 91.3533 90.8429 91.68 91.2563 92.12C91.6829 92.5467 91.8963 93.0933 91.8963 93.76C91.8963 94.44 91.6496 95.0667 91.1563 95.64C90.6763 96.2 89.9829 96.6 89.0763 96.84C90.3163 97.0133 91.2896 97.3867 91.9963 97.96C92.7163 98.5333 93.0763 99.2667 93.0763 100.16C93.0763 100.893 92.8363 101.553 92.3563 102.14C91.8763 102.713 91.2163 103.167 90.3763 103.5C89.5363 103.833 88.5829 104 87.5163 104H81.1963ZM86.2763 91.9H85.3763V96.68H86.3963C87.3029 96.68 88.0096 96.4733 88.5163 96.06C89.0363 95.6467 89.2963 95.0733 89.2963 94.34C89.2963 92.7133 88.2896 91.9 86.2763 91.9ZM87.0163 97.7H85.3763V102.9H87.1563C88.1563 102.9 88.9429 102.66 89.5163 102.18C90.1029 101.687 90.3963 101.053 90.3963 100.28C90.3963 99.4 90.1029 98.7533 89.5163 98.34C88.9296 97.9133 88.0963 97.7 87.0163 97.7ZM95.9272 95.88L94.6272 95.24V94.92H99.1072C99.9072 94.92 100.627 94.98 101.267 95.1C101.907 95.22 102.407 95.4333 102.767 95.74C103.141 96.0467 103.327 96.4667 103.327 97C103.327 97.5333 103.121 97.9867 102.707 98.36C102.294 98.72 101.661 98.9667 100.807 99.1C101.967 99.2067 102.781 99.4733 103.247 99.9C103.727 100.313 103.967 100.78 103.967 101.3C103.967 103.1 102.294 104 98.9472 104H94.6272V103.68L95.9272 103.04V95.88ZM99.2672 95.8H98.2472V98.8H99.2072C99.8339 98.8 100.287 98.6667 100.567 98.4C100.847 98.1333 100.987 97.7667 100.987 97.3C100.987 96.8733 100.854 96.52 100.587 96.24C100.321 95.9467 99.8805 95.8 99.2672 95.8ZM99.1872 99.58H98.2472V103.12H99.1072C99.9605 103.12 100.574 102.973 100.947 102.68C101.334 102.387 101.527 101.96 101.527 101.4C101.527 100.84 101.341 100.4 100.967 100.08C100.607 99.7467 100.014 99.58 99.1872 99.58ZM120.474 104V103.68L122.154 102.86V91.94L120.474 91.12V90.8L130.734 90.8V94.26H130.414L129.034 91.9L124.654 91.9V102.86L126.614 103.68V104L120.474 104ZM132.939 95.88L131.639 95.24V94.92H139.659V98.34H139.319L137.919 95.88H135.259V103.04L136.939 103.68V104H131.639V103.68L132.939 103.04V95.88ZM156.957 91.12V90.8H168.517V91.12L166.877 91.94V102.9H168.817V107.4H168.497L166.717 104H157.597L155.837 107.4H155.517V102.9H157.097C157.497 101.887 157.804 100.86 158.017 99.82C158.244 98.7667 158.397 97.6533 158.477 96.48C158.571 95.3067 158.617 94.0267 158.617 92.64V91.94L156.957 91.12ZM164.357 102.9V91.9H159.877V92.62C159.877 94.0467 159.837 95.3467 159.757 96.52C159.677 97.6933 159.531 98.8 159.317 99.84C159.117 100.867 158.837 101.887 158.477 102.9H164.357ZM171.538 103.04C171.871 102.347 172.125 101.58 172.298 100.74C172.471 99.9 172.585 99.0733 172.638 98.26C172.705 97.4467 172.738 96.7467 172.738 96.16V95.88L171.418 95.24V94.92H180.058V95.24L178.738 95.88V103.04H180.158V106.52H179.798L178.338 104H172.258L170.798 106.52H170.438V103.04H171.538ZM176.438 103.04V95.88H173.758V96.16C173.758 96.76 173.725 97.4667 173.658 98.28C173.605 99.0933 173.498 99.92 173.338 100.76C173.191 101.6 172.971 102.36 172.678 103.04H176.438ZM196.919 104V103.68L198.599 102.86V91.94L196.919 91.12V90.8H207.379V94.26H207.059L205.679 91.9H201.099V96.64H204.319L205.399 94.94H205.719V99.4H205.399L204.319 97.74H201.099V102.9H206.179L207.619 100.1H207.939V104H196.919ZM214.458 104.2C213.124 104.2 212.064 103.807 211.278 103.02C210.504 102.233 210.118 101.187 210.118 99.88C210.118 98.8667 210.331 97.9733 210.758 97.2C211.184 96.4267 211.744 95.82 212.438 95.38C213.144 94.94 213.924 94.72 214.778 94.72C215.844 94.72 216.678 95.0867 217.278 95.82C217.878 96.5533 218.184 97.5867 218.198 98.92L218.118 99.02H212.358C212.358 99.62 212.464 100.173 212.678 100.68C212.891 101.173 213.238 101.573 213.718 101.88C214.198 102.173 214.831 102.32 215.618 102.32C215.991 102.32 216.391 102.267 216.818 102.16C217.244 102.053 217.691 101.873 218.158 101.62H218.218V101.9C217.898 102.553 217.411 103.1 216.758 103.54C216.104 103.98 215.338 104.2 214.458 104.2ZM214.378 95.62C213.844 95.62 213.404 95.84 213.058 96.28C212.711 96.72 212.491 97.3333 212.398 98.12H216.258C216.138 97.2 215.918 96.5533 215.598 96.18C215.278 95.8067 214.871 95.62 214.378 95.62ZM235.122 104V103.68L236.802 102.86V91.94L235.122 91.12V90.8H245.582V94.26H245.262L243.882 91.9H239.302V96.64H242.522L243.602 94.94H243.922V99.4H243.602L242.522 97.74H239.302V102.9H244.382L245.822 100.1H246.142V104H235.122ZM239.082 89.38C238.762 89.38 238.495 89.2733 238.282 89.06C238.082 88.8467 237.982 88.5867 237.982 88.28C237.982 87.9867 238.082 87.7333 238.282 87.52C238.495 87.3067 238.762 87.2 239.082 87.2C239.389 87.2 239.642 87.3067 239.842 87.52C240.055 87.7333 240.162 87.9867 240.162 88.28C240.162 88.5867 240.055 88.8467 239.842 89.06C239.642 89.2733 239.389 89.38 239.082 89.38ZM242.922 89.38C242.602 89.38 242.342 89.2733 242.142 89.06C241.942 88.8467 241.842 88.5867 241.842 88.28C241.842 87.9867 241.942 87.7333 242.142 87.52C242.342 87.3067 242.602 87.2 242.922 87.2C243.242 87.2 243.502 87.3067 243.702 87.52C243.902 87.7333 244.002 87.9867 244.002 88.28C244.002 88.5867 243.902 88.8467 243.702 89.06C243.502 89.2733 243.242 89.38 242.922 89.38ZM252.661 104.2C251.328 104.2 250.268 103.807 249.481 103.02C248.708 102.233 248.321 101.187 248.321 99.88C248.321 98.8667 248.534 97.9733 248.961 97.2C249.388 96.4267 249.948 95.82 250.641 95.38C251.348 94.94 252.128 94.72 252.981 94.72C254.048 94.72 254.881 95.0867 255.481 95.82C256.081 96.5533 256.388 97.5867 256.401 98.92L256.321 99.02H250.561C250.561 99.62 250.668 100.173 250.881 100.68C251.094 101.173 251.441 101.573 251.921 101.88C252.401 102.173 253.034 102.32 253.821 102.32C254.194 102.32 254.594 102.267 255.021 102.16C255.448 102.053 255.894 101.873 256.361 101.62H256.421V101.9C256.101 102.553 255.614 103.1 254.961 103.54C254.308 103.98 253.541 104.2 252.661 104.2ZM252.581 95.62C252.048 95.62 251.608 95.84 251.261 96.28C250.914 96.72 250.694 97.3333 250.601 98.12H254.461C254.341 97.2 254.121 96.5533 253.801 96.18C253.481 95.8067 253.074 95.62 252.581 95.62ZM250.821 92.74C250.501 92.74 250.234 92.64 250.021 92.44C249.821 92.2267 249.721 91.9667 249.721 91.66C249.721 91.3533 249.821 91.1 250.021 90.9C250.234 90.6867 250.501 90.58 250.821 90.58C251.128 90.58 251.381 90.6867 251.581 90.9C251.794 91.1 251.901 91.3533 251.901 91.66C251.901 91.9667 251.794 92.2267 251.581 92.44C251.381 92.64 251.128 92.74 250.821 92.74ZM254.661 92.74C254.341 92.74 254.081 92.64 253.881 92.44C253.681 92.2267 253.581 91.9667 253.581 91.66C253.581 91.3533 253.681 91.1 253.881 90.9C254.081 90.6867 254.341 90.58 254.661 90.58C254.981 90.58 255.241 90.6867 255.441 90.9C255.641 91.1 255.741 91.3533 255.741 91.66C255.741 91.9667 255.641 92.2267 255.441 92.44C255.241 92.64 254.981 92.74 254.661 92.74ZM289.965 104V103.68L291.565 102.86V91.94L289.965 91.12V90.8H295.665V91.12L294.065 91.94V102.86L295.665 103.68V104H289.965ZM294.085 97.3L299.325 91.84L297.865 91.12V90.8H302.485V91.12L300.925 91.72L296.405 96.38L301.945 103.12L303.245 103.68V104H299.485L294.085 97.3ZM291.545 97.3L286.145 104H282.505V103.68L283.925 103.08L289.245 96.54L284.505 91.7L283.025 91.12V90.8H287.765V91.12L286.305 91.84L291.545 97.3ZM306.8 104H303.52V103.68L304.86 103L308.36 98.7L305.12 95.94L303.76 95.24V94.92L307.74 94.92V95.24L307.02 95.96V96.08L310.3 99.06V95.88L309.06 95.24V94.92H313.86V95.24L312.62 95.88V99.06L315.92 96.08V95.96L315.18 95.24V94.92H319.06V95.24L317.7 95.94L314.58 98.56L318.24 103L319.44 103.68V104H316.14L315.46 102.96L312.62 99.44V103.04L313.82 103.68V104H309.1V103.68L310.3 103.04V99.44L307.46 102.96L306.8 104ZM336.009 90.6C336.876 90.6 337.669 90.72 338.389 90.96C339.109 91.1867 339.676 91.5267 340.089 91.98C340.516 92.42 340.729 92.9733 340.729 93.64C340.729 94.36 340.476 95.0267 339.969 95.64C339.462 96.24 338.729 96.66 337.769 96.9C338.942 97.0867 339.862 97.4667 340.529 98.04C341.196 98.6133 341.529 99.32 341.529 100.16C341.529 100.933 341.289 101.627 340.809 102.24C340.342 102.84 339.682 103.32 338.829 103.68C337.989 104.027 337.016 104.2 335.909 104.2C334.922 104.2 334.069 104.107 333.349 103.92C332.629 103.733 331.996 103.487 331.449 103.18L331.189 99.88H331.529L333.209 102.42C333.529 102.62 333.882 102.787 334.269 102.92C334.656 103.04 335.149 103.1 335.749 103.1C336.749 103.1 337.516 102.847 338.049 102.34C338.582 101.833 338.849 101.167 338.849 100.34C338.849 98.6067 337.716 97.74 335.449 97.74H333.829V96.64H335.169C336.102 96.64 336.822 96.42 337.329 95.98C337.849 95.5267 338.109 94.92 338.109 94.16C338.109 93.3733 337.916 92.7533 337.529 92.3C337.142 91.8333 336.529 91.6 335.689 91.6C335.262 91.6 334.889 91.6467 334.569 91.74C334.249 91.8333 333.929 92 333.609 92.24L331.949 95.16H331.589L331.769 91.52C332.329 91.24 332.916 91.02 333.529 90.86C334.156 90.6867 334.982 90.6 336.009 90.6ZM346.697 103.36C347.284 103.36 347.744 103.2 348.077 102.88C348.411 102.56 348.577 102.093 348.577 101.48C348.577 100.907 348.404 100.46 348.057 100.14C347.711 99.8067 347.177 99.64 346.457 99.64H345.377V98.8H346.477C347.091 98.8 347.531 98.6467 347.797 98.34C348.077 98.02 348.217 97.62 348.217 97.14C348.217 96.6733 348.091 96.3 347.837 96.02C347.584 95.7267 347.171 95.58 346.597 95.58C346.171 95.58 345.831 95.6733 345.577 95.86C345.324 96.0333 345.071 96.3067 344.817 96.68L344.177 97.66H343.897V95.36C344.297 95.1733 344.757 95.02 345.277 94.9C345.811 94.78 346.391 94.72 347.017 94.72C347.591 94.72 348.144 94.78 348.677 94.9C349.224 95.02 349.671 95.24 350.017 95.56C350.377 95.8667 350.557 96.3067 350.557 96.88C350.557 97.44 350.344 97.92 349.917 98.32C349.504 98.72 348.864 98.9933 347.997 99.14C348.997 99.2467 349.751 99.5067 350.257 99.92C350.764 100.32 351.017 100.833 351.017 101.46C351.017 102.367 350.631 103.053 349.857 103.52C349.084 103.973 348.084 104.2 346.857 104.2C346.097 104.2 345.484 104.14 345.017 104.02C344.564 103.9 344.117 103.727 343.677 103.5V101.2H343.997L344.537 102.1C344.817 102.54 345.111 102.86 345.417 103.06C345.737 103.26 346.164 103.36 346.697 103.36ZM367.739 104V103.68L369.419 102.86V91.94L367.739 91.12V90.8H373.499V91.12L371.919 91.94V100.58L378.179 92.8V91.94L376.599 91.12V90.8H382.339V91.12L380.699 91.94V102.86L382.339 103.68V104H376.599V103.68L378.179 102.86V94.34L371.919 102.12V102.86L373.499 103.68V104H367.739ZM385.458 95.88L384.158 95.24V94.92H388.858V95.24L387.778 95.88V100.88L391.478 96.6V95.88L390.398 95.24V94.92H395.098V95.24L393.798 95.88V103.04L395.098 103.68V104H390.398V103.68L391.478 103.04V98L387.778 102.28V103.04L388.858 103.68V104H384.158V103.68L385.458 103.04V95.88ZM411.899 104V103.68L413.579 102.86V91.94L411.899 91.12V90.8H417.659V91.12L416.079 91.94V100.58L422.339 92.8V91.94L420.759 91.12V90.8H426.499V91.12L424.859 91.94V102.86L426.499 103.68V104H420.759V103.68L422.339 102.86V94.34L416.079 102.12V102.86L417.659 103.68V104H411.899ZM419.259 89.78C418.113 89.78 417.239 89.4933 416.639 88.92C416.053 88.3333 415.759 87.6133 415.759 86.76H417.619C417.619 87.4133 417.746 87.9533 417.999 88.38C418.253 88.7933 418.673 89 419.259 89C419.846 89 420.266 88.7933 420.519 88.38C420.773 87.9533 420.899 87.4133 420.899 86.76H422.759C422.759 87.6133 422.459 88.3333 421.859 88.92C421.273 89.4933 420.406 89.78 419.259 89.78ZM429.619 95.88L428.319 95.24V94.92H433.019V95.24L431.939 95.88V100.88L435.639 96.6V95.88L434.559 95.24V94.92H439.259V95.24L437.959 95.88V103.04L439.259 103.68V104H434.559V103.68L435.639 103.04V98L431.939 102.28V103.04L433.019 103.68V104H428.319V103.68L429.619 103.04V95.88ZM430.239 89.86H432.099C432.099 90.6333 432.225 91.26 432.479 91.74C432.732 92.2067 433.139 92.44 433.699 92.44C434.259 92.44 434.665 92.2067 434.919 91.74C435.185 91.26 435.319 90.6333 435.319 89.86H437.179C437.179 90.8333 436.879 91.6333 436.279 92.26C435.692 92.8867 434.832 93.2 433.699 93.2C432.579 93.2 431.719 92.8867 431.119 92.26C430.532 91.6333 430.239 90.8333 430.239 89.86ZM456.06 104V103.68L457.74 102.86V91.94L456.06 91.12V90.8H461.92V91.12L460.24 91.94V102.86L461.92 103.68V104H456.06ZM460.26 97.3L465.78 91.82L464.3 91.12V90.8H468.82V91.12L467.5 91.66L462.62 96.4L468.48 103.12L469.82 103.68V104H466.02L460.26 97.3ZM478.079 104L477.399 102.96L474.439 99.44V103.04L475.679 103.68V104L470.819 104V103.68L472.119 103.04V95.88L470.819 95.24V94.92H475.679V95.24L474.439 95.88V99.06L477.919 96.08V95.96L477.199 95.24V94.92L481.079 94.92V95.24L479.719 95.94L476.439 98.58L480.179 103L481.459 103.68V104H478.079ZM7.6 134V133.68L9.24 132.86L9.24 121.9H4.9V123.12C4.9 124.72 4.86 126.093 4.78 127.24C4.7 128.387 4.58 129.353 4.42 130.14C4.27333 130.927 4.08667 131.58 3.86 132.1C3.60667 132.7 3.32 133.153 3 133.46C2.69333 133.753 2.38 133.947 2.06 134.04C1.75333 134.147 1.46667 134.2 1.2 134.2C0.906667 134.2 0.72 134.16 0.64 134.08C0.56 134 0.52 133.847 0.52 133.62L0.52 132.26L0.6 132.16H0.8C1.82667 132.16 2.55333 131.407 2.98 129.9C3.40667 128.393 3.62 126.14 3.62 123.14L3.62 121.94L1.98 121.12L1.98 120.8H13.42V121.12L11.76 121.94L11.76 132.86L13.42 133.68V134H7.6ZM18.4331 126.44C18.4331 127.987 18.3598 129.313 18.2131 130.42C18.0798 131.513 17.8398 132.36 17.4931 132.96C17.2665 133.4 16.9798 133.72 16.6331 133.92C16.2998 134.107 15.9331 134.2 15.5331 134.2C15.2531 134.2 15.0731 134.16 14.9931 134.08C14.9131 134 14.8731 133.847 14.8731 133.62L14.8731 132.4L14.9731 132.3H15.2531C15.8665 132.3 16.3265 132.08 16.6331 131.64C16.9398 131.187 17.1398 130.527 17.2331 129.66C17.3398 128.78 17.3931 127.707 17.3931 126.44V125.88L16.0131 125.24V124.92H24.6131V125.24L23.2931 125.88V133.04L24.6131 133.68V134H19.6931V133.68L20.9931 133.04V125.88H18.4331V126.44ZM36.3511 134V133.68L38.0111 132.86L38.4311 121.94L36.6911 121.12V120.8H41.1311L45.3911 130.68L49.6311 120.8H53.8911V121.12L52.1911 121.8L52.5311 132.86L53.9911 133.68V134H48.5311V133.68L50.0911 132.88L49.8911 123.24L45.2511 134.1H44.2111L39.5711 123.34L39.3111 132.88L41.0111 133.68V134H36.3511ZM57.1005 125.88L55.8005 125.24V124.92H59.6605L62.2205 130.68H62.3605L64.8805 124.92L68.5205 124.92V125.24L67.2205 125.88L67.6005 133.04L68.9005 133.68V134H64.1405V133.68L65.2805 133.04L64.9805 127.06L61.9805 134H61.3005L58.1205 127.04L57.9605 133.04L59.1005 133.68V134H55.6005V133.68L56.9005 133.04L57.1005 125.88ZM95.5517 134V133.68L97.2317 132.86L97.2317 121.94L95.5517 121.12V120.8H101.312V121.12L99.7317 121.94V126.64H105.792V121.94L104.212 121.12V120.8H109.952V121.12L108.312 121.94L108.312 132.86L109.952 133.68V134H104.212V133.68L105.792 132.86V127.74H99.7317V132.86L101.312 133.68V134H95.5517ZM113.076 125.88L111.776 125.24V124.92H116.476V125.24L115.396 125.88L115.396 128.82H118.896L118.896 125.88L117.816 125.24V124.92H122.516V125.24L121.216 125.88L121.216 133.04L122.516 133.68V134H117.816V133.68L118.896 133.04V129.78H115.396V133.04L116.476 133.68V134H111.776V133.68L113.076 133.04L113.076 125.88ZM146.241 134.2C145.268 134.2 144.368 134.033 143.541 133.7C142.715 133.353 141.995 132.88 141.381 132.28C140.768 131.667 140.288 130.947 139.941 130.12C139.608 129.293 139.441 128.387 139.441 127.4C139.441 126.413 139.608 125.507 139.941 124.68C140.288 123.853 140.768 123.14 141.381 122.54C141.995 121.927 142.715 121.453 143.541 121.12C144.368 120.773 145.268 120.6 146.241 120.6C147.228 120.6 148.135 120.773 148.961 121.12C149.788 121.453 150.508 121.927 151.121 122.54C151.735 123.14 152.208 123.853 152.541 124.68C152.888 125.507 153.061 126.413 153.061 127.4C153.061 128.387 152.888 129.293 152.541 130.12C152.208 130.947 151.735 131.667 151.121 132.28C150.508 132.88 149.788 133.353 148.961 133.7C148.135 134.033 147.228 134.2 146.241 134.2ZM146.601 133.18C147.348 133.18 148.001 132.967 148.561 132.54C149.135 132.113 149.581 131.513 149.901 130.74C150.221 129.967 150.381 129.053 150.381 128C150.381 126.707 150.181 125.58 149.781 124.62C149.395 123.66 148.861 122.92 148.181 122.4C147.515 121.867 146.768 121.6 145.941 121.6C145.208 121.6 144.548 121.813 143.961 122.24C143.388 122.653 142.935 123.247 142.601 124.02C142.268 124.793 142.101 125.707 142.101 126.76C142.101 128.053 142.301 129.18 142.701 130.14C143.101 131.1 143.641 131.847 144.321 132.38C145.015 132.913 145.775 133.18 146.601 133.18ZM159.717 134.2C158.811 134.2 158.004 133.987 157.297 133.56C156.604 133.133 156.064 132.567 155.677 131.86C155.291 131.14 155.097 130.34 155.097 129.46C155.097 128.58 155.291 127.787 155.677 127.08C156.064 126.36 156.604 125.787 157.297 125.36C158.004 124.933 158.811 124.72 159.717 124.72C160.637 124.72 161.444 124.933 162.137 125.36C162.831 125.787 163.371 126.36 163.757 127.08C164.144 127.787 164.337 128.58 164.337 129.46C164.337 130.34 164.144 131.14 163.757 131.86C163.371 132.567 162.831 133.133 162.137 133.56C161.444 133.987 160.637 134.2 159.717 134.2ZM159.957 133.26C160.411 133.26 160.777 133.1 161.057 132.78C161.351 132.46 161.564 132.04 161.697 131.52C161.831 131 161.897 130.447 161.897 129.86C161.897 129.14 161.811 128.46 161.637 127.82C161.477 127.167 161.224 126.64 160.877 126.24C160.531 125.84 160.077 125.64 159.517 125.64C159.064 125.64 158.691 125.8 158.397 126.12C158.104 126.44 157.884 126.86 157.737 127.38C157.604 127.9 157.537 128.453 157.537 129.04C157.537 129.76 157.617 130.44 157.777 131.08C157.951 131.72 158.217 132.247 158.577 132.66C158.937 133.06 159.397 133.26 159.957 133.26ZM181.196 134V133.68L182.876 132.86V121.94L181.196 121.12V120.8H195.076V121.12L193.436 121.94V132.86L195.076 133.68V134H189.376V133.68L190.916 132.86V121.9H185.376V132.86L186.936 133.68V134H181.196ZM198.193 125.88L196.893 125.24V124.92H207.433V125.24L206.133 125.88V133.04L207.433 133.68V134H202.733V133.68L203.813 133.04V125.88H200.513V133.04L201.593 133.68V134H196.893V133.68L198.193 133.04V125.88ZM224.224 134V133.68L225.904 132.86V121.94L224.224 121.12V120.8H230.444C232.017 120.8 233.277 121.087 234.224 121.66C235.184 122.22 235.664 123.12 235.664 124.36C235.664 125.107 235.41 125.767 234.904 126.34C234.41 126.9 233.73 127.34 232.864 127.66C232.01 127.98 231.044 128.14 229.964 128.14H228.404V132.86L230.364 133.68V134H224.224ZM228.404 121.9V127.12H229.684C230.737 127.12 231.564 126.88 232.164 126.4C232.764 125.907 233.064 125.287 233.064 124.54C233.064 123.607 232.757 122.933 232.144 122.52C231.544 122.107 230.677 121.9 229.544 121.9H228.404ZM237.127 138.6V138.28L238.427 137.64V127.08L237.187 126.1V125.9L240.347 124.72H240.547L240.707 125.94H240.827C241.321 125.513 241.801 125.207 242.267 125.02C242.734 124.82 243.234 124.72 243.767 124.72C244.394 124.72 244.961 124.9 245.467 125.26C245.987 125.607 246.401 126.107 246.707 126.76C247.014 127.4 247.167 128.167 247.167 129.06C247.167 130.14 246.954 131.067 246.527 131.84C246.114 132.6 245.554 133.187 244.847 133.6C244.154 134 243.394 134.2 242.567 134.2C241.874 134.2 241.267 134.133 240.747 134V137.64L242.247 138.28V138.6H237.127ZM242.347 126.26C241.841 126.26 241.307 126.42 240.747 126.74V132.46C241.267 132.953 241.927 133.2 242.727 133.2C243.101 133.2 243.447 133.093 243.767 132.88C244.087 132.667 244.347 132.307 244.547 131.8C244.761 131.28 244.867 130.573 244.867 129.68C244.867 128.507 244.614 127.647 244.107 127.1C243.601 126.54 243.014 126.26 242.347 126.26ZM270.949 134.2C269.562 134.2 268.355 133.92 267.329 133.36C266.315 132.8 265.529 132.033 264.969 131.06C264.409 130.073 264.129 128.96 264.129 127.72C264.129 126.747 264.322 125.833 264.709 124.98C265.095 124.113 265.622 123.353 266.289 122.7C266.955 122.047 267.715 121.533 268.569 121.16C269.422 120.787 270.322 120.6 271.269 120.6C271.949 120.6 272.522 120.647 272.989 120.74C273.469 120.82 273.889 120.933 274.249 121.08C274.622 121.213 274.995 121.373 275.369 121.56L275.549 125.2H275.189L273.589 122.4C273.175 122.12 272.802 121.92 272.469 121.8C272.135 121.667 271.749 121.6 271.309 121.6C270.442 121.6 269.662 121.84 268.969 122.32C268.275 122.8 267.729 123.473 267.329 124.34C266.929 125.207 266.729 126.207 266.729 127.34C266.729 128.553 266.922 129.593 267.309 130.46C267.695 131.327 268.215 131.993 268.869 132.46C269.535 132.927 270.275 133.16 271.089 133.16C271.689 133.16 272.202 133.08 272.629 132.92C273.069 132.76 273.475 132.567 273.849 132.34L275.389 129.88H275.729L275.469 133.18C274.909 133.487 274.269 133.733 273.549 133.92C272.842 134.107 271.975 134.2 270.949 134.2ZM282.425 134.2C281.571 134.2 280.825 134.02 280.185 133.66C279.545 133.3 279.045 132.8 278.685 132.16C278.338 131.507 278.165 130.747 278.165 129.88C278.165 128.867 278.371 127.973 278.785 127.2C279.198 126.427 279.765 125.82 280.485 125.38C281.218 124.94 282.058 124.72 283.005 124.72C283.591 124.72 284.138 124.813 284.645 125C285.165 125.173 285.551 125.407 285.805 125.7C286.018 125.953 286.125 126.153 286.125 126.3C286.125 126.487 286.038 126.647 285.865 126.78L285.005 127.52H284.865L284.165 126.58C283.938 126.273 283.698 126.033 283.445 125.86C283.191 125.687 282.865 125.6 282.465 125.6C281.798 125.6 281.285 125.9 280.925 126.5C280.578 127.1 280.405 127.913 280.405 128.94C280.405 129.54 280.505 130.1 280.705 130.62C280.918 131.127 281.251 131.54 281.705 131.86C282.171 132.167 282.785 132.32 283.545 132.32C283.918 132.32 284.318 132.267 284.745 132.16C285.171 132.053 285.625 131.873 286.105 131.62H286.165V131.9C285.845 132.54 285.358 133.087 284.705 133.54C284.065 133.98 283.305 134.2 282.425 134.2ZM305.513 134V133.68L307.593 132.86V121.9H304.573L303.073 125.04H302.753V120.8H314.953V125.04H314.633L313.133 121.9H310.113V132.86L312.173 133.68V134H305.513ZM315.851 128.34V124.92H324.911V128.34H324.551L323.171 125.88H321.531V133.04L323.151 133.68V134H317.611V133.68L319.231 133.04V125.88H317.591L316.211 128.34H315.851ZM347.231 132.9C346.764 133.473 346.318 133.833 345.891 133.98C345.478 134.127 345.078 134.2 344.691 134.2C344.398 134.2 344.211 134.16 344.131 134.08C344.051 134 344.011 133.847 344.011 133.62V132.26L344.111 132.16H344.431C345.098 132.16 345.631 132.067 346.031 131.88C346.444 131.68 346.824 131.347 347.171 130.88L342.371 121.9L340.891 121.12V120.8H346.611V121.12L344.951 121.88L348.391 128.34H348.671L352.051 121.84L350.411 121.12V120.8H354.671V121.12L353.451 121.78L349.211 129.78C348.918 130.353 348.591 130.933 348.231 131.52C347.871 132.093 347.538 132.553 347.231 132.9ZM355.82 138.82C355.513 138.82 355.32 138.773 355.24 138.68C355.173 138.6 355.14 138.453 355.14 138.24V137.02L355.24 136.92H356.14C356.473 136.92 356.74 136.893 356.94 136.84C357.14 136.787 357.32 136.647 357.48 136.42C357.653 136.193 357.853 135.827 358.08 135.32L358.66 133.96L354.82 125.82L353.54 125.24V124.92H358.76V125.24L357.36 125.84V125.92L359.76 131.02H359.88L361.78 126.02V125.92L360.46 125.24V124.92H364.32V125.24L362.88 125.92L358.9 135.58C358.78 135.887 358.673 136.14 358.58 136.34C358.5 136.553 358.407 136.753 358.3 136.94C358.193 137.14 358.04 137.38 357.84 137.66C357.573 138.047 357.253 138.333 356.88 138.52C356.507 138.72 356.153 138.82 355.82 138.82ZM394.531 134.4V134.08L396.211 133.26V132.4C394.744 132.373 393.491 132.153 392.451 131.74C391.411 131.313 390.611 130.747 390.051 130.04C389.504 129.333 389.231 128.52 389.231 127.6C389.231 126.653 389.504 125.793 390.051 125.02C390.611 124.247 391.411 123.627 392.451 123.16C393.491 122.68 394.744 122.427 396.211 122.4V121.54L394.531 120.72V120.4H400.391V120.72L398.711 121.54V122.4C400.204 122.44 401.464 122.673 402.491 123.1C403.518 123.513 404.291 124.073 404.811 124.78C405.344 125.487 405.611 126.293 405.611 127.2C405.611 128.147 405.344 129.007 404.811 129.78C404.291 130.54 403.518 131.16 402.491 131.64C401.464 132.107 400.204 132.36 398.711 132.4V133.26L400.391 134.08V134.4H394.531ZM396.211 123.4C394.824 123.4 393.758 123.733 393.011 124.4C392.278 125.053 391.911 125.907 391.911 126.96C391.911 128.227 392.291 129.247 393.051 130.02C393.824 130.793 394.878 131.24 396.211 131.36V123.4ZM402.951 127.8C402.951 126.533 402.584 125.52 401.851 124.76C401.131 123.987 400.084 123.54 398.711 123.42V131.38C400.191 131.38 401.264 131.047 401.931 130.38C402.611 129.713 402.951 128.853 402.951 127.8ZM410.949 138.6V138.28L412.249 137.64V134.18C411.236 134.113 410.342 133.873 409.569 133.46C408.796 133.047 408.189 132.5 407.749 131.82C407.322 131.14 407.109 130.38 407.109 129.54C407.109 128.673 407.322 127.887 407.749 127.18C408.189 126.473 408.796 125.907 409.569 125.48C410.342 125.053 411.236 124.807 412.249 124.74V121.28L411.009 120.3V120.1L414.369 119H414.569V124.74C415.582 124.807 416.469 125.053 417.229 125.48C417.989 125.893 418.582 126.44 419.009 127.12C419.449 127.8 419.669 128.56 419.669 129.4C419.669 130.267 419.449 131.047 419.009 131.74C418.582 132.433 417.989 133 417.229 133.44C416.469 133.867 415.582 134.113 414.569 134.18V137.64L415.789 138.28V138.6H410.949ZM409.549 129.12C409.549 129.787 409.642 130.413 409.829 131C410.029 131.573 410.329 132.06 410.729 132.46C411.129 132.86 411.636 133.12 412.249 133.24V125.62C411.329 125.687 410.649 126.053 410.209 126.72C409.769 127.373 409.549 128.173 409.549 129.12ZM417.229 129.8C417.229 129.12 417.136 128.493 416.949 127.92C416.762 127.333 416.469 126.847 416.069 126.46C415.682 126.06 415.182 125.793 414.569 125.66V133.3C415.169 133.26 415.662 133.08 416.049 132.76C416.449 132.427 416.742 132.007 416.929 131.5C417.129 130.98 417.229 130.413 417.229 129.8ZM436.088 134V133.68L437.628 132.9L441.808 127.64L437.648 121.84L436.348 121.12V120.8H442.288V121.12L440.708 121.88V121.98L443.608 125.92L446.748 121.98V121.9L445.208 121.12V120.8H449.688V121.12L448.408 121.82L444.328 126.88L448.748 132.88L450.168 133.68V134H444.128V133.68L445.568 132.94V132.86L442.488 128.6L439.168 132.84L439.148 132.92L440.768 133.68V134H436.088ZM451.182 134V133.68L452.242 133.02L454.942 129.7L452.142 125.82L451.242 125.24V124.92H456.122V125.24L454.922 125.8V125.92L456.562 128.22L458.162 126.04V125.92L457.102 125.24V124.92H460.562V125.24L459.502 125.9L457.062 128.9L460.082 133.1L460.902 133.68V134H456.182V133.68L457.322 133.12V133L455.442 130.4L453.642 132.88V133L454.802 133.68V134H451.182ZM13.1 164H1.04L1.04 163.68L2.7 162.86L2.7 151.94L1.04 151.12V150.8H6.76V151.12L5.22 151.94L5.22 162.9H10.74L10.74 151.94L9.2 151.12V150.8H14.92V151.12L13.26 151.94L13.26 162.9H15.2L15.2 167.4H14.88L13.1 164ZM18.1733 163.04L18.1733 155.88L16.8733 155.24V154.92H21.5733V155.24L20.4933 155.88L20.4933 163.04H23.7933L23.7933 155.88L22.7133 155.24V154.92H27.4133V155.24L26.1133 155.88L26.1133 163.04H27.5333V166.52H27.1733L25.6933 164H16.8733V163.68L18.1733 163.04ZM51.3417 164V163.68L53.2417 162.86V157.94C52.7884 158.113 52.2684 158.267 51.6817 158.4C51.0951 158.52 50.4484 158.58 49.7417 158.58C48.8217 158.58 48.0217 158.453 47.3417 158.2C46.6751 157.947 46.1551 157.5 45.7817 156.86C45.4217 156.207 45.2417 155.3 45.2417 154.14V151.96L43.5417 151.12V150.8H49.3417V151.12L47.7617 151.96V154.26C47.7617 155.433 47.9884 156.24 48.4417 156.68C48.8951 157.12 49.6617 157.34 50.7417 157.34C51.1551 157.34 51.5751 157.313 52.0017 157.26C52.4417 157.193 52.8551 157.067 53.2417 156.88V151.96L51.6417 151.12V150.8H57.4017V151.12L55.7417 151.96V162.86L57.4017 163.68V164H51.3417ZM59.9375 157.26V155.88L58.7775 155.24V154.92H63.2975V155.24L62.2575 155.88V157.5C62.2575 158.22 62.4042 158.72 62.6975 159C63.0042 159.267 63.4508 159.4 64.0375 159.4C64.3308 159.4 64.5908 159.387 64.8175 159.36C65.0442 159.32 65.2642 159.273 65.4775 159.22V155.88L64.4375 155.24V154.92H69.0975V155.24L67.7975 155.88V163.04L69.0975 163.68V164H64.0175V163.68L65.4775 163.04V160.02C64.8375 160.193 64.1575 160.28 63.4375 160.28C62.2242 160.28 61.3375 160.06 60.7775 159.62C60.2175 159.167 59.9375 158.38 59.9375 157.26ZM91.5433 150.8V151.12L90.0833 151.94V162.9H94.4433V151.94L92.9633 151.12V150.8H98.4233V151.12L96.9433 151.94V162.9H101.303V151.94L99.8833 151.12V150.8H105.483V151.12L103.823 151.94V162.86L105.483 163.68V164H85.9033V163.68L87.5633 162.86V151.94L85.9033 151.12V150.8H91.5433ZM108.603 163.04V155.88L107.303 155.24V154.92H112.063V155.24L110.923 155.88V163.04H114.083V155.88L112.943 155.24V154.92H117.543V155.24L116.403 155.88V163.04H119.583V155.88L118.423 155.24V154.92H123.203V155.24L121.883 155.88V163.04L123.203 163.68V164H107.303V163.68L108.603 163.04ZM145.391 150.8V151.12L143.931 151.94V162.9H148.291V151.94L146.811 151.12V150.8H152.271V151.12L150.791 151.94V162.9H155.151V151.94L153.731 151.12V150.8H159.331V151.12L157.671 151.94V162.9H159.611V167.4H159.291L157.511 164H139.751V163.68L141.411 162.86V151.94L139.751 151.12V150.8H145.391ZM162.587 163.04V155.88L161.287 155.24V154.92H166.047V155.24L164.907 155.88V163.04H168.067V155.88L166.927 155.24V154.92H171.527V155.24L170.387 155.88V163.04H173.567V155.88L172.407 155.24V154.92H177.187V155.24L175.867 155.88V163.04H177.287V166.52H176.927L175.467 164H161.287V163.68L162.587 163.04ZM202.046 164H195.886V163.68L197.546 162.86V151.9H195.446L193.946 155.04H193.626V150.8H202.126V151.12L200.066 151.94V156.18H202.066C203.199 156.18 204.186 156.333 205.026 156.64C205.879 156.947 206.539 157.38 207.006 157.94C207.486 158.5 207.726 159.167 207.726 159.94C207.726 160.74 207.486 161.447 207.006 162.06C206.539 162.66 205.879 163.133 205.026 163.48C204.173 163.827 203.179 164 202.046 164ZM201.606 157.28H200.066V162.9H201.746C202.853 162.9 203.693 162.64 204.266 162.12C204.839 161.587 205.126 160.907 205.126 160.08C205.126 159.12 204.833 158.413 204.246 157.96C203.673 157.507 202.793 157.28 201.606 157.28ZM215.194 158.4C216.394 158.4 217.354 158.527 218.074 158.78C218.794 159.02 219.314 159.347 219.634 159.76C219.954 160.16 220.114 160.593 220.114 161.06C220.114 163.02 218.44 164 215.094 164H210.914V163.68L212.234 163.04V155.88H210.794L209.414 158.34H209.054V154.92H216.174V155.24L214.534 155.88V158.4H215.194ZM215.454 159.34H214.534V163.08H215.394C216.167 163.08 216.74 162.92 217.114 162.6C217.487 162.28 217.674 161.833 217.674 161.26C217.674 160.673 217.487 160.207 217.114 159.86C216.754 159.513 216.2 159.34 215.454 159.34ZM252.786 164H246.606V163.68L248.286 162.86V151.94L246.606 151.12V150.8H252.866V151.12L250.786 151.94V156.18H252.806C253.926 156.18 254.913 156.333 255.766 156.64C256.62 156.947 257.28 157.38 257.746 157.94C258.226 158.5 258.466 159.167 258.466 159.94C258.466 160.74 258.226 161.447 257.746 162.06C257.28 162.66 256.62 163.133 255.766 163.48C254.913 163.827 253.92 164 252.786 164ZM252.346 157.28H250.786V162.9H252.486C253.593 162.9 254.426 162.64 254.986 162.12C255.56 161.587 255.846 160.907 255.846 160.08C255.846 159.12 255.56 158.413 254.986 157.96C254.413 157.507 253.533 157.28 252.346 157.28ZM260.146 164V163.68L261.806 162.86V151.94L260.146 151.12V150.8H265.986V151.12L264.326 151.94V162.86L265.986 163.68V164H260.146ZM280.65 155.88V163.04L281.95 163.68V164H277.03V163.68L278.33 163.04V155.88L277.03 155.24V154.92H281.95V155.24L280.65 155.88ZM272.13 158.4C273.33 158.4 274.29 158.527 275.01 158.78C275.73 159.02 276.25 159.347 276.57 159.76C276.89 160.16 277.05 160.593 277.05 161.06C277.05 163.02 275.377 164 272.03 164H267.85V163.68L269.15 163.04V155.88L267.85 155.24V154.92H273.09V155.24L271.47 155.88V158.4H272.13ZM272.39 159.34H271.47V163.08H272.33C273.103 163.08 273.677 162.92 274.05 162.6C274.423 162.28 274.61 161.833 274.61 161.26C274.61 160.673 274.423 160.207 274.05 159.86C273.69 159.513 273.137 159.34 272.39 159.34ZM304.935 164H298.755V163.68L300.435 162.86V151.94L298.755 151.12V150.8H305.015V151.12L302.935 151.94V156.18H304.955C306.075 156.18 307.062 156.333 307.915 156.64C308.768 156.947 309.428 157.38 309.895 157.94C310.375 158.5 310.615 159.167 310.615 159.94C310.615 160.74 310.375 161.447 309.895 162.06C309.428 162.66 308.768 163.133 307.915 163.48C307.062 163.827 306.068 164 304.935 164ZM304.495 157.28H302.935V162.9H304.635C305.742 162.9 306.575 162.64 307.135 162.12C307.708 161.587 307.995 160.907 307.995 160.08C307.995 159.12 307.708 158.413 307.135 157.96C306.562 157.507 305.682 157.28 304.495 157.28ZM316.212 158.4C317.412 158.4 318.372 158.527 319.092 158.78C319.812 159.02 320.332 159.347 320.652 159.76C320.972 160.16 321.132 160.593 321.132 161.06C321.132 163.02 319.459 164 316.112 164H311.932V163.68L313.232 163.04V155.88L311.932 155.24V154.92H317.172V155.24L315.552 155.88V158.4H316.212ZM316.472 159.34H315.552V163.08H316.412C317.185 163.08 317.759 162.92 318.132 162.6C318.505 162.28 318.692 161.833 318.692 161.26C318.692 160.673 318.505 160.207 318.132 159.86C317.772 159.513 317.219 159.34 316.472 159.34ZM343.062 163.16C343.902 163.16 344.635 162.953 345.262 162.54C345.888 162.113 346.375 161.513 346.722 160.74C347.068 159.967 347.242 159.053 347.242 158C347.242 157.907 347.242 157.813 347.242 157.72H342.882L341.822 159.4H341.502V154.94H341.822L342.882 156.62H347.162C347.015 155.593 346.735 154.707 346.322 153.96C345.908 153.213 345.388 152.64 344.762 152.24C344.135 151.827 343.448 151.62 342.702 151.62C342.262 151.62 341.868 151.667 341.522 151.76C341.188 151.84 340.848 152 340.502 152.24L338.842 155.16H338.482L338.642 151.52C339.202 151.253 339.828 151.033 340.522 150.86C341.215 150.687 342.075 150.6 343.102 150.6C344.075 150.6 344.975 150.773 345.802 151.12C346.642 151.453 347.368 151.927 347.982 152.54C348.595 153.14 349.068 153.853 349.402 154.68C349.748 155.507 349.922 156.413 349.922 157.4C349.922 158.707 349.635 159.873 349.062 160.9C348.488 161.927 347.688 162.733 346.662 163.32C345.635 163.907 344.448 164.2 343.102 164.2C342.075 164.2 341.175 164.107 340.402 163.92C339.642 163.733 338.982 163.487 338.422 163.18L338.162 159.88H338.502L340.042 162.34C340.415 162.567 340.842 162.76 341.322 162.92C341.802 163.08 342.382 163.16 343.062 163.16ZM354.174 159.84V158.88H357.854C357.748 157.947 357.481 157.167 357.054 156.54C356.628 155.9 356.028 155.58 355.254 155.58C354.841 155.58 354.488 155.673 354.194 155.86C353.914 156.033 353.654 156.307 353.414 156.68L352.774 157.66H352.474V155.36C352.901 155.147 353.388 154.987 353.934 154.88C354.481 154.773 355.034 154.72 355.594 154.72C356.581 154.72 357.428 154.933 358.134 155.36C358.854 155.787 359.401 156.36 359.774 157.08C360.161 157.787 360.354 158.58 360.354 159.46C360.354 160.34 360.161 161.14 359.774 161.86C359.388 162.567 358.848 163.133 358.154 163.56C357.461 163.987 356.654 164.2 355.734 164.2C354.894 164.2 354.221 164.14 353.714 164.02C353.208 163.9 352.721 163.727 352.254 163.5V161.2H352.594L353.134 162.1C353.414 162.54 353.734 162.86 354.094 163.06C354.454 163.26 354.934 163.36 355.534 163.36C356.054 163.36 356.488 163.193 356.834 162.86C357.194 162.513 357.461 162.073 357.634 161.54C357.821 161.007 357.914 160.447 357.914 159.86V159.84H354.174ZM377.212 164V163.68L378.892 162.86V151.94L377.212 151.12V150.8H382.972V151.12L381.392 151.94V156.64H383.452C383.559 155.467 383.912 154.427 384.512 153.52C385.112 152.613 385.885 151.9 386.832 151.38C387.792 150.86 388.859 150.6 390.032 150.6C390.979 150.6 391.852 150.773 392.652 151.12C393.465 151.453 394.165 151.927 394.752 152.54C395.352 153.14 395.819 153.853 396.152 154.68C396.485 155.507 396.652 156.413 396.652 157.4C396.652 158.387 396.485 159.293 396.152 160.12C395.819 160.947 395.352 161.667 394.752 162.28C394.165 162.88 393.465 163.353 392.652 163.7C391.852 164.033 390.979 164.2 390.032 164.2C388.805 164.2 387.705 163.927 386.732 163.38C385.759 162.82 384.972 162.053 384.372 161.08C383.785 160.107 383.465 158.993 383.412 157.74H381.392V162.86L382.972 163.68V164H377.212ZM390.392 163.18C391.099 163.18 391.719 162.967 392.252 162.54C392.799 162.113 393.219 161.513 393.512 160.74C393.819 159.967 393.972 159.053 393.972 158C393.972 156.707 393.779 155.58 393.392 154.62C393.019 153.66 392.512 152.92 391.872 152.4C391.232 151.867 390.519 151.6 389.732 151.6C389.039 151.6 388.412 151.813 387.852 152.24C387.305 152.653 386.872 153.247 386.552 154.02C386.245 154.793 386.092 155.707 386.092 156.76C386.092 158.053 386.285 159.18 386.672 160.14C387.059 161.1 387.579 161.847 388.232 162.38C388.885 162.913 389.605 163.18 390.392 163.18ZM399.853 155.88L398.553 155.24V154.92H403.473V155.24L402.173 155.88V158.82H403.713C403.793 158.047 404.026 157.353 404.413 156.74C404.813 156.113 405.326 155.62 405.953 155.26C406.58 154.9 407.3 154.72 408.113 154.72C408.993 154.72 409.766 154.933 410.433 155.36C411.113 155.787 411.64 156.36 412.013 157.08C412.386 157.787 412.573 158.58 412.573 159.46C412.573 160.34 412.386 161.14 412.013 161.86C411.64 162.58 411.113 163.153 410.433 163.58C409.766 163.993 408.993 164.2 408.113 164.2C407.273 164.2 406.526 164.007 405.873 163.62C405.22 163.22 404.7 162.687 404.313 162.02C403.94 161.353 403.726 160.607 403.673 159.78H402.173V163.04L403.473 163.68V164H398.553V163.68L399.853 163.04V155.88ZM408.373 163.26C408.786 163.26 409.12 163.1 409.373 162.78C409.626 162.46 409.813 162.04 409.933 161.52C410.066 161 410.133 160.447 410.133 159.86C410.133 159.14 410.053 158.46 409.893 157.82C409.746 157.167 409.513 156.64 409.193 156.24C408.873 155.84 408.446 155.64 407.913 155.64C407.486 155.64 407.14 155.8 406.873 156.12C406.62 156.44 406.426 156.86 406.293 157.38C406.173 157.9 406.113 158.453 406.113 159.04C406.113 159.76 406.193 160.44 406.353 161.08C406.513 161.72 406.76 162.247 407.093 162.66C407.426 163.06 407.853 163.26 408.373 163.26ZM432.558 164H428.958V163.68L430.338 162.92L433.938 157.86C432.832 157.607 432.012 157.18 431.478 156.58C430.945 155.98 430.678 155.307 430.678 154.56C430.678 153.347 431.145 152.42 432.078 151.78C433.012 151.127 434.405 150.8 436.258 150.8H441.978V151.12L440.318 151.94V162.86L441.978 163.68V164H436.238V163.68L437.798 162.84V158.26H436.358L432.558 164ZM436.618 157.22H437.798V151.9H436.718C435.572 151.9 434.705 152.133 434.118 152.6C433.545 153.053 433.258 153.693 433.258 154.52C433.258 155.307 433.538 155.953 434.098 156.46C434.672 156.967 435.512 157.22 436.618 157.22ZM449.007 164V163.68L449.987 163.04V160.08H449.127L447.207 162.96L446.687 164H443.447V163.68L444.627 163L446.907 159.76C446.227 159.627 445.694 159.373 445.307 159C444.921 158.613 444.727 158.14 444.727 157.58C444.727 156.927 444.901 156.407 445.247 156.02C445.607 155.633 446.094 155.353 446.707 155.18C447.321 155.007 448.014 154.92 448.787 154.92H453.587V155.24L452.287 155.88V163.04L453.587 163.68V164H449.007ZM448.947 159.32H449.987V155.8H449.067C448.387 155.8 447.874 155.967 447.527 156.3C447.194 156.633 447.027 157.047 447.027 157.54C447.027 158.02 447.187 158.44 447.507 158.8C447.827 159.147 448.307 159.32 448.947 159.32Z" fill="white"/>
<path d="M3 214V213.68L4.86 212.94L4.86 202.96L1.46 204.56L1.46 203.8L6.38 200.8H7.28L7.28 212.94L8.94 213.68V214H3ZM16.7627 214V213.36C17.8693 212.12 18.7827 211.08 19.5027 210.24C20.236 209.4 20.8093 208.693 21.2227 208.12C21.6493 207.547 21.9627 207.047 22.1627 206.62C22.3627 206.193 22.4893 205.78 22.5427 205.38C22.596 204.967 22.6227 204.507 22.6227 204C22.6227 203.293 22.4493 202.713 22.1027 202.26C21.756 201.807 21.2827 201.58 20.6827 201.58C19.3227 201.58 18.6427 202.333 18.6427 203.84V204.76L18.5227 204.92H17.3427C17.076 204.92 16.876 204.873 16.7427 204.78C16.6093 204.687 16.5427 204.453 16.5427 204.08C16.5427 203.707 16.656 203.333 16.8827 202.96C17.1227 202.573 17.4893 202.2 17.9827 201.84C18.3293 201.6 18.6627 201.387 18.9827 201.2C19.3027 201.013 19.656 200.867 20.0427 200.76C20.4427 200.653 20.9093 200.6 21.4427 200.6C22.1893 200.6 22.8493 200.76 23.4227 201.08C24.0093 201.4 24.4627 201.827 24.7827 202.36C25.116 202.893 25.2827 203.487 25.2827 204.14C25.2827 204.567 25.2293 204.96 25.1227 205.32C25.0293 205.68 24.856 206.053 24.6027 206.44C24.3493 206.827 23.9893 207.267 23.5227 207.76C23.0693 208.253 22.4893 208.847 21.7827 209.54C21.076 210.22 20.2093 211.04 19.1827 212H24.2627L25.3627 210.04H25.6827L25.4827 214H16.7627ZM36.6053 214.2C35.992 214.2 35.412 214.127 34.8653 213.98C34.3186 213.833 33.8186 213.607 33.3653 213.3C32.992 213.033 32.6986 212.753 32.4853 212.46C32.272 212.167 32.1653 211.853 32.1653 211.52C32.1653 211.213 32.2253 211.02 32.3453 210.94C32.4653 210.86 32.652 210.82 32.9053 210.82H34.0653L34.2453 211V211.68C34.2453 212.187 34.432 212.58 34.8053 212.86C35.192 213.127 35.7453 213.26 36.4653 213.26C37.252 213.26 37.852 213.007 38.2653 212.5C38.692 211.993 38.9053 211.347 38.9053 210.56C38.9053 209.64 38.6653 208.92 38.1853 208.4C37.7053 207.88 36.872 207.62 35.6853 207.62H34.5853V206.7H35.3853C36.252 206.7 36.9386 206.433 37.4453 205.9C37.9653 205.367 38.2253 204.68 38.2253 203.84C38.2253 203.04 38.0653 202.453 37.7453 202.08C37.4253 201.707 36.9653 201.52 36.3653 201.52C35.8453 201.52 35.412 201.687 35.0653 202.02C34.732 202.34 34.5653 202.773 34.5653 203.32V204.14L34.4053 204.32H33.2853C33.0186 204.32 32.8186 204.28 32.6853 204.2C32.552 204.107 32.4853 203.893 32.4853 203.56C32.4853 202.813 32.9453 202.153 33.8653 201.58C34.3853 201.247 34.872 201 35.3253 200.84C35.7786 200.68 36.332 200.6 36.9853 200.6C37.7186 200.6 38.3786 200.733 38.9653 201C39.5653 201.253 40.032 201.62 40.3653 202.1C40.712 202.567 40.8853 203.113 40.8853 203.74C40.8853 204.487 40.5786 205.133 39.9653 205.68C39.3653 206.227 38.592 206.607 37.6453 206.82C38.9253 206.993 39.8986 207.387 40.5653 208C41.2453 208.613 41.5853 209.42 41.5853 210.42C41.5853 211.127 41.352 211.767 40.8853 212.34C40.432 212.913 39.8253 213.367 39.0653 213.7C38.3053 214.033 37.4853 214.2 36.6053 214.2ZM50.968 214V213.68L52.848 212.94V210.36H47.408V209.84L54.348 200.8H55.248V208.88H57.628V210.36H55.248V212.94L56.928 213.68V214H50.968ZM49.328 208.88H52.848V204.16L49.328 208.88ZM67.1906 214.2C66.4706 214.2 65.8506 214.113 65.3306 213.94C64.824 213.753 64.444 213.487 64.1906 213.14C64.084 213.02 64.0306 212.887 64.0306 212.74C64.0306 212.567 64.1506 212.387 64.3906 212.2L65.2906 211.5H65.5306L65.7506 211.92C65.964 212.333 66.2306 212.66 66.5506 212.9C66.8706 213.14 67.2973 213.26 67.8306 213.26C68.5506 213.26 69.144 213 69.6106 212.48C70.0906 211.947 70.3306 211.247 70.3306 210.38C70.3306 209.78 70.2106 209.253 69.9706 208.8C69.7306 208.333 69.3306 207.967 68.7706 207.7C68.224 207.433 67.4906 207.3 66.5706 207.3C66.264 207.3 65.9573 207.32 65.6506 207.36C65.344 207.387 65.0106 207.427 64.6506 207.48V200.8H71.4706V202.62H65.6706V205.34C65.884 205.327 66.104 205.313 66.3306 205.3C66.5573 205.287 66.804 205.28 67.0706 205.28C68.364 205.28 69.404 205.473 70.1906 205.86C70.9906 206.247 71.5706 206.753 71.9306 207.38C72.304 208.007 72.4906 208.693 72.4906 209.44C72.4906 210.373 72.264 211.2 71.8106 211.92C71.3573 212.64 70.7306 213.2 69.9306 213.6C69.1306 214 68.2173 214.2 67.1906 214.2ZM84.0333 214.2C83.0866 214.2 82.2599 213.993 81.5533 213.58C80.8599 213.153 80.3133 212.567 79.9133 211.82C79.5266 211.06 79.3333 210.187 79.3333 209.2C79.3333 207.76 79.6599 206.467 80.3133 205.32C80.9799 204.173 81.9199 203.2 83.1333 202.4C84.3599 201.587 85.8199 200.987 87.5133 200.6V201.26C85.9266 201.753 84.6733 202.56 83.7533 203.68C82.8333 204.8 82.2599 206.133 82.0333 207.68C82.3933 207.2 82.8333 206.827 83.3533 206.56C83.8866 206.293 84.4933 206.16 85.1733 206.16C85.9066 206.16 86.5333 206.327 87.0533 206.66C87.5866 206.993 87.9933 207.453 88.2733 208.04C88.5666 208.613 88.7133 209.26 88.7133 209.98C88.7133 210.7 88.5399 211.387 88.1933 212.04C87.8466 212.68 87.3266 213.2 86.6333 213.6C85.9399 214 85.0733 214.2 84.0333 214.2ZM81.9333 209.14C81.9333 210.513 82.1333 211.547 82.5333 212.24C82.9466 212.92 83.4733 213.26 84.1133 213.26C84.5799 213.26 84.9666 213.12 85.2733 212.84C85.5799 212.56 85.8066 212.207 85.9533 211.78C86.0999 211.34 86.1733 210.907 86.1733 210.48C86.1733 209.573 85.9933 208.867 85.6333 208.36C85.2866 207.853 84.7533 207.6 84.0333 207.6C83.5933 207.6 83.1933 207.707 82.8333 207.92C82.4733 208.12 82.1733 208.393 81.9333 208.74C81.9333 208.873 81.9333 209.007 81.9333 209.14ZM96.2959 214C96.6293 213.213 96.9759 212.447 97.3359 211.7C97.6959 210.953 98.1026 210.167 98.5559 209.34C99.0093 208.513 99.5359 207.587 100.136 206.56C100.736 205.52 101.443 204.313 102.256 202.94H95.4359V200.8H104.056V201.42C103.576 202.34 103.076 203.32 102.556 204.36C102.049 205.4 101.549 206.467 101.056 207.56C100.576 208.64 100.143 209.727 99.7559 210.82C99.3826 211.9 99.0893 212.96 98.8759 214H96.2959ZM115.379 214.2C114.552 214.2 113.799 214.073 113.119 213.82C112.439 213.567 111.892 213.207 111.479 212.74C111.079 212.26 110.879 211.7 110.879 211.06C110.879 210.673 110.952 210.287 111.099 209.9C111.245 209.513 111.512 209.133 111.899 208.76C112.285 208.373 112.832 207.987 113.539 207.6C112.685 207.067 112.092 206.54 111.759 206.02C111.425 205.5 111.259 204.873 111.259 204.14C111.259 203.5 111.459 202.913 111.859 202.38C112.259 201.833 112.785 201.4 113.439 201.08C114.092 200.76 114.792 200.6 115.539 200.6C116.259 200.6 116.919 200.74 117.519 201.02C118.132 201.3 118.619 201.687 118.979 202.18C119.352 202.673 119.539 203.233 119.539 203.86C119.539 204.407 119.305 204.913 118.839 205.38C118.372 205.833 117.759 206.26 116.999 206.66C118.039 207.247 118.792 207.827 119.259 208.4C119.725 208.96 119.959 209.64 119.959 210.44C119.959 211.213 119.739 211.88 119.299 212.44C118.872 213 118.312 213.433 117.619 213.74C116.925 214.047 116.179 214.2 115.379 214.2ZM113.579 203.3C113.579 203.647 113.639 203.967 113.759 204.26C113.879 204.553 114.119 204.853 114.479 205.16C114.852 205.467 115.405 205.813 116.139 206.2C116.552 205.92 116.879 205.593 117.119 205.22C117.359 204.847 117.479 204.413 117.479 203.92C117.479 203.107 117.285 202.507 116.899 202.12C116.525 201.72 116.032 201.52 115.419 201.52C114.885 201.52 114.445 201.68 114.099 202C113.752 202.32 113.579 202.753 113.579 203.3ZM113.019 210.7C113.019 211.513 113.239 212.153 113.679 212.62C114.119 213.087 114.692 213.32 115.399 213.32C116.105 213.32 116.652 213.133 117.039 212.76C117.439 212.387 117.639 211.893 117.639 211.28C117.639 210.8 117.525 210.4 117.299 210.08C117.072 209.76 116.712 209.447 116.219 209.14C115.725 208.833 115.085 208.467 114.299 208.04C113.779 208.427 113.432 208.82 113.259 209.22C113.099 209.62 113.019 210.113 113.019 210.7ZM127.601 214.2V213.54C129.188 213.047 130.441 212.24 131.361 211.12C132.281 210 132.855 208.673 133.081 207.14C132.721 207.607 132.275 207.973 131.741 208.24C131.221 208.507 130.621 208.64 129.941 208.64C129.221 208.64 128.595 208.473 128.061 208.14C127.528 207.807 127.115 207.353 126.821 206.78C126.541 206.193 126.401 205.54 126.401 204.82C126.401 204.1 126.575 203.42 126.921 202.78C127.268 202.127 127.788 201.6 128.481 201.2C129.175 200.8 130.041 200.6 131.081 200.6C132.028 200.6 132.855 200.813 133.561 201.24C134.268 201.653 134.815 202.24 135.201 203C135.601 203.747 135.801 204.613 135.801 205.6C135.801 207.04 135.468 208.333 134.801 209.48C134.135 210.627 133.188 211.607 131.961 212.42C130.748 213.22 129.295 213.813 127.601 214.2ZM128.961 204.32C128.961 205.227 129.135 205.933 129.481 206.44C129.828 206.947 130.361 207.2 131.081 207.2C131.521 207.2 131.921 207.1 132.281 206.9C132.641 206.687 132.941 206.407 133.181 206.06C133.181 205.927 133.181 205.793 133.181 205.66C133.181 204.287 132.981 203.26 132.581 202.58C132.181 201.887 131.661 201.54 131.021 201.54C130.541 201.54 130.148 201.68 129.841 201.96C129.535 202.24 129.308 202.6 129.161 203.04C129.028 203.467 128.961 203.893 128.961 204.32ZM146.864 214.2C145.877 214.2 145.031 213.927 144.324 213.38C143.617 212.833 143.077 212.053 142.704 211.04C142.344 210.013 142.164 208.8 142.164 207.4C142.164 206.093 142.364 204.933 142.764 203.92C143.164 202.893 143.711 202.087 144.404 201.5C145.111 200.9 145.931 200.6 146.864 200.6C147.851 200.6 148.697 200.873 149.404 201.42C150.111 201.967 150.644 202.753 151.004 203.78C151.377 204.793 151.564 206 151.564 207.4C151.564 208.707 151.364 209.873 150.964 210.9C150.564 211.913 150.011 212.72 149.304 213.32C148.597 213.907 147.784 214.2 146.864 214.2ZM147.224 213.24C147.611 213.24 147.931 213.013 148.184 212.56C148.451 212.107 148.651 211.487 148.784 210.7C148.917 209.913 148.984 209.02 148.984 208.02C148.984 206.78 148.897 205.673 148.724 204.7C148.551 203.713 148.284 202.94 147.924 202.38C147.577 201.82 147.124 201.54 146.564 201.54C146.177 201.54 145.844 201.76 145.564 202.2C145.297 202.64 145.091 203.253 144.944 204.04C144.811 204.813 144.744 205.713 144.744 206.74C144.744 207.993 144.831 209.113 145.004 210.1C145.177 211.073 145.444 211.84 145.804 212.4C146.177 212.96 146.651 213.24 147.224 213.24Z" fill="white"/>
</svg>
