<svg width="38" height="38" viewBox="0 0 38 38" fill="none"
    xmlns="http://www.w3.org/2000/svg">
    <path fill-rule="evenodd" clip-rule="evenodd" d="M38 19C38 29.4934 29.4934 38 19 38C8.50659 38 0 29.4934 0 19C0 8.50659 8.50659 0 19 0C29.4934 0 38 8.50659 38 19ZM12.7232 17.2596C10.8199 18.0906 8.86427 18.9444 7.07604 19.9294L7.07591 19.9296C6.14216 20.6132 7.38331 21.0968 8.54759 21.5504C8.73269 21.6225 8.91585 21.6938 9.08801 21.7651C9.23128 21.8091 9.37698 21.8556 9.52462 21.9026C10.8195 22.3151 12.2634 22.7752 13.5206 22.0832C15.5857 20.8969 17.5345 19.5254 19.4819 18.1549C20.1199 17.7059 20.7578 17.257 21.3995 16.8148C21.4296 16.7955 21.4635 16.7735 21.5006 16.7495C22.0473 16.3951 23.2768 15.5982 22.822 16.6963C21.7466 17.8724 20.5947 18.9135 19.4365 19.9603C18.6559 20.6658 17.8725 21.3738 17.1078 22.1275C16.4417 22.6687 15.7501 23.757 16.4959 24.5148C18.2137 25.7174 19.9584 26.8909 21.7021 28.0636C22.2695 28.4452 22.8368 28.8268 23.403 29.2092C24.3627 29.9754 25.8625 29.3557 26.0735 28.1584C26.1673 27.6076 26.2615 27.0569 26.3557 26.5061C26.8763 23.4624 27.3971 20.4176 27.8571 17.364C27.9196 16.885 27.9905 16.4061 28.0614 15.9269C28.2333 14.7654 28.4054 13.6025 28.4591 12.4348C28.3206 11.2695 26.9077 11.5257 26.1213 11.7878C22.0797 13.3256 18.0785 14.9775 14.0931 16.6586C13.6416 16.8586 13.1839 17.0584 12.7232 17.2596Z" fill="white"/>
</svg>
